<?xml version="1.0" encoding="utf-8"?>
<!-- Generator: Adobe Illustrator 16.0.4, SVG Export Plug-In . SVG Version: 6.00 Build 0)  -->
<!DOCTYPE svg PUBLIC "-//W3C//DTD SVG 1.1//EN" "http://www.w3.org/Graphics/SVG/1.1/DTD/svg11.dtd">
<svg version="1.1" id="Layer_1" xmlns="http://www.w3.org/2000/svg" xmlns:xlink="http://www.w3.org/1999/xlink" x="0px" y="0px"
	 width="141px" height="60px" viewBox="0 0 141 60" enable-background="new 0 0 141 60" xml:space="preserve">
<path fill="#FFFFFF" d="M25.06,27.649c-0.194,0-0.348,0.15-0.373,0.364l-0.68,5.164l0.68,5.076c0.025,0.214,0.179,0.363,0.373,0.363
	c0.188,0,0.341-0.148,0.371-0.361l0,0v-0.001c0,0,0,0,0,0.001l0.806-5.078l-0.806-5.166C25.402,27.799,25.248,27.649,25.06,27.649z
	 M28.884,24.827c-0.032-0.222-0.191-0.375-0.387-0.375c-0.197,0-0.36,0.158-0.387,0.375c0,0.002-0.914,8.351-0.914,8.351
	l0.914,8.166c0.026,0.219,0.189,0.377,0.387,0.377c0.195,0,0.354-0.154,0.386-0.375l1.04-8.168L28.884,24.827z M43.289,17.124
	c-0.375,0-0.685,0.307-0.703,0.697l-0.728,15.364l0.728,9.929c0.019,0.388,0.328,0.694,0.703,0.694c0.373,0,0.682-0.307,0.704-0.696
	v0.003l0.823-9.93l-0.823-15.364C43.97,17.431,43.662,17.124,43.289,17.124z M35.833,22.464c-0.288,0-0.523,0.23-0.546,0.537
	l-0.82,10.18l0.82,9.849c0.022,0.305,0.258,0.535,0.546,0.535c0.285,0,0.52-0.23,0.545-0.535l0.932-9.849l-0.932-10.182
	C36.353,22.694,36.119,22.464,35.833,22.464z M50.865,43.807c0.465,0,0.843-0.375,0.862-0.855l0.714-9.762l-0.714-20.454
	c-0.019-0.48-0.397-0.855-0.862-0.855c-0.469,0-0.848,0.376-0.863,0.856c0,0.001-0.633,20.453-0.633,20.453l0.633,9.766
	C50.017,43.431,50.396,43.807,50.865,43.807z M66.375,43.854c0.64,0,1.168-0.527,1.18-1.175v0.007v-0.007l0.498-9.482L67.554,9.572
	c-0.011-0.647-0.54-1.175-1.18-1.175c-0.641,0-1.17,0.527-1.18,1.176L64.75,33.188c0,0.015,0.445,9.496,0.445,9.496
	C65.205,43.326,65.734,43.854,66.375,43.854z M58.56,43.816c0.557,0,1.006-0.447,1.021-1.017v0.007l0.606-9.614l-0.606-20.604
	c-0.015-0.57-0.464-1.016-1.021-1.016c-0.561,0-1.01,0.446-1.022,1.016l-0.539,20.604l0.54,9.612
	C57.55,43.369,58,43.816,58.56,43.816z M39.546,43.727c0.331,0,0.599-0.265,0.624-0.614l0.878-9.931l-0.878-9.447
	c-0.024-0.349-0.292-0.612-0.624-0.612c-0.336,0-0.604,0.265-0.625,0.616l-0.773,9.443l0.773,9.93
	C38.943,43.461,39.21,43.727,39.546,43.727z M32.15,43.182c0.242,0,0.438-0.191,0.466-0.455l0.986-9.548l-0.985-9.908
	c-0.029-0.265-0.225-0.456-0.467-0.456c-0.245,0-0.441,0.192-0.466,0.456c0,0.001-0.868,9.908-0.868,9.908l0.868,9.546
	C31.708,42.99,31.905,43.182,32.15,43.182z M62.453,12.246c-0.605,0-1.09,0.481-1.102,1.097l-0.492,19.851l0.492,9.552
	c0.012,0.608,0.496,1.089,1.102,1.089c0.604,0,1.086-0.48,1.1-1.096v0.008l0.552-9.552l-0.552-19.854
	C63.539,12.728,63.056,12.246,62.453,12.246z M47.062,43.827c0.418,0,0.763-0.341,0.783-0.776l0.768-9.863L47.845,14.31
	c-0.021-0.436-0.365-0.776-0.783-0.776c-0.422,0-0.766,0.341-0.784,0.776c0,0.001-0.68,18.878-0.68,18.878l0.681,9.867
	C46.296,43.486,46.64,43.827,47.062,43.827z M55.638,42.896v-0.005l0.66-9.7l-0.66-21.144c-0.016-0.525-0.43-0.937-0.941-0.937
	c-0.514,0-0.928,0.411-0.942,0.937L53.168,33.19l0.587,9.705c0.014,0.52,0.428,0.931,0.941,0.931c0.512,0,0.924-0.411,0.941-0.934
	V42.896z M105.557,21.003c-1.568,0-3.062,0.317-4.424,0.888c-0.91-10.308-9.555-18.394-20.098-18.394
	c-2.58,0-5.096,0.508-7.316,1.367c-0.863,0.334-1.094,0.678-1.102,1.345v36.3c0.01,0.7,0.553,1.283,1.236,1.352
	c0.029,0.003,31.498,0.019,31.703,0.019c6.316,0,11.436-5.121,11.436-11.438S111.873,21.003,105.557,21.003z M70.28,6.177
	c-0.687,0-1.251,0.564-1.261,1.257l-0.516,25.765l0.517,9.351c0.009,0.683,0.573,1.246,1.26,1.246c0.685,0,1.25-0.563,1.259-1.256
	v0.011l0.561-9.352L71.539,7.432C71.529,6.741,70.964,6.177,70.28,6.177z M33.244,51.151c-1.353-0.318-1.719-0.488-1.719-1.024
	c0-0.378,0.305-0.769,1.219-0.769c0.781,0,1.391,0.317,1.939,0.878l1.231-1.194c-0.805-0.841-1.78-1.341-3.108-1.341
	c-1.684,0-3.049,0.951-3.049,2.5c0,1.682,1.098,2.182,2.67,2.547c1.609,0.365,1.902,0.61,1.902,1.159
	c0,0.646-0.477,0.927-1.487,0.927c-0.817,0-1.585-0.28-2.183-0.977l-1.232,1.098c0.646,0.951,1.891,1.548,3.316,1.548
	c2.33,0,3.354-1.097,3.354-2.718C36.097,51.931,34.597,51.468,33.244,51.151z M41.097,47.701c-2.328,0-3.705,1.804-3.705,4.401
	s1.377,4.4,3.705,4.4s3.707-1.803,3.707-4.4S43.425,47.701,41.097,47.701z M41.097,54.809c-1.377,0-1.951-1.183-1.951-2.706
	c0-1.524,0.574-2.707,1.951-2.707c1.379,0,1.951,1.183,1.951,2.707C43.048,53.626,42.476,54.809,41.097,54.809z M51.693,52.627
	c0,1.365-0.672,2.207-1.756,2.207c-1.085,0-1.743-0.866-1.743-2.231v-4.769h-1.708v4.793c0,2.486,1.391,3.876,3.451,3.876
	c2.17,0,3.463-1.427,3.463-3.9v-4.769h-1.707V52.627z M60.763,51.444c0,0.476,0.024,1.548,0.024,1.865
	c-0.11-0.22-0.39-0.646-0.597-0.964l-3.025-4.512h-1.633v8.536h1.683v-3.756c0-0.476-0.024-1.548-0.024-1.865
	c0.109,0.219,0.391,0.646,0.597,0.964l3.134,4.657h1.524v-8.536h-1.683V51.444z M67.31,47.834h-2.67v8.536h2.547
	c2.195,0,4.366-1.269,4.366-4.268C71.553,48.98,69.749,47.834,67.31,47.834z M67.187,54.712h-0.84v-5.219h0.902
	c1.805,0,2.549,0.865,2.549,2.609C69.798,53.663,68.98,54.712,67.187,54.712z M76.832,49.396c0.768,0,1.256,0.342,1.561,0.927
	l1.586-0.731c-0.537-1.109-1.514-1.89-3.123-1.89c-2.229,0-3.791,1.804-3.791,4.401c0,2.694,1.5,4.4,3.73,4.4
	c1.549,0,2.574-0.719,3.158-1.926l-1.438-0.854c-0.451,0.757-0.904,1.086-1.672,1.086c-1.279,0-2.023-1.171-2.023-2.706
	C74.82,50.518,75.553,49.396,76.832,49.396z M83.164,47.834h-1.707v8.536h5.129v-1.684h-3.422V47.834z M91.084,47.701
	c-2.33,0-3.707,1.804-3.707,4.401s1.377,4.4,3.707,4.4c2.328,0,3.705-1.803,3.705-4.4S93.412,47.701,91.084,47.701z M91.084,54.809
	c-1.379,0-1.951-1.183-1.951-2.706c0-1.524,0.572-2.707,1.951-2.707c1.375,0,1.949,1.183,1.949,2.707
	C93.033,53.626,92.459,54.809,91.084,54.809z M101.678,52.627c0,1.365-0.67,2.207-1.754,2.207c-1.088,0-1.744-0.866-1.744-2.231
	v-4.769h-1.707v4.793c0,2.486,1.389,3.876,3.451,3.876c2.17,0,3.461-1.427,3.461-3.9v-4.769h-1.707V52.627z M108.188,47.834h-2.668
	v8.536h2.547c2.195,0,4.365-1.269,4.365-4.268C112.432,48.98,110.627,47.834,108.188,47.834z M108.066,54.712h-0.842v-5.219h0.904
	c1.803,0,2.547,0.865,2.547,2.609C110.676,53.663,109.857,54.712,108.066,54.712z"/>
</svg>
