<?xml version="1.0" encoding="utf-8"?>
<!-- Generator: Adobe Illustrator 16.0.4, SVG Export Plug-In . SVG Version: 6.00 Build 0)  -->
<!DOCTYPE svg PUBLIC "-//W3C//DTD SVG 1.1//EN" "http://www.w3.org/Graphics/SVG/1.1/DTD/svg11.dtd">
<svg version="1.1" id="_x32__flag_copy_2" xmlns="http://www.w3.org/2000/svg" xmlns:xlink="http://www.w3.org/1999/xlink" x="0px"
	 y="0px" width="877.311px" height="1177.136px" viewBox="0 0 877.311 1177.136" enable-background="new 0 0 877.311 1177.136"
	 xml:space="preserve">
<g>
	<g>
		<polygon fill="#E6E6E6" points="174.319,50.49 45.025,413.927 358.973,413.927 481.64,50.598 		"/>
		<g opacity="0.8">
			<g>
				<path d="M387.179,220.891l11.213,29.525l10.821-29.525h6.415v34.863h-4.357v-29.085l-10.921,29.085h-4.014l-11.116-29.085
					v29.085h-4.408v-34.863H387.179z"/>
				<path d="M425.126,225.983h-4.212v-5.092h4.212V225.983z M425.126,255.754h-4.212v-25.266h4.212V255.754z"/>
				<path d="M440.354,256.49c-7.835,0-11.998-5.338-11.998-13.024c0-8.423,4.701-13.712,12.144-13.712
					c6.171,0,10.039,3.232,10.726,8.96h-4.311c-0.733-3.573-2.938-5.483-6.366-5.483c-4.799,0-7.834,3.821-7.834,9.892
					c0,6.171,2.841,9.893,7.541,9.893c3.77,0,6.268-2.303,6.904-6.466h4.211C450.637,252.574,446.622,256.49,440.354,256.49z"/>
				<path d="M467.137,234.21c-0.441-0.049-0.636-0.049-1.078-0.049c-6.854,0-8.079,5.238-8.079,10.92v10.673h-4.162v-25.266h3.967
					v5.436c1.762-4.26,4.848-6.024,9.353-6.024V234.21z"/>
				<path d="M491.472,242.975c0,8.568-4.455,13.563-12.144,13.563c-7.736,0-12.34-4.995-12.34-13.319
					c0-8.325,4.75-13.466,12.39-13.466C487.017,229.753,491.472,234.602,491.472,242.975z M471.298,243.122
					c0,6.219,2.986,9.893,8.08,9.893c4.896,0,7.834-3.722,7.834-9.941c0-6.021-3.036-9.843-7.933-9.843
					C474.382,233.23,471.298,237.1,471.298,243.122z"/>
				<path d="M509.05,237.833c-0.293-3.33-2.595-4.603-6.17-4.603c-3.184,0-5.142,1.321-5.142,3.427c0,2.841,3.281,3.281,6.708,4.064
					c4.261,0.981,9.795,2.206,9.795,7.69c0,4.895-4.163,8.127-10.479,8.127c-6.856,0-10.626-3.084-10.87-8.766h4.112
					c0.246,3.819,2.84,5.339,6.855,5.339c3.722,0,6.17-1.665,6.17-4.212c0-2.792-2.841-3.378-6.365-4.26
					c-4.358-1.078-10.187-1.616-10.187-7.443c0-4.554,3.772-7.443,9.647-7.443c5.68,0,10.087,2.741,10.087,8.079H509.05z"/>
				<path d="M540.143,242.975c0,8.568-4.456,13.563-12.144,13.563c-7.737,0-12.34-4.995-12.34-13.319
					c0-8.325,4.751-13.466,12.39-13.466C535.687,229.753,540.143,234.602,540.143,242.975z M519.969,243.122
					c0,6.219,2.987,9.893,8.08,9.893c4.896,0,7.834-3.722,7.834-9.941c0-6.021-3.036-9.843-7.933-9.843
					S519.969,237.1,519.969,243.122z"/>
				<path d="M554.538,224.416c-0.54-0.098-1.469-0.194-2.301-0.194c-2.646,0-3.184,0.586-3.184,3.378v2.89h4.848v3.427h-4.848
					v21.839h-4.211v-21.839h-4.261v-3.427h4.261v-3.379c0-4.702,2.546-6.514,7.002-6.514c1.028,0,1.469,0.049,2.693,0.195V224.416z"
					/>
				<path d="M571.382,233.916h-5.043v14.739c0,2.303-0.148,3.721,2.791,3.721c0.832,0,1.371-0.048,2.252-0.146v3.573
					c-1.321,0.148-1.861,0.197-3.183,0.197c-6.316,0-6.023-3.135-6.023-8.668v-13.417h-4.261v-3.427h4.261v-7.492h4.163v7.492h5.043
					V233.916z"/>
			</g>
			<g>
				<g id="XMLID_31_">
					<g>
						<path fill="#28AADD" d="M368.42,206.132c0,0,0.608,0.041,4.205,0.084c-0.598,0.057-1.212,0.087-1.831,0.11
							c-17.296-0.059-19.22-0.194-19.22-0.194c30.919-99.9,63.761-109.365,78.062-109.365c2.245,0,4.304,0.625,6.199,1.788
							C419.122,104.172,393.153,126.211,368.42,206.132z"/>
						<path fill="#28AADD" d="M441.829,104.591c2.076,3.026,3.912,6.81,5.564,11.106c-3.369,4.064-6.357,9.042-8.705,15.144
							l-0.257,0.577c-12.877,33.438-16.229,73.925-48.805,74.913c-8.771-0.022-13.96-0.063-17.002-0.115
							c30.705-2.569,34.185-42.061,46.79-74.798l0.255-0.577C424.854,117.372,433.168,109.357,441.829,104.591z"/>
						<path fill="#28AADD" d="M499.877,199.126c-5.352,1.147-9.955,1.12-12.802,1.114c-11.877-1.859-23.604-16.106-29.081-42.898
							c-2.988-14.639-6.134-30.032-10.601-41.645c3.624-4.369,7.688-7.684,11.872-10.198c7.319,11.426,11.585,32.308,15.573,51.843
							C479.69,181.092,489.455,194.98,499.877,199.126z"/>
						<path fill="#28AADD" d="M513.63,127.343c5,15.608,7.786,36.948,13.366,52.561c-3.853,5.867-8.161,10.045-12.524,13.012
							c-10.498-14.145-13.23-44.887-19.859-65.572c-5.531-17.264-11.579-24.915-18.773-28.219c5.853-1.243,11.047-1.473,14.523-1.51
							C499.601,99.744,506.985,106.601,513.63,127.343z"/>
						<path fill="#28AADD" d="M599.825,91.936c-33.06,0.636-41.184,41.481-54.12,75.078c-3.977,10.322-9.084,17.44-14.509,22.349
							c-1.575-2.782-2.96-5.979-4.2-9.459c2.375-3.62,4.57-7.874,6.505-12.89c13.041-33.863,16.545-75.083,50.268-75.083
							c6.118,0,11.437-0.007,16.057-0.017V91.936z"/>
						<path fill="#28AADD" d="M607.997,91.887c14.39-0.066,19.095-0.169,19.095-0.169S575.351,200.247,545.7,200.247
							c-0.565,0-1.125,0-1.68,0c-1.868-0.374-3.581-1.092-5.155-2.114C567.956,179.532,606.079,96.114,607.997,91.887z"/>
						<path fill="#268ABC" d="M435.842,98.555c2.2,1.348,4.184,3.406,5.987,6.036c-8.661,4.766-16.975,12.78-22.159,26.25
							l-0.255,0.577c-12.605,32.737-16.085,72.229-46.79,74.798c-3.597-0.043-4.205-0.084-4.205-0.084
							c24.733-79.921,50.702-101.96,67.415-107.577C435.842,98.555,435.842,98.555,435.842,98.555z"/>
						<path fill="#268ABC" d="M514.472,192.916c-4.998,3.411-10.067,5.232-14.595,6.211c-10.422-4.146-20.187-18.034-25.038-41.784
							c-3.988-19.535-8.254-40.417-15.573-51.843c5.553-3.338,11.329-5.267,16.573-6.375c7.194,3.304,13.242,10.955,18.773,28.219
							C501.241,148.029,503.974,178.771,514.472,192.916z"/>
						<path fill="#268ABC" d="M599.825,91.936v-0.021c3.016-0.012,5.731-0.022,8.172-0.027
							c-1.918,4.227-40.041,87.645-69.132,106.245c-3.012-1.946-5.521-4.972-7.669-8.77c5.425-4.908,10.532-12.026,14.509-22.349
							C558.642,133.417,566.766,92.572,599.825,91.936z"/>
						<path fill="#1B578A" d="M429.636,96.718c21.414,0,36.841,0,50.86,0c3.521,0,6.797,0.185,9.866,0.896
							c-3.477,0.037-8.671,0.267-14.523,1.51c-5.244,1.108-11.021,3.037-16.573,6.375c-4.185,2.515-8.248,5.829-11.872,10.198
							c-1.652-4.297-3.488-8.08-5.564-11.106c-1.804-2.63-3.787-4.688-5.987-6.036c0,0,0,0-0.007,0
							c-1.896-1.163-3.954-1.788-6.199-1.788V96.718z"/>
						<path fill="#1B578A" d="M538.865,198.132c1.574,1.022,3.287,1.74,5.155,2.114c-28.495,0.005-41.752,0.207-54.266,0.207
							c-0.893,0-1.783-0.071-2.68-0.213c2.847,0.006,7.45,0.033,12.802-1.114c4.527-0.979,9.597-2.8,14.595-6.211
							c4.363-2.967,8.672-7.145,12.524-13.012c1.24,3.48,2.625,6.677,4.2,9.459C533.344,193.161,535.854,196.186,538.865,198.132z"
							/>
					</g>
				</g>
			</g>
			<g opacity="0.2">
				<path d="M445.801,111.854c-1.227,1.178-2.417,2.46-3.569,3.846c-3.369,4.063-6.358,9.042-8.706,15.14l-0.254,0.575
					c-12.933,33.597-16.258,74.3-49.252,74.936c1.401,0.005,2.859,0.005,4.381,0.005c33.721,0,36.997-41.077,50.031-74.94
					l0.257-0.575c1.505-3.902,3.271-7.353,5.232-10.391c1.099-1.706,2.261-3.288,3.473-4.749
					c11.824-14.268,28.363-17.291,38.48-17.921c-0.222-0.054-0.451-0.113-0.674-0.161
					C477.001,97.709,459.326,98.834,445.801,111.854z M513.63,127.338c-6.645-20.74-14.029-27.598-23.268-29.721
					c-1.281,0.015-2.793,0.054-4.488,0.161c8.928,2.311,16.111,9.331,22.594,29.56c4.999,15.616,7.787,36.956,13.367,52.567
					c0.564,1.586,1.163,3.117,1.793,4.575c1.157-1.396,2.277-2.918,3.368-4.575c-0.657-1.832-1.271-3.74-1.858-5.707
					C520.737,159.371,518.048,141.124,513.63,127.338z M621.896,91.792c-1.456,3.043-49.387,102.714-78.892,108.214
					c0.33,0.092,0.674,0.171,1.016,0.238h1.68c29.65,0,81.392-108.522,81.392-108.522S625.641,91.754,621.896,91.792z"/>
				<path d="M499.877,199.126c-5.352,1.147-9.955,1.12-12.802,1.114c-11.877-1.859-23.604-16.106-29.081-42.898
					c-2.988-14.639-6.134-30.032-10.601-41.645c3.624-4.369,7.688-7.684,11.872-10.198c7.319,11.426,11.585,32.308,15.573,51.843
					C479.69,181.092,489.455,194.98,499.877,199.126z"/>
				<path d="M513.63,127.343c5,15.608,7.786,36.948,13.366,52.561c-3.853,5.867-8.161,10.045-12.524,13.012
					c-10.498-14.145-13.23-44.887-19.859-65.572c-5.531-17.264-11.579-24.915-18.773-28.219c5.853-1.243,11.047-1.473,14.523-1.51
					C499.601,99.744,506.985,106.601,513.63,127.343z"/>
				<path d="M514.472,192.916c-4.998,3.411-10.067,5.232-14.595,6.211c-10.422-4.146-20.187-18.034-25.038-41.784
					c-3.988-19.535-8.254-40.417-15.573-51.843c5.553-3.338,11.329-5.267,16.573-6.375c7.194,3.304,13.242,10.955,18.773,28.219
					C501.241,148.029,503.974,178.771,514.472,192.916z"/>
				<g>
					<path fill="#FFFFFF" d="M583.769,91.927c-33.723,0-37.227,41.225-50.268,75.084c-0.402,1.048-0.819,2.064-1.243,3.049
						c-1.621,3.722-3.387,6.987-5.262,9.846c-10.274,15.652-23.792,19.268-32.905,20.092c0.424,0.1,0.842,0.179,1.266,0.246
						c6.423,0.005,21.745,0.156,34.504-13.427c1.869-1.995,3.689-4.283,5.417-6.911c2.369-3.614,4.571-7.874,6.504-12.895
						c13.035-33.859,16.541-75.084,50.263-75.084H583.769z M351.574,206.132h8.282c27.619-89.248,56.777-106.314,72.877-108.945
						c-0.988-0.276-2.021-0.417-3.098-0.417C415.335,96.77,382.493,106.229,351.574,206.132z"/>
				</g>
			</g>
			<rect x="380.923" y="266.858" width="10.354" height="86.643"/>
			<polygon points="448.22,353.5 437.867,353.5 383.92,266.858 394.273,266.858 			"/>
			<rect x="440.592" y="266.858" width="10.354" height="86.643"/>
			<rect x="470.291" y="266.858" width="10.354" height="86.643"/>
			<rect x="550.938" y="266.858" width="10.354" height="86.643"/>
			<rect x="526.145" y="266.858" width="59.942" height="10.354"/>
			<rect x="470.562" y="266.858" width="44.958" height="10.354"/>
			<rect x="470.562" y="343.148" width="44.958" height="10.353"/>
			<rect x="470.562" y="304.458" width="41.961" height="10.354"/>
			<circle cx="359.074" cy="348.568" r="6.583"/>
			<g>
				<rect x="581.723" y="191.855" width="1.59" height="8.37"/>
				<rect x="576.216" y="191.855" width="1.588" height="8.37"/>
				<rect x="572.825" y="191.855" width="8.369" height="1.591"/>
				<rect x="588.717" y="191.855" width="1.588" height="8.37"/>
				<polygon points="586.861,200.225 585.272,200.225 588.717,191.855 590.305,191.855 				"/>
				<polygon points="585.324,200.225 586.914,200.225 583.472,191.855 581.882,191.855 				"/>
			</g>
			<g>
				<g>
					<path d="M582.208,237.5l-1.777-2.943c-0.122,0.014-0.268,0.014-0.402,0.014h-1.473v2.93h-0.921v-7.863h2.394
						c1.842,0,2.942,0.968,2.942,2.484c0,1.122-0.595,1.921-1.641,2.256l1.91,3.123H582.208z M580.117,233.75
						c1.259,0,1.909-0.687,1.909-1.629c0-1.002-0.707-1.619-1.909-1.619h-1.562v3.248H580.117z"/>
				</g>
				<circle fill="none" stroke="#000000" stroke-width="0.75" cx="580.438" cy="233.568" r="5.998"/>
			</g>
		</g>
		<polygon opacity="0.2" points="481.642,50.598 358.976,413.927 316.039,413.927 438.705,50.598 		"/>
		<polygon fill="#808080" points="347.186,383.77 358.915,413.927 370.097,381.51 		"/>
		<polygon fill="#FAFAFA" points="468.792,23.352 347.243,383.77 722.367,383.77 846.647,23.352 		"/>
	</g>
	<g>
		
			<line fill="none" stroke="#000000" stroke-width="10" stroke-linecap="round" x1="712.672" y1="414.108" x2="847.896" y2="22.593"/>
		<ellipse cx="851.568" cy="10.518" rx="9.945" ry="9.702"/>
	</g>
	<g>
		<defs>
			<polygon id="SVGID_1_" points="626.987,378.93 349.045,378.93 465.466,33.926 721.411,33.926 			"/>
		</defs>
		<clipPath id="SVGID_2_">
			<use xlink:href="#SVGID_1_"  overflow="visible"/>
		</clipPath>
		<g clip-path="url(#SVGID_2_)">
			<g>
				<path d="M390.808,213.414l11.213,29.525l10.821-29.525h6.415v34.863h-4.358v-29.085l-10.921,29.085h-4.014l-11.116-29.085
					v29.085h-4.407v-34.863H390.808z"/>
				<path d="M428.754,218.505h-4.212v-5.092h4.212V218.505z M428.754,248.277h-4.212v-25.266h4.212V248.277z"/>
				<path d="M443.981,249.012c-7.835,0-11.997-5.338-11.997-13.024c0-8.423,4.701-13.712,12.144-13.712
					c6.171,0,10.038,3.232,10.725,8.96h-4.31c-0.734-3.573-2.938-5.483-6.366-5.483c-4.799,0-7.834,3.821-7.834,9.892
					c0,6.171,2.84,9.893,7.54,9.893c3.771,0,6.268-2.303,6.904-6.466h4.212C454.265,245.096,450.25,249.012,443.981,249.012z"/>
				<path d="M470.766,226.733c-0.441-0.049-0.637-0.049-1.079-0.049c-6.854,0-8.078,5.238-8.078,10.92v10.673h-4.162v-25.266h3.966
					v5.436c1.763-4.26,4.849-6.024,9.354-6.024V226.733z"/>
				<path d="M495.101,235.498c0,8.568-4.455,13.563-12.144,13.563c-7.736,0-12.341-4.995-12.341-13.319
					c0-8.325,4.751-13.466,12.39-13.466C490.646,222.276,495.101,227.125,495.101,235.498z M474.927,235.644
					c0,6.219,2.986,9.893,8.079,9.893c4.896,0,7.834-3.722,7.834-9.941c0-6.021-3.036-9.843-7.933-9.843
					S474.927,229.623,474.927,235.644z"/>
				<path d="M512.679,230.355c-0.294-3.33-2.596-4.603-6.17-4.603c-3.184,0-5.143,1.321-5.143,3.427
					c0,2.841,3.282,3.281,6.709,4.064c4.261,0.981,9.794,2.206,9.794,7.689c0,4.896-4.162,8.128-10.479,8.128
					c-6.855,0-10.626-3.084-10.87-8.766h4.113c0.245,3.819,2.839,5.339,6.854,5.339c3.723,0,6.17-1.665,6.17-4.212
					c0-2.792-2.84-3.378-6.365-4.26c-4.357-1.078-10.187-1.616-10.187-7.443c0-4.554,3.772-7.443,9.648-7.443
					c5.679,0,10.087,2.741,10.087,8.079H512.679z"/>
				<path d="M543.771,235.498c0,8.568-4.456,13.563-12.145,13.563c-7.736,0-12.339-4.995-12.339-13.319
					c0-8.325,4.75-13.466,12.39-13.466C539.315,222.276,543.771,227.125,543.771,235.498z M523.597,235.644
					c0,6.219,2.987,9.893,8.081,9.893c4.896,0,7.834-3.722,7.834-9.941c0-6.021-3.036-9.843-7.933-9.843
					S523.597,229.623,523.597,235.644z"/>
				<path d="M558.167,216.938c-0.54-0.098-1.469-0.194-2.302-0.194c-2.646,0-3.183,0.586-3.183,3.378v2.89h4.848v3.427h-4.848
					v21.839h-4.211v-21.839h-4.261v-3.427h4.261v-3.379c0-4.702,2.546-6.514,7.002-6.514c1.028,0,1.469,0.049,2.693,0.195V216.938z"
					/>
				<path d="M575.01,226.438h-5.043v14.739c0,2.303-0.147,3.721,2.791,3.721c0.833,0,1.371-0.048,2.252-0.146v3.573
					c-1.321,0.148-1.86,0.197-3.182,0.197c-6.317,0-6.023-3.135-6.023-8.668v-13.417h-4.261v-3.427h4.261v-7.492h4.162v7.492h5.043
					V226.438z"/>
			</g>
			<g>
				<g id="XMLID_30_">
					<g>
						<path fill="#28AADD" d="M372.049,198.655c0,0,0.608,0.041,4.204,0.084c-0.597,0.057-1.211,0.087-1.831,0.11
							c-17.296-0.059-19.219-0.194-19.219-0.194C386.122,98.753,418.964,89.29,433.265,89.29c2.244,0,4.304,0.625,6.199,1.788
							C422.751,96.695,396.782,118.734,372.049,198.655z"/>
						<path fill="#28AADD" d="M445.458,97.114c2.076,3.026,3.912,6.81,5.564,11.105c-3.37,4.065-6.358,9.043-8.706,15.145
							l-0.256,0.577c-12.877,33.438-16.23,73.925-48.806,74.913c-8.77-0.022-13.959-0.063-17.002-0.115
							c30.706-2.569,34.185-42.061,46.79-74.798l0.256-0.577C428.482,109.894,436.796,101.879,445.458,97.114z"/>
						<path fill="#28AADD" d="M503.505,191.649c-5.352,1.147-9.954,1.119-12.802,1.114c-11.876-1.859-23.604-16.106-29.081-42.898
							c-2.988-14.639-6.134-30.032-10.6-41.646c3.623-4.368,7.688-7.683,11.872-10.198c7.319,11.427,11.585,32.309,15.573,51.844
							C483.319,173.614,493.083,187.502,503.505,191.649z"/>
						<path fill="#28AADD" d="M517.258,119.865c5,15.609,7.787,36.949,13.367,52.562c-3.853,5.867-8.161,10.045-12.524,13.012
							c-10.498-14.145-13.231-44.887-19.859-65.573c-5.532-17.264-11.579-24.914-18.774-28.218
							c5.853-1.243,11.048-1.473,14.524-1.51C503.229,92.266,510.613,99.124,517.258,119.865z"/>
						<path fill="#28AADD" d="M603.454,84.458c-33.06,0.636-41.184,41.481-54.121,75.078c-3.977,10.322-9.084,17.44-14.508,22.349
							c-1.575-2.782-2.961-5.979-4.2-9.459c2.374-3.62,4.57-7.874,6.505-12.89c13.041-33.863,16.545-75.083,50.268-75.083
							c6.118,0,11.437-0.007,16.057-0.017V84.458z"/>
						<path fill="#28AADD" d="M611.626,84.41c14.389-0.066,19.094-0.169,19.094-0.169s-51.74,108.527-81.392,108.527
							c-0.565,0-1.124,0-1.679,0c-1.868-0.373-3.582-1.091-5.156-2.113C571.585,172.054,609.707,88.636,611.626,84.41z"/>
						<path fill="#268ABC" d="M439.471,91.078c2.199,1.348,4.184,3.406,5.987,6.036c-8.662,4.766-16.976,12.78-22.159,26.25
							l-0.256,0.577c-12.605,32.737-16.084,72.229-46.79,74.798c-3.596-0.043-4.204-0.084-4.204-0.084
							c24.733-79.921,50.702-101.96,67.415-107.577C439.471,91.078,439.471,91.078,439.471,91.078z"/>
						<path fill="#268ABC" d="M518.101,185.438c-4.999,3.411-10.068,5.232-14.596,6.211c-10.422-4.146-20.186-18.035-25.037-41.784
							c-3.988-19.535-8.254-40.417-15.573-51.844c5.553-3.337,11.328-5.266,16.572-6.374c7.195,3.304,13.242,10.954,18.774,28.218
							C504.869,140.551,507.603,171.293,518.101,185.438z"/>
						<path fill="#268ABC" d="M603.454,84.458v-0.021c3.015-0.012,5.731-0.022,8.172-0.027
							c-1.919,4.227-40.041,87.645-69.133,106.245c-3.011-1.946-5.521-4.972-7.668-8.77c5.424-4.908,10.531-12.026,14.508-22.349
							C562.271,125.94,570.395,85.094,603.454,84.458z"/>
						<path fill="#1B578A" d="M433.265,89.241c21.413,0,36.84,0,50.859,0c3.521,0,6.798,0.185,9.867,0.896
							c-3.477,0.037-8.672,0.267-14.524,1.51c-5.244,1.108-11.02,3.037-16.572,6.374c-4.185,2.516-8.249,5.83-11.872,10.198
							c-1.652-4.296-3.488-8.079-5.564-11.105c-1.804-2.63-3.788-4.688-5.987-6.036c0,0,0,0-0.007,0
							c-1.896-1.163-3.955-1.788-6.199-1.788V89.241z"/>
						<path fill="#1B578A" d="M542.493,190.655c1.574,1.022,3.288,1.74,5.156,2.113c-28.495,0.006-41.752,0.208-54.267,0.208
							c-0.892,0-1.782-0.072-2.68-0.213c2.848,0.005,7.45,0.033,12.802-1.114c4.527-0.979,9.597-2.8,14.596-6.211
							c4.363-2.967,8.672-7.145,12.524-13.012c1.239,3.48,2.625,6.677,4.2,9.459C536.972,185.683,539.482,188.708,542.493,190.655z"
							/>
					</g>
				</g>
			</g>
			<g opacity="0.2">
				<path d="M449.429,104.376c-1.227,1.178-2.417,2.46-3.569,3.846c-3.368,4.063-6.357,9.042-8.705,15.14l-0.255,0.575
					c-12.932,33.597-16.257,74.3-49.251,74.936c1.401,0.005,2.859,0.005,4.38,0.005c33.722,0,36.998-41.077,50.032-74.94
					l0.256-0.575c1.505-3.902,3.271-7.353,5.233-10.391c1.098-1.706,2.26-3.288,3.473-4.749
					c11.823-14.268,28.363-17.291,38.48-17.921c-0.222-0.054-0.451-0.113-0.675-0.161C480.63,90.232,462.954,91.357,449.429,104.376
					z M517.258,119.861c-6.645-20.74-14.029-27.598-23.267-29.721c-1.282,0.015-2.793,0.054-4.488,0.161
					c8.927,2.311,16.11,9.331,22.594,29.56c4.998,15.616,7.786,36.956,13.366,52.567c0.565,1.586,1.163,3.117,1.794,4.574
					c1.157-1.396,2.277-2.917,3.368-4.574c-0.657-1.832-1.271-3.74-1.859-5.707C524.366,151.893,521.677,133.646,517.258,119.861z
					 M625.525,84.314c-1.456,3.043-49.388,102.714-78.892,108.214c0.33,0.092,0.674,0.171,1.016,0.238h1.679
					c29.651,0,81.392-108.522,81.392-108.522S629.27,84.277,625.525,84.314z"/>
				<path d="M503.505,191.649c-5.352,1.147-9.954,1.119-12.802,1.114c-11.876-1.859-23.604-16.106-29.081-42.898
					c-2.988-14.639-6.134-30.032-10.6-41.646c3.623-4.368,7.688-7.683,11.872-10.198c7.319,11.427,11.585,32.309,15.573,51.844
					C483.319,173.614,493.083,187.502,503.505,191.649z"/>
				<path d="M517.258,119.865c5,15.609,7.787,36.949,13.367,52.562c-3.853,5.867-8.161,10.045-12.524,13.012
					c-10.498-14.145-13.231-44.887-19.859-65.573c-5.532-17.264-11.579-24.914-18.774-28.218c5.853-1.243,11.048-1.473,14.524-1.51
					C503.229,92.266,510.613,99.124,517.258,119.865z"/>
				<path d="M518.101,185.438c-4.999,3.411-10.068,5.232-14.596,6.211c-10.422-4.146-20.186-18.035-25.037-41.784
					c-3.988-19.535-8.254-40.417-15.573-51.844c5.553-3.337,11.328-5.266,16.572-6.374c7.195,3.304,13.242,10.954,18.774,28.218
					C504.869,140.551,507.603,171.293,518.101,185.438z"/>
				<g>
					<path fill="#FFFFFF" d="M587.397,84.45c-33.723,0-37.227,41.225-50.268,75.084c-0.402,1.048-0.819,2.064-1.244,3.048
						c-1.62,3.723-3.386,6.988-5.261,9.847c-10.274,15.652-23.793,19.267-32.906,20.092c0.425,0.1,0.842,0.179,1.267,0.246
						c6.422,0.005,21.744,0.156,34.504-13.427c1.869-1.996,3.688-4.283,5.417-6.911c2.368-3.614,4.57-7.874,6.504-12.895
						c13.035-33.859,16.541-75.084,50.262-75.084H587.397z M355.203,198.655h8.281c27.619-89.248,56.778-106.314,72.878-108.945
						c-0.989-0.276-2.022-0.417-3.098-0.417C418.964,89.292,386.122,98.751,355.203,198.655z"/>
				</g>
			</g>
			<rect x="384.552" y="259.38" width="10.354" height="86.643"/>
			<polygon points="451.848,346.023 441.495,346.023 387.549,259.38 397.902,259.38 			"/>
			<rect x="444.22" y="259.38" width="10.354" height="86.643"/>
			<rect x="473.919" y="259.38" width="10.354" height="86.643"/>
			<rect x="554.567" y="259.38" width="10.354" height="86.643"/>
			<rect x="529.773" y="259.38" width="59.941" height="10.354"/>
			<rect x="474.189" y="259.38" width="44.959" height="10.354"/>
			<rect x="474.189" y="335.67" width="44.959" height="10.353"/>
			<rect x="474.189" y="296.98" width="41.962" height="10.354"/>
			<circle cx="362.703" cy="341.09" r="6.583"/>
			<g>
				<rect x="585.352" y="184.377" width="1.59" height="8.37"/>
				<rect x="579.844" y="184.377" width="1.589" height="8.37"/>
				<rect x="576.454" y="184.377" width="8.368" height="1.591"/>
				<rect x="592.345" y="184.377" width="1.589" height="8.37"/>
				<polygon points="590.49,192.748 588.9,192.748 592.345,184.377 593.934,184.377 				"/>
				<polygon points="588.953,192.748 590.542,192.748 587.1,184.377 585.511,184.377 				"/>
			</g>
			<g>
				<g>
					<path d="M585.836,230.022l-1.776-2.943c-0.123,0.013-0.269,0.013-0.403,0.013h-1.472v2.931h-0.921v-7.863h2.393
						c1.842,0,2.943,0.968,2.943,2.484c0,1.122-0.596,1.921-1.642,2.256l1.91,3.123H585.836z M583.746,226.272
						c1.259,0,1.909-0.687,1.909-1.629c0-1.002-0.708-1.619-1.909-1.619h-1.562v3.248H583.746z"/>
				</g>
				<circle fill="none" stroke="#000000" stroke-width="0.75" cx="584.066" cy="226.09" r="5.998"/>
			</g>
		</g>
	</g>
	<g>
		<path fill="#94C609" d="M409.874,643.702c0-18.836-14.857-49.526-54.353-43.291v51L409.874,643.702z"/>
		<g>
			<ellipse fill="#FAAF40" cx="441.49" cy="709" rx="73.916" ry="75.732"/>
			<g>
				<circle fill="#FAAF40" cx="705.489" cy="444.01" r="48.519"/>
				<path fill="#FAAF40" d="M638.636,620.047c0,0,15.425-8.26,35.501-56.885c20.075-48.625,40.141-69.711,52.271-75.137
					c0,0-62.326-18.271-59.666-14.787c5.18,6.781,2.537,20.248-16.029,30.08c-11.383,6.031-75.59,32.905-89.623,87.393
					C554.761,615.278,582.475,658.799,638.636,620.047z"/>
				<path fill="#FAAF40" d="M557.141,726.098c31.737-20.641,56.21-44.977,79.748-100.664c7.881-18.642-17.628-54.04-64.929-48.267
					c0,0-80.924,8.804-108.35,74.429c-27.425,65.625,22.053,116.705,22.053,116.705S514.198,754.028,557.141,726.098z"/>
			</g>
		</g>
		<polygon fill="#FAAF40" points="372.882,665.594 376.138,739.932 308.94,739.932 250.398,739.932 253.171,681.493 
			257.862,582.614 369.248,582.614 		"/>
		<g>
			
				<ellipse transform="matrix(0.8341 0.5516 -0.5516 0.8341 458.9272 -7.3152)" fill="#FAAF40" cx="241.625" cy="759.332" rx="70.801" ry="72.539"/>
			<path fill="#FAAF40" d="M73.199,816.112c16.247,9.309,100.114,39.859,180.649-6.469c-24.211-35.871-9.433-45.754,0.045-85.215
				c-39.704-22.418-107.118-21.016-144.174,24.908c0,0-14.007,24.359-14.461,41.82C94.805,808.62,73.199,816.112,73.199,816.112z"/>
			<g>
				<path fill="#FAAF40" d="M79.669,820.057c0,0-31.493-12.514-48.181-51.627c-19.872-46.58,12.546-154.609,58.21-170.062
					c-22.853,8.789-27.336,30.539-18.579,53.355c5.454,14.121,6.9,21.838,20.67,25.135c-0.062,0.016,1.381,1.502,2.935,1.373
					c-14.883,4.811-13.167,28.848,4.441,44.33c26.928,22.012,23.011,33.633,26.296,44.934
					C126.221,780.971,111.921,837.071,79.669,820.057z"/>
				<path fill="#FAAF40" d="M146.855,623.766c-8.779-22.803-34.355-34.172-57.157-25.398c-22.853,8.789-34.22,34.359-25.464,57.176
					c5.455,14.121,17.351,23.906,31.119,27.205l0.052-0.027c8.354,2.016,17.403,1.592,26.067-1.752
					C144.268,672.198,155.62,646.563,146.855,623.766z"/>
			</g>
		</g>
		<g>
			<path fill="#7BA800" d="M244.79,822.764l-30.112,5.182c-16.5,6.5-49.5,8-49.5,8c-9-34-14.5-110-13.5-118
				c0,0,13.629-6.617,37.796-8.229c0,0,9.942-10.209,24.033-16.65c14.098-6.445,31.283-6.043,31.283-6.043
				c6.897,0.219,7.73,0.885,7.73,0.885L244.79,822.764z"/>
			<g id="XMLID_36_">
				<g>
					<path fill="#7BA800" d="M134.475,727.036c-6.29,3.939-12.12,8.531-17.391,13.74c-3.95-5.879-9.76-11.91-17.729-18.43
						c-8.891-7.82-14.42-18.67-14.42-28.33c0-3.541,0.779-6.721,2.229-9.291c-21.39-6.709-32.39-27.67-38.13-44.73
						c-1.85,3.461-3.62,7.111-5.33,10.932c-18.59,41.539-23.83,91-12.479,117.619c16.55,38.771,48.02,51.65,48.31,51.76
						c15.986,5.771,48.786,16.771,88.286,15.439l-5.133-121.502C162.688,714.243,149.595,716.995,134.475,727.036z"/>
				</g>
			</g>
			<path fill="#7FBA00" d="M90.188,681.077l-4.333,10.832l-53.333-21c0,0,13.333-27.166,15.833-31.666L90.188,681.077z"/>
		</g>
		<g id="XMLID_38_">
			<path fill="#FAAF40" d="M430.47,948.86c-4.538-7.699-0.03-41.125-0.03-41.125c0-3.82,0.48-7.32,1.351-10.609
				c8.26-30.971,37.184-48.488,39.043-118.098c-2.22-74.041-50.264-127.082-126.724-127.082c-12.85,0-25.31,1.68-37.14,4.82
				c-59.86,15.889-103.86,69.27-103.86,132.68c0,1.82,0.04,3.631,0.101,5.43c0.53,13.191,2.96,25.9,7.04,37.891
				c0,0.02,0.01,0.039,0.029,0.068c4.801,12.951,11.631,24.932,19.03,36.471c20.15,31.381,44.601,59.461,44.601,94.891
				c0,0,0,5.98,0,12.449v112.635h81.52v-98.65l-0.13-0.17l-0.08-0.09h0.25l-0.04,0.021v0.238l55.246,104.211l85.265-5.561
				C495.94,1089.28,432.004,951.463,430.47,948.86z"/>
			<g>
				<path d="M355.43,1089.28v87.041h-145.4c0-59.781,55-63.99,63.881-64.23v-22.811H355.43z"/>
				<path d="M508.865,1115.459c-1.17-0.059-2.34-0.09-3.52-0.09c-23.91,0-44.94,12.311-57.1,30.941
					c-5.761,8.799-9.53,19.02-10.681,30.01h135.561C569.646,1143.221,542.476,1117.17,508.865,1115.459z"/>
				<polygon points="483.356,1062.01 517.675,1129.28 448.647,1169.645 407.166,1088.014 				"/>
			</g>
		</g>
		<g>
			<path opacity="0.2" d="M370.833,620.28c0,0-28.5,55.666-88.666,55.666c-7.841,0-29.562-8.244-28.061-39.744L370.833,620.28z"/>
			<g>
				<path fill="#FAAF40" d="M375.643,503.737c-11.205-41.768-39.82-58.514-76.567-56.201c-37.749,2.385-67.265,32.094-70.564,68.645
					c-0.031,0.275-0.019,0.545-0.034,0.812c0,0-4.189,54.577-3.861,58.83c5.218,67.789,32.762,84.363,78.218,81.457
					c45.446-2.922,89.276-46.562,86.365-92.002C389.021,562.498,375.643,503.737,375.643,503.737z"/>
				<path fill="#FAAF40" d="M374.542,528.815c3.004-7.631,11.575-9.258,15.932-4.692c8.024,8.423,14.803,29.217-4.092,37.026"/>
			</g>
			<g>
				<g opacity="0.2">
					<g>
						<path d="M233.124,603.661c1.378-1.658,2.646-3.348,3.782-4.9c4.429-6.041,11.941-16.826,24.105-17.415
							c12.161-0.596,15.416,6.854,16.214,9.351c0.815,2.5,1.732,9.248-3.338,14.974c-2.111,2.384-21.484,14.913-37.847,19.685
							c-0.032,0.01-0.097,0.029-0.097,0.029s-3.467-6.582-2.927-9.543c0.558-3.055,5.103-2.532,3.703-5.2
							C234.611,606.622,233.124,603.661,233.124,603.661z"/>
						<path d="M329.206,597.255c0.666-3.664,5.13-6.351,9.113-4.857c3.702,1.386,7.064,11.59-3.693,12.936
							c-7.18,0.902-14.605-6.331-19.787-11.734c-5.186-5.406-14.048-15.105-26.187-14.085c-12.122,1.014-14.374,8.826-14.847,11.409
							c-0.461,2.583-1.303,8.277,5.287,14.4c3.41,3.172,31.284,18.394,57.435,11.659c23.369-6.017,13.585-31.518,2.903-31.258
							C327.671,586.01,329.206,597.255,329.206,597.255z"/>
					</g>
				</g>
				<g>
					<path d="M223.416,600.405c-1.146-3.544-5.917-5.614-9.669-3.613c-3.496,1.866-5.479,12.424,5.368,12.336
						c7.228-0.054,13.631-8.203,18.06-14.242c4.428-6.041,11.94-16.825,24.105-17.416c12.16-0.597,15.415,6.854,16.213,9.353
						c0.816,2.5-0.374,11.38-3.339,14.972c-2.946,3.609-28.575,22.357-55.396,19.131c-23.959-2.875-17.624-29.443-6.994-30.598
						C223.454,589.055,223.416,600.405,223.416,600.405z"/>
					<path d="M329.474,593.38c0.666-3.664,5.131-6.352,9.113-4.86c3.702,1.389,7.065,11.592-3.692,12.938
						c-7.18,0.901-14.605-6.333-19.787-11.735c-5.186-5.405-14.049-15.105-26.188-14.086c-12.122,1.013-14.374,8.828-14.846,11.41
						c-0.461,2.584,1.881,11.229,5.285,14.401c3.397,3.187,31.286,18.394,57.436,11.658c23.37-6.015,13.586-31.518,2.904-31.258
						C327.938,582.136,329.474,593.38,329.474,593.38z"/>
				</g>
			</g>
			<path d="M292.913,534.567c-1.238-1.054-1.38-2.922-0.286-4.155l0,0c3.061-3.521,7.293-5.167,11.336-5.962l0,0
				c8.115-1.543,16.078,0.183,16.271,0.197l0,0c1.578,0.334,2.596,1.887,2.265,3.482l0,0c-0.326,1.592-1.897,2.609-3.459,2.283l0,0
				c-0.025,0.027-1.879-0.363-4.558-0.571l0,0c-2.665-0.219-6.133-0.272-9.396,0.375l0,0c-3.312,0.642-6.226,1.938-8.035,4.054l0,0
				c-0.45,0.515-1.024,0.846-1.657,0.96l0,0C294.542,535.393,293.621,535.171,292.913,534.567L292.913,534.567z"/>
			<path d="M227.867,527.518c-0.77-1.432-0.242-3.218,1.223-3.988l0,0c4.132-2.171,8.666-2.193,12.731-1.479l0,0
				c8.117,1.47,14.94,5.95,15.104,6.027l0,0c1.358,0.888,1.742,2.697,0.867,4.059l0,0c-0.873,1.373-2.705,1.76-4.048,0.895l0,0
				c-0.034,0.008-1.627-1.008-4.051-2.182l0,0c-2.399-1.148-5.633-2.443-8.91-3.012l0,0c-3.312-0.597-6.509-0.421-8.942,0.885l0,0
				c-0.606,0.328-1.264,0.419-1.898,0.311l0,0C229.086,528.873,228.307,528.343,227.867,527.518L227.867,527.518z"/>
			<path d="M315.842,542.663c0.296,5.145-3.405,9.541-8.276,9.824c-4.872,0.283-9.061-3.658-9.361-8.803
				c-0.297-5.147,3.404-9.546,8.274-9.833C311.352,533.573,315.541,537.514,315.842,542.663z"/>
			<path d="M249.071,543.349c0.3,5.145-3.406,9.546-8.277,9.826c-4.865,0.279-9.055-3.66-9.356-8.803
				c-0.301-5.146,3.406-9.546,8.276-9.825C244.585,534.26,248.775,538.202,249.071,543.349z"/>
		</g>
		<path d="M288.73,618.495c0,6.555-5.312,11.865-11.865,11.865S265,625.049,265,618.495C265,611.942,288.73,611.942,288.73,618.495z
			"/>
		<polygon fill="#01A4EF" points="356.854,1112.161 272.354,1112.161 272.854,953.196 271.178,943.946 432.178,941.446 
			433.178,951.946 503.854,1099.661 424.104,1123.661 355.854,992.661 		"/>
		<path d="M380.123,522.727c1.086-7.285,1.509-21.178-2.601-35.939c-8.291-29.783-30.367-27.748-30.367-27.748l-13.479,11.242
			c0,0,13.069,8.359,26.132,23.834c6.204,7.346,14.24,22.445,16.383,36.393L380.123,522.727z"/>
		<path d="M344.711,457.684l-15.354,10.596c0,0-57.638,30.816-92.46,20.326c0,0-3.689-23.115,20.888-42.971
			c16.527-13.34,51.078-22.33,72.758-9.967C347.229,445.182,344.711,457.684,344.711,457.684z"/>
		<path fill="#FFB901" d="M253.08,683.184c6.392,12.047,22.239,16.727,34.489,16.727c21.5,0,65.618-15,84.618-48l13.49,6.035v276
			h-117.75c0,0-46.75-66.5-58.25-108.5s39-137.5,39-137.5L253.08,683.184z"/>
		<g>
			<path fill="#FFFFFF" d="M226.565,833.506l15.235-0.537c9.644-0.342,12.842-2.746,15.645-10.797l7.718-22.182l46.284-1.627
				l9.251,21.582c3.371,7.834,6.922,10.002,16.562,9.662l15.045-0.527l-0.691-19.592l-3.086,0.111
				c-3.278,0.115-4.845-0.539-6.117-3.674L298.33,705.528l-26.422,0.93l-37.103,103.26c-1.048,3.215-2.565,3.977-5.845,4.092
				l-3.083,0.107L226.565,833.506z M270.275,780.729l10.657-31.828c2.266-6.973,4.744-18.896,4.744-18.896l0.386-0.014
				c0,0,3.309,11.723,6.059,18.516l12.869,31L270.275,780.729z"/>
		</g>
		<path fill="#F55023" d="M252.272,684.672c6.479,12.211,22.541,15.42,34.957,15.42c21.791,0,68.168-13.684,87.426-47.133
			l-1.66-11.314c-19.258,33.447-63.975,48.65-85.766,48.65c-12.416,0-28.479-4.742-34.957-16.953V684.672z"/>
		<g>
			<path fill="#94C609" d="M565.145,577.965c0,0,26.121,109.754,19.185,127.881c0,0-9.623,9.398-39.161,30.434
				c-12.892,9.18-72.322,42-72.322,42s-37.887-21.064-47.859-73.203c-8.912-46.594-4.845-68.441-4.845-68.441
				s16.238-7.91,46.905-3.91c0,0,4.253-6.928,12.664-13.914C522.566,583.215,565.145,577.965,565.145,577.965z"/>
			<path fill="#94C609" d="M711.395,500.106c-9.81,10.39-22.99,29.22-37,63.16c-19.88,48.17-35.47,56.949-35.63,57.029l-0.29,0.199
				l-0.03,0.021c-0.21,1.799-0.64,3.488-1.29,5.029c-22.55,53.33-45.729,77.699-75.21,97.699l-50.42-125.389
				c20.79-12.33,42-17.7,53.62-19.891c17.87-41.72,63.91-64.299,81.26-72.81c1.771-0.87,3.17-1.56,4.17-2.09
				c13.41-7.101,16.95-15.149,17.86-19.32c0.26-1.159,0.37-2.31,0.35-3.409C676.265,487.326,692.385,497.146,711.395,500.106z"/>
			<polygon fill="#7FBA00" points="703.383,517.203 660.835,495.133 668.213,479.543 712.475,500.489 			"/>
		</g>
		<g>
			<path fill="#7FBA00" d="M287.425,790.006l-2.58,165.904h151.251c0-41.703,0.518-42.535,4.009-68
				c2.445-17.834,29.408-43.633,32.741-109.631c0,0-58.192-42.535-39.581-145.348c0,0-21.643-0.635-46.977,25.031l-14.101-6.053
				c0,0-5.933,50.23-38.166,89c-36.167,43.5-46.264,49.096-46.264,49.096"/>
			<path fill="#7FBA00" d="M253.08,683.184c0,0-16.774,16.143-24.902,27.094c-35.888,48.355-27.358,89.674-22.333,115.334
				c7.01,35.799,45.65,78.564,50.51,92.799c9.177,26.881,6.75,37.5,6.75,37.5h22.073l2.58-165.904c0,0-19.07-12.096-31.07-49.096
				C246.99,711.01,253.08,683.184,253.08,683.184z"/>
		</g>
		<rect x="262.104" y="938.411" fill="#94C609" width="173.991" height="17.5"/>
		<path fill="#94C609" d="M332.354,855.911c0,0,11,37.25,27.25,49s31,13.25,31,13.25v18.25h-129c0,0-9-26.25-18.5-39
			c0,0,9.25-8.75,11.25-20s2.5-21.5,2.5-21.5H332.354z"/>
		<g opacity="0.1">
			<polygon points="270.619,568.911 224.855,568.911 225.099,563.286 270.619,563.286 			"/>
			<rect x="280.103" y="563.286" width="71.396" height="5.625"/>
			<rect x="265.12" y="535.824" width="5.499" height="32.103"/>
			<path d="M270.604,541.307c0-3.705,0.212-6.709,3.917-6.709s6.708,3.004,6.708,6.709v-5.979c0-4.338-3.516-7.855-7.854-7.855
				c-4.338,0-8.312,3.518-8.312,7.855v2.998L270.604,541.307z"/>
			<rect x="344.123" y="530.827" width="7.375" height="36.75"/>
			<polygon points="375.396,532.327 344.062,532.327 344.062,528.786 376.604,529.827 			"/>
		</g>
		<g>
			<rect x="219.229" y="523.286" opacity="0.3" fill="#01A4EF" width="39.375" height="33"/>
			<rect x="287.729" y="523.286" opacity="0.3" fill="#01A4EF" width="51.25" height="33"/>
			<rect x="284.604" y="519.411" fill="none" stroke="#F55023" stroke-width="9" width="57.75" height="41"/>
			<rect x="216.104" y="519.411" fill="none" stroke="#F55023" stroke-width="9" width="46.25" height="41"/>
			<path fill="none" stroke="#F55023" stroke-width="9" d="M377.368,528.315c-5.5-2.75-23.264-2.071-35.014-2.071"/>
			<path fill="none" stroke="#F55023" stroke-width="9" d="M262.354,534.411c0-4.902,4.953-8.875,11.062-8.875
				s11.062,3.973,11.062,8.875"/>
		</g>
		<path fill="#94C609" d="M371.548,635.188c0,0,11.048,78.111-83.79,154.818c0,0,36.376-9.445,67.638-38.998
			c44.894-42.439,54.479-110.609,54.479-110.609L371.548,635.188z"/>
		<path fill="#94C609" d="M287.758,790.006c0,0-24.601-16.83-32.902-60.764c-4-21.166-1.775-46.059-1.775-46.059l1.83-35.1
			c0,0-8.438-6.43-12.14-11.424c-3.098-4.18-4.915-7.584-4.915-7.584s-27.507,20.994-17.173,80.328S287.758,790.006,287.758,790.006
			z"/>
	</g>
	
		<line fill="none" stroke="#000000" stroke-width="10" stroke-linecap="round" x1="694.833" y1="465.245" x2="603.423" y2="727.278"/>
	<g opacity="0.2">
		<path d="M236.823,487.997c-4.312,8.23-7.139,17.326-8.169,26.914h-17.051v49.999h13.425l-0.134,3.103
			c-0.229,4.065-0.346,6.956-0.279,7.811c1.945,25.277,6.999,43.428,14.926,56.105c-1.089-1.734-1.686-2.852-1.686-2.852
			s-21.718,16.619-19.282,61.992c-1.709,0.58-3.409,1.24-5.066,1.998c-14.091,6.441-24.033,16.65-24.033,16.65
			c-19.191,1.279-31.728,5.713-36.08,7.484c-5.073,1.969-11.769,5.086-18.919,9.834c-6.29,3.939-12.12,8.531-17.391,13.74
			c-3.95-5.879-9.76-11.91-17.729-18.43c-8.891-7.82-14.42-18.67-14.42-28.33c0-0.828,0.047-1.633,0.131-2.418l0.789,0.311
			l4.308-10.768c1.695,0.635,3.424,1.186,5.191,1.607l0.052-0.027c8.354,2.016,17.403,1.592,26.067-1.752
			c22.795-8.771,34.147-34.406,25.383-57.203c-8.779-22.803-34.355-34.172-57.157-25.398c-2.096,0.807-4.093,1.756-5.989,2.83
			c1.836-1.053,3.83-2,5.989-2.83c-15.518,5.252-29.503,21.199-40.43,41.789l-0.914-0.914c-2.5,4.5-15.833,31.666-15.833,31.666
			l3.058,1.205c-11.738,36.135-13.822,74.229-4.354,96.432c16.55,38.771,48.02,51.65,48.31,51.76
			c0.843,0.305,1.741,0.625,2.677,0.957c1.121,0.473,2.218,0.848,3.293,1.146c16.979,5.814,45.708,14.078,79.639,13.4
			c0.012,0.045,0.023,0.092,0.035,0.137c0,0,24.456-1.115,41.789-5.574c6.142,23.1,23.875,48.371,36.455,66.725
			c-0.192,0.193-0.317,0.314-0.317,0.314c8.312,11.156,16.243,32.65,18.095,37.848c0.354,1.568,0.652,3.033,0.905,4.408v16.244
			h10.741l-0.491,156.246c-12.395,0.695-62.325,7.205-62.325,64.164h145.4v-64.16h1.425l-0.999-119.365
			c-34.249-10.699-34.751-36.824-34.751-36.824h-28.646l-7.37-265.6c0,0,0.632-24.01,0.753-33.01c0,0-8.949-9.166-9.699-61.416
			c0,0-4-80.75,0.5-111.25V435.29c-7.346,2.758-13.912,6.354-18.858,10.346C235.55,463.598,236.45,484.227,236.823,487.997z"/>
		<path opacity="0.5" d="M545.168,736.28c29.538-21.035,39.161-30.434,39.161-30.434c0.008-0.02,0.013-0.043,0.021-0.062
			c19.425-17.652,36.285-41.17,52.805-80.238c0.65-1.541,1.08-3.23,1.29-5.029l0.03-0.021l0.29-0.199
			c0.16-0.08,15.75-8.859,35.63-57.029c8.903-21.57,17.471-37.029,25.052-48.105l3.937,2.042l9.092-16.714l-1.278-0.605
			c5.808-6.18,10.99-9.971,15.211-11.857c0,0-0.111-0.033-0.304-0.09c14.066-6.616,24.712-19.861,27.313-36.373
			c1.613-10.239-0.113-20.229-4.354-28.877c-14.263-3.182-28.612,8.855-33.146,25.391c-5.667,20.666-24.895,42.208-24.895,42.208
			l-7.928-3.637l-8.844,15.429l5.42,2.857c0,0-42.42,65.143-71.754,109.143S442.652,736.985,442.652,736.985s0,118.805,0,142.367
			c7.371-17.805,27.354-44.852,30.193-101.072C472.846,778.28,532.276,745.459,545.168,736.28z"/>
	</g>
	<g opacity="0.2">
		<polygon points="438.308,962.739 272.824,962.739 272.824,955.915 435.073,955.915 		"/>
		<rect x="434.127" y="938.389" width="0.583" height="17.834"/>
		<rect x="428.252" y="938.389" width="0.583" height="17.834"/>
		<rect x="422.377" y="938.389" width="0.583" height="17.834"/>
		<rect x="416.502" y="938.389" width="0.583" height="17.834"/>
		<rect x="410.627" y="938.389" width="0.583" height="17.834"/>
		<rect x="404.752" y="938.389" width="0.583" height="17.834"/>
		<rect x="398.877" y="938.389" width="0.583" height="17.834"/>
		<rect x="393.002" y="938.389" width="0.583" height="17.834"/>
		<rect x="387.127" y="938.389" width="0.583" height="17.834"/>
		<rect x="381.252" y="938.389" width="0.583" height="17.834"/>
		<rect x="375.377" y="938.389" width="0.583" height="17.834"/>
		<rect x="369.502" y="938.389" width="0.583" height="17.834"/>
		<rect x="363.627" y="938.389" width="0.583" height="17.834"/>
		<rect x="357.752" y="938.389" width="0.583" height="17.834"/>
		<rect x="351.877" y="938.389" width="0.583" height="17.834"/>
		<rect x="346.002" y="938.389" width="0.583" height="17.834"/>
		<rect x="340.127" y="938.389" width="0.583" height="17.834"/>
		<rect x="334.252" y="938.389" width="0.583" height="17.834"/>
		<rect x="328.377" y="938.389" width="0.583" height="17.834"/>
		<rect x="322.502" y="938.389" width="0.583" height="17.834"/>
		<rect x="316.627" y="938.389" width="0.583" height="17.834"/>
		<rect x="310.752" y="938.389" width="0.583" height="17.834"/>
		<rect x="304.877" y="938.389" width="0.583" height="17.834"/>
		<rect x="299.002" y="938.389" width="0.583" height="17.834"/>
		<rect x="293.127" y="938.389" width="0.583" height="17.834"/>
		<rect x="287.252" y="938.389" width="0.583" height="17.834"/>
		<rect x="281.377" y="938.389" width="0.583" height="17.834"/>
		<rect x="275.502" y="938.389" width="0.583" height="17.834"/>
		<rect x="269.627" y="938.389" width="0.583" height="17.459"/>
		<rect x="263.752" y="938.389" width="0.583" height="17.459"/>
		<polygon points="33.906,677.381 84.855,696.077 85.022,691.577 35.572,672.047 		"/>
		<g>
			<polygon points="83.619,691.645 88.527,679.446 87.823,678.692 82.849,691.217 			"/>
			<polygon points="76.768,688.858 83.138,674.042 82.412,673.284 75.989,688.446 			"/>
			<polygon points="69.916,686.071 77.749,668.635 77.001,667.875 69.13,685.674 			"/>
			<polygon points="63.064,683.284 72.359,663.229 71.59,662.467 62.271,682.903 			"/>
			<polygon points="56.214,680.497 66.97,657.823 66.179,657.057 55.411,680.131 			"/>
			<polygon points="49.362,677.709 61.58,652.417 60.768,651.649 48.552,677.36 			"/>
			<polygon points="42.511,674.922 56.191,647.01 55.356,646.241 41.692,674.588 			"/>
			<polygon points="35.659,672.135 50.802,641.604 49.945,640.833 34.833,671.819 			"/>
		</g>
		<polygon points="697.2,518.561 699.438,515.155 661.441,495.401 658.196,498.242 		"/>
		
			<rect x="705.145" y="498.138" transform="matrix(-0.8634 -0.5046 0.5046 -0.8634 1058.3717 1301.7891)" width="0.596" height="18.913"/>
		
			<rect x="700.668" y="496.033" transform="matrix(-0.8634 -0.5046 0.5046 -0.8634 1051.0923 1295.6079)" width="0.596" height="18.914"/>
		
			<rect x="696.192" y="493.929" transform="matrix(-0.8634 -0.5046 0.5046 -0.8634 1043.8127 1289.4277)" width="0.596" height="18.914"/>
		
			<rect x="691.715" y="491.824" transform="matrix(-0.8634 -0.5046 0.5046 -0.8634 1036.5334 1283.2466)" width="0.596" height="18.913"/>
		
			<rect x="687.239" y="489.719" transform="matrix(-0.8634 -0.5046 0.5046 -0.8634 1029.2544 1277.0645)" width="0.596" height="18.913"/>
		
			<rect x="682.762" y="487.613" transform="matrix(-0.8634 -0.5046 0.5046 -0.8634 1021.975 1270.8833)" width="0.596" height="18.914"/>
		
			<rect x="678.285" y="485.509" transform="matrix(-0.8634 -0.5046 0.5046 -0.8634 1014.6955 1264.7031)" width="0.596" height="18.914"/>
		
			<rect x="673.809" y="483.404" transform="matrix(-0.8634 -0.5046 0.5046 -0.8634 1007.4161 1258.522)" width="0.596" height="18.913"/>
		
			<rect x="669.332" y="481.299" transform="matrix(-0.8634 -0.5046 0.5046 -0.8634 1000.1371 1252.3398)" width="0.596" height="18.913"/>
		
			<rect x="664.856" y="479.193" transform="matrix(-0.8634 -0.5046 0.5046 -0.8634 992.8577 1246.1587)" width="0.596" height="18.914"/>
		<path d="M426.825,633.782c0,0-2.188,35.318-34.822,84.16c-45.946,68.764-100.875,74.135-103.982,74.135
			c-55.165,0-73.844-59.703-73.844-59.703l7.992-13.986c16.686,53.689,65.589,71.619,65.589,71.619
			c70.475-21.021,98.024-72.006,111.279-108.801c8.583-23.826,10.688-41.145,10.688-41.145s4.676-2.225,7.303-3.473
			C419.655,635.342,426.825,633.782,426.825,633.782z"/>
		<g>
			<g>
				<path d="M255.285,839.098v-64.051c0-0.83,0.763-1.502,1.704-1.502l0,0c0.942,0,1.704,0.672,1.704,1.502l0,0v64.051
					c0,0.828-0.762,1.502-1.704,1.502l0,0C256.048,840.6,255.285,839.926,255.285,839.098L255.285,839.098z"/>
			</g>
			<g>
				<path d="M326.341,839.098v-64.051c0-0.83,0.748-1.502,1.67-1.502l0,0c0.924,0,1.671,0.672,1.671,1.502l0,0v64.051
					c0,0.828-0.747,1.5-1.671,1.5l0,0C327.089,840.598,326.341,839.926,326.341,839.098L326.341,839.098z"/>
			</g>
			<g>
				<circle cx="328.513" cy="830.846" r="3.632"/>
			</g>
			<g>
				<circle cx="257.194" cy="830.846" r="3.632"/>
			</g>
		</g>
		<path d="M255.672,763.86c0,0,2.944,9.451,2.876,15.34c-0.068,5.891-3.972,1.85-3.972,1.85L255.672,763.86z"/>
		<path d="M326.485,763.586c0,0,3.222,9.176,3.153,15.066c-0.068,5.889-4.249,2.123-4.249,2.123L326.485,763.586z"/>
	</g>
	<g>
		
			<line fill="none" stroke="#FFFFFF" stroke-width="3" stroke-linecap="round" x1="254.029" y1="764.213" x2="254.029" y2="828.266"/>
		
			<line fill="none" stroke="#FFFFFF" stroke-width="3" stroke-linecap="round" x1="325.018" y1="764.213" x2="325.018" y2="828.266"/>
		<circle fill="#FFB901" cx="325.347" cy="820.012" r="3.632"/>
		<circle fill="#FFB901" cx="254.028" cy="820.012" r="3.632"/>
	</g>
	<g>
		<g>
			<path d="M104.152,680.231c5.285,1.93,10.784,2.012,10.784,2.012l-4.65,12.732c0,0-5.67-0.045-11.654-2.23
				s-8.736-5.217-8.736-5.217s2.365-7.494,4.142-12.348C94.037,675.18,98.874,678.303,104.152,680.231z"/>
			<path d="M134.895,625.618c-0.819,2.246-6.021,2.338-11.661,0.277c-5.642-2.061-9.557-5.48-8.737-7.725
				c0.804-2.199,6.018-2.338,11.659-0.277C131.796,619.952,135.698,623.42,134.895,625.618z"/>
			<path d="M143.38,608.795c-3.288,2.596-6.236,10.664-8.485,16.822c0.804-2.197-3.099-5.666-8.739-7.725
				c-5.642-2.061-10.855-1.922-11.659,0.277c1.52-4.16,1.187-6.73,1.187-6.73l-0.023-0.052
				C123.53,610.683,134.389,607.234,143.38,608.795z"/>
		</g>
		<g>
			<g>
				<path fill="#666666" d="M204.673,566.662c4.602,2.797,9.711,5.292,15.423,7.377l-9.798,23.795l-3.914,15.014
					c-5.521-2.016-10.946-3.254-16.263-3.893L204.673,566.662z"/>
				
					<ellipse transform="matrix(0.9393 0.343 -0.343 0.9393 216.4656 -37.0768)" fill="#666666" cx="213.042" cy="593.372" rx="12.656" ry="20.578"/>
			</g>
			<path fill="#F55023" d="M108.265,461.38c27.397,10.005,32.018,77.038,99.068,101.522l-13,31.575L189.14,614.4
				c-59.647-21.781-110.947,24.81-142.885,13.147"/>
			
				<ellipse transform="matrix(0.9393 0.343 -0.343 0.9393 191.1033 7.1313)" fill="#FFB901" cx="75.392" cy="543.792" rx="54.544" ry="88.687"/>
			
				<ellipse transform="matrix(0.9393 0.343 -0.343 0.9393 213.9026 -32.2008)" fill="#F55023" cx="197.976" cy="588.556" rx="16.794" ry="27.306"/>
			
				<ellipse transform="matrix(0.9393 0.343 -0.343 0.9393 191.4428 7.7597)" fill="#F55023" cx="73.786" cy="545.063" rx="44.451" ry="74.113"/>
			<g>
				<path fill="#666666" d="M94.321,596.481c-10.396-8.195-22.568-15.291-37.473-20.733l15.536-37.733l6.205-23.808
					c15.176,5.541,29.906,7.36,44.062,6.923c0,0,0.838,17.393-6.534,37.722c-9.61,26.498-21.855,37.809-21.855,37.809"/>
				
					<ellipse transform="matrix(-0.9393 -0.343 0.343 -0.9393 -55.0278 1080.4482)" fill="#999999" cx="68.032" cy="545.09" rx="20.07" ry="32.632"/>
			</g>
			
				<ellipse transform="matrix(0.9393 0.343 -0.343 0.9393 190.9245 10.3051)" fill="#333333" cx="66.332" cy="544.866" rx="12.336" ry="20.568"/>
		</g>
		<g opacity="0.2">
			<path d="M214.122,593.241l-0.171-0.115c-5.458-2.632-10.755-5.066-15.86-7.325c-41.647-18.391-70.755-24.655-70.755-24.655
				l-0.197-0.072c-0.166,0.482-0.338,0.952-0.513,1.432c-16.547,45.312-52.264,74.055-80.364,65.039l-0.004,0.01
				c31.938,11.662,83.234-34.939,142.882-13.157l0.007-0.02c3.983,1.22,8.443-0.004,12.599-3.043
				c4.451-3.24,8.531-8.553,11.278-15.172c0.264-0.606,0.497-1.213,0.727-1.842C213.881,593.961,214.011,593.605,214.122,593.241z
				 M94.32,596.485c8.506-9.445,15.976-21.825,21.217-36.178c0.315-0.864,0.622-1.731,0.918-2.604l-28.133-10.272
				c-0.399,1.504-0.88,3.021-1.436,4.543c-4.549,12.456-13.036,21.503-21.346,23.908c-2.985,0.858-5.946,0.862-8.689-0.14
				c2.621,0.957,5.158,1.97,7.614,3.026C75.977,583.718,85.75,589.724,94.32,596.485z"/>
			<path opacity="0.5" d="M224.253,599.431c-4.443-1.068-11.229-3.27-11.229-3.27c-2.747,6.619-6.827,11.932-11.278,15.172
				c1.54,0.445,3.083,0.944,4.642,1.514l0.002-0.031C212.539,614.69,220.201,608.896,224.253,599.431z M56.852,575.743l-0.009-0.003
				c-10.417-3.804-13.842-20.607-7.66-37.534c0.552-1.512,1.163-2.981,1.826-4.391l-0.09-0.043l-17.913-6.541
				c-0.334,0.857-0.66,1.717-0.976,2.582c-14.043,38.456-6.731,76.449,16.329,84.869c0.799,0.293,1.602,0.543,2.422,0.746
				c13.926,3.67,30.032-3.937,43.539-18.943c-8.57-6.761-18.344-12.767-29.854-17.716C62.01,577.712,59.473,576.7,56.852,575.743z
				 M59.273,564.183c0.695,0.254,1.42,0.4,2.162,0.438c3.35,0.212,7.014-1.687,10.193-5.06c2.524-2.656,4.749-6.24,6.282-10.438
				l-23.173-8.463C50.854,551.325,52.887,561.851,59.273,564.183z"/>
		</g>
		<g opacity="0.2">
			<path d="M185.803,580.313c-0.987,3.024-2.19,6.173-3.568,9.13c-1.579-0.311-3.144-0.573-4.71-0.805
				c1.527-3.189,2.852-6.613,3.929-9.914c0.855-2.604,1.548-5.141,2.064-7.4c1.372,0.703,2.778,1.398,4.221,2.084
				C187.248,575.539,186.589,577.896,185.803,580.313z"/>
			<path d="M177.227,577.181c-1.191,3.643-2.676,7.444-4.416,10.896c-1.666-0.161-3.326-0.278-4.981-0.351
				c2.015-3.768,3.728-8.049,5.058-12.131c1.049-3.194,1.854-6.274,2.375-8.895c1.351,0.822,2.737,1.628,4.17,2.427
				C178.908,571.556,178.165,574.32,177.227,577.181z"/>
			<path d="M168.66,574.053c-1.501,4.604-3.49,9.467-5.858,13.563c-1.81-0.001-3.607,0.056-5.395,0.137
				c2.833-4.404,5.182-10.02,6.903-15.289c1.355-4.178,2.325-8.146,2.797-11.157c1.33,0.965,2.708,1.915,4.133,2.851
				C170.715,566.967,169.841,570.439,168.66,574.053z"/>
			<path d="M160.084,570.921c-1.979,6.09-4.822,12.621-8.26,17.254c-2.119,0.205-4.218,0.472-6.299,0.775
				c4.314-4.556,7.869-12.393,10.219-19.614c1.972-6.041,3.1-11.665,3.127-14.54c1.353,1.165,2.756,2.337,4.22,3.489
				C162.733,561.391,161.685,566.012,160.084,570.921z"/>
		</g>
		<g opacity="0.2">
			<path d="M214.122,593.241l-0.171-0.115c-5.458-2.632-10.755-5.066-15.86-7.325c-41.647-18.391-70.755-24.655-70.755-24.655
				l-0.197-0.072c-0.166,0.482-0.338,0.952-0.513,1.432c-16.547,45.312-52.264,74.055-80.364,65.039l-0.004,0.01
				c31.938,11.662,83.234-34.939,142.882-13.157l0.007-0.02c3.983,1.22,8.443-0.004,12.599-3.043
				c4.451-3.24,8.531-8.553,11.278-15.172c0.264-0.606,0.497-1.213,0.727-1.842C213.881,593.961,214.011,593.605,214.122,593.241z
				 M94.32,596.485c8.506-9.445,15.976-21.825,21.217-36.178c0.315-0.864,0.622-1.731,0.918-2.604l-28.133-10.272
				c-0.399,1.504-0.88,3.021-1.436,4.543c-4.549,12.456-13.036,21.503-21.346,23.908c-2.985,0.858-5.946,0.862-8.689-0.14
				c2.621,0.957,5.158,1.97,7.614,3.026C75.977,583.718,85.75,589.724,94.32,596.485z"/>
			<path opacity="0.5" d="M224.253,599.431c-4.443-1.068-11.229-3.27-11.229-3.27c-2.747,6.619-6.827,11.932-11.278,15.172
				c1.54,0.445,3.083,0.944,4.642,1.514l0.002-0.031C212.539,614.69,220.201,608.896,224.253,599.431z M56.852,575.743l-0.009-0.003
				c-10.417-3.804-13.842-20.607-7.66-37.534c0.552-1.512,1.163-2.981,1.826-4.391l-0.09-0.043l-17.913-6.541
				c-0.334,0.857-0.66,1.717-0.976,2.582c-14.043,38.456-6.731,76.449,16.329,84.869c0.799,0.293,1.602,0.543,2.422,0.746
				c13.926,3.67,30.032-3.937,43.539-18.943c-8.57-6.761-18.344-12.767-29.854-17.716C62.01,577.712,59.473,576.7,56.852,575.743z
				 M59.273,564.183c0.695,0.254,1.42,0.4,2.162,0.438c3.35,0.212,7.014-1.687,10.193-5.06c2.524-2.656,4.749-6.24,6.282-10.438
				l-23.173-8.463C50.854,551.325,52.887,561.851,59.273,564.183z"/>
		</g>
		<g opacity="0.2">
			<path d="M185.803,580.313c-0.987,3.024-2.19,6.173-3.568,9.13c-1.579-0.311-3.144-0.573-4.71-0.805
				c1.527-3.189,2.852-6.613,3.929-9.914c0.855-2.604,1.548-5.141,2.064-7.4c1.372,0.703,2.778,1.398,4.221,2.084
				C187.248,575.539,186.589,577.896,185.803,580.313z"/>
			<path d="M177.227,577.181c-1.191,3.643-2.676,7.444-4.416,10.896c-1.666-0.161-3.326-0.278-4.981-0.351
				c2.015-3.768,3.728-8.049,5.058-12.131c1.049-3.194,1.854-6.274,2.375-8.895c1.351,0.822,2.737,1.628,4.17,2.427
				C178.908,571.556,178.165,574.32,177.227,577.181z"/>
			<path d="M168.66,574.053c-1.501,4.604-3.49,9.467-5.858,13.563c-1.81-0.001-3.607,0.056-5.395,0.137
				c2.833-4.404,5.182-10.02,6.903-15.289c1.355-4.178,2.325-8.146,2.797-11.157c1.33,0.965,2.708,1.915,4.133,2.851
				C170.715,566.967,169.841,570.439,168.66,574.053z"/>
			<path d="M160.084,570.921c-1.979,6.09-4.822,12.621-8.26,17.254c-2.119,0.205-4.218,0.472-6.299,0.775
				c4.314-4.556,7.869-12.393,10.219-19.614c1.972-6.041,3.1-11.665,3.127-14.54c1.353,1.165,2.756,2.337,4.22,3.489
				C162.733,561.391,161.685,566.012,160.084,570.921z"/>
		</g>
	</g>
</g>
</svg>
