<?xml version="1.0" encoding="utf-8"?>
<!-- Generator: Adobe Illustrator 16.0.4, SVG Export Plug-In . SVG Version: 6.00 Build 0)  -->
<!DOCTYPE svg PUBLIC "-//W3C//DTD SVG 1.1//EN" "http://www.w3.org/Graphics/SVG/1.1/DTD/svg11.dtd">
<svg version="1.1" id="Layer_1" xmlns="http://www.w3.org/2000/svg" xmlns:xlink="http://www.w3.org/1999/xlink" x="0px" y="0px"
	 width="141px" height="60px" viewBox="0 0 141 60" enable-background="new 0 0 141 60" xml:space="preserve">
<g>
	<g>
		<g>
			<path fill="#FFFFFF" d="M86.354,18.011c0-0.595,0.527-2.073,1.529-2.073c0.681,0,1.122,0.477,1.122,1.274v5.593h1.632v-5.61
				c0-1.479-0.765-2.481-2.261-2.481c-0.97,0-1.683,0.578-2.21,1.972L86.05,14.85h-1.327v7.956h1.633L86.354,18.011L86.354,18.011z
				 M93.885,14.849h-1.633v7.956h1.633V14.849z M104.515,18.011c0-0.595,0.543-2.073,1.53-2.073c0.679,0,1.121,0.477,1.121,1.274
				v5.593h1.631v-5.61c0-1.479-0.798-2.481-2.09-2.481c-0.832,0-1.768,0.51-2.192,1.683v-4.914h-1.632v11.321h1.632V18.011z
				 M93.833,11.858h-1.53v1.615h1.53V11.858z M111.054,20.187c0,1.207,0.103,1.938,0.459,2.618h1.717
				c-0.425-0.748-0.543-1.564-0.543-2.618v-3.926h1.291v-1.309h-1.291v-1.99l-1.547,0.494v1.496h-1.158v1.309h1.071L111.054,20.187
				L111.054,20.187z M98.355,25.644c1.988,0,3.213-1.173,3.213-2.481v-0.169c0-1.105-0.866-1.87-2.873-1.87
				c-1.648,0-2.073-0.289-2.073-0.697c0-0.271,0.321-0.663,0.78-0.663c0.138,0.034,0.665,0.102,0.834,0.102
				c1.701,0,2.804-1.02,2.804-2.481V17.23c0-0.612-0.272-1.207-0.831-1.665c0.237,0.152,0.476,0.135,0.679,0.135
				c0.408,0,0.886-0.289,0.886-1.054c0-0.17,0-0.34-0.069-0.731h-1.105c0,0.56-0.22,1.003-1.036,1.003
				c-0.171,0-0.561-0.222-1.325-0.222c-1.547,0-2.789,1.14-2.789,2.585v0.051c0,0.951,0.427,1.733,1.19,2.142
				c-0.748,0.119-1.359,0.748-1.359,1.342c0,0.544,0.424,1.071,1.325,1.274c-1.07,0.238-1.529,0.749-1.529,1.463v0.102
				C95.073,24.845,96.553,25.644,98.355,25.644z M96.893,17.264c0-0.749,0.509-1.394,1.343-1.394c0.832,0,1.343,0.646,1.343,1.394
				v0.068c0,0.748-0.51,1.394-1.343,1.394s-1.343-0.646-1.343-1.394V17.264z M96.501,23.247c0-0.527,0.562-0.918,1.837-0.918
				c1.411,0,1.751,0.34,1.751,0.867v0.102c0,0.527-0.477,1.07-1.751,1.07c-1.275,0-1.837-0.492-1.837-1.02V23.247z M38.225,17.875
				h3.859v4.93h1.801V11.483h-1.801v4.793h-3.859v-4.793h-1.801v11.321h1.801L38.225,17.875L38.225,17.875z M48.375,22.941
				c1.786,0,2.873-1.105,2.873-2.924v-2.38c0-1.802-1.088-2.941-2.873-2.941c-1.801,0-2.89,1.14-2.89,2.941v2.38
				C45.486,21.836,46.575,22.941,48.375,22.941z M47.067,17.349c0-0.799,0.459-1.359,1.308-1.359c0.833,0,1.292,0.561,1.292,1.359
				v2.941c0,0.816-0.459,1.36-1.292,1.36c-0.849,0-1.308-0.543-1.308-1.36V17.349z M29.999,28.5v-21h-9v45h9v-15h81.003v15h8.999
				v-24H29.999z M53.412,20.187c0,1.207,0.102,1.938,0.459,2.618h1.717c-0.425-0.748-0.544-1.564-0.544-2.618v-3.926h1.292v-1.309
				h-1.292v-1.99l-1.547,0.494v1.496h-1.156v1.309h1.071V20.187z M77.443,20.017c0,1.819,1.088,2.924,2.89,2.924
				c1.783,0,2.872-1.105,2.872-2.924v-2.38c0-1.801-1.089-2.941-2.872-2.941c-1.802,0-2.89,1.14-2.89,2.941V20.017z M79.023,17.349
				c0-0.799,0.459-1.359,1.31-1.359c0.833,0,1.291,0.561,1.291,1.359v2.941c0,0.816-0.459,1.36-1.291,1.36
				c-0.851,0-1.31-0.543-1.31-1.36V17.349z M73.217,22.805h1.802v-9.689h2.754v-1.632h-7.309v1.632h2.754L73.217,22.805
				L73.217,22.805z M60.298,22.941c1.802,0,2.737-1.071,2.737-2.873v-0.103h-1.428v0.324c0,0.816-0.459,1.36-1.309,1.36
				c-0.85,0-1.309-0.543-1.309-1.36v-1.428h4.046v-1.224c0-1.802-0.936-2.941-2.737-2.941s-2.873,1.14-2.873,2.941v2.38
				C57.426,21.836,58.497,22.941,60.298,22.941z M58.99,17.349c0-0.799,0.459-1.359,1.309-1.359c0.85,0,1.309,0.561,1.309,1.359
				v0.68H58.99V17.349z M66.111,11.483h-1.632v11.321h1.632V11.483z"/>
		</g>
	</g>
</g>
</svg>
