<?xml version="1.0" encoding="UTF-8" standalone="no"?>
<svg width="32px" height="34px" viewBox="0 0 32 34" version="1.1" xmlns="http://www.w3.org/2000/svg" xmlns:xlink="http://www.w3.org/1999/xlink" xmlns:sketch="http://www.bohemiancoding.com/sketch/ns">
    <!-- Generator: Sketch 3.3.3 (12081) - http://www.bohemiancoding.com/sketch -->
    <title>Task (Delayed)</title>
    <desc>Created with Sketch.</desc>
    <defs>
        <linearGradient x1="50%" y1="26.4573008%" x2="50%" y2="100%" id="linearGradient-1">
            <stop stop-color="#000000" stop-opacity="0" offset="0%"></stop>
            <stop stop-color="#000000" offset="100%"></stop>
        </linearGradient>
        <filter x="-50%" y="-50%" width="200%" height="200%" filterUnits="objectBoundingBox" id="filter-2">
            <feGaussianBlur stdDeviation="4.00319996" in="SourceGraphic" result="blur"></feGaussianBlur>
        </filter>
        <filter x="-50%" y="-50%" width="200%" height="200%" filterUnits="objectBoundingBox" id="filter-3">
            <feOffset dx="0" dy="3" in="SourceAlpha" result="shadowOffsetOuter1"></feOffset>
            <feGaussianBlur stdDeviation="1.5" in="shadowOffsetOuter1" result="shadowBlurOuter1"></feGaussianBlur>
            <feColorMatrix values="0 0 0 0 0   0 0 0 0 0   0 0 0 0 0  0 0 0 0.21 0" in="shadowBlurOuter1" type="matrix" result="shadowMatrixOuter1"></feColorMatrix>
            <feMerge>
                <feMergeNode in="shadowMatrixOuter1"></feMergeNode>
                <feMergeNode in="SourceGraphic"></feMergeNode>
            </feMerge>
        </filter>
    </defs>
    <g id="Delayed-Redesign" stroke="none" stroke-width="1" fill="none" fill-rule="evenodd" sketch:type="MSPage">
        <g id="Hubs-on-map-Copy" sketch:type="MSArtboardGroup" transform="translate(-523.000000, -457.000000)">
            <g id="Task-(Delayed)" sketch:type="MSLayerGroup" transform="translate(530.000000, 457.000000)">
                <path d="M9.38385889,13.9016626 C4.35043733,13.8059097 0,15.3544483 0,17.2471066 C0,17.7435941 0.327781412,18.2504199 0.753769705,18.7279536 C2.34102249,20.5061515 5.21963201,22.1236125 8.20665172,23.6079056 C8.55547747,23.7861193 9.2939422,23.7858731 9.64276795,23.6079056 C12.5315808,22.1721044 15.284562,20.6196273 16.9209182,18.9160133 C17.3985608,18.4185413 17.8736525,17.8674082 17.8468688,17.3307981 C17.9673955,15.5481695 14.1596468,13.9924925 9.38385889,13.9016626" id="Shadow" fill="url(#linearGradient-1)" filter="url(#filter-2)" sketch:type="MSShapeGroup"></path>
                <path d="M9.32365474,0.009914858 C4.92092624,-0.215339611 1.11560332,3.42752893 1.11560332,7.87992381 C1.11560332,9.0478885 1.40231337,10.2401737 1.77492488,11.3635508 C3.16329321,15.5466826 5.6812099,19.351688 8.29395287,22.8434218 C8.59907038,23.2626615 9.2450047,23.2620824 9.55012221,22.8434218 C12.0769637,19.4657629 14.4849935,15.8136294 15.9163126,11.8059529 C16.334106,10.6356719 16.7496682,9.33915585 16.7262406,8.07680432 C16.8316651,3.88324941 13.5010314,0.22358812 9.32365474,0.009914858" id="Base" fill="#AA81F3" filter="url(#filter-3)" sketch:type="MSShapeGroup"></path>
            </g>
        </g>
    </g>
</svg>