<?xml version="1.0" encoding="utf-8"?>
<!-- Generator: Adobe Illustrator 16.0.4, SVG Export Plug-In . SVG Version: 6.00 Build 0)  -->
<!DOCTYPE svg PUBLIC "-//W3C//DTD SVG 1.1//EN" "http://www.w3.org/Graphics/SVG/1.1/DTD/svg11.dtd">
<svg version="1.1" id="Layer_1" xmlns="http://www.w3.org/2000/svg" xmlns:xlink="http://www.w3.org/1999/xlink" x="0px" y="0px"
	 width="800px" height="254px" viewBox="0 0 800 254" enable-background="new 0 0 800 254" xml:space="preserve">
<linearGradient id="SVGID_1_" gradientUnits="userSpaceOnUse" x1="0" y1="127" x2="800" y2="127">
	<stop  offset="0" style="stop-color:#97292D"/>
	<stop  offset="0.118" style="stop-color:#CE3045"/>
	<stop  offset="0.1322" style="stop-color:#D33B4B"/>
	<stop  offset="0.1874" style="stop-color:#E56360"/>
	<stop  offset="0.2314" style="stop-color:#F07B6D"/>
	<stop  offset="0.2584" style="stop-color:#F48472"/>
	<stop  offset="0.3876" style="stop-color:#BB3041"/>
	<stop  offset="0.546" style="stop-color:#CD3045"/>
	<stop  offset="0.5506" style="stop-color:#CE3045"/>
	<stop  offset="0.7865" style="stop-color:#CD6C60"/>
	<stop  offset="0.79" style="stop-color:#CD695E"/>
	<stop  offset="0.8254" style="stop-color:#CE4A51"/>
	<stop  offset="0.8554" style="stop-color:#CE3748"/>
	<stop  offset="0.8764" style="stop-color:#CE3045"/>
	<stop  offset="0.9168" style="stop-color:#C63447"/>
	<stop  offset="0.9801" style="stop-color:#AF3F4B"/>
	<stop  offset="1" style="stop-color:#A7434D"/>
	<stop  offset="1" style="stop-color:#881C27"/>
</linearGradient>
<rect fill="url(#SVGID_1_)" width="800" height="254"/>
<rect x="182.615" y="66.201" fill="#FFFFFF" width="408.253" height="129.802"/>
<g>
	<g>
		<g>
			<polygon fill="#FF8E4A" points="262.77,138.647 262.77,97.296 261.832,97.296 261.832,97.314 228.638,114.372 228.638,130.585 
				228.64,130.585 228.64,131.446 228.638,131.446 228.638,131.447 228.638,131.447 228.638,147.66 261.832,164.908 
				262.855,164.908 262.855,138.647 			"/>
			<polyline fill="#F48746" points="263.118,164.908 296.567,147.66 296.567,131.447 296.567,131.447 296.567,131.446 
				296.567,131.446 296.567,130.585 296.567,130.584 296.567,114.372 263.033,97.296 263.033,97.296 262.435,97.296 
				262.435,164.906 263.033,164.906 			"/>
			<g>
				<g>
					<polygon id="SVGID_36_" fill="#FF8E4A" points="257.565,120.403 267.207,120.403 267.207,136.175 257.565,136.175 					"/>
				</g>
			</g>
			<g>
				<g>
					<g>
						<path id="SVGID_35_" fill="#FFFFFF" d="M246.131,147.346h3.959c2.507,0,3.359-0.598,4.161-2.662l2.205-5.688h12.03
							l2.206,5.688c0.802,2.064,1.704,2.662,4.21,2.662h3.91v-5.092h-0.802c-0.852,0-1.253-0.184-1.554-1.01l-10.526-26.47h-6.867
							l-10.577,26.47c-0.301,0.826-0.701,1.01-1.554,1.01h-0.802V147.346L246.131,147.346z M257.96,134.042l3.058-8.166
							c0.651-1.789,1.404-4.863,1.404-4.863h0.1c0,0,0.751,3.074,1.403,4.863l3.058,8.166H257.96L257.96,134.042z"/>
					</g>
				</g>
			</g>
			<g>
				<g>
					<path id="SVGID_34_" fill="#D4763C" d="M290.092,137.139v-6.38l0,0v-7.421c0.062,1.205,0.791,4.486,6.475,7.419v0.002v3.103
						L290.092,137.139L290.092,137.139z M290.092,122.978v0.36C290.084,123.18,290.087,123.059,290.092,122.978L290.092,122.978z
						 M290.104,122.86c0,0-0.006,0.041-0.011,0.117v-0.117H290.104L290.104,122.86z"/>
				</g>
			</g>
			<path fill="#FF8E4A" d="M290.079,122.28c-0.004,0.265,0.016,0.505,0.013,0.545c-0.005,0.066-0.591,4.288,6.475,7.932v-7.932
				v-0.001v-0.345v-0.874v-7.061C290.353,117.75,290.054,121.401,290.079,122.28z"/>
		</g>
	</g>
	<g>
		<path fill="#FF8E4A" d="M325.195,144.176h0.598c0.83,0,1.336-0.139,1.659-1.018l10.605-28.538h3.458l10.605,28.538
			c0.323,0.879,0.78,1.018,1.659,1.018h0.551v2.856h-1.475c-2.306,0-2.996-0.462-3.827-2.673l-2.812-7.654h-12.864l-2.857,7.654
			c-0.834,2.211-1.479,2.673-3.784,2.673h-1.517V144.176z M345.34,133.893l-4.288-11.573c-0.551-1.52-1.246-4.192-1.246-4.192h-0.09
			c0,0-0.691,2.673-1.247,4.192l-4.243,11.573H345.34z"/>
		<path fill="#FF8E4A" d="M359.188,127.575c0-0.646-0.371-1.013-1.017-1.013h-1.933v-2.719h3.274c1.981,0,2.811,0.83,2.811,2.812
			v16.642c0,0.691,0.369,1.014,1.014,1.014h1.938v2.722H362c-1.983,0-2.812-0.829-2.812-2.812V127.575z M359.095,114.62h3.044v3.964
			h-3.044V114.62z"/>
		<path fill="#FF8E4A" d="M370.537,127.575c0-0.646-0.368-1.013-1.014-1.013h-1.936v-2.719h3.229c1.936,0,2.81,0.781,2.81,2.628
			v1.566c0,0.969-0.094,1.752-0.094,1.752h0.094c1.108-3.505,3.691-6.178,7.332-6.178c0.646,0,1.243,0.139,1.243,0.139v3.09
			c0,0-0.552-0.094-1.152-0.094c-3.273,0-5.717,2.582-6.731,5.994c-0.462,1.477-0.646,3.041-0.646,4.516v9.776h-3.134V127.575z"/>
		<path fill="#FF8E4A" d="M386.589,118.355c0-0.646-0.367-1.014-1.013-1.014h-1.938v-2.721h3.274c1.982,0,2.811,0.83,2.811,2.812
			v8.394c0,1.059-0.094,1.888-0.094,1.888h0.094c0,0,1.938-4.424,7.888-4.424c6.224,0,10.094,4.982,10.094,12.169
			c0,7.333-4.382,12.126-10.466,12.126c-5.53,0-7.61-4.471-7.61-4.471h-0.089c0,0,0.089,0.784,0.089,1.893v2.026h-3.041V118.355z
			 M397.011,144.818c4.098,0,7.466-3.459,7.466-9.36c0-5.669-3.044-9.31-7.332-9.31c-3.87,0-7.516,2.764-7.516,9.359
			C389.63,140.162,392.033,144.818,397.011,144.818z"/>
		<path fill="#FF8E4A" d="M413.672,127.575c0-0.646-0.372-1.013-1.014-1.013h-1.938v-2.719h3.225c1.938,0,2.812,0.781,2.812,2.628
			v1.566c0,0.969-0.092,1.752-0.092,1.752h0.092c1.107-3.505,3.689-6.178,7.331-6.178c0.646,0,1.241,0.139,1.241,0.139v3.09
			c0,0-0.551-0.094-1.147-0.094c-3.273,0-5.722,2.582-6.735,5.994c-0.458,1.477-0.645,3.041-0.645,4.516v9.776h-3.131V127.575z"/>
		<path fill="#FF8E4A" d="M440.881,132.74h1.287v-0.277c0-4.839-1.752-6.547-5.995-6.547c-1.147,0-4.517,0.323-4.517,2.031v1.476
			h-2.994v-2.214c0-3.229,5.529-3.919,7.561-3.919c7.332,0,9.08,3.919,9.08,8.897v11.111c0,0.691,0.368,1.014,1.014,1.014h1.938
			v2.722h-3.18c-1.982,0-2.767-0.874-2.767-2.767c0-1.014,0.044-1.704,0.044-1.704h-0.09c0.046,0-1.892,5.022-7.699,5.022
			c-3.875,0-7.883-2.256-7.883-6.869C426.68,133.016,436.867,132.74,440.881,132.74z M435.07,144.911
			c4.424,0,7.098-4.61,7.098-8.622v-1.061h-1.336c-3.643,0-10.928,0.096-10.928,5.301
			C429.904,142.699,431.611,144.911,435.07,144.911z"/>
		<path fill="#FF8E4A" d="M453.111,118.355c0-0.646-0.367-1.014-1.014-1.014h-1.938v-2.721h3.273c1.982,0,2.812,0.691,2.812,2.676
			v15.399h2.398c0.871,0,1.982-0.277,2.629-1.107l5.946-7.745h3.825l-6.688,8.481c-1.151,1.43-1.748,1.66-1.748,1.66v0.092
			c0,0,0.691,0.324,1.427,1.705l4.197,7.516c0.412,0.785,0.873,1.014,2.121,1.014h1.242v2.722h-2.167
			c-2.305,0-2.95-0.367-4.012-2.305l-4.611-8.301c-0.504-0.919-1.609-1.013-2.439-1.013h-2.121v11.618h-3.135V118.355z"/>
		<path fill="#FF8E4A" d="M485.027,123.289c6.405,0,9.731,4.932,9.731,10.696c0,0.555-0.098,1.568-0.098,1.568h-17.794
			c0.09,5.855,4.197,9.221,8.986,9.221c4.243,0,6.969-2.857,6.969-2.857l1.516,2.35c0,0-3.363,3.318-8.618,3.318
			c-6.871,0-12.126-4.978-12.126-12.126C473.594,127.854,478.804,123.289,485.027,123.289z M491.53,133.062
			c-0.188-4.792-3.138-7.147-6.546-7.147c-3.829,0-7.193,2.49-7.982,7.147H491.53z"/>
		<path fill="#FF8E4A" d="M500.209,143.346h3.553v3.687h-3.553V143.346z"/>
		<path fill="#FF8E4A" d="M511.187,127.575c0-0.646-0.368-1.013-1.014-1.013h-1.938v-2.719h3.273c1.982,0,2.815,0.83,2.815,2.812
			v16.642c0,0.691,0.369,1.014,1.014,1.014h1.938v2.722h-3.273c-1.982,0-2.815-0.829-2.815-2.812V127.575z M511.096,114.62h3.042
			v3.964h-3.042V114.62z"/>
		<path fill="#FF8E4A" d="M532.585,123.289c6.78,0,12.261,5.166,12.261,12.036c0,7.004-5.48,12.26-12.217,12.26
			c-6.778,0-12.261-5.256-12.261-12.26C520.368,128.454,525.851,123.289,532.585,123.289z M532.629,144.773
			c4.934,0,8.996-4.059,8.996-9.449c0-5.261-4.062-9.176-8.996-9.176c-4.977,0-9.031,3.915-9.031,9.176
			C523.598,140.715,527.652,144.773,532.629,144.773z"/>
	</g>
</g>
</svg>
