<?xml version="1.0" encoding="utf-8"?>
<!-- Generator: Adobe Illustrator 16.0.4, SVG Export Plug-In . SVG Version: 6.00 Build 0)  -->
<!DOCTYPE svg PUBLIC "-//W3C//DTD SVG 1.1//EN" "http://www.w3.org/Graphics/SVG/1.1/DTD/svg11.dtd">
<svg version="1.1" id="Layer_1" xmlns="http://www.w3.org/2000/svg" xmlns:xlink="http://www.w3.org/1999/xlink" x="0px" y="0px"
	 width="800px" height="254px" viewBox="0 0 800 254" enable-background="new 0 0 800 254" xml:space="preserve">
<g>
	<path fill="#FFFFFF" d="M400.222,141.908h-11.797l-4.353,11.225c-1.583,4.075-3.265,5.252-8.212,5.252h-7.813v-10.049h1.582
		c1.684,0,2.474-0.362,3.067-1.992l20.871-52.235h6.655V59.617h-1.19v0.036l-65.505,33.661v31.996h0.003v1.7h-0.003v0.001v31.996
		l65.505,34.036h2.02v-0.002h-0.829V141.908z"/>
	<path fill="#E4E4E4" d="M465.297,124.382c0.257,0.153,0.521,0.306,0.791,0.458C465.818,124.688,465.554,124.535,465.297,124.382z"
		/>
	<path fill="#E4E4E4" d="M463.984,123.565c-6.275-4.101-8.305-8.278-8.937-10.895C455.659,115.264,457.67,119.444,463.984,123.565z"
		/>
	<path fill="#E4E4E4" d="M454.978,112.354c0.016,0.078,0.034,0.159,0.053,0.241C455.011,112.512,454.994,112.432,454.978,112.354z"
		/>
	<path fill="#E4E4E4" d="M464.18,123.69c0.26,0.167,0.527,0.335,0.803,0.502C464.707,124.026,464.439,123.858,464.18,123.69z"/>
	<path fill="#E4E4E4" d="M401.401,59.617h-0.52v34.492h6.237l20.773,52.235c0.592,1.63,1.385,1.992,3.065,1.992h1.583v10.049h-7.716
		c-4.946,0-6.727-1.177-8.31-5.252l-4.353-11.225h-11.112v51.133h0.351l0.167,0.002l66.01-34.036v-27.231l-12.777,6.468v-12.591
		v-14.481c-0.06-0.722-0.002-1.147,0-1.176c0.006-0.08-0.033-0.553-0.026-1.075c-0.05-1.734,0.542-8.939,12.804-15.266v-0.341
		L401.401,59.617z"/>
	<path fill="#E4E4E4" d="M467.578,125.649c-0.401-0.207-0.786-0.415-1.163-0.623C466.792,125.234,467.177,125.442,467.578,125.649z"
		/>
	<rect x="400.222" y="141.908" fill="#E4E4E4" width="0.829" height="51.133"/>
	<rect x="400.222" y="59.617" fill="#E4E4E4" width="0.66" height="34.492"/>
	<path fill="#FFFFFF" d="M400.196,106.42c0,0-1.485,6.066-2.771,9.596l-6.033,16.115h8.83V106.42H400.196z"/>
	<path fill="#FFFFFF" d="M409.196,132.132l-6.033-16.115c-0.828-2.272-1.737-5.594-2.281-7.673v23.789H409.196z"/>
	<path fill="#FFFFFF" d="M400.882,108.343c-0.3-1.151-0.489-1.923-0.489-1.923h-0.171v25.711h0.66V108.343z"/>
	<path fill="#CDCCCB" d="M466.088,124.84c-0.27-0.152-0.534-0.305-0.791-0.458c-0.105-0.063-0.211-0.126-0.314-0.189
		c-0.275-0.167-0.543-0.335-0.803-0.502c-0.065-0.042-0.132-0.083-0.195-0.125c-6.314-4.122-8.325-8.301-8.937-10.895
		c-0.007-0.026-0.012-0.05-0.018-0.076c-0.019-0.082-0.037-0.163-0.053-0.241c-0.095-0.45-0.149-0.849-0.177-1.182v14.481v12.591
		l12.777-6.468v-4.765v-0.001v-1.357v-0.003c-0.401-0.207-0.786-0.415-1.163-0.623C466.304,124.964,466.197,124.902,466.088,124.84z
		"/>
	<path fill="#FFFFFF" d="M454.774,108.92c-0.007,0.522,0.032,0.995,0.026,1.075c-0.002,0.029-0.06,0.454,0,1.176v-0.163
		c-0.015-0.312-0.01-0.551,0-0.712v-0.231h0.022c0,0-0.013,0.081-0.022,0.231v0.712c0.02,0.359,0.068,0.814,0.177,1.345
		c0.017,0.079,0.033,0.159,0.053,0.241c0.006,0.025,0.011,0.051,0.018,0.076c0.632,2.617,2.661,6.794,8.937,10.895
		c0.063,0.042,0.13,0.083,0.195,0.125c0.26,0.167,0.527,0.335,0.803,0.502c0.104,0.063,0.209,0.126,0.314,0.189
		c0.257,0.153,0.521,0.306,0.791,0.458c0.109,0.062,0.216,0.124,0.327,0.186c0.377,0.208,0.762,0.417,1.163,0.623v-0.339v-0.001
		v-15.312v-0.003v-0.681v-1.723V93.655C455.316,99.981,454.725,107.187,454.774,108.92z"/>
	<path fill="#FFFFFF" d="M466.088,124.84c0.109,0.062,0.216,0.124,0.327,0.186C466.304,124.964,466.197,124.902,466.088,124.84z"/>
	<path fill="#FFFFFF" d="M463.984,123.565c0.063,0.042,0.13,0.083,0.195,0.125C464.114,123.649,464.048,123.607,463.984,123.565z"/>
	<path fill="#FFFFFF" d="M454.801,111.008v-0.712C454.791,110.457,454.786,110.697,454.801,111.008z"/>
	<path fill="#FFFFFF" d="M455.03,112.594c0.006,0.026,0.011,0.05,0.018,0.076C455.041,112.645,455.036,112.62,455.03,112.594z"/>
	<path fill="#FFFFFF" d="M454.801,111.008v0.163c0.027,0.333,0.082,0.732,0.177,1.182
		C454.869,111.823,454.82,111.368,454.801,111.008z"/>
	<path fill="#FFFFFF" d="M454.801,110.065v0.231c0.01-0.15,0.022-0.231,0.022-0.231H454.801z"/>
	<path fill="#FFFFFF" d="M464.982,124.193c0.104,0.063,0.209,0.126,0.314,0.189C465.191,124.319,465.086,124.256,464.982,124.193z"
		/>
</g>
</svg>
