<?xml version="1.0" encoding="utf-8"?>
<!-- Generator: Adobe Illustrator 16.0.4, SVG Export Plug-In . SVG Version: 6.00 Build 0)  -->
<!DOCTYPE svg PUBLIC "-//W3C//DTD SVG 1.1//EN" "http://www.w3.org/Graphics/SVG/1.1/DTD/svg11.dtd">
<svg version="1.1" id="Layer_1" xmlns="http://www.w3.org/2000/svg" xmlns:xlink="http://www.w3.org/1999/xlink" x="0px" y="0px"
	 width="800px" height="254px" viewBox="0 0 800 254" enable-background="new 0 0 800 254" xml:space="preserve">
<linearGradient id="SVGID_1_" gradientUnits="userSpaceOnUse" x1="0" y1="127" x2="800" y2="127">
	<stop  offset="0" style="stop-color:#FBA740"/>
	<stop  offset="1" style="stop-color:#FF8E52"/>
</linearGradient>
<rect y="-0.178" fill="url(#SVGID_1_)" width="800" height="254.357"/>
<g>
	<g>
		<path fill="#FFFFFF" d="M184.791,152.618h1.171c1.626,0,2.618-0.271,3.251-1.994l20.781-55.923h6.777l20.781,55.923
			c0.632,1.724,1.529,1.994,3.251,1.994h1.08v5.599h-2.889c-4.52,0-5.871-0.904-7.499-5.238l-5.51-14.998h-25.209l-5.597,14.998
			c-1.636,4.334-2.9,5.238-7.415,5.238h-2.973V152.618z M224.266,132.469l-8.402-22.68c-1.08-2.977-2.44-8.215-2.44-8.215h-0.175
			c0,0-1.355,5.239-2.445,8.215l-8.312,22.68H224.266z"/>
		<path fill="#FFFFFF" d="M251.401,120.088c0-1.265-0.726-1.984-1.993-1.984h-3.788v-5.329h6.417c3.883,0,5.507,1.627,5.507,5.511
			v32.613c0,1.353,0.722,1.986,1.987,1.986h3.797v5.332h-6.416c-3.887,0-5.512-1.624-5.512-5.51V120.088z M251.218,94.701h5.966
			v7.768h-5.966V94.701z"/>
		<path fill="#FFFFFF" d="M273.64,120.088c0-1.265-0.72-1.984-1.986-1.984h-3.794v-5.329h6.327c3.794,0,5.507,1.53,5.507,5.15v3.068
			c0,1.897-0.184,3.434-0.184,3.434h0.184c2.171-6.869,7.233-12.106,14.368-12.106c1.265,0,2.436,0.272,2.436,0.272v6.055
			c0,0-1.082-0.186-2.258-0.186c-6.415,0-11.204,5.061-13.191,11.749c-0.906,2.892-1.266,5.958-1.266,8.85v19.156h-6.143V120.088z"
			/>
		<path fill="#FFFFFF" d="M305.095,102.02c0-1.265-0.72-1.987-1.985-1.987h-3.795v-5.332h6.416c3.884,0,5.508,1.627,5.508,5.51
			v16.448c0,2.076-0.185,3.7-0.185,3.7h0.185c0,0,3.796-8.671,15.456-8.671c12.196,0,19.78,9.763,19.78,23.847
			c0,14.369-8.586,23.764-20.508,23.764c-10.836,0-14.913-8.761-14.913-8.761h-0.175c0,0,0.175,1.536,0.175,3.707v3.972h-5.959
			V102.02z M325.519,153.878c8.031,0,14.63-6.776,14.63-18.343c0-11.109-5.965-18.243-14.367-18.243
			c-7.583,0-14.728,5.415-14.728,18.341C311.055,144.755,315.763,153.878,325.519,153.878z"/>
		<path fill="#FFFFFF" d="M358.166,120.088c0-1.265-0.729-1.984-1.988-1.984h-3.795v-5.329h6.319c3.796,0,5.511,1.53,5.511,5.15
			v3.068c0,1.897-0.179,3.434-0.179,3.434h0.179c2.17-6.869,7.231-12.106,14.367-12.106c1.265,0,2.433,0.272,2.433,0.272v6.055
			c0,0-1.082-0.186-2.25-0.186c-6.414,0-11.211,5.061-13.198,11.749c-0.897,2.892-1.265,5.958-1.265,8.85v19.156h-6.134V120.088z"/>
		<path fill="#FFFFFF" d="M411.484,130.211h2.522v-0.545c0-9.482-3.434-12.83-11.749-12.83c-2.249,0-8.849,0.633-8.849,3.979v2.892
			h-5.87v-4.34c0-6.327,10.836-7.679,14.815-7.679c14.368,0,17.793,7.679,17.793,17.433v21.777c0,1.353,0.722,1.986,1.986,1.986
			h3.797v5.332h-6.229c-3.885,0-5.421-1.713-5.421-5.421c0-1.986,0.086-3.34,0.086-3.34h-0.177c0.091,0-3.705,9.843-15.086,9.843
			c-7.592,0-15.448-4.422-15.448-13.462C383.655,130.748,403.619,130.211,411.484,130.211z M400.097,154.061
			c8.672,0,13.91-9.034,13.91-16.898v-2.075h-2.618c-7.137,0-21.414,0.188-21.414,10.388
			C389.975,149.727,393.32,154.061,400.097,154.061z"/>
		<path fill="#FFFFFF" d="M435.45,102.02c0-1.265-0.718-1.987-1.985-1.987h-3.796v-5.332h6.414c3.883,0,5.51,1.354,5.51,5.246
			v30.176h4.701c1.706,0,3.885-0.545,5.149-2.169l11.652-15.178h7.497l-13.104,16.62c-2.256,2.803-3.427,3.252-3.427,3.252v0.183
			c0,0,1.355,0.633,2.798,3.34l8.224,14.729c0.809,1.535,1.711,1.986,4.156,1.986h2.433v5.332h-4.244
			c-4.517,0-5.781-0.72-7.861-4.516l-9.035-16.268c-0.988-1.8-3.155-1.984-4.782-1.984h-4.156v22.768h-6.143V102.02z"/>
		<path fill="#FFFFFF" d="M497.991,111.688c12.553,0,19.07,9.665,19.07,20.958c0,1.087-0.192,3.074-0.192,3.074h-34.866
			c0.175,11.475,8.224,18.068,17.608,18.068c8.314,0,13.656-5.598,13.656-5.598l2.969,4.604c0,0-6.59,6.503-16.887,6.503
			c-13.464,0-23.761-9.754-23.761-23.764C475.589,120.633,485.797,111.688,497.991,111.688z M510.736,130.842
			c-0.37-9.391-6.15-14.005-12.829-14.005c-7.503,0-14.095,4.877-15.643,14.005H510.736z"/>
		<path fill="#FFFFFF" d="M527.742,150.994h6.961v7.223h-6.961V150.994z"/>
		<path fill="#FFFFFF" d="M549.253,120.088c0-1.265-0.723-1.984-1.987-1.984h-3.796v-5.329h6.414c3.885,0,5.517,1.627,5.517,5.511
			v32.613c0,1.353,0.725,1.986,1.987,1.986h3.796v5.332h-6.414c-3.885,0-5.517-1.624-5.517-5.51V120.088z M549.075,94.701h5.96
			v7.768h-5.96V94.701z"/>
		<path fill="#FFFFFF" d="M591.184,111.688c13.287,0,24.025,10.122,24.025,23.586c0,13.726-10.738,24.024-23.938,24.024
			c-13.282,0-24.025-10.299-24.025-24.024C567.245,121.81,577.988,111.688,591.184,111.688z M591.271,153.789
			c9.668,0,17.627-7.952,17.627-18.515c0-10.311-7.959-17.982-17.627-17.982c-9.753,0-17.697,7.671-17.697,17.982
			C573.573,145.837,581.518,153.789,591.271,153.789z"/>
	</g>
</g>
</svg>
