<?xml version="1.0" encoding="utf-8"?>
<!-- Generator: Adobe Illustrator 16.0.4, SVG Export Plug-In . SVG Version: 6.00 Build 0)  -->
<!DOCTYPE svg PUBLIC "-//W3C//DTD SVG 1.1//EN" "http://www.w3.org/Graphics/SVG/1.1/DTD/svg11.dtd">
<svg version="1.1" id="Layer_1" xmlns="http://www.w3.org/2000/svg" xmlns:xlink="http://www.w3.org/1999/xlink" x="0px" y="0px"
	 width="800px" height="254px" viewBox="0 0 800 254" enable-background="new 0 0 800 254" xml:space="preserve">
<g>
	<g>
		<path fill="#FFFFFF" d="M399.757,86.655h-8.753l-3.229,8.327c-1.173,3.024-2.422,3.896-6.093,3.896h-5.795v-7.456h1.172
			c1.249,0,1.835-0.27,2.276-1.477l15.485-38.754h4.937V25.601h-0.883v0.026l-48.599,24.974v23.738h0.001v1.26h-0.001V75.6v23.738
			l48.599,25.254h1.5v-0.002h-0.616V86.655L399.757,86.655z"/>
		<path fill="#E4E4E4" d="M440.438,64.982c0.012,0.048,0.024,0.1,0.037,0.149C440.464,65.082,440.449,65.03,440.438,64.982z"/>
		<path fill="#E4E4E4" d="M445.694,72.085c0.083,0.063,0.175,0.127,0.264,0.192C445.87,72.212,445.778,72.148,445.694,72.085z"/>
		<path fill="#E4E4E4" d="M440.553,65.394c0.091,0.313,0.212,0.649,0.363,1.007C440.763,66.044,440.646,65.708,440.553,65.394z"/>
		<path fill="#E4E4E4" d="M442.952,69.562c0.113,0.13,0.231,0.258,0.354,0.389C443.184,69.82,443.065,69.691,442.952,69.562z"/>
		<path fill="#E4E4E4" d="M444.568,71.167c0.109,0.096,0.221,0.192,0.337,0.288C444.789,71.359,444.678,71.262,444.568,71.167z"/>
		<path fill="#E4E4E4" d="M440.931,66.43c0.277,0.647,0.671,1.357,1.213,2.111C441.602,67.79,441.21,67.078,440.931,66.43z"/>
		<path fill="#E4E4E4" d="M444.101,70.741c-0.177-0.165-0.344-0.328-0.505-0.492C443.757,70.413,443.923,70.576,444.101,70.741z"/>
		<path fill="#E4E4E4" d="M400.633,25.601h-0.386v25.591h4.627l15.411,38.754c0.439,1.209,1.028,1.477,2.276,1.477h1.175v7.456
			h-5.724c-3.671,0-4.992-0.874-6.165-3.896l-3.23-8.327h-8.243v37.935h0.26l0.123,0.002l48.975-25.252V79.138l-9.479,4.799v-9.342
			V63.85c-0.045-0.535-0.002-0.851,0-0.873c0.004-0.059-0.024-0.41-0.019-0.798c-0.036-1.286,0.401-6.633,9.497-11.326v-0.252
			L400.633,25.601z"/>
		<path fill="#E4E4E4" d="M442.222,68.647c0.198,0.271,0.419,0.547,0.658,0.826C442.639,69.195,442.42,68.919,442.222,68.647z"/>
		<path fill="#E4E4E4" d="M446.771,72.848c0.083,0.055,0.163,0.112,0.246,0.167C446.934,72.961,446.854,72.904,446.771,72.848z"/>
		<path fill="#E4E4E4" d="M448.137,73.711c0.09,0.053,0.182,0.104,0.275,0.159C448.318,73.816,448.227,73.764,448.137,73.711z"/>
		<rect x="399.757" y="86.655" fill="#E4E4E4" width="0.616" height="37.935"/>
		<rect x="399.757" y="25.601" fill="#E4E4E4" width="0.49" height="25.591"/>
		<path fill="#FFFFFF" d="M399.738,60.326c0,0-1.102,4.501-2.055,7.119l-4.477,11.956h6.552V60.326H399.738z"/>
		<path fill="#FFFFFF" d="M406.415,79.402l-4.477-11.956c-0.614-1.687-1.289-4.15-1.692-5.694v17.649H406.415L406.415,79.402z"/>
		<path fill="#FFFFFF" d="M400.247,61.753c-0.222-0.851-0.364-1.425-0.364-1.425h-0.127v19.075h0.489L400.247,61.753L400.247,61.753
			z"/>
		<path fill="#CDCCCB" d="M448.137,73.711c-0.39-0.231-0.766-0.463-1.12-0.696c-0.084-0.055-0.164-0.112-0.248-0.167
			c-0.283-0.191-0.554-0.381-0.812-0.572c-0.089-0.064-0.179-0.128-0.265-0.191c-0.277-0.211-0.538-0.421-0.788-0.63
			c-0.116-0.096-0.228-0.192-0.337-0.288c-0.163-0.144-0.318-0.284-0.469-0.424c-0.176-0.166-0.342-0.329-0.504-0.493
			c-0.098-0.1-0.195-0.201-0.289-0.299c-0.123-0.131-0.24-0.26-0.354-0.389c-0.025-0.029-0.048-0.058-0.074-0.088
			c-0.239-0.28-0.459-0.554-0.658-0.826c-0.024-0.036-0.052-0.071-0.076-0.105c-0.543-0.754-0.937-1.465-1.216-2.111
			c-0.004-0.01-0.008-0.021-0.012-0.031c-0.152-0.358-0.273-0.694-0.365-1.007c-0.025-0.09-0.053-0.177-0.075-0.263
			c-0.012-0.049-0.025-0.101-0.037-0.149c-0.107-0.44-0.163-0.822-0.188-1.13v10.744v9.341l9.479-4.799v-3.536l0,0v-1.007v-0.002
			c-0.464-0.241-0.897-0.48-1.318-0.724C448.318,73.816,448.227,73.764,448.137,73.711z"/>
		<path fill="#FFFFFF" d="M440.23,62.181c-0.006,0.387,0.023,0.739,0.02,0.798c-0.002,0.022-0.044,0.336,0,0.873v-0.121
			c-0.013-0.23-0.008-0.408,0-0.527V63.03h0.018c0,0-0.01,0.06-0.018,0.172v0.528c0.018,0.322,0.066,0.749,0.188,1.251
			c0.012,0.049,0.024,0.1,0.037,0.149c0.023,0.085,0.05,0.173,0.075,0.263c0.094,0.314,0.21,0.65,0.365,1.007
			c0.004,0.009,0.008,0.02,0.012,0.03c0.281,0.648,0.674,1.359,1.216,2.111c0.024,0.036,0.051,0.071,0.076,0.106
			c0.199,0.271,0.42,0.547,0.658,0.826c0.026,0.03,0.049,0.058,0.074,0.088c0.112,0.128,0.232,0.258,0.354,0.389
			c0.094,0.1,0.191,0.199,0.289,0.299c0.16,0.164,0.327,0.327,0.504,0.493c0.15,0.142,0.306,0.282,0.469,0.424
			c0.109,0.095,0.222,0.192,0.337,0.288c0.25,0.209,0.511,0.419,0.788,0.63c0.084,0.063,0.176,0.127,0.265,0.192
			c0.258,0.191,0.526,0.381,0.812,0.572c0.084,0.055,0.164,0.112,0.248,0.167c0.354,0.232,0.728,0.464,1.12,0.696
			c0.09,0.053,0.182,0.104,0.275,0.159c0.42,0.243,0.854,0.484,1.319,0.724v-0.251v-0.001V62.98v-0.002v-0.505v-1.278V50.856
			C440.632,55.548,440.194,60.895,440.23,62.181z"/>
		<path fill="#FFFFFF" d="M440.916,66.401c0.004,0.01,0.009,0.021,0.013,0.03C440.926,66.422,440.92,66.41,440.916,66.401z"/>
		<path fill="#FFFFFF" d="M443.307,69.95c0.094,0.1,0.191,0.199,0.289,0.299C443.498,70.149,443.399,70.05,443.307,69.95z"/>
		<path fill="#FFFFFF" d="M444.905,71.455c0.25,0.209,0.511,0.419,0.789,0.63C445.416,71.874,445.155,71.664,444.905,71.455z"/>
		<path fill="#FFFFFF" d="M444.101,70.741c0.149,0.142,0.305,0.282,0.468,0.424C444.404,71.023,444.25,70.883,444.101,70.741z"/>
		<path fill="#FFFFFF" d="M445.958,72.277c0.257,0.191,0.527,0.381,0.812,0.572C446.488,72.658,446.216,72.467,445.958,72.277z"/>
		<path fill="#FFFFFF" d="M449.73,74.593c-0.465-0.239-0.899-0.48-1.319-0.723C448.831,74.11,449.266,74.354,449.73,74.593z"/>
		<path fill="#FFFFFF" d="M447.017,73.016c0.355,0.232,0.729,0.464,1.121,0.696C447.745,73.48,447.371,73.247,447.017,73.016z"/>
		<path fill="#FFFFFF" d="M440.478,65.131c0.023,0.086,0.048,0.173,0.075,0.263C440.525,65.304,440.499,65.216,440.478,65.131z"/>
		<path fill="#FFFFFF" d="M440.251,63.731v0.122c0.024,0.308,0.081,0.689,0.188,1.129C440.317,64.479,440.268,64.053,440.251,63.731
			z"/>
		<path fill="#FFFFFF" d="M442.88,69.474c0.025,0.031,0.048,0.058,0.073,0.088C442.928,69.532,442.904,69.505,442.88,69.474z"/>
		<path fill="#FFFFFF" d="M440.251,63.03v0.172c0.008-0.111,0.017-0.172,0.017-0.172H440.251z"/>
		<path fill="#FFFFFF" d="M440.251,63.731v-0.527C440.244,63.321,440.239,63.499,440.251,63.731z"/>
		<path fill="#FFFFFF" d="M442.143,68.542c0.025,0.037,0.053,0.072,0.077,0.106C442.194,68.614,442.17,68.578,442.143,68.542z"/>
	</g>
	<g>
		<path fill="#FFFFFF" d="M239.204,212.307h0.875c1.216,0,1.957-0.201,2.429-1.487l15.527-41.785h5.063l15.527,41.785
			c0.473,1.286,1.142,1.487,2.43,1.487h0.806v4.184h-2.158c-3.377,0-4.387-0.677-5.604-3.914l-4.118-11.206h-18.834l-4.184,11.206
			c-1.221,3.237-2.165,3.914-5.54,3.914H239.2v-4.184H239.204z M268.701,197.252l-6.28-16.947c-0.806-2.225-1.824-6.137-1.824-6.137
			h-0.131c0,0-1.013,3.914-1.827,6.137l-6.212,16.947H268.701z"/>
		<path fill="#FFFFFF" d="M288.975,188.001c0-0.943-0.543-1.48-1.49-1.48h-2.83v-3.981h4.794c2.901,0,4.115,1.215,4.115,4.117
			v24.364c0,1.013,0.539,1.483,1.483,1.483h2.838v3.986h-4.793c-2.904,0-4.117-1.216-4.117-4.117L288.975,188.001L288.975,188.001z
			 M288.837,169.034h4.457v5.804h-4.457V169.034z"/>
		<path fill="#FFFFFF" d="M305.59,188.001c0-0.943-0.538-1.48-1.483-1.48h-2.833v-3.981H306c2.835,0,4.115,1.141,4.115,3.848v2.291
			c0,1.42-0.137,2.566-0.137,2.566h0.137c1.623-5.134,5.406-9.047,10.734-9.047c0.945,0,1.82,0.205,1.82,0.205v4.526
			c0,0-0.809-0.138-1.688-0.138c-4.793,0-8.371,3.78-9.855,8.776c-0.676,2.162-0.947,4.453-0.947,6.612v14.312h-4.587
			L305.59,188.001L305.59,188.001z"/>
		<path fill="#FFFFFF" d="M329.093,174.502c0-0.945-0.539-1.482-1.481-1.482h-2.836v-3.984h4.794c2.902,0,4.116,1.216,4.116,4.117
			v12.289c0,1.551-0.139,2.767-0.139,2.767h0.139c0,0,2.835-6.479,11.546-6.479c9.113,0,14.781,7.291,14.781,17.816
			c0,10.735-6.415,17.754-15.323,17.754c-8.096,0-11.144-6.546-11.144-6.546h-0.132c0,0,0.132,1.148,0.132,2.77v2.97h-4.453V174.502
			L329.093,174.502z M344.353,213.247c6,0,10.931-5.063,10.931-13.702c0-8.301-4.457-13.633-10.733-13.633
			c-5.665,0-11.005,4.047-11.005,13.704C333.544,206.431,337.062,213.247,344.353,213.247z"/>
		<path fill="#FFFFFF" d="M368.745,188.001c0-0.943-0.544-1.48-1.484-1.48h-2.836v-3.981h4.723c2.837,0,4.116,1.141,4.116,3.848
			v2.291c0,1.42-0.133,2.566-0.133,2.566h0.133c1.623-5.134,5.404-9.047,10.735-9.047c0.943,0,1.816,0.205,1.816,0.205v4.526
			c0,0-0.807-0.138-1.681-0.138c-4.792,0-8.376,3.78-9.862,8.776c-0.67,2.162-0.945,4.453-0.945,6.612v14.312h-4.583V188.001z"/>
		<path fill="#FFFFFF" d="M408.583,195.565h1.886v-0.407c0-7.087-2.568-9.586-8.778-9.586c-1.681,0-6.611,0.474-6.611,2.973v2.161
			h-4.386v-3.241c0-4.729,8.096-5.738,11.069-5.738c10.736,0,13.295,5.738,13.295,13.025v16.271c0,1.01,0.54,1.483,1.483,1.483
			h2.837v3.983h-4.654c-2.903,0-4.051-1.279-4.051-4.051c0-1.484,0.065-2.495,0.065-2.495h-0.132c0.066,0-2.771,7.354-11.272,7.354
			c-5.672,0-11.542-3.304-11.542-10.059C387.79,195.967,402.706,195.565,408.583,195.565z M400.075,213.383
			c6.479,0,10.394-6.75,10.394-12.624v-1.551h-1.959c-5.332,0-15.998,0.14-15.998,7.762
			C392.512,210.146,395.011,213.383,400.075,213.383z"/>
		<path fill="#FFFFFF" d="M426.49,174.502c0-0.945-0.538-1.482-1.483-1.482h-2.836v-3.984h4.792c2.902,0,4.118,1.012,4.118,3.92
			v22.546h3.511c1.275,0,2.902-0.406,3.848-1.622l8.707-11.34h5.599l-9.789,12.417c-1.686,2.092-2.56,2.43-2.56,2.43v0.135
			c0,0,1.013,0.473,2.089,2.495l6.143,11.003c0.604,1.15,1.28,1.485,3.106,1.485h1.819v3.983h-3.174
			c-3.375,0-4.319-0.538-5.872-3.375l-6.752-12.153c-0.738-1.345-2.355-1.482-3.573-1.482h-3.105v17.011h-4.59V174.5h0.003V174.502z
			"/>
		<path fill="#FFFFFF" d="M473.219,181.725c9.38,0,14.248,7.222,14.248,15.658c0,0.812-0.142,2.297-0.142,2.297h-26.053
			c0.129,8.576,6.143,13.502,13.155,13.502c6.213,0,10.204-4.185,10.204-4.185l2.22,3.44c0,0-4.926,4.858-12.617,4.858
			c-10.061,0-17.755-7.287-17.755-17.753C456.479,188.407,464.105,181.725,473.219,181.725z M482.74,196.036
			c-0.275-7.017-4.593-10.462-9.583-10.462c-5.606,0-10.533,3.646-11.688,10.462H482.74z"/>
		<path fill="#FFFFFF" d="M495.445,211.091h5.201v5.399h-5.201V211.091z"/>
		<path fill="#FFFFFF" d="M511.52,188.001c0-0.943-0.54-1.48-1.483-1.48h-2.837v-3.981h4.793c2.902,0,4.122,1.215,4.122,4.117
			v24.364c0,1.013,0.541,1.483,1.484,1.483h2.836v3.986h-4.794c-2.9,0-4.121-1.216-4.121-4.117V188.001z M511.386,169.034h4.453
			v5.804h-4.453V169.034z"/>
		<path fill="#FFFFFF" d="M542.85,181.725c9.926,0,17.95,7.562,17.95,17.623c0,10.255-8.022,17.949-17.886,17.949
			c-9.926,0-17.951-7.694-17.951-17.949C524.963,189.287,532.988,181.725,542.85,181.725z M542.914,213.183
			c7.222,0,13.171-5.943,13.171-13.835c0-7.702-5.947-13.436-13.171-13.436c-7.286,0-13.223,5.733-13.223,13.436
			C529.69,207.239,535.627,213.183,542.914,213.183z"/>
	</g>
</g>
</svg>
