<?xml version="1.0" encoding="utf-8"?>
<!-- Generator: Adobe Illustrator 16.0.4, SVG Export Plug-In . SVG Version: 6.00 Build 0)  -->
<!DOCTYPE svg PUBLIC "-//W3C//DTD SVG 1.1//EN" "http://www.w3.org/Graphics/SVG/1.1/DTD/svg11.dtd">
<svg version="1.1" id="Layer_1" xmlns="http://www.w3.org/2000/svg" xmlns:xlink="http://www.w3.org/1999/xlink" x="0px" y="0px"
	 width="800px" height="254px" viewBox="0 0 800 254" enable-background="new 0 0 800 254" xml:space="preserve">
<rect y="0.413" fill="#FFFFFF" width="800" height="253.175"/>
<g>
	<rect x="189.883" y="95.354" fill="#5D5D5D" width="421.738" height="63.294"/>
	<rect x="189.883" y="32.06" fill="#F58C54" width="421.738" height="63.294"/>
	<rect x="126.588" y="0.412" fill="#F58C54" width="63.294" height="253.176"/>
	<rect x="63.294" y="0.412" fill="#F58C54" width="63.294" height="253.176"/>
	<rect y="0.412" fill="#F58C54" width="63.294" height="253.176"/>
	<rect x="189.883" y="0.413" fill="#F58C54" width="421.738" height="31.647"/>
	<g>
		<g>
			<path fill="#F58C54" d="M189.883,152.102h1.147c1.593,0,2.565-0.266,3.186-1.954l20.362-54.794h6.64l20.362,54.794
				c0.619,1.688,1.498,1.954,3.186,1.954h1.058v5.485h-2.831c-4.429,0-5.752-0.886-7.348-5.133l-5.398-14.695h-24.701l-5.484,14.695
				c-1.603,4.247-2.841,5.133-7.265,5.133h-2.913V152.102z M228.562,132.359l-8.233-22.221c-1.058-2.918-2.391-8.051-2.391-8.051
				h-0.171c0,0-1.329,5.133-2.396,8.051l-8.145,22.221H228.562z"/>
			<path fill="#F58C54" d="M255.15,120.229c0-1.239-0.711-1.944-1.953-1.944h-3.711v-5.221h6.287c3.804,0,5.396,1.594,5.396,5.401
				v31.952c0,1.326,0.708,1.946,1.946,1.946h3.721v5.225h-6.286c-3.809,0-5.401-1.592-5.401-5.398V120.229z M254.971,95.354h5.845
				v7.611h-5.845V95.354z"/>
			<path fill="#F58C54" d="M276.94,120.229c0-1.239-0.706-1.944-1.946-1.944h-3.717v-5.221h6.199c3.717,0,5.396,1.5,5.396,5.046
				v3.006c0,1.859-0.18,3.366-0.18,3.366h0.18c2.128-6.731,7.088-11.862,14.078-11.862c1.239,0,2.386,0.266,2.386,0.266v5.934
				c0,0-1.061-0.183-2.213-0.183c-6.284,0-10.978,4.959-12.924,11.512c-0.888,2.833-1.24,5.838-1.24,8.67v18.77h-6.019V120.229z"/>
			<path fill="#F58C54" d="M307.761,102.525c0-1.239-0.706-1.947-1.945-1.947h-3.718v-5.225h6.286c3.805,0,5.396,1.594,5.396,5.398
				v16.118c0,2.033-0.181,3.625-0.181,3.625h0.181c0,0,3.721-8.496,15.145-8.496c11.95,0,19.381,9.566,19.381,23.366
				c0,14.078-8.412,23.283-20.094,23.283c-10.617,0-14.612-8.584-14.612-8.584h-0.171c0,0,0.171,1.505,0.171,3.633v3.891h-5.839
				V102.525z M327.773,153.336c7.869,0,14.335-6.64,14.335-17.972c0-10.884-5.845-17.875-14.077-17.875
				c-7.43,0-14.431,5.306-14.431,17.972C313.6,144.396,318.213,153.336,327.773,153.336z"/>
			<path fill="#F58C54" d="M359.761,120.229c0-1.239-0.714-1.944-1.947-1.944h-3.72v-5.221h6.192c3.719,0,5.399,1.5,5.399,5.046
				v3.006c0,1.859-0.175,3.366-0.175,3.366h0.175c2.126-6.731,7.085-11.862,14.077-11.862c1.238,0,2.384,0.266,2.384,0.266v5.934
				c0,0-1.06-0.183-2.204-0.183c-6.285,0-10.985,4.959-12.932,11.512c-0.88,2.833-1.24,5.838-1.24,8.67v18.77h-6.01V120.229z"/>
			<path fill="#F58C54" d="M412.004,130.147h2.473v-0.534c0-9.291-3.365-12.571-11.512-12.571c-2.205,0-8.671,0.621-8.671,3.898
				v2.833h-5.751v-4.252c0-6.199,10.617-7.524,14.516-7.524c14.078,0,17.436,7.524,17.436,17.082v21.336
				c0,1.326,0.707,1.946,1.945,1.946h3.721v5.225h-6.105c-3.805,0-5.311-1.679-5.311-5.312c0-1.946,0.086-3.272,0.086-3.272h-0.174
				c0.088,0-3.633,9.645-14.784,9.645c-7.439,0-15.136-4.333-15.136-13.19C384.737,130.674,404.299,130.147,412.004,130.147z
				 M400.846,153.515c8.498,0,13.631-8.853,13.631-16.556v-2.034h-2.566c-6.992,0-20.981,0.184-20.981,10.178
				C390.929,149.269,394.207,153.515,400.846,153.515z"/>
			<path fill="#F58C54" d="M435.488,102.525c0-1.239-0.705-1.947-1.947-1.947h-3.719v-5.225h6.285c3.805,0,5.398,1.326,5.398,5.14
				v29.565h4.605c1.674,0,3.807-0.532,5.047-2.124l11.418-14.872h7.344l-12.838,16.285c-2.213,2.745-3.359,3.186-3.359,3.186v0.179
				c0,0,1.328,0.621,2.742,3.273l8.057,14.431c0.793,1.506,1.678,1.946,4.074,1.946h2.383v5.225h-4.158
				c-4.426,0-5.666-0.705-7.705-4.425l-8.852-15.938c-0.967-1.764-3.09-1.944-4.686-1.944h-4.072v22.307h-6.018V102.525z"/>
			<path fill="#F58C54" d="M496.768,111.998c12.299,0,18.684,9.469,18.684,20.535c0,1.065-0.186,3.013-0.186,3.013H481.1
				c0.172,11.243,8.059,17.703,17.254,17.703c8.146,0,13.381-5.485,13.381-5.485l2.91,4.512c0,0-6.459,6.372-16.547,6.372
				c-13.193,0-23.283-9.558-23.283-23.283C474.814,120.762,484.816,111.998,496.768,111.998z M509.254,130.766
				c-0.361-9.202-6.025-13.723-12.568-13.723c-7.354,0-13.812,4.779-15.328,13.723H509.254z"/>
			<path fill="#F58C54" d="M525.916,150.51h6.822v7.077h-6.822V150.51z"/>
			<path fill="#F58C54" d="M546.994,120.229c0-1.239-0.707-1.944-1.947-1.944h-3.719v-5.221h6.285c3.807,0,5.404,1.594,5.404,5.401
				v31.952c0,1.326,0.709,1.946,1.947,1.946h3.721v5.225H552.4c-3.807,0-5.406-1.592-5.406-5.398V120.229z M546.82,95.354h5.84
				v7.611h-5.84V95.354z"/>
			<path fill="#F58C54" d="M588.08,111.998c13.02,0,23.541,9.917,23.541,23.11c0,13.447-10.521,23.539-23.457,23.539
				c-13.016,0-23.539-10.092-23.539-23.539C564.625,121.916,575.148,111.998,588.08,111.998z M588.164,153.249
				c9.473,0,17.273-7.792,17.273-18.141c0-10.103-7.801-17.619-17.273-17.619c-9.555,0-17.34,7.517-17.34,17.619
				C570.824,145.457,578.609,153.249,588.164,153.249z"/>
		</g>
	</g>
	<text transform="matrix(1 0 0 1 28.5693 130.5215)" font-family="'MyriadPro-Regular'" font-size="12">1</text>
	<text transform="matrix(1 0 0 1 91.8633 130.5215)" font-family="'MyriadPro-Regular'" font-size="12">1</text>
	<text transform="matrix(1 0 0 1 155.1572 130.5215)" font-family="'MyriadPro-Regular'" font-size="12">1</text>
	<text transform="matrix(1 0 0 1 397.6738 67.2285)" font-family="'MyriadPro-Regular'" font-size="12">1</text>
	<text transform="matrix(1 0 0 1 393.354 19.7578)" font-family="'MyriadPro-Regular'" font-size="12">0.5</text>
</g>
</svg>
