<?xml version="1.0" encoding="utf-8"?>
<!-- Generator: Adobe Illustrator 16.0.4, SVG Export Plug-In . SVG Version: 6.00 Build 0)  -->
<!DOCTYPE svg PUBLIC "-//W3C//DTD SVG 1.1//EN" "http://www.w3.org/Graphics/SVG/1.1/DTD/svg11.dtd">
<svg version="1.1" id="Layer_1" xmlns="http://www.w3.org/2000/svg" xmlns:xlink="http://www.w3.org/1999/xlink" x="0px" y="0px"
	 width="800px" height="254px" viewBox="0 0 800 254" enable-background="new 0 0 800 254" xml:space="preserve">
<g>
	<g>
		<path fill="#FF8E4A" d="M201.738,139.59h-9.535l-3.518,9.072c-1.279,3.293-2.638,4.244-6.636,4.244h-6.315v-8.121h1.279
			c1.36,0,1.999-0.293,2.479-1.609l16.869-42.217h5.378V73.082h-0.962v0.029l-52.941,27.205v25.859h0.002v1.374h-0.002v0.001v25.86
			l52.941,27.508h1.633v-0.002h-0.67V139.59z"/>
		<path fill="#F48746" d="M248.793,120.969c0.123,0.141,0.253,0.282,0.386,0.424C249.046,121.251,248.916,121.109,248.793,120.969z"
			/>
		<path fill="#F48746" d="M247.996,119.975c0.217,0.295,0.455,0.595,0.717,0.899C248.452,120.57,248.213,120.27,247.996,119.975z"/>
		<path fill="#F48746" d="M251.779,123.717c0.092,0.07,0.191,0.14,0.287,0.21C251.971,123.857,251.872,123.787,251.779,123.717z"/>
		<path fill="#F48746" d="M250.552,122.717c0.12,0.105,0.241,0.209,0.367,0.314C250.794,122.926,250.672,122.821,250.552,122.717z"
			/>
		<path fill="#F48746" d="M246.589,117.559c0.303,0.704,0.73,1.478,1.322,2.3C247.321,119.039,246.895,118.264,246.589,117.559z"/>
		<path fill="#F48746" d="M246.054,115.98c0.012,0.052,0.028,0.108,0.042,0.162C246.083,116.088,246.067,116.033,246.054,115.98z"/>
		<path fill="#F48746" d="M246.177,116.429c0.1,0.341,0.231,0.707,0.397,1.097C246.408,117.137,246.279,116.771,246.177,116.429z"/>
		<path fill="#F48746" d="M250.043,122.254c-0.191-0.179-0.375-0.358-0.55-0.536C249.668,121.896,249.851,122.075,250.043,122.254z"
			/>
		<path fill="#F48746" d="M252.952,124.549c0.09,0.061,0.177,0.122,0.27,0.182C253.129,124.671,253.042,124.61,252.952,124.549z"/>
		<path fill="#F48746" d="M202.691,73.082h-0.419v27.877h5.041l16.789,42.217c0.479,1.316,1.119,1.609,2.478,1.609h1.279v8.121
			h-6.236c-3.998,0-5.436-0.951-6.715-4.244l-3.518-9.072h-8.981v41.326h0.283l0.135,0.002l53.35-27.508V131.4l-10.326,5.229
			v-10.176v-11.704c-0.048-0.583-0.002-0.927,0-0.95c0.004-0.064-0.027-0.447-0.021-0.869c-0.04-1.401,0.438-7.225,10.348-12.338
			v-0.275L202.691,73.082z"/>
		<path fill="#F48746" d="M254.44,125.488c0.098,0.058,0.198,0.115,0.298,0.173C254.639,125.604,254.538,125.546,254.44,125.488z"/>
		<rect x="201.738" y="139.59" fill="#F48746" width="0.67" height="41.326"/>
		<rect x="201.738" y="73.082" fill="#F48746" width="0.534" height="27.877"/>
		<path fill="#FF8E4A" d="M201.716,110.909c0,0-1.2,4.903-2.239,7.756l-4.876,13.025h7.137v-20.781H201.716z"/>
		<path fill="#FF8E4A" d="M208.991,131.689l-4.876-13.025c-0.669-1.838-1.404-4.521-1.843-6.201v19.226H208.991z"/>
		<path fill="#FF8E4A" d="M202.272,112.464c-0.242-0.928-0.396-1.555-0.396-1.555h-0.138v20.781h0.534V112.464z"/>
		<path fill="#D4763C" d="M254.44,125.488c-0.426-0.251-0.834-0.504-1.219-0.757c-0.093-0.061-0.179-0.121-0.27-0.182
			c-0.308-0.208-0.604-0.415-0.885-0.623c-0.096-0.07-0.195-0.14-0.287-0.21c-0.303-0.229-0.587-0.458-0.86-0.686
			c-0.126-0.105-0.247-0.209-0.367-0.314c-0.177-0.155-0.346-0.309-0.509-0.462c-0.192-0.18-0.375-0.358-0.55-0.536
			c-0.107-0.109-0.213-0.218-0.314-0.326c-0.133-0.142-0.264-0.284-0.386-0.424c-0.028-0.032-0.052-0.063-0.08-0.095
			c-0.262-0.305-0.5-0.604-0.717-0.899c-0.029-0.039-0.057-0.078-0.085-0.116c-0.591-0.822-1.019-1.596-1.322-2.3
			c-0.005-0.011-0.01-0.022-0.015-0.033c-0.166-0.39-0.297-0.756-0.397-1.097c-0.029-0.098-0.056-0.194-0.081-0.288
			c-0.014-0.054-0.03-0.109-0.042-0.162c-0.117-0.48-0.177-0.896-0.205-1.231v11.704v10.176l10.326-5.229v-3.85v-0.001v-1.097
			v-0.003c-0.506-0.261-0.979-0.524-1.437-0.789C254.639,125.604,254.538,125.546,254.44,125.488z"/>
		<path fill="#FF8E4A" d="M245.828,112.929c-0.006,0.422,0.025,0.805,0.021,0.869c-0.002,0.023-0.048,0.367,0,0.95v-0.132
			c-0.013-0.252-0.008-0.445,0-0.575v-0.187h0.018c0,0-0.01,0.065-0.018,0.187v0.575c0.018,0.351,0.074,0.815,0.205,1.363
			c0.013,0.053,0.028,0.108,0.042,0.162c0.024,0.093,0.052,0.19,0.081,0.288c0.102,0.342,0.23,0.708,0.397,1.097
			c0.005,0.011,0.01,0.022,0.015,0.033c0.305,0.705,0.732,1.48,1.322,2.3c0.028,0.039,0.056,0.077,0.085,0.116
			c0.217,0.295,0.456,0.595,0.717,0.899c0.027,0.032,0.052,0.063,0.08,0.095c0.123,0.14,0.253,0.282,0.386,0.424
			c0.101,0.108,0.207,0.217,0.314,0.326c0.175,0.178,0.358,0.356,0.55,0.536c0.164,0.154,0.333,0.308,0.509,0.462
			c0.12,0.104,0.242,0.209,0.367,0.314c0.273,0.228,0.557,0.457,0.86,0.686c0.092,0.07,0.192,0.14,0.287,0.21
			c0.282,0.208,0.577,0.415,0.885,0.623c0.09,0.061,0.177,0.122,0.27,0.182c0.385,0.253,0.793,0.505,1.219,0.757
			c0.098,0.058,0.198,0.115,0.298,0.173c0.458,0.264,0.931,0.527,1.437,0.789v-0.274v-0.001v-12.376v-0.003v-0.55v-1.393v-11.262
			C246.266,105.705,245.788,111.528,245.828,112.929z"/>
		<path fill="#FF8E4A" d="M246.097,116.142c0.024,0.094,0.051,0.189,0.081,0.288C246.148,116.332,246.121,116.235,246.097,116.142z"
			/>
		<path fill="#FF8E4A" d="M245.85,114.617v-0.575C245.842,114.171,245.837,114.365,245.85,114.617z"/>
		<path fill="#FF8E4A" d="M250.043,122.254c0.164,0.154,0.333,0.308,0.509,0.462C250.375,122.562,250.207,122.408,250.043,122.254z"
			/>
		<path fill="#FF8E4A" d="M252.066,123.927c0.282,0.208,0.577,0.415,0.885,0.623C252.643,124.342,252.349,124.134,252.066,123.927z"
			/>
		<path fill="#FF8E4A" d="M256.176,126.45c-0.506-0.261-0.979-0.524-1.437-0.789C255.197,125.925,255.67,126.188,256.176,126.45z"/>
		<path fill="#FF8E4A" d="M249.179,121.393c0.101,0.108,0.207,0.217,0.314,0.326C249.386,121.61,249.28,121.501,249.179,121.393z"/>
		<path fill="#FF8E4A" d="M253.221,124.731c0.385,0.253,0.793,0.505,1.219,0.757C254.014,125.237,253.606,124.984,253.221,124.731z"
			/>
		<path fill="#FF8E4A" d="M250.919,123.031c0.273,0.228,0.557,0.457,0.86,0.686C251.476,123.488,251.192,123.259,250.919,123.031z"
			/>
		<path fill="#FF8E4A" d="M245.85,113.855v0.187c0.008-0.121,0.018-0.187,0.018-0.187H245.85z"/>
		<path fill="#FF8E4A" d="M245.85,114.617v0.132c0.028,0.336,0.087,0.751,0.205,1.231
			C245.923,115.432,245.868,114.968,245.85,114.617z"/>
		<path fill="#FF8E4A" d="M248.713,120.874c0.027,0.032,0.052,0.063,0.08,0.095C248.765,120.937,248.741,120.906,248.713,120.874z"
			/>
		<path fill="#FF8E4A" d="M247.911,119.858c0.028,0.039,0.056,0.077,0.085,0.116C247.967,119.936,247.939,119.897,247.911,119.858z"
			/>
		<path fill="#FF8E4A" d="M246.575,117.526c0.005,0.011,0.01,0.022,0.015,0.033C246.584,117.548,246.58,117.537,246.575,117.526z"/>
	</g>
	<g>
		<path fill="#FF8E4A" d="M301.836,147.852h0.953c1.324,0,2.131-0.221,2.646-1.623l16.914-45.516h5.516l16.915,45.516
			c0.515,1.402,1.244,1.623,2.646,1.623h0.879v4.557h-2.352c-3.679,0-4.778-0.736-6.104-4.264l-4.485-12.207h-20.518l-4.557,12.207
			c-1.33,3.527-2.359,4.264-6.035,4.264h-2.42V147.852z M333.967,131.451l-6.839-18.459c-0.879-2.423-1.987-6.687-1.987-6.687
			h-0.143c0,0-1.103,4.264-1.989,6.687l-6.767,18.459H333.967z"/>
		<path fill="#FF8E4A" d="M356.053,121.375c0-1.029-0.591-1.615-1.622-1.615h-3.083v-4.337h5.223c3.16,0,4.482,1.324,4.482,4.485
			v26.543c0,1.102,0.588,1.617,1.617,1.617h3.09v4.34h-5.221c-3.163,0-4.486-1.322-4.486-4.484V121.375z M355.904,100.712h4.855
			v6.322h-4.855V100.712z"/>
		<path fill="#FF8E4A" d="M374.153,121.375c0-1.029-0.586-1.615-1.616-1.615h-3.088v-4.337h5.149c3.088,0,4.482,1.245,4.482,4.191
			v2.497c0,1.545-0.149,2.795-0.149,2.795h0.149c1.767-5.59,5.888-9.854,11.694-9.854c1.029,0,1.982,0.222,1.982,0.222v4.929
			c0,0-0.881-0.15-1.838-0.15c-5.221,0-9.119,4.119-10.736,9.561c-0.737,2.354-1.031,4.85-1.031,7.203v15.592h-4.999V121.375z"/>
		<path fill="#FF8E4A" d="M399.756,106.669c0-1.03-0.586-1.617-1.615-1.617h-3.09v-4.34h5.223c3.161,0,4.483,1.323,4.483,4.484
			v13.387c0,1.689-0.15,3.012-0.15,3.012h0.15c0,0,3.09-7.058,12.58-7.058c9.927,0,16.1,7.946,16.1,19.41
			c0,11.695-6.988,19.342-16.692,19.342c-8.819,0-12.138-7.131-12.138-7.131h-0.143c0,0,0.143,1.25,0.143,3.018v3.232h-4.851
			V106.669z M416.379,148.877c6.537,0,11.908-5.516,11.908-14.93c0-9.042-4.855-14.848-11.693-14.848
			c-6.172,0-11.987,4.408-11.987,14.928C404.606,141.451,408.438,148.877,416.379,148.877z"/>
		<path fill="#FF8E4A" d="M442.951,121.375c0-1.029-0.593-1.615-1.617-1.615h-3.09v-4.337h5.144c3.09,0,4.485,1.245,4.485,4.191
			v2.497c0,1.545-0.146,2.795-0.146,2.795h0.146c1.767-5.59,5.886-9.854,11.693-9.854c1.029,0,1.98,0.222,1.98,0.222v4.929
			c0,0-0.88-0.15-1.831-0.15c-5.221,0-9.125,4.119-10.742,9.561c-0.73,2.354-1.029,4.85-1.029,7.203v15.592h-4.993V121.375z"/>
		<path fill="#FF8E4A" d="M486.349,129.613h2.054v-0.443c0-7.717-2.796-10.442-9.562-10.442c-1.831,0-7.203,0.516-7.203,3.238v2.354
			h-4.777v-3.531c0-5.15,8.819-6.251,12.059-6.251c11.694,0,14.482,6.251,14.482,14.189v17.725c0,1.102,0.588,1.617,1.617,1.617
			h3.09v4.34h-5.071c-3.161,0-4.412-1.395-4.412-4.412c0-1.617,0.071-2.719,0.071-2.719h-0.145c0.073,0-3.017,8.012-12.279,8.012
			c-6.18,0-12.573-3.6-12.573-10.957C463.698,130.051,479.947,129.613,486.349,129.613z M477.08,149.025
			c7.058,0,11.322-7.354,11.322-13.754v-1.689h-2.132c-5.809,0-17.429,0.152-17.429,8.455
			C468.842,145.498,471.564,149.025,477.08,149.025z"/>
		<path fill="#FF8E4A" d="M505.855,106.669c0-1.03-0.585-1.617-1.616-1.617h-3.09v-4.34h5.221c3.161,0,4.485,1.102,4.485,4.269
			v24.56h3.825c1.39,0,3.162-0.443,4.192-1.765l9.484-12.354h6.101l-10.665,13.527c-1.837,2.281-2.789,2.646-2.789,2.646v0.148
			c0,0,1.103,0.516,2.276,2.719l6.693,11.988c0.658,1.25,1.394,1.617,3.384,1.617h1.98v4.34h-3.455
			c-3.677,0-4.706-0.586-6.399-3.676l-7.354-13.24c-0.804-1.465-2.567-1.615-3.892-1.615h-3.383v18.531h-5V106.669z"/>
		<path fill="#FF8E4A" d="M556.76,114.538c10.216,0,15.521,7.866,15.521,17.058c0,0.885-0.155,2.502-0.155,2.502h-28.38
			c0.143,9.34,6.693,14.707,14.332,14.707c6.768,0,11.115-4.557,11.115-4.557l2.417,3.748c0,0-5.364,5.293-13.745,5.293
			c-10.959,0-19.34-7.939-19.34-19.342C538.524,121.818,546.833,114.538,556.76,114.538z M567.132,130.127
			c-0.301-7.643-5.005-11.399-10.44-11.399c-6.107,0-11.474,3.971-12.732,11.399H567.132z"/>
		<path fill="#FF8E4A" d="M580.974,146.529h5.666v5.879h-5.666V146.529z"/>
		<path fill="#FF8E4A" d="M598.482,121.375c0-1.029-0.588-1.615-1.617-1.615h-3.09v-4.337h5.221c3.162,0,4.49,1.324,4.49,4.485
			v26.543c0,1.102,0.589,1.617,1.617,1.617h3.09v4.34h-5.221c-3.162,0-4.49-1.322-4.49-4.484V121.375z M598.338,100.712h4.851v6.322
			h-4.851V100.712z"/>
		<path fill="#FF8E4A" d="M632.611,114.538c10.814,0,19.555,8.239,19.555,19.197c0,11.172-8.74,19.555-19.484,19.555
			c-10.812,0-19.555-8.383-19.555-19.555C613.127,122.777,621.87,114.538,632.611,114.538z M632.682,148.805
			c7.868,0,14.348-6.473,14.348-15.07c0-8.391-6.479-14.635-14.348-14.635c-7.938,0-14.404,6.244-14.404,14.635
			C618.277,142.332,624.744,148.805,632.682,148.805z"/>
	</g>
</g>
</svg>
