<?xml version="1.0" encoding="utf-8"?>
<!-- Generator: Adobe Illustrator 16.0.4, SVG Export Plug-In . SVG Version: 6.00 Build 0)  -->
<!DOCTYPE svg PUBLIC "-//W3C//DTD SVG 1.1//EN" "http://www.w3.org/Graphics/SVG/1.1/DTD/svg11.dtd">
<svg version="1.1" id="Layer_1" xmlns="http://www.w3.org/2000/svg" xmlns:xlink="http://www.w3.org/1999/xlink" x="0px" y="0px"
	 width="800px" height="253.993px" viewBox="0 123.145 800 253.993" enable-background="new 0 123.145 800 253.993"
	 xml:space="preserve">
<g>
	<g>
		<path fill="#FFFFFF" d="M157.33,265.588h-11.698l-4.315,11.13c-1.57,4.04-3.237,5.207-8.142,5.207h-7.748h0h0v-9.963h1.569
			c1.668,0,2.453-0.36,3.041-1.976l20.695-51.794h6.598v-34.201h-1.181v0.035l-64.951,33.377v31.726h0.003v1.686h-0.003v0.002
			v31.726l64.951,33.75h2.003v-0.003h-0.822V265.588z"/>
		<path fill="#E4E4E4" d="M221.82,248.188c0.287,0.171,0.583,0.342,0.886,0.513C222.403,248.53,222.107,248.359,221.82,248.188z"/>
		<path fill="#E4E4E4" d="M220.578,247.414c-6.246-4.075-8.26-8.228-8.886-10.825C212.297,239.163,214.292,243.318,220.578,247.414z
			"/>
		<path fill="#E4E4E4" d="M220.692,247.488c0.287,0.185,0.582,0.37,0.886,0.555C221.275,247.858,220.979,247.673,220.692,247.488z"
			/>
		<path fill="#E4E4E4" d="M211.623,236.275c0.019,0.091,0.04,0.185,0.062,0.28C211.661,236.459,211.642,236.367,211.623,236.275z"/>
		<path fill="#E4E4E4" d="M224.118,249.466L224.118,249.466c-0.408-0.211-0.801-0.423-1.183-0.635
			C223.318,249.043,223.709,249.255,224.118,249.466z"/>
		<path fill="#E4E4E4" d="M158.5,183.991h-0.515v34.201h6.185l20.598,51.794c0.587,1.617,1.373,1.976,3.04,1.976h1.569v9.963h-7.65
			c-4.905,0-6.67-1.167-8.239-5.207l-4.317-11.13h-11.019v50.701h0.348l0.166,0.003l65.452-33.75V255.54l-12.669,6.414V249.47
			v-14.358c-0.059-0.717-0.002-1.14,0-1.168c0.005-0.079-0.033-0.548-0.026-1.066c-0.049-1.719,0.536-8.863,12.695-15.136v-0.339
			L158.5,183.991z"/>
		<rect x="157.33" y="265.588" fill="#E4E4E4" width="0.822" height="50.701"/>
		<rect x="157.33" y="183.991" fill="#E4E4E4" width="0.655" height="34.201"/>
		<path fill="#FFFFFF" d="M157.304,230.4c0,0-1.472,6.015-2.747,9.515l-5.983,15.979h8.756V230.4H157.304z"/>
		<path fill="#FFFFFF" d="M166.23,255.895l-5.983-15.979c-0.822-2.255-1.724-5.549-2.262-7.611v23.59H166.23z"/>
		<path fill="#FFFFFF" d="M157.985,232.304c-0.297-1.137-0.485-1.904-0.485-1.904h-0.17v25.495h0.655V232.304z"/>
		<path fill="#CDCCCB" d="M222.707,248.701c-0.303-0.171-0.599-0.342-0.886-0.513c-0.081-0.048-0.162-0.097-0.242-0.146
			c-0.304-0.185-0.6-0.37-0.886-0.555c-0.038-0.024-0.077-0.049-0.115-0.074c-6.286-4.096-8.281-8.251-8.886-10.825
			c-0.002-0.011-0.005-0.022-0.007-0.033c-0.022-0.096-0.043-0.189-0.062-0.28c-0.093-0.443-0.146-0.835-0.173-1.164v14.358v12.484
			l12.669-6.414v-4.724v-0.002v-1.344v-0.004c-0.409-0.211-0.8-0.423-1.183-0.635C222.858,248.788,222.783,248.744,222.707,248.701z
			"/>
		<path fill="#FFFFFF" d="M211.423,232.878c-0.007,0.518,0.031,0.987,0.026,1.066c-0.002,0.028-0.059,0.451,0,1.168v-0.163
			c-0.015-0.309-0.01-0.547,0-0.706v0.706c0.019,0.355,0.067,0.803,0.173,1.326c0.019,0.092,0.039,0.184,0.062,0.28
			c0.002,0.011,0.005,0.022,0.007,0.033c0.626,2.597,2.64,6.75,8.886,10.825c0.038,0.024,0.077,0.049,0.115,0.074
			c0.286,0.185,0.583,0.37,0.886,0.555c0.08,0.048,0.161,0.097,0.242,0.146c0.287,0.171,0.583,0.342,0.886,0.513
			c0.077,0.043,0.151,0.086,0.229,0.129c0.382,0.212,0.774,0.424,1.183,0.634v-0.336v-0.001v-15.184v-0.003v-0.674v-1.708v-13.817
			C211.959,224.015,211.374,231.159,211.423,232.878z M211.45,234.243v-0.229h0.021C211.471,234.014,211.459,234.094,211.45,234.243
			z"/>
		<path fill="#FFFFFF" d="M222.707,248.701c0.077,0.043,0.151,0.086,0.229,0.129C222.858,248.788,222.783,248.745,222.707,248.701z"
			/>
		<path fill="#FFFFFF" d="M211.45,234.243c0.009-0.149,0.021-0.229,0.021-0.229h-0.021V234.243z"/>
		<path fill="#FFFFFF" d="M220.578,247.414c0.038,0.024,0.077,0.049,0.115,0.074C220.654,247.463,220.615,247.438,220.578,247.414z"
			/>
		<path fill="#FFFFFF" d="M211.449,234.949v0.163c0.027,0.329,0.081,0.721,0.173,1.164
			C211.517,235.752,211.468,235.304,211.449,234.949z"/>
		<path fill="#FFFFFF" d="M221.579,248.042c0.08,0.048,0.161,0.097,0.242,0.146C221.739,248.14,221.659,248.091,221.579,248.042z"/>
		<path fill="#FFFFFF" d="M211.684,236.556c0.002,0.011,0.005,0.022,0.007,0.033C211.689,236.578,211.687,236.567,211.684,236.556z"
			/>
		<path fill="#FFFFFF" d="M211.449,234.949v-0.706C211.439,234.402,211.434,234.64,211.449,234.949z"/>
	</g>
	<g>
		<path fill="#FFFFFF" d="M280.137,275.723h1.169c1.625,0,2.614-0.271,3.247-1.99l20.751-55.842h6.767l20.752,55.842
			c0.631,1.721,1.526,1.99,3.247,1.99h1.078v5.59h-2.885c-4.514,0-5.862-0.902-7.488-5.229l-5.503-14.978H296.1l-5.59,14.978
			c-1.632,4.327-2.895,5.229-7.404,5.229h-2.969V275.723L280.137,275.723z M319.557,255.604l-8.39-22.647
			c-1.079-2.973-2.438-8.204-2.438-8.204h-0.175c0,0-1.353,5.231-2.44,8.204l-8.302,22.647H319.557z"/>
		<path fill="#FFFFFF" d="M346.653,243.239c0-1.263-0.725-1.981-1.99-1.981h-3.782v-5.321h6.407c3.877,0,5.5,1.625,5.5,5.503v32.565
			c0,1.351,0.721,1.983,1.984,1.983h3.791v5.324h-6.405c-3.881,0-5.504-1.623-5.504-5.502L346.653,243.239L346.653,243.239z
			 M346.471,217.89h5.957v7.757h-5.957V217.89z"/>
		<path fill="#FFFFFF" d="M368.86,243.239c0-1.263-0.719-1.981-1.983-1.981h-3.788v-5.321h6.317c3.789,0,5.5,1.527,5.5,5.142v3.063
			c0,1.896-0.184,3.429-0.184,3.429h0.184c2.167-6.858,7.223-12.089,14.347-12.089c1.263,0,2.432,0.272,2.432,0.272v6.047
			c0,0-1.081-0.185-2.255-0.185c-6.405,0-11.188,5.054-13.172,11.729c-0.905,2.889-1.265,5.95-1.265,8.836v19.129h-6.133V243.239z"
			/>
		<path fill="#FFFFFF" d="M400.271,225.198c0-1.264-0.719-1.984-1.982-1.984h-3.791v-5.325h6.407c3.878,0,5.5,1.624,5.5,5.502
			v16.424c0,2.073-0.185,3.695-0.185,3.695h0.185c0,0,3.79-8.659,15.434-8.659c12.18,0,19.752,9.749,19.752,23.813
			c0,14.348-8.573,23.729-20.479,23.729c-10.82,0-14.892-8.748-14.892-8.748h-0.176c0,0,0.176,1.533,0.176,3.701v3.967h-5.952
			v-56.114H400.271z M420.665,276.98c8.021,0,14.609-6.768,14.609-18.315c0-11.093-5.957-18.217-14.347-18.217
			c-7.572,0-14.707,5.408-14.707,18.315C406.223,267.87,410.923,276.98,420.665,276.98z"/>
		<path fill="#FFFFFF" d="M453.266,243.239c0-1.263-0.728-1.981-1.983-1.981h-3.791v-5.321h6.311c3.791,0,5.503,1.527,5.503,5.142
			v3.063c0,1.896-0.179,3.429-0.179,3.429h0.179c2.168-6.858,7.223-12.089,14.348-12.089c1.263,0,2.43,0.272,2.43,0.272v6.047
			c0,0-1.08-0.185-2.247-0.185c-6.404,0-11.194,5.054-13.179,11.729c-0.896,2.889-1.264,5.95-1.264,8.836v19.129h-6.126
			L453.266,243.239L453.266,243.239z"/>
		<path fill="#FFFFFF" d="M506.508,253.348h2.521v-0.543c0-9.469-3.431-12.812-11.731-12.812c-2.246,0-8.837,0.632-8.837,3.973
			v2.888h-5.861v-4.333c0-6.319,10.82-7.669,14.794-7.669c14.349,0,17.77,7.669,17.77,17.408v21.745
			c0,1.351,0.721,1.983,1.982,1.983h3.791v5.324h-6.222c-3.879,0-5.413-1.711-5.413-5.414c0-1.982,0.087-3.334,0.087-3.334h-0.177
			c0.09,0-3.701,9.828-15.064,9.828c-7.581,0-15.427-4.416-15.427-13.441C478.719,253.885,498.654,253.348,506.508,253.348z
			 M495.137,277.163c8.659,0,13.892-9.022,13.892-16.873v-2.073h-2.615c-7.126,0-21.383,0.188-21.383,10.372
			C485.029,272.835,488.37,277.163,495.137,277.163z"/>
		<path fill="#FFFFFF" d="M530.44,225.198c0-1.264-0.719-1.984-1.983-1.984h-3.79v-5.325h6.404c3.879,0,5.503,1.352,5.503,5.237
			v30.131h4.692c1.705,0,3.881-0.543,5.145-2.165l11.636-15.156h7.484l-13.084,16.596c-2.254,2.798-3.422,3.247-3.422,3.247v0.182
			c0,0,1.353,0.633,2.793,3.336l8.212,14.707c0.808,1.534,1.709,1.982,4.15,1.982h2.431v5.324h-4.239
			c-4.511,0-5.773-0.719-7.851-4.51l-9.022-16.242c-0.985-1.797-3.149-1.98-4.774-1.98h-4.149v22.732h-6.134L530.44,225.198
			L530.44,225.198z"/>
		<path fill="#FFFFFF" d="M592.893,234.852c12.533,0,19.042,9.651,19.042,20.929c0,1.085-0.189,3.068-0.189,3.068h-34.818
			c0.175,11.459,8.212,18.043,17.583,18.043c8.303,0,13.638-5.591,13.638-5.591l2.966,4.599c0,0-6.581,6.494-16.863,6.494
			c-13.445,0-23.728-9.74-23.728-23.729C570.521,243.783,580.714,234.852,592.893,234.852z M605.618,253.979
			c-0.369-9.377-6.142-13.985-12.811-13.985c-7.491,0-14.075,4.872-15.62,13.985H605.618z"/>
		<path fill="#FFFFFF" d="M622.6,274.102h6.952v7.211H622.6V274.102z"/>
		<path fill="#FFFFFF" d="M644.081,243.239c0-1.263-0.722-1.981-1.984-1.981h-3.791v-5.321h6.405c3.88,0,5.509,1.625,5.509,5.503
			v32.565c0,1.351,0.724,1.983,1.984,1.983h3.791v5.324h-6.405c-3.88,0-5.509-1.623-5.509-5.502V243.239z M643.903,217.89h5.95
			v7.757h-5.95V217.89z"/>
		<path fill="#FFFFFF" d="M685.952,234.852c13.268,0,23.991,10.108,23.991,23.552c0,13.705-10.725,23.99-23.905,23.99
			c-13.264,0-23.99-10.285-23.99-23.99C662.048,244.96,672.774,234.852,685.952,234.852z M686.038,276.893
			c9.653,0,17.603-7.94,17.603-18.488c0-10.295-7.948-17.956-17.603-17.956c-9.738,0-17.672,7.661-17.672,17.956
			C668.366,268.951,676.3,276.893,686.038,276.893z"/>
	</g>
</g>
</svg>
