<?xml version="1.0" encoding="utf-8"?>
<!-- Generator: Adobe Illustrator 16.0.4, SVG Export Plug-In . SVG Version: 6.00 Build 0)  -->
<!DOCTYPE svg PUBLIC "-//W3C//DTD SVG 1.1//EN" "http://www.w3.org/Graphics/SVG/1.1/DTD/svg11.dtd">
<svg version="1.1" id="Layer_1" xmlns="http://www.w3.org/2000/svg" xmlns:xlink="http://www.w3.org/1999/xlink" x="0px" y="0px"
	 width="800px" height="254px" viewBox="0 0 800 254" enable-background="new 0 0 800 254" xml:space="preserve">
<g>
	<rect x="0.289" y="-0.086" fill="#F58C54" width="799.422" height="254.172"/>
	<g>
		<g>
			<path fill="#FFFFFF" d="M157.759,60.803L157.759,60.803h-0.515h-0.655h-1.182v0.036l-64.998,33.4v31.748h0.004v1.687h-0.004
				v0.002v31.749l64.998,33.771h2.005v-0.002h0.347l0.166,0.002l65.499-33.771v-31.749v-0.002v-1.687v-0.001V94.239L157.759,60.803z
				 M219.74,112.087v1.709v0.675v0.003v15.533c-13.835-7.138-12.688-15.403-12.678-15.533c0.006-0.079-0.033-0.549-0.026-1.067
				c-0.049-1.721,0.538-8.87,12.704-15.147V112.087z"/>
			<g>
				<g>
					<g>
						<path id="SVGID_8_" fill="#F58C54" d="M124.663,158.806h7.753c4.908,0,6.577-1.168,8.147-5.211l4.318-11.138h23.556
							l4.319,11.138c1.571,4.043,3.337,5.211,8.245,5.211h7.655v-9.97h-1.57c-1.668,0-2.453-0.359-3.042-1.977l-20.612-51.831
							h-13.446l-20.71,51.831c-0.589,1.617-1.374,1.977-3.043,1.977h-1.57V158.806L124.663,158.806z M147.827,132.757l5.986-15.99
							c1.276-3.502,2.749-9.522,2.749-9.522h0.196c0,0,1.472,6.02,2.748,9.522l5.987,15.99H147.827L147.827,132.757z"/>
					</g>
				</g>
			</g>
		</g>
		<g>
			<path fill="#FFFFFF" d="M279.482,152.6h1.17c1.625,0,2.616-0.271,3.249-1.993l20.767-55.88h6.771l20.767,55.88
				c0.631,1.722,1.527,1.993,3.249,1.993h1.079v5.595h-2.888c-4.517,0-5.867-0.904-7.493-5.234l-5.506-14.987h-25.19l-5.594,14.987
				c-1.634,4.33-2.897,5.234-7.41,5.234h-2.971V152.6z M318.929,132.465l-8.396-22.663c-1.079-2.975-2.439-8.209-2.439-8.209h-0.175
				c0,0-1.354,5.235-2.442,8.209l-8.308,22.663H318.929z"/>
			<path fill="#FFFFFF" d="M346.045,120.093c0-1.264-0.726-1.983-1.991-1.983h-3.785v-5.325h6.411c3.881,0,5.504,1.626,5.504,5.507
				v32.587c0,1.353,0.722,1.986,1.985,1.986h3.794v5.328h-6.41c-3.883,0-5.508-1.623-5.508-5.506V120.093z M345.862,94.726h5.961
				v7.762h-5.961V94.726z"/>
			<path fill="#FFFFFF" d="M368.268,120.093c0-1.264-0.72-1.983-1.984-1.983h-3.791v-5.325h6.322c3.791,0,5.503,1.529,5.503,5.146
				v3.066c0,1.896-0.184,3.431-0.184,3.431h0.184c2.17-6.863,7.229-12.097,14.357-12.097c1.264,0,2.434,0.272,2.434,0.272v6.051
				c0,0-1.081-0.185-2.257-0.185c-6.408,0-11.195,5.057-13.181,11.739c-0.905,2.89-1.266,5.954-1.266,8.842v19.144h-6.138V120.093z"
				/>
			<path fill="#FFFFFF" d="M399.7,102.04c0-1.265-0.719-1.985-1.983-1.985h-3.792v-5.328h6.411c3.882,0,5.505,1.625,5.505,5.505
				v16.436c0,2.074-0.185,3.697-0.185,3.697h0.185c0,0,3.794-8.665,15.445-8.665c12.187,0,19.766,9.756,19.766,23.83
				c0,14.358-8.579,23.746-20.494,23.746c-10.827,0-14.901-8.755-14.901-8.755h-0.175c0,0,0.175,1.534,0.175,3.705v3.969H399.7
				V102.04z M420.108,153.859c8.026,0,14.62-6.773,14.62-18.33c0-11.101-5.961-18.229-14.356-18.229
				c-7.577,0-14.716,5.412-14.716,18.329C405.656,144.742,410.361,153.859,420.108,153.859z"/>
			<path fill="#FFFFFF" d="M452.732,120.093c0-1.264-0.727-1.983-1.985-1.983h-3.794v-5.325h6.316c3.793,0,5.506,1.529,5.506,5.146
				v3.066c0,1.896-0.178,3.431-0.178,3.431h0.178c2.17-6.863,7.227-12.097,14.355-12.097c1.264,0,2.432,0.272,2.432,0.272v6.051
				c0,0-1.079-0.185-2.247-0.185c-6.409,0-11.202,5.057-13.188,11.739c-0.896,2.89-1.264,5.954-1.264,8.842v19.144h-6.131V120.093z"
				/>
			<path fill="#FFFFFF" d="M506.014,130.209h2.521v-0.545c0-9.475-3.432-12.82-11.74-12.82c-2.247,0-8.844,0.633-8.844,3.976v2.89
				h-5.865v-4.335c0-6.323,10.829-7.674,14.805-7.674c14.358,0,17.78,7.674,17.78,17.42v21.76c0,1.353,0.722,1.986,1.985,1.986
				h3.794v5.328h-6.226c-3.882,0-5.417-1.712-5.417-5.417c0-1.986,0.087-3.338,0.087-3.338h-0.178c0.091,0-3.702,9.836-15.075,9.836
				c-7.587,0-15.436-4.419-15.436-13.453C478.205,130.746,498.153,130.209,506.014,130.209z M494.633,154.041
				c8.666,0,13.901-9.029,13.901-16.885v-2.074h-2.616c-7.132,0-21.399,0.187-21.399,10.379
				C484.519,149.71,487.861,154.041,494.633,154.041z"/>
			<path fill="#FFFFFF" d="M529.961,102.04c0-1.265-0.717-1.985-1.982-1.985h-3.794v-5.328h6.41c3.88,0,5.505,1.353,5.505,5.241
				v30.152h4.698c1.704,0,3.882-0.543,5.146-2.166l11.645-15.167h7.491l-13.096,16.608c-2.254,2.8-3.424,3.249-3.424,3.249v0.183
				c0,0,1.354,0.633,2.796,3.338l8.218,14.717c0.808,1.536,1.71,1.986,4.153,1.986h2.432v5.328h-4.242
				c-4.513,0-5.776-0.72-7.855-4.513l-9.028-16.255c-0.988-1.798-3.153-1.983-4.779-1.983H536.1v22.751h-6.139V102.04z"/>
			<path fill="#FFFFFF" d="M592.458,111.7c12.543,0,19.056,9.657,19.056,20.943c0,1.086-0.191,3.072-0.191,3.072H576.48
				c0.176,11.467,8.218,18.056,17.596,18.056c8.309,0,13.646-5.596,13.646-5.596l2.967,4.603c0,0-6.585,6.498-16.874,6.498
				c-13.455,0-23.744-9.748-23.744-23.746C570.071,120.638,580.271,111.7,592.458,111.7z M605.193,130.84
				c-0.369-9.384-6.146-13.996-12.819-13.996c-7.498,0-14.085,4.875-15.632,13.996H605.193z"/>
			<path fill="#FFFFFF" d="M622.188,150.976h6.956v7.219h-6.956V150.976z"/>
			<path fill="#FFFFFF" d="M643.682,120.093c0-1.264-0.722-1.983-1.985-1.983h-3.793v-5.325h6.409c3.882,0,5.513,1.626,5.513,5.507
				v32.587c0,1.353,0.725,1.986,1.985,1.986h3.794v5.328h-6.41c-3.882,0-5.513-1.623-5.513-5.506V120.093z M643.505,94.726h5.956
				v7.762h-5.956V94.726z"/>
			<path fill="#FFFFFF" d="M685.583,111.7c13.277,0,24.008,10.115,24.008,23.569c0,13.715-10.73,24.007-23.922,24.007
				c-13.272,0-24.008-10.292-24.008-24.007C661.661,121.815,672.396,111.7,685.583,111.7z M685.669,153.771
				c9.661,0,17.615-7.948,17.615-18.502c0-10.303-7.954-17.969-17.615-17.969c-9.745,0-17.685,7.666-17.685,17.969
				C667.984,145.822,675.924,153.771,685.669,153.771z"/>
		</g>
	</g>
</g>
</svg>
