<?xml version="1.0" encoding="utf-8"?>
<!-- Generator: Adobe Illustrator 16.0.4, SVG Export Plug-In . SVG Version: 6.00 Build 0)  -->
<!DOCTYPE svg PUBLIC "-//W3C//DTD SVG 1.1//EN" "http://www.w3.org/Graphics/SVG/1.1/DTD/svg11.dtd">
<svg version="1.1" id="Layer_1" xmlns="http://www.w3.org/2000/svg" xmlns:xlink="http://www.w3.org/1999/xlink" x="0px" y="0px"
	 width="800px" height="254px" viewBox="0 0 800 254" enable-background="new 0 0 800 254" xml:space="preserve">
<g>
	<g>
		<g>
			<g>
				<polygon fill="#FF8E4A" points="145.818,146.695 145.818,61.912 143.895,61.912 143.895,61.949 75.838,96.922 75.838,130.163 
					75.84,130.163 75.84,131.93 75.838,131.93 75.838,131.931 75.838,131.931 75.838,165.175 143.895,200.536 145.994,200.536 
					145.994,146.695 				"/>
				<polyline fill="#F48746" points="146.531,200.536 215.112,165.175 215.112,131.931 215.112,131.931 215.112,131.93 
					215.112,131.93 215.112,130.163 215.112,130.162 215.112,96.922 146.358,61.912 146.358,61.912 145.132,61.912 145.132,200.534 
					146.358,200.534 				"/>
				<g>
					<g>
						<polygon id="SVGID_17_" fill="#FF8E4A" points="135.147,109.287 154.915,109.287 154.915,141.624 135.147,141.624 						"/>
					</g>
				</g>
				<g>
					<g>
						<g>
							<path id="SVGID_16_" fill="#FFFFFF" d="M111.704,164.527h8.117c5.14,0,6.887-1.223,8.532-5.456l4.522-11.662h24.666
								l4.522,11.662c1.645,4.233,3.494,5.456,8.632,5.456h8.017v-10.44h-1.645c-1.745,0-2.57-0.376-3.186-2.068l-21.583-54.271
								h-14.079l-21.686,54.271c-0.617,1.692-1.439,2.068-3.188,2.068h-1.643L111.704,164.527L111.704,164.527z M135.958,137.253
								l6.267-16.745c1.335-3.667,2.88-9.97,2.88-9.97h0.205c0,0,1.542,6.303,2.878,9.97l6.268,16.745H135.958L135.958,137.253z"/>
						</g>
					</g>
				</g>
				<g>
					<g>
						<path id="SVGID_15_" fill="#D4763C" d="M201.838,143.603v-13.081l0,0v-15.215c0.128,2.471,1.622,9.199,13.274,15.211v0.004
							v6.359L201.838,143.603L201.838,143.603z M201.838,114.567v0.739C201.823,114.982,201.828,114.732,201.838,114.567
							L201.838,114.567z M201.861,114.326c0,0-0.013,0.083-0.023,0.241v-0.241H201.861L201.861,114.326z"/>
					</g>
				</g>
				<path fill="#FF8E4A" d="M201.811,113.136c-0.008,0.542,0.033,1.034,0.027,1.117c-0.01,0.135-1.212,8.79,13.274,16.264v-16.264
					v-0.004v-0.707v-1.791V97.275C202.373,103.85,201.759,111.334,201.811,113.136z"/>
			</g>
		</g>
		<g>
			<path fill="#FF8E4A" d="M273.809,158.029h1.225c1.703,0,2.739-0.285,3.402-2.087l21.743-58.512h7.09l21.745,58.512
				c0.662,1.802,1.599,2.087,3.4,2.087h1.13v5.857h-3.023c-4.729,0-6.141-0.946-7.846-5.48l-5.766-15.692h-26.377l-5.857,15.692
				c-1.71,4.533-3.033,5.48-7.758,5.48h-3.111v-5.857H273.809z M315.114,136.946l-8.792-23.73c-1.13-3.115-2.555-8.596-2.555-8.596
				h-0.184c0,0-1.418,5.481-2.556,8.596l-8.7,23.73H315.114z"/>
			<path fill="#FF8E4A" d="M343.505,123.992c0-1.323-0.758-2.077-2.084-2.077h-3.964v-5.575h6.715c4.062,0,5.761,1.703,5.761,5.766
				v34.121c0,1.416,0.755,2.078,2.079,2.078h3.972v5.58h-6.711c-4.066,0-5.767-1.7-5.767-5.765V123.992L343.505,123.992z
				 M343.314,97.431h6.242v8.127h-6.242V97.431z"/>
			<path fill="#FF8E4A" d="M366.774,123.992c0-1.323-0.753-2.077-2.078-2.077h-3.97v-5.575h6.619c3.969,0,5.762,1.601,5.762,5.388
				v3.21c0,1.985-0.191,3.592-0.191,3.592h0.191c2.272-7.185,7.57-12.667,15.033-12.667c1.322,0,2.547,0.286,2.547,0.286v6.337
				c0,0-1.132-0.193-2.362-0.193c-6.711,0-11.723,5.295-13.802,12.292c-0.947,3.025-1.325,6.234-1.325,9.259v20.043h-6.426v-39.895
				H366.774z"/>
			<path fill="#FF8E4A" d="M399.686,105.088c0-1.324-0.753-2.079-2.076-2.079h-3.972v-5.579h6.715c4.063,0,5.764,1.701,5.764,5.764
				v17.209c0,2.171-0.193,3.872-0.193,3.872h0.193c0,0,3.972-9.073,16.171-9.073c12.761,0,20.697,10.214,20.697,24.952
				c0,15.032-8.983,24.862-21.458,24.862c-11.338,0-15.604-9.166-15.604-9.166h-0.184c0,0,0.184,1.606,0.184,3.879v4.155h-6.237
				V105.088z M421.056,159.346c8.403,0,15.308-7.091,15.308-19.19c0-11.625-6.241-19.089-15.032-19.089
				c-7.934,0-15.408,5.666-15.408,19.191C405.92,149.8,410.847,159.346,421.056,159.346z"/>
			<path fill="#FF8E4A" d="M455.214,123.992c0-1.323-0.762-2.077-2.078-2.077h-3.973v-5.575h6.613c3.973,0,5.765,1.601,5.765,5.388
				v3.21c0,1.985-0.188,3.592-0.188,3.592h0.188c2.272-7.185,7.567-12.667,15.032-12.667c1.323,0,2.546,0.286,2.546,0.286v6.337
				c0,0-1.133-0.193-2.355-0.193c-6.711,0-11.729,5.295-13.809,12.292c-0.938,3.025-1.322,6.234-1.322,9.259v20.043h-6.419V123.992z
				"/>
			<path fill="#FF8E4A" d="M511.001,134.584h2.642v-0.57c0-9.921-3.596-13.423-12.293-13.423c-2.353,0-9.26,0.663-9.26,4.162v3.026
				h-6.141v-4.539c0-6.621,11.338-8.036,15.502-8.036c15.033,0,18.617,8.036,18.617,18.239v22.784c0,1.416,0.756,2.078,2.078,2.078
				h3.972v5.58h-6.518c-4.064,0-5.672-1.794-5.672-5.672c0-2.079,0.091-3.496,0.091-3.496h-0.187c0.094,0-3.878,10.3-15.785,10.3
				c-7.944,0-16.162-4.628-16.162-14.085C481.885,135.146,502.773,134.584,511.001,134.584z M499.087,159.536
				c9.074,0,14.556-9.453,14.556-17.679v-2.172H510.9c-7.467,0-22.403,0.196-22.403,10.868
				C488.497,155.003,491.997,159.536,499.087,159.536z"/>
			<path fill="#FF8E4A" d="M536.078,105.088c0-1.324-0.753-2.079-2.077-2.079h-3.973v-5.579h6.712c4.063,0,5.766,1.417,5.766,5.488
				v31.573h4.916c1.788,0,4.065-0.567,5.39-2.271l12.19-15.88h7.844l-13.71,17.39c-2.361,2.93-3.585,3.401-3.585,3.401v0.189
				c0,0,1.417,0.663,2.926,3.495l8.604,15.41c0.847,1.608,1.792,2.079,4.349,2.079h2.546v5.579h-4.441
				c-4.727,0-6.049-0.754-8.226-4.726l-9.453-17.02c-1.034-1.884-3.301-2.076-5.004-2.076h-4.349v23.821h-6.427v-58.796H536.078z"/>
			<path fill="#FF8E4A" d="M601.517,115.203c13.134,0,19.953,10.111,19.953,21.929c0,1.138-0.2,3.217-0.2,3.217h-36.482
				c0.184,12.006,8.604,18.906,18.424,18.906c8.7,0,14.289-5.859,14.289-5.859l3.107,4.818c0,0-6.896,6.804-17.67,6.804
				c-14.088,0-24.861-10.205-24.861-24.862C578.074,124.562,588.756,115.203,601.517,115.203z M614.85,135.244
				c-0.387-9.827-6.434-14.653-13.42-14.653c-7.852,0-14.749,5.105-16.367,14.653H614.85z"/>
			<path fill="#FF8E4A" d="M632.644,156.327h7.282v7.559h-7.282V156.327z"/>
			<path fill="#FF8E4A" d="M655.151,123.992c0-1.323-0.756-2.077-2.079-2.077h-3.972v-5.575h6.711c4.065,0,5.772,1.703,5.772,5.766
				v34.121c0,1.416,0.757,2.078,2.079,2.078h3.972v5.58h-6.711c-4.065,0-5.772-1.7-5.772-5.765V123.992z M654.966,97.431h6.236
				v8.127h-6.236V97.431z"/>
			<path fill="#FF8E4A" d="M699.024,115.203c13.9,0,25.138,10.59,25.138,24.679c0,14.358-11.235,25.136-25.046,25.136
				c-13.899,0-25.14-10.777-25.14-25.136C673.977,125.793,685.217,115.203,699.024,115.203z M699.114,159.255
				c10.114,0,18.444-8.322,18.444-19.373c0-10.788-8.329-18.814-18.444-18.814c-10.204,0-18.517,8.026-18.517,18.814
				C680.598,150.933,688.911,159.255,699.114,159.255z"/>
		</g>
	</g>
	<text transform="matrix(1 0 0 1 499.0273 202.6465)" fill="#999999" font-family="'Museo-300'" font-size="20.5682">Visual Assets Guidelines</text>
</g>
</svg>
