<?xml version="1.0" encoding="utf-8"?>
<!-- Generator: Adobe Illustrator 16.0.4, SVG Export Plug-In . SVG Version: 6.00 Build 0)  -->
<!DOCTYPE svg PUBLIC "-//W3C//DTD SVG 1.1//EN" "http://www.w3.org/Graphics/SVG/1.1/DTD/svg11.dtd">
<svg version="1.1" id="Layer_1" xmlns="http://www.w3.org/2000/svg" xmlns:xlink="http://www.w3.org/1999/xlink" x="0px" y="0px"
	 width="800px" height="254px" viewBox="0 0 800 254" enable-background="new 0 0 800 254" xml:space="preserve">
<g>
	<g>
		<path fill="#FFFFFF" d="M209.675,149.656h1.036c1.438,0,2.315-0.24,2.875-1.764l18.378-49.456h5.993l18.378,49.456
			c0.559,1.523,1.352,1.764,2.875,1.764h0.955v4.95h-2.555c-3.997,0-5.192-0.8-6.632-4.632l-4.873-13.264h-22.294l-4.95,13.264
			c-1.446,3.832-2.565,4.632-6.558,4.632h-2.629V149.656z M244.586,131.837l-7.431-20.058c-0.955-2.633-2.158-7.265-2.158-7.265
			h-0.155c0,0-1.199,4.632-2.162,7.265l-7.352,20.058H244.586z"/>
		<path fill="#FFFFFF" d="M268.583,120.888c0-1.118-0.642-1.755-1.763-1.755h-3.35v-4.712h5.675c3.434,0,4.87,1.438,4.87,4.873
			v28.84c0,1.197,0.639,1.758,1.757,1.758h3.358v4.715h-5.674c-3.438,0-4.875-1.437-4.875-4.872V120.888z M268.422,98.437h5.276
			v6.869h-5.276V98.437z"/>
		<path fill="#FFFFFF" d="M288.25,120.888c0-1.118-0.637-1.755-1.756-1.755h-3.355v-4.712h5.595c3.355,0,4.871,1.353,4.871,4.554
			v2.713c0,1.678-0.163,3.037-0.163,3.037h0.163c1.92-6.074,6.397-10.706,12.706-10.706c1.119,0,2.154,0.24,2.154,0.24v5.355
			c0,0-0.957-0.164-1.997-0.164c-5.672,0-9.908,4.476-11.666,10.39c-0.801,2.558-1.12,5.27-1.12,7.826v16.94h-5.433V120.888z"/>
		<path fill="#FFFFFF" d="M316.069,104.909c0-1.119-0.637-1.758-1.755-1.758h-3.356v-4.715h5.674c3.435,0,4.872,1.438,4.872,4.872
			v14.547c0,1.835-0.164,3.272-0.164,3.272h0.164c0,0,3.357-7.669,13.669-7.669c10.786,0,17.493,8.634,17.493,21.09
			c0,12.707-7.593,21.015-18.137,21.015c-9.583,0-13.188-7.748-13.188-7.748h-0.155c0,0,0.155,1.358,0.155,3.279v3.512h-5.271
			V104.909z M334.131,150.77c7.103,0,12.938-5.992,12.938-16.221c0-9.824-5.275-16.134-12.705-16.134
			c-6.706,0-13.025,4.789-13.025,16.221C321.339,142.701,325.503,150.77,334.131,150.77z"/>
		<path fill="#FFFFFF" d="M363.003,120.888c0-1.118-0.644-1.755-1.758-1.755h-3.357v-4.712h5.589c3.357,0,4.874,1.353,4.874,4.554
			v2.713c0,1.678-0.158,3.037-0.158,3.037h0.158c1.919-6.074,6.395-10.706,12.706-10.706c1.118,0,2.152,0.24,2.152,0.24v5.355
			c0,0-0.957-0.164-1.99-0.164c-5.672,0-9.915,4.476-11.672,10.39c-0.793,2.558-1.118,5.27-1.118,7.826v16.94h-5.425V120.888z"/>
		<path fill="#FFFFFF" d="M410.156,129.84h2.231v-0.481c0-8.386-3.038-11.347-10.39-11.347c-1.99,0-7.827,0.561-7.827,3.519v2.558
			h-5.191v-3.838c0-5.595,9.583-6.791,13.102-6.791c12.707,0,15.736,6.791,15.736,15.418v19.257c0,1.197,0.639,1.758,1.758,1.758
			h3.356v4.715h-5.511c-3.435,0-4.793-1.515-4.793-4.794c0-1.757,0.077-2.954,0.077-2.954h-0.157c0.08,0-3.277,8.705-13.342,8.705
			c-6.715,0-13.662-3.911-13.662-11.905C385.545,130.315,403.201,129.84,410.156,129.84z M400.085,150.932
			c7.668,0,12.302-7.99,12.302-14.943v-1.836h-2.316c-6.312,0-18.937,0.165-18.937,9.186
			C391.134,147.099,394.092,150.932,400.085,150.932z"/>
		<path fill="#FFFFFF" d="M431.352,104.909c0-1.119-0.636-1.758-1.756-1.758h-3.357v-4.715h5.672c3.436,0,4.874,1.196,4.874,4.639
			v26.686h4.156c1.51,0,3.436-0.48,4.556-1.918l10.305-13.422h6.629l-11.589,14.697c-1.995,2.478-3.03,2.876-3.03,2.876v0.161
			c0,0,1.198,0.561,2.474,2.954l7.272,13.024c0.715,1.359,1.515,1.758,3.677,1.758h2.151v4.715h-3.754
			c-3.994,0-5.113-0.637-6.953-3.993l-7.99-14.386c-0.873-1.592-2.789-1.755-4.229-1.755h-3.675v20.134h-5.433V104.909z"/>
		<path fill="#FFFFFF" d="M486.661,113.459c11.1,0,16.864,8.547,16.864,18.535c0,0.961-0.169,2.719-0.169,2.719h-30.836
			c0.154,10.147,7.272,15.979,15.572,15.979c7.354,0,12.077-4.951,12.077-4.951l2.626,4.072c0,0-5.828,5.751-14.935,5.751
			c-11.907,0-21.014-8.626-21.014-21.015C466.848,121.369,475.876,113.459,486.661,113.459z M497.931,130.398
			c-0.326-8.306-5.438-12.387-11.344-12.387c-6.637,0-12.467,4.313-13.835,12.387H497.931z"/>
		<path fill="#FFFFFF" d="M512.971,148.219h6.157v6.388h-6.157V148.219z"/>
		<path fill="#FFFFFF" d="M531.995,120.888c0-1.118-0.639-1.755-1.758-1.755h-3.356v-4.712h5.673c3.436,0,4.879,1.438,4.879,4.873
			v28.84c0,1.197,0.639,1.758,1.757,1.758h3.356v4.715h-5.672c-3.436,0-4.879-1.437-4.879-4.872V120.888z M531.838,98.437h5.271
			v6.869h-5.271V98.437z"/>
		<path fill="#FFFFFF" d="M569.077,113.459c11.751,0,21.248,8.951,21.248,20.858c0,12.139-9.497,21.246-21.171,21.246
			c-11.747,0-21.247-9.107-21.247-21.246C547.907,122.41,557.407,113.459,569.077,113.459z M569.154,150.691
			c8.549,0,15.589-7.033,15.589-16.374c0-9.117-7.04-15.902-15.589-15.902c-8.624,0-15.651,6.785-15.651,15.902
			C553.503,143.658,560.53,150.691,569.154,150.691z"/>
	</g>
</g>
</svg>
