<?xml version="1.0" encoding="utf-8"?>
<!-- Generator: Adobe Illustrator 16.0.4, SVG Export Plug-In . SVG Version: 6.00 Build 0)  -->
<!DOCTYPE svg PUBLIC "-//W3C//DTD SVG 1.1//EN" "http://www.w3.org/Graphics/SVG/1.1/DTD/svg11.dtd">
<svg version="1.1" id="Layer_1" xmlns="http://www.w3.org/2000/svg" xmlns:xlink="http://www.w3.org/1999/xlink" x="0px" y="0px"
	 width="536px" height="142px" viewBox="0 0 536 142" enable-background="new 0 0 536 142" xml:space="preserve">
<g>
	<g>
		<g>
			<polygon fill="#FF8E4A" points="68.946,83.035 68.946,17.082 67.449,17.082 67.449,17.111 14.508,44.316 14.508,70.175 
				14.51,70.175 14.51,71.549 14.508,71.549 14.508,71.55 14.508,71.55 14.508,97.41 67.449,124.918 69.082,124.918 69.082,83.035 
							"/>
			<polyline fill="#F48746" points="69.5,124.918 122.85,97.41 122.85,71.55 122.85,71.55 122.85,71.549 122.85,71.549 
				122.85,70.175 122.85,70.174 122.85,44.316 69.365,17.082 69.365,17.082 68.412,17.082 68.412,124.916 69.365,124.916 			"/>
			<g>
				<g>
					<polygon id="SVGID_17_" fill="#FF8E4A" points="60.645,53.935 76.022,53.935 76.022,79.09 60.645,79.09 					"/>
				</g>
			</g>
			<g>
				<g>
					<g>
						<path id="SVGID_16_" fill="#FFFFFF" d="M42.408,96.906h6.315c3.998,0,5.357-0.951,6.636-4.244l3.518-9.072h19.187l3.518,9.072
							c1.279,3.293,2.718,4.244,6.715,4.244h6.236v-8.121h-1.279c-1.358,0-1.999-0.293-2.478-1.609L73.986,44.958H63.034
							L46.165,87.176c-0.479,1.316-1.119,1.609-2.479,1.609h-1.279V96.906L42.408,96.906z M61.275,75.689l4.876-13.025
							c1.039-2.853,2.239-7.756,2.239-7.756h0.16c0,0,1.199,4.903,2.239,7.756l4.876,13.025H61.275L61.275,75.689z"/>
					</g>
				</g>
			</g>
			<g>
				<g>
					<path id="SVGID_15_" fill="#D4763C" d="M112.523,80.629V70.453l0,0V58.617c0.1,1.922,1.262,7.156,10.326,11.833v0.003V75.4
						L112.523,80.629L112.523,80.629z M112.523,58.042v0.575C112.511,58.365,112.516,58.171,112.523,58.042L112.523,58.042z
						 M112.541,57.855c0,0-0.01,0.065-0.018,0.187v-0.187H112.541L112.541,57.855z"/>
				</g>
			</g>
			<path fill="#FF8E4A" d="M112.502,56.929c-0.006,0.422,0.025,0.805,0.021,0.869c-0.008,0.105-0.943,6.838,10.326,12.651V57.798
				v-0.003v-0.55v-1.393V44.591C112.939,49.705,112.462,55.528,112.502,56.929z"/>
		</g>
	</g>
	<g>
		<path fill="#FF8E4A" d="M168.51,91.851h0.953c1.324,0,2.131-0.221,2.646-1.623l16.914-45.516h5.516l16.915,45.516
			c0.515,1.402,1.244,1.623,2.646,1.623h0.879v4.557h-2.352c-3.679,0-4.778-0.736-6.104-4.264l-4.485-12.207h-20.518l-4.557,12.207
			c-1.33,3.527-2.359,4.264-6.035,4.264h-2.42V91.851z M200.641,75.451l-6.839-18.46c-0.879-2.423-1.987-6.687-1.987-6.687h-0.143
			c0,0-1.103,4.264-1.989,6.687l-6.767,18.46H200.641z"/>
		<path fill="#FF8E4A" d="M222.727,65.374c0-1.029-0.591-1.615-1.622-1.615h-3.083v-4.337h5.223c3.16,0,4.482,1.324,4.482,4.485
			V90.45c0,1.102,0.588,1.617,1.617,1.617h3.09v4.34h-5.221c-3.163,0-4.486-1.322-4.486-4.484V65.374z M222.578,44.712h4.855v6.322
			h-4.855V44.712z"/>
		<path fill="#FF8E4A" d="M240.827,65.374c0-1.029-0.586-1.615-1.616-1.615h-3.088v-4.337h5.149c3.088,0,4.482,1.245,4.482,4.191
			v2.497c0,1.545-0.149,2.795-0.149,2.795h0.149c1.767-5.59,5.888-9.854,11.694-9.854c1.029,0,1.982,0.222,1.982,0.222v4.929
			c0,0-0.881-0.15-1.838-0.15c-5.221,0-9.119,4.119-10.736,9.562c-0.737,2.354-1.031,4.85-1.031,7.202v15.592h-4.999V65.374z"/>
		<path fill="#FF8E4A" d="M266.43,50.669c0-1.03-0.586-1.617-1.615-1.617h-3.09v-4.34h5.223c3.161,0,4.483,1.323,4.483,4.484v13.387
			c0,1.689-0.15,3.012-0.15,3.012h0.15c0,0,3.09-7.058,12.58-7.058c9.927,0,16.1,7.946,16.1,19.41
			c0,11.694-6.988,19.341-16.692,19.341c-8.819,0-12.138-7.131-12.138-7.131h-0.143c0,0,0.143,1.25,0.143,3.018v3.232h-4.851V50.669
			z M283.053,92.876c6.537,0,11.908-5.516,11.908-14.929c0-9.042-4.855-14.849-11.693-14.849c-6.172,0-11.987,4.408-11.987,14.929
			C271.28,85.45,275.112,92.876,283.053,92.876z"/>
		<path fill="#FF8E4A" d="M309.625,65.374c0-1.029-0.593-1.615-1.617-1.615h-3.09v-4.337h5.144c3.09,0,4.485,1.245,4.485,4.191
			v2.497c0,1.545-0.146,2.795-0.146,2.795h0.146c1.767-5.59,5.886-9.854,11.693-9.854c1.029,0,1.98,0.222,1.98,0.222v4.929
			c0,0-0.88-0.15-1.831-0.15c-5.221,0-9.125,4.119-10.742,9.562c-0.73,2.354-1.029,4.85-1.029,7.202v15.592h-4.993V65.374z"/>
		<path fill="#FF8E4A" d="M353.022,73.613h2.054V73.17c0-7.718-2.796-10.442-9.562-10.442c-1.831,0-7.203,0.516-7.203,3.238v2.354
			h-4.777v-3.531c0-5.15,8.819-6.251,12.059-6.251c11.694,0,14.482,6.251,14.482,14.189V90.45c0,1.102,0.588,1.617,1.617,1.617h3.09
			v4.34h-5.071c-3.161,0-4.412-1.395-4.412-4.412c0-1.617,0.071-2.719,0.071-2.719h-0.145c0.073,0-3.017,8.012-12.279,8.012
			c-6.18,0-12.573-3.6-12.573-10.957C330.372,74.051,346.621,73.613,353.022,73.613z M343.754,93.024
			c7.058,0,11.322-7.354,11.322-13.753v-1.689h-2.132c-5.809,0-17.429,0.152-17.429,8.454
			C335.516,89.497,338.238,93.024,343.754,93.024z"/>
		<path fill="#FF8E4A" d="M372.529,50.669c0-1.03-0.585-1.617-1.616-1.617h-3.09v-4.34h5.221c3.161,0,4.485,1.102,4.485,4.269v24.56
			h3.825c1.39,0,3.162-0.442,4.192-1.765l9.484-12.354h6.101l-10.665,13.527c-1.837,2.28-2.789,2.646-2.789,2.646v0.148
			c0,0,1.103,0.516,2.276,2.719l6.693,11.987c0.658,1.251,1.394,1.617,3.384,1.617h1.98v4.34h-3.455
			c-3.677,0-4.706-0.586-6.399-3.676l-7.354-13.239c-0.804-1.465-2.567-1.615-3.892-1.615h-3.383v18.53h-5V50.669z"/>
		<path fill="#FF8E4A" d="M423.434,58.537c10.216,0,15.521,7.866,15.521,17.059c0,0.885-0.155,2.502-0.155,2.502h-28.38
			c0.143,9.34,6.693,14.706,14.332,14.706c6.768,0,11.115-4.557,11.115-4.557l2.417,3.748c0,0-5.364,5.293-13.745,5.293
			c-10.959,0-19.34-7.939-19.34-19.341C405.198,65.817,413.507,58.537,423.434,58.537z M433.806,74.127
			c-0.301-7.644-5.005-11.399-10.44-11.399c-6.107,0-11.474,3.971-12.732,11.399H433.806z"/>
		<path fill="#FF8E4A" d="M447.647,90.528h5.666v5.879h-5.666V90.528z"/>
		<path fill="#FF8E4A" d="M465.156,65.374c0-1.029-0.588-1.615-1.617-1.615h-3.09v-4.337h5.221c3.162,0,4.49,1.324,4.49,4.485V90.45
			c0,1.102,0.589,1.617,1.617,1.617h3.09v4.34h-5.221c-3.162,0-4.49-1.322-4.49-4.484V65.374z M465.012,44.712h4.851v6.322h-4.851
			V44.712z"/>
		<path fill="#FF8E4A" d="M499.285,58.537c10.814,0,19.555,8.239,19.555,19.197c0,11.171-8.74,19.554-19.484,19.554
			c-10.812,0-19.555-8.383-19.555-19.554C479.801,66.776,488.544,58.537,499.285,58.537z M499.355,92.804
			c7.868,0,14.348-6.473,14.348-15.069c0-8.392-6.479-14.636-14.348-14.636c-7.938,0-14.404,6.244-14.404,14.636
			C484.951,86.331,491.418,92.804,499.355,92.804z"/>
	</g>
</g>
<text transform="matrix(1 0 0 1 343.707 126.5596)" fill="#999999" font-family="'Museo-300'" font-size="16">Visual Assets Guidelines</text>
</svg>
