<?xml version="1.0" encoding="utf-8"?>
<!-- Generator: Adobe Illustrator 16.0.4, SVG Export Plug-In . SVG Version: 6.00 Build 0)  -->
<!DOCTYPE svg PUBLIC "-//W3C//DTD SVG 1.1//EN" "http://www.w3.org/Graphics/SVG/1.1/DTD/svg11.dtd">
<svg version="1.1" id="_x32__flag_copy_2" xmlns="http://www.w3.org/2000/svg" xmlns:xlink="http://www.w3.org/1999/xlink" x="0px"
	 y="0px" width="877.311px" height="1177.136px" viewBox="0 0 877.311 1177.136" enable-background="new 0 0 877.311 1177.136"
	 xml:space="preserve">
<g>
	<polygon fill="#FAAF40" points="387.682,666.925 390.938,741.263 323.74,741.263 265.198,741.263 267.971,682.824 272.662,583.945 
		384.048,583.945 	"/>
	<g>
		<g>
			<defs>
				<polygon id="SVGID_1_" points="189.658,51.079 60.219,415.139 374.737,415.257 498.83,51.079 				"/>
			</defs>
			<use xlink:href="#SVGID_1_"  overflow="visible" fill="#E45A4F"/>
			<clipPath id="SVGID_2_">
				<use xlink:href="#SVGID_1_"  overflow="visible"/>
			</clipPath>
			<g clip-path="url(#SVGID_2_)">
				<g>
					<g id="XMLID_23_">
						<g>
							<path fill="#690901" d="M447.797,110.104l-50.898,24.317c-1.302-3.405-3.208-6.353-5.732-8.762
								c-4.609-4.415-23.851-5.489-31.276-5.766C390.279,110.638,427.927,102.661,447.797,110.104z"/>
							<path fill="#690901" d="M410.32,299.218l0.051,0.049c-18.961,18.796-39.271,33.909-59.208,44.741l-37.884-79.208
								L410.32,299.218z"/>
							<path fill="#690901" d="M383.037,195.385l92.58-0.31c-4.201,15.18-11.19,31.272-20.686,47.427l-0.016,0.001L383.037,195.385z
								"/>
							<path fill="#690901" d="M454.932,242.502l14.431,110.464l-58.991-53.699c1.936-1.906,3.841-3.86,5.747-5.847
								c15.639-16.37,28.667-33.684,38.798-50.916L454.932,242.502z"/>
							<path fill="#690901" d="M469.362,352.966l-180.058,10.619l0.032-0.099c18.634-0.878,40.001-7.62,61.826-19.478l0.018,0.032
								L469.362,352.966z"/>
							<path fill="#970D02" d="M479.396,176.703l-10.034,176.263l-14.431-110.464c9.495-16.155,16.484-32.248,20.686-47.427h0.033
								l-0.033-0.032C477.376,188.755,478.631,182.616,479.396,176.703z"/>
							<path fill="#970D02" d="M469.362,352.966l-118.182-8.926l-0.018-0.032c19.937-10.832,40.247-25.945,59.208-44.741
								L469.362,352.966z"/>
							<path fill="#970D02" d="M448.042,173.836l-51.109-39.319c0-0.016,0-0.032-0.018-0.049l78.409,2.003
								c3.111,7.313,4.74,15.669,4.951,24.773l-0.879,15.458c-0.766,5.913-2.021,12.052-3.779,18.34L448.042,173.836z"/>
							<path fill="#970D02" d="M393.169,233.937l-10.132-38.552l71.879,47.119c-10.131,17.232-23.159,34.546-38.798,50.916
								c-1.906,1.987-3.812,3.941-5.747,5.847l-0.051-0.049L393.169,233.937z"/>
							<path fill="#970D02" d="M306.829,291.384l6.45-26.583l37.884,79.208c-21.825,11.858-43.192,18.6-61.826,19.478
								L306.829,291.384z"/>
							<path fill="#970D02" d="M254.399,279.884l3.062-4.837c0.098,0.065,0.194,0.114,0.31,0.162l31.501,88.294
								c-17.738,0.848-33.016-3.615-43.879-14.006c-8.372-7.998-13.356-18.764-15.181-31.403L254.399,279.884z"/>
							<path fill="#D81203" d="M254.399,279.884l-24.187,38.21c-2.102-14.349-0.131-31.125,5.537-48.977L254.399,279.884z"/>
							<path fill="#D81203" d="M475.324,136.472l-78.409-2.003c0-0.016,0-0.032-0.017-0.048l50.898-24.317
								c6.224,2.313,11.777,5.702,16.5,10.212C469.053,124.859,472.718,130.3,475.324,136.472z"/>
							<path fill="#D81203" d="M475.617,195.043c0,0,0,0.016,0,0.032l-92.58,0.31l-0.063-0.048
								c10.879-18.372,16.598-36.046,16.06-49.823l49.009,28.323L475.617,195.043z"/>
							<path fill="#D81203" d="M393.169,233.937l17.151,65.281l-97.041-34.417c14.072-8.077,28.73-19.56,42.381-33.844
								c3.894-4.072,7.541-8.209,10.944-12.376L393.169,233.937z"/>
							<path fill="#D81203" d="M282.187,277.131l24.643,14.253l-17.492,72.102c-0.032,0.018-0.049,0.018-0.064,0.018l-31.501-88.294
								C264.271,278.435,272.675,278.989,282.187,277.131z"/>
							<g>
								<path fill="#D81203" d="M257.462,275.047l-3.062,4.837l-18.649-10.767c2.249-7.101,8.536-29.247,11.542-38.099
									c-0.438,10.033-1.003,34.695,4.795,40.233C253.684,272.782,255.491,274.037,257.462,275.047z"/>
								<path fill="#D81203" d="M448.042,173.836l-49.009-28.323c-0.164-4.024-0.848-7.721-2.101-10.996L448.042,173.836z"/>
								<path fill="#D81203" d="M393.169,233.937l-26.564-15.357c6.319-7.722,11.793-15.542,16.369-23.244l0.063,0.048
									L393.169,233.937z"/>
								<path fill="#D81203" d="M313.279,264.801l-6.45,26.583l-24.643-14.253C291.683,275.308,302.303,271.09,313.279,264.801z"/>
							</g>
							<path fill="#E45A4F" d="M399.033,145.513c0.538,13.777-5.181,31.451-16.06,49.823c-4.576,7.702-10.05,15.521-16.369,23.244
								c-3.403,4.167-7.051,8.305-10.944,12.376c-13.65,14.285-28.309,25.767-42.381,33.844
								c-10.977,6.289-21.597,10.507-31.093,12.33c-9.512,1.858-17.916,1.304-24.415-1.921l-0.31-0.162
								c-1.971-1.01-3.778-2.265-5.375-3.795c-5.798-5.538-8.291-13.828-7.851-23.862c0.995-22.476,16.776-53.634,43.357-81.454
								c28.975-30.327,62.48-48.048,85.249-47.2c7.427,0.277,13.714,2.508,18.323,6.923c2.524,2.41,4.431,5.357,5.732,8.762
								l-0.047,0.031l-0.034,0.019l0.05-0.001l0.065,0.048C398.186,137.792,398.869,141.489,399.033,145.513z"/>
						</g>
					</g>
					<path fill="#970D02" d="M289.827,167.388c-37.275,38.902-53.285,83.971-35.757,100.659
						c17.531,16.692,61.961-1.315,99.239-40.218c37.278-38.905,53.287-83.967,35.754-100.658
						C371.532,110.48,327.103,128.487,289.827,167.388z"/>
					<g opacity="0.5">
						<path fill="#D81203" d="M381.233,191.478l-13.974-70.347c9.038-0.814,16.61,1.1,21.809,6.042
							C400.396,137.976,398.125,161.934,381.233,191.478z"/>
						<path fill="#D81203" d="M305.403,152.591l6.441,108.562c-24.048,13.783-46.674,17.471-57.781,6.891
							C239.169,253.859,244.164,210.26,305.403,152.591z"/>
					</g>
				</g>
				<g opacity="0.15">
					<path d="M410.462,299.757l14.761,56.181l-67.091,3.673l-7.008-15.392c0,0,16.396-9.203,29.284-19.023
						C393.548,315.184,410.462,299.757,410.462,299.757z"/>
					<path d="M455.228,242.07l-11.401-106.604l-2.297-22.34c0,0,5.816-3.18,6.268-3.023c20.648,7.21,27.527,26.369,27.527,26.369
						s4.976,11.241,4.976,23.753s-2.066,37.054-2.066,37.054l-9.162,155.749L455.228,242.07z"/>
					<path d="M257.64,275.121l-4.554,80.291c0,0,13.145,8.882,36.589,8.171L257.64,275.121z"/>
				</g>
				<path opacity="0.4" d="M475.617,195.043l0.033,0.032h-0.033c-4.201,15.18-11.19,31.272-20.686,47.427l-0.016,0.001
					c-10.131,17.232-23.159,34.546-38.798,50.916c-1.906,1.987-3.812,3.941-5.747,5.847c-18.961,18.796-39.271,33.909-59.208,44.741
					c-21.825,11.858-43.192,18.6-61.826,19.478l-0.032,0.099l180.058-10.619l10.034-176.263
					C478.631,182.616,477.376,188.755,475.617,195.043z"/>
			</g>
		</g>
		<polygon opacity="0.2" points="497.962,51.191 374.737,415.257 331.184,415.257 454.913,51.145 		"/>
		<polygon fill="#690901" points="362.312,385.257 374.737,415.257 385.771,382.996 		"/>
		<polygon fill="#E45A4F" points="362.37,385.257 737.494,385.257 863.016,24.479 485.16,24.479 		"/>
	</g>
	<g>
		<ellipse fill="#FAAF40" cx="267.906" cy="757.943" rx="66.963" ry="68.607"/>
		<g>
			<g>
				<path fill="#FAAF40" d="M150.665,906.808c18.688-1.197,105.493-21.975,147.112-105.041
					c-39.98-16.566-33.105-32.961-46.965-71.104c-45.484,3.201-100.942,41.557-106.52,100.301c0,0,1.754,28.045,11.007,42.859
					C164.553,888.64,150.665,906.808,150.665,906.808z"/>
				<path fill="#FAAF40" d="M142.124,906.015c0,0-33.601-4.416-59.363-38.246C52.08,827.48,57.037,714.8,97.523,688.628
					c-20.003,14.121-19.019,36.307-4.938,56.281c8.748,12.355,12.042,19.482,26.199,19.305c-0.057,0.031,1.707,1.117,3.181,0.613
					c-13.25,8.309-5.696,31.193,15.169,41.889c31.501,14.74,30.552,26.967,36.506,37.119
					C177.679,856.714,177.562,914.609,142.124,906.015z"/>
				<path fill="#FAAF40" d="M159.161,699.246c-14.1-19.957-41.682-24.711-61.638-10.617c-20.003,14.121-24.757,41.697-10.677,61.674
					c8.748,12.354,22.68,18.926,36.837,18.75l0.043-0.039c8.594-0.094,17.263-2.721,24.844-8.088
					C168.521,746.835,173.245,719.201,159.161,699.246z"/>
			</g>
		</g>
	</g>
	<g id="XMLID_15_">
		<path fill="#FAAF40" d="M445.27,950.191c-4.538-7.699-0.03-41.125-0.03-41.125c0-3.82,0.48-7.32,1.351-10.609
			c8.26-30.971,51.391-42.18,53.25-111.789c-2.22-74.041-64.471-133.391-140.931-133.391c-12.85,0-25.31,1.68-37.14,4.82
			c-59.86,15.889-103.86,69.27-103.86,132.68c0,1.82,0.04,3.631,0.101,5.43c0.53,13.191,2.96,25.9,7.04,37.891
			c0,0.02,0.01,0.039,0.029,0.068c4.801,12.951,11.631,24.932,19.03,36.471c20.15,31.381,44.601,59.461,44.601,94.891
			c0,0,0,5.98,0,12.449v112.635h81.52v-98.65l-0.13-0.17l-0.08-0.09h0.25l-0.04,0.021v0.238l65.449,104.211l85.266-5.561
			C520.944,1090.611,446.804,952.794,445.27,950.191z"/>
		<g>
			<path d="M370.229,1090.611v87.041h-145.4c0-59.781,55-63.99,63.881-64.23v-22.811H370.229z"/>
			<path d="M500.434,1175.861h77.21v1.791h-110.59c1.15-10.99,4.92-21.211,10.681-30.01L500.434,1175.861z"/>
			<path d="M538.354,1116.791l39.29,59.07h-77.21l-22.699-28.219c12.159-18.631,33.189-30.941,57.1-30.941
				C536.014,1116.701,537.184,1116.732,538.354,1116.791z"/>
			<path d="M602.614,1177.652h-24.971v-1.791l-39.29-59.07C571.964,1118.501,599.134,1144.552,602.614,1177.652z"/>
			<path d="M513.008,1075.732l25.346,41.059c-1.17-0.059-2.34-0.09-3.52-0.09c-23.91,0-43.896,25.398-56.056,44.027l-43.1-64.557
				L513.008,1075.732z"/>
		</g>
	</g>
	<g>
		<defs>
			<path id="SVGID_3_" d="M288.429,965.527c0-28.9-16.181-52.691-33.301-77.871c-3.729-5.479-7.59-11.16-11.26-16.869
				c-9.04-14.1-14.92-25.359-19.06-36.52l30.802-54.316l55.745-5.379l49.389,119.803l-8.802,54.279L288.429,965.527z"/>
		</defs>
		<clipPath id="SVGID_4_">
			<use xlink:href="#SVGID_3_"  overflow="visible"/>
		</clipPath>
		<g clip-path="url(#SVGID_4_)">
			<path fill="#FFFFFF" d="M231.82,920.32l14.978-2.834c9.48-1.797,12.276-4.658,13.83-13.041l4.272-23.094l45.503-8.613
				l12.413,19.934c4.517,7.232,8.354,8.84,17.833,7.045l14.79-2.801l-3.646-19.258l-3.033,0.574
				c-3.224,0.611-4.87,0.201-6.604-2.705l-58.769-92.568l-25.975,4.916l-21.05,107.684c-0.549,3.34-1.933,4.32-5.158,4.932
				l-3.031,0.572L231.82,920.32z M267.039,861.537l5.717-33.074c1.185-7.234,1.83-19.396,1.83-19.396l0.378-0.072
				c0,0,5.045,11.086,8.792,17.385l17.412,28.697L267.039,861.537z"/>
		</g>
	</g>
	<g opacity="0.2">
		<rect x="288.723" y="1025.585" width="81.484" height="1.84"/>
		<polygon points="389.1,1022.169 462.296,981.669 463.233,983.457 390.351,1023.796 		"/>
	</g>
	<g>
		
			<line fill="none" stroke="#000000" stroke-width="10" stroke-linecap="round" x1="727.472" y1="415.439" x2="864.264" y2="22.903"/>
		<ellipse cx="867.937" cy="10.829" rx="9.945" ry="9.702"/>
	</g>
	<g>
		<path d="M129.204,761.33c5.627,0,10.819-1.809,10.819-1.809v13.555c0,0-5.342,1.902-11.713,1.902s-9.995-1.902-9.995-1.902
			s-0.35-7.852-0.346-13.02C117.97,760.056,123.585,761.33,129.204,761.33z"/>
		<path d="M139.251,692.244c0,2.391-4.854,4.26-10.859,4.26c-6.006,0-10.856-1.869-10.856-4.26c0-2.34,4.851-4.26,10.856-4.26
			C134.396,687.984,139.251,689.904,139.251,692.244z"/>
		<path d="M140.184,677.941c-1.187,2.977-0.933,7.746-0.933,14.303c0-2.34-4.854-4.26-10.859-4.26c-6.006,0-10.856,1.92-10.856,4.26
			c0-4.428-1.194-6.729-1.194-6.729l-0.04-0.041C123.452,682.113,131.203,679.558,140.184,677.941z"/>
	</g>
	<g>
		<ellipse fill="#FAAF40" cx="456.29" cy="710.332" rx="73.916" ry="75.732"/>
		<g>
			<circle fill="#FAAF40" cx="720.289" cy="445.341" r="48.519"/>
			<path fill="#FAAF40" d="M653.436,621.378c0,0,15.425-8.26,35.501-56.885c20.075-48.625,40.141-69.712,52.271-75.138
				c0,0-62.326-18.271-59.666-14.787c5.18,6.783,2.537,20.248-16.029,30.081c-11.383,6.03-75.59,32.905-89.623,87.393
				C569.561,616.609,597.274,660.13,653.436,621.378z"/>
			<path fill="#FAAF40" d="M571.94,727.429c31.737-20.641,56.21-44.977,79.748-100.664c7.881-18.642-17.628-54.04-64.929-48.267
				c0,0-80.924,8.804-108.35,74.429c-27.425,65.625,22.053,116.705,22.053,116.705S528.998,755.359,571.94,727.429z"/>
		</g>
	</g>
	<g>
		<path fill="#D64646" d="M498.949,772.398c0.64,4.699,1.039,9.459,1.18,14.26c-1.2,44.609-19.57,65.619-34.34,82.498
			c-8.561,9.801-15.96,18.26-18.921,29.371c-0.91,3.41-1.34,6.85-1.34,10.539c-0.05,0.371-4.45,33.451-0.021,40.98
			c0.061,0.109,0.25,0.439,0.551,0.99l-75.5,41.789h-0.051l-82.079,0.131v-14.98v-12.449c0-28.9-16.181-52.691-33.301-77.871
			c-3.729-5.479-7.59-11.16-11.26-16.869c-9.04-14.1-14.92-25.359-19.06-36.52c-4.19-12.301-6.561-25.07-7.08-38.049
			c-0.07-2.021-0.101-3.801-0.101-5.441c0-41.5,19.16-79.721,50.21-105.33c-2.899,5.91-34.6,72.24,6.011,72.24
			c86.93,0,110.51-89.352,113.399-101.92c4.79,0.939,9.51,2.129,14.141,3.549c-5.141,24.26-10.95,82.861,39.58,118.291
			c23.17,16.25,49.37,3.16,57.72-5.189L498.949,772.398z"/>
	</g>
	<g id="XMLID_18_">
		<g>
			<path fill="#A93C3C" d="M498.688,772.417l0.261-0.02c-12.87,31.619-104.171,84.518-210.671,97.328
				c-15.84,1.91-30.62,2.32-44.12,1.51c-0.1-0.15-0.189-0.299-0.29-0.449c-9.04-14.1-14.92-25.359-19.06-36.52
				c-1.301-3.791-2.42-7.641-3.36-11.51c16.35,2.059,34.92,2.67,55.28,1.52c54-3.061,120-28.92,154.49-54.389
				c2.989,2.67,6.229,5.25,9.75,7.719C464.139,793.857,490.339,780.767,498.688,772.417z"/>
			<path fill="#A93C3C" d="M483.799,845.857c-5.71,9.229-12.14,16.59-18.01,23.299c-8.561,9.801-15.96,18.26-18.921,29.371
				c-0.91,3.41-1.34,6.85-1.34,10.539c-0.021,0.141-0.63,4.74-1.17,10.871c-36.42,20.369-88.73,38.189-132.97,40.699
				c-7.971,0.449-15.681,0.631-23.08,0.57c-0.91-16.34-6.931-31.1-15.15-45.52c8.49,0.18,17.4,0.02,26.68-0.51
				C358.648,911.847,443.788,881.796,483.799,845.857z"/>
			<path fill="#A93C3C" d="M398.108,690.556c0.02,12.109,1.61,25.701,6.33,39.201c-32.53,24.5-84.23,47.83-131.71,50.52
				c-21.19,1.201-39.221-0.549-54.28-4.35c1.8-16.131,6.48-31.57,13.6-45.721c6.61,1.26,13.721,2.15,21.36,2.59
				c-0.74,13.641,3.72,24.891,20.44,24.891c44.43,0,72.31-23.34,89.34-47.84C375.818,703.996,387.639,697.416,398.108,690.556z"/>
		</g>
		<polygon fill="#A93C3C" points="389.1,1022.169 462.405,981.593 446.059,951.037 370.559,992.826 		"/>
		<rect x="288.387" y="992.88" fill="#A93C3C" width="82.062" height="32.729"/>
	</g>
	<g>
		<defs>
			<path id="SVGID_5_" d="M288.429,965.527c0-28.9-16.181-52.691-33.301-77.871c-3.729-5.479-7.59-11.16-11.26-16.869
				c-9.04-14.1-14.92-25.359-19.06-36.52l30.802-54.316l55.745-5.379l49.389,119.803l-8.802,54.279L288.429,965.527z"/>
		</defs>
		<clipPath id="SVGID_6_">
			<use xlink:href="#SVGID_5_"  overflow="visible"/>
		</clipPath>
		<g clip-path="url(#SVGID_6_)">
			<path fill="#FFFFFF" d="M231.82,920.32l14.978-2.834c9.48-1.797,12.276-4.658,13.83-13.041l4.272-23.094l45.503-8.613
				l12.413,19.934c4.517,7.232,8.354,8.84,17.833,7.045l14.79-2.801l-3.646-19.258l-3.033,0.574
				c-3.224,0.611-4.87,0.201-6.604-2.705l-58.769-92.568l-25.975,4.916l-21.05,107.684c-0.549,3.34-1.933,4.32-5.158,4.932
				l-3.031,0.572L231.82,920.32z M267.039,861.537l5.717-33.074c1.185-7.234,1.83-19.396,1.83-19.396l0.378-0.072
				c0,0,5.045,11.086,8.792,17.385l17.412,28.697L267.039,861.537z"/>
		</g>
	</g>
	<g>
		<path opacity="0.2" d="M385.633,621.611c0,0-28.5,55.666-88.666,55.666c-7.841,0-28.501-7.5-27-39L385.633,621.611z"/>
		<g>
			<path fill="#FAAF40" d="M390.442,505.067c-11.205-41.766-39.82-58.514-76.567-56.2c-37.749,2.384-67.265,32.093-70.564,68.645
				c-0.031,0.275-0.019,0.545-0.034,0.812c0,0-4.189,54.577-3.861,58.83c5.218,67.789,32.762,84.363,78.218,81.457
				c45.446-2.922,89.276-46.562,86.365-92.002C403.82,563.829,390.442,505.067,390.442,505.067z"/>
			<path d="M301.875,510.168c-1.315-0.958-1.596-2.81-0.599-4.123l0,0c2.79-3.74,6.887-5.698,10.858-6.794l0,0
				c7.977-2.146,16.046-1.023,16.241-1.024l0,0c1.597,0.216,2.728,1.688,2.518,3.304l0,0c-0.205,1.612-1.695,2.744-3.278,2.535l0,0
				c-0.022,0.03-1.9-0.221-4.587-0.228l0,0c-2.673-0.018-6.137,0.188-9.342,1.079l0,0c-3.253,0.888-6.062,2.4-7.709,4.644l0,0
				c-0.408,0.547-0.957,0.92-1.579,1.082l0,0C303.56,510.869,302.624,510.718,301.875,510.168L301.875,510.168z"/>
			<path d="M241.181,516.812c-0.614-1.505,0.1-3.225,1.638-3.836l0,0c4.338-1.722,8.849-1.265,12.816-0.125l0,0
				c7.916,2.32,14.228,7.497,14.383,7.591l0,0c1.257,1.026,1.446,2.867,0.432,4.128l0,0c-1.013,1.272-2.875,1.464-4.119,0.46l0,0
				c-0.034,0.006-1.512-1.174-3.797-2.597l0,0c-2.266-1.396-5.343-3.025-8.542-3.937l0,0c-3.23-0.944-6.428-1.107-8.986-0.066l0,0
				c-0.637,0.261-1.3,0.283-1.92,0.107l0,0C242.249,518.288,241.53,517.678,241.181,516.812L241.181,516.812z"/>
			<path fill="#FAAF40" d="M389.342,530.146c3.004-7.631,11.575-9.259,15.932-4.693c8.024,8.422,14.803,29.217-4.092,37.026"/>
			<path d="M394.923,524.058c1.086-7.286,1.509-21.178-2.601-35.94c-8.291-29.783-30.367-27.747-30.367-27.747l-13.479,11.241
				c0,0,13.069,8.36,26.132,23.834c6.204,7.347,14.24,22.445,16.383,36.394L394.923,524.058z"/>
			<path d="M359.511,459.016l-15.354,10.595c0,0-57.638,30.816-92.46,20.327c0,0-3.689-23.117,20.888-42.971
				c16.527-13.341,51.078-22.33,72.758-9.967C362.029,446.513,359.511,459.016,359.511,459.016z"/>
			<path d="M328.642,536.328c0.296,5.144-3.405,9.54-8.276,9.823c-4.872,0.283-9.061-3.658-9.361-8.802
				c-0.297-5.148,3.404-9.547,8.274-9.833C324.151,527.237,328.341,531.178,328.642,536.328z"/>
			<path d="M261.371,540.18c0.3,5.145-3.406,9.546-8.277,9.826c-4.865,0.279-9.055-3.66-9.356-8.803
				c-0.301-5.146,3.406-9.546,8.276-9.825C256.885,531.091,261.075,535.032,261.371,540.18z"/>
		</g>
		<g>
			<g opacity="0.2">
				<g>
					<path d="M247.924,604.992c1.378-1.658,2.646-3.348,3.782-4.9c4.429-6.041,11.941-16.826,24.105-17.415
						c12.161-0.596,15.416,6.854,16.214,9.351c0.815,2.5,1.732,9.248-3.338,14.974c-2.111,2.384-21.484,14.913-37.847,19.685
						c-0.032,0.01-0.097,0.029-0.097,0.029s-3.467-6.582-2.927-9.543c0.558-3.055,5.103-2.532,3.703-5.2
						C249.411,607.953,247.924,604.992,247.924,604.992z"/>
					<path d="M344.006,598.586c0.666-3.664,5.13-6.351,9.113-4.857c3.702,1.386,7.064,11.59-3.693,12.936
						c-7.18,0.902-14.605-6.331-19.787-11.734c-5.186-5.406-14.048-15.105-26.187-14.085c-12.122,1.014-14.374,8.826-14.847,11.409
						c-0.461,2.583-1.303,8.277,5.287,14.4c3.41,3.172,31.284,18.394,57.435,11.659c23.369-6.017,13.585-31.518,2.903-31.258
						C342.471,587.341,344.006,598.586,344.006,598.586z"/>
				</g>
			</g>
			<g>
				<path d="M238.216,601.736c-1.146-3.544-5.917-5.614-9.669-3.613c-3.496,1.866-5.479,12.424,5.368,12.336
					c7.228-0.054,13.631-8.203,18.06-14.242c4.428-6.041,11.94-16.825,24.105-17.416c12.16-0.597,15.415,6.854,16.213,9.353
					c0.816,2.5-0.374,11.38-3.339,14.972c-2.946,3.609-28.575,22.357-55.396,19.131c-23.959-2.875-17.624-29.443-6.994-30.598
					C238.254,590.386,238.216,601.736,238.216,601.736z"/>
				<path d="M344.273,594.711c0.666-3.664,5.131-6.352,9.113-4.86c3.702,1.389,7.065,11.592-3.692,12.938
					c-7.18,0.901-14.605-6.333-19.787-11.735c-5.186-5.405-14.049-15.105-26.188-14.086c-12.122,1.013-14.374,8.828-14.846,11.41
					c-0.461,2.584,1.881,11.229,5.285,14.401c3.397,3.187,31.286,18.394,57.436,11.658c23.37-6.015,13.586-31.518,2.904-31.258
					C342.738,583.467,344.273,594.711,344.273,594.711z"/>
			</g>
		</g>
		<path d="M304.3,622.902c1.087,6.305-4.166,16.74-10.52,17.482c-6.354,0.742-12.106-3.807-12.849-10.162
			c-0.742-6.354,4.515-9.078,10.868-9.82S303.675,619.277,304.3,622.902z"/>
	</g>
	<g opacity="0.2">
		<path d="M251.623,489.327c-3.763,7.182-6.392,15.022-7.688,23.274c-0.373,0.117-0.746,0.227-1.117,0.374
			c-1.538,0.612-2.252,2.331-1.638,3.836c0.35,0.867,1.068,1.477,1.904,1.725c0.057,0.016,0.115,0.021,0.172,0.034
			c-0.298,3.901-4.157,54.494-3.842,58.583c0.835,10.855,2.246,20.392,4.209,28.75c-2.963,2.629-6.239,4.529-9.709,4.555
			c-10.847,0.088-8.864-10.47-5.368-12.336c3.752-2.001,8.523,0.069,9.669,3.613c0,0,0.038-11.35-11.651-10.078
			c-10.63,1.154-16.965,27.723,6.994,30.598c5.118,0.617,10.191,0.426,15.074-0.301c0.153,0.379,0.306,0.758,0.463,1.129
			c0.621,1.562,1.267,2.879,1.524,3.389c4.898,10.234,11.243,17.615,18.945,22.732l-1.595,33.619l-0.143,2.988
			c-0.093,0.078-0.188,0.154-0.28,0.232c0.114-0.236,0.214-0.443,0.29-0.598c-1.604,1.322-3.168,2.688-4.708,4.076
			c-30.961,2.24-56.102,26.035-61.217,56.834c-24.354,14.043-45.51,36.803-54.049,65.99c-3.088-1.836-6.629-3.711-10.73-5.631
			c-18.165-9.312-26.234-27.859-19.276-37.986c1.93,0.23,3.875,0.346,5.826,0.322l0.043-0.039
			c8.594-0.094,17.263-2.721,24.844-8.088c19.951-14.09,24.675-41.725,10.591-61.68c-14.1-19.957-41.682-24.711-61.638-10.617
			c-1.835,1.295-3.538,2.705-5.113,4.211c1.521-1.471,3.223-2.877,5.113-4.211C57.037,714.8,52.08,827.48,82.761,867.769
			c25.763,33.83,59.363,38.246,59.363,38.246c3.115,0.756,5.951,0.988,8.542,0.791l-0.001,0.002
			c0.043-0.004,0.093-0.008,0.136-0.012c0.147-0.012,0.297-0.018,0.442-0.033c12.788-1.012,52.944-10.199,90.894-38.705
			c0.564,0.898,1.141,1.807,1.731,2.729c3.67,5.709,7.53,11.391,11.26,16.869c17.12,25.18,33.301,48.971,33.301,77.871v27.43h0.281
			v120.465c-8.881,0.24-63.881,4.449-63.881,64.23h145.4V992.826h0.278h0.051l0.012-0.006
			c-9.694-14.051-26.673-22.135-45.271-49.543c-34.991-51.568-77.041-157.342-35.229-254.184c0.056-0.131,1.31-1.059,1.31-1.059
			s5.144-3.668,6.646-6.758c2.928-6.025,2.177-14.896,2.615-22.584c0,0-8.949-9.166-9.699-61.416c0,0-4-80.75,0.5-111.25v-49.406
			c-7.347,2.757-13.913,6.354-18.858,10.346C250.351,464.927,251.25,485.554,251.623,489.327z"/>
		<path opacity="0.3" d="M498.949,772.398l-0.261,0.02c-0.021,0.021-0.046,0.043-0.067,0.064v-0.104
			c2.203-1.582,4.328-3.27,6.347-5.082c9.622-5.082,34.056-18.457,66.973-39.867c31.737-20.641,56.21-44.977,79.748-100.664
			c0.669-1.582,1.092-3.289,1.287-5.076c0.154-0.105,0.306-0.203,0.46-0.311c0,0,15.425-8.26,35.501-56.885
			c20.075-48.625,40.141-69.712,52.271-75.138c0,0-0.111-0.032-0.304-0.089c14.066-6.617,24.712-19.861,27.313-36.374
			c3.55-22.522-9.012-43.854-29.142-52.289c8.45,15.243,3.863,54.094-16.201,78.814c-21.845,26.917-94.401,92.062-102.983,117.808
			c0,0-33.547,49.931-71.386,82.308c-33.857,28.971-83.017,52.318-139.655,60.826c0,0,6.428,75.531,60.112,125.152
			c14.104-16.322,30.052-37.393,31.167-78.855C499.988,781.857,499.589,777.097,498.949,772.398z"/>
	</g>
	<g opacity="0.2">
		<rect x="288.723" y="1025.585" width="81.484" height="1.84"/>
		<polygon points="389.1,1022.169 462.296,981.669 463.233,983.457 390.351,1023.796 		"/>
	</g>
	<g>
		<g>
			<g>
				<path fill="#999999" d="M184.471,618.601c5.282,1.049,10.938,1.639,17.018,1.639l-1.041,25.713l1.474,15.445
					c-5.877,0-11.398,0.697-16.611,1.922L184.471,618.601z"/>
				<ellipse fill="#999999" cx="201.495" cy="640.82" rx="12.656" ry="20.578"/>
			</g>
			<path fill="#A93C3C" d="M57.799,552.777c29.167,0,56.5,61.381,127.882,61.381l-1.381,34.119l1.955,20.494
				c-63.5,0-95.706,61.361-129.706,61.361"/>
			<ellipse fill="#D64646" cx="55.189" cy="641.464" rx="54.544" ry="88.688"/>
			<ellipse fill="#A93C3C" cx="185.69" cy="641.464" rx="16.794" ry="27.307"/>
			<ellipse fill="#FFFFFF" cx="54.116" cy="643.208" rx="44.451" ry="74.115"/>
			<g>
				<path fill="#999999" d="M91.043,684.462c-12.577-4.131-26.444-6.621-42.312-6.621l1.65-40.773l-2.337-24.491
					c16.155,0,30.616-3.345,43.763-8.61c0,0,6.753,16.049,6.801,37.674c0.062,28.188-7.56,43.012-7.56,43.012"/>
				<ellipse fill="#B3B3B3" cx="48.721" cy="645.208" rx="20.069" ry="32.632"/>
			</g>
			<ellipse fill="#333333" cx="47.047" cy="645.58" rx="12.336" ry="20.568"/>
		</g>
		<g opacity="0.2">
			<path d="M202.464,640.326l-0.2-0.049c-6.029-0.6-11.84-1.07-17.41-1.441c-45.43-2.988-74.92,1.111-74.92,1.111h-0.21
				c0.01,0.51,0.01,1.01,0.01,1.52c0,48.24-23.69,87.49-53.18,88.66v0.01c34,0,66.2-61.369,129.7-61.369v-0.021
				c4.16-0.219,7.93-2.898,10.79-7.18c3.07-4.57,5.08-10.959,5.39-18.119c0.04-0.66,0.051-1.311,0.051-1.98
				C202.484,641.085,202.484,640.707,202.464,640.326z M91.043,684.466c4.75-11.789,7.521-25.98,7.521-41.26
				c0-0.92-0.01-1.84-0.03-2.76h-29.95c0.141,1.549,0.21,3.139,0.21,4.76c0,13.26-4.869,24.67-11.85,29.779
				c-2.51,1.83-5.29,2.85-8.21,2.85c2.79,0,5.521,0.08,8.19,0.23C69.434,678.767,80.674,681.056,91.043,684.466z"/>
			<path opacity="0.5" d="M214.104,642.666c-4.54,0.521-11.67,0.781-11.67,0.781c-0.31,7.16-2.319,13.549-5.39,18.119
				c1.6-0.109,3.22-0.17,4.88-0.17l-0.01-0.029C208.334,661.017,213.544,652.947,214.104,642.666z M48.733,677.835h-0.01
				c-11.09,0-20.07-14.609-20.07-32.629c0-1.609,0.07-3.199,0.21-4.75l-0.1-0.01H9.693c-0.02,0.92-0.03,1.84-0.03,2.76
				c0,40.939,19.9,74.119,44.45,74.119c0.851,0,1.69-0.039,2.53-0.129c14.34-1.33,26.86-14,34.399-32.73
				c-10.369-3.41-21.609-5.699-34.119-6.4C54.254,677.916,51.523,677.835,48.733,677.835z M47.043,666.146
				c0.74,0,1.471-0.109,2.181-0.33c3.22-0.949,6.01-3.99,7.84-8.25c1.46-3.359,2.32-7.49,2.32-11.959h-24.67
				C34.724,656.957,40.243,666.146,47.043,666.146z"/>
		</g>
		<g opacity="0.2">
			<path d="M171.429,637.896c0.109,3.18,0.06,6.551-0.221,9.801c-1.59,0.25-3.149,0.539-4.7,0.859c0.341-3.52,0.41-7.189,0.29-10.66
				c-0.09-2.74-0.31-5.359-0.6-7.66c1.53,0.191,3.09,0.361,4.68,0.51C171.148,632.916,171.338,635.357,171.429,637.896z"/>
			<path d="M162.298,637.896c0.13,3.83,0.04,7.91-0.41,11.75c-1.62,0.42-3.22,0.881-4.8,1.381c0.6-4.23,0.74-8.84,0.59-13.131
				c-0.11-3.359-0.41-6.529-0.82-9.17c1.551,0.311,3.13,0.59,4.75,0.85C161.948,632.037,162.198,634.886,162.298,637.896z"/>
			<path d="M153.178,637.896c0.17,4.84-0.03,10.09-0.85,14.75c-1.7,0.621-3.37,1.291-5.021,1.98c1.15-5.109,1.43-11.189,1.24-16.73
				c-0.16-4.389-0.61-8.449-1.2-11.439c1.58,0.449,3.2,0.869,4.86,1.26C152.678,630.537,153.048,634.097,153.178,637.896z"/>
			<path d="M144.048,637.896c0.229,6.4-0.2,13.51-1.84,19.041c-1.92,0.92-3.8,1.889-5.65,2.889c2.49-5.76,3.141-14.34,2.87-21.93
				c-0.22-6.35-1.09-12.02-2.05-14.73c1.67,0.631,3.39,1.25,5.16,1.83C143.268,628.037,143.868,632.736,144.048,637.896z"/>
		</g>
		<g>
			<path d="M129.204,761.33c5.627,0,10.819-1.809,10.819-1.809v13.555c0,0-5.342,1.902-11.713,1.902s-9.995-1.902-9.995-1.902
				s-0.35-7.852-0.346-13.02C117.97,760.056,123.585,761.33,129.204,761.33z"/>
			<path d="M139.251,692.244c0,2.391-4.854,4.26-10.859,4.26c-6.006,0-10.856-1.869-10.856-4.26c0-2.34,4.851-4.26,10.856-4.26
				C134.396,687.984,139.251,689.904,139.251,692.244z"/>
			<path d="M140.184,677.941c-1.187,2.977-0.933,7.746-0.933,14.303c0-2.34-4.854-4.26-10.859-4.26
				c-6.006,0-10.856,1.92-10.856,4.26c0-4.428-1.194-6.729-1.194-6.729l-0.04-0.041
				C123.452,682.113,131.203,679.558,140.184,677.941z"/>
		</g>
		<g opacity="0.2">
			<path d="M202.464,640.326l-0.2-0.049c-6.029-0.6-11.84-1.07-17.41-1.441c-45.43-2.988-74.92,1.111-74.92,1.111h-0.21
				c0.01,0.51,0.01,1.01,0.01,1.52c0,48.24-23.69,87.49-53.18,88.66v0.01c34,0,66.2-61.369,129.7-61.369v-0.021
				c4.16-0.219,7.93-2.898,10.79-7.18c3.07-4.57,5.08-10.959,5.39-18.119c0.04-0.66,0.051-1.311,0.051-1.98
				C202.484,641.085,202.484,640.707,202.464,640.326z M91.043,684.466c4.75-11.789,7.521-25.98,7.521-41.26
				c0-0.92-0.01-1.84-0.03-2.76h-29.95c0.141,1.549,0.21,3.139,0.21,4.76c0,13.26-4.869,24.67-11.85,29.779
				c-2.51,1.83-5.29,2.85-8.21,2.85c2.79,0,5.521,0.08,8.19,0.23C69.434,678.767,80.674,681.056,91.043,684.466z"/>
			<path opacity="0.5" d="M214.104,642.666c-4.54,0.521-11.67,0.781-11.67,0.781c-0.31,7.16-2.319,13.549-5.39,18.119
				c1.6-0.109,3.22-0.17,4.88-0.17l-0.01-0.029C208.334,661.017,213.544,652.947,214.104,642.666z M48.733,677.835h-0.01
				c-11.09,0-20.07-14.609-20.07-32.629c0-1.609,0.07-3.199,0.21-4.75l-0.1-0.01H9.693c-0.02,0.92-0.03,1.84-0.03,2.76
				c0,40.939,19.9,74.119,44.45,74.119c0.851,0,1.69-0.039,2.53-0.129c14.34-1.33,26.86-14,34.399-32.73
				c-10.369-3.41-21.609-5.699-34.119-6.4C54.254,677.916,51.523,677.835,48.733,677.835z M47.043,666.146
				c0.74,0,1.471-0.109,2.181-0.33c3.22-0.949,6.01-3.99,7.84-8.25c1.46-3.359,2.32-7.49,2.32-11.959h-24.67
				C34.724,656.957,40.243,666.146,47.043,666.146z"/>
		</g>
		<g opacity="0.2">
			<path d="M171.429,637.896c0.109,3.18,0.06,6.551-0.221,9.801c-1.59,0.25-3.149,0.539-4.7,0.859c0.341-3.52,0.41-7.189,0.29-10.66
				c-0.09-2.74-0.31-5.359-0.6-7.66c1.53,0.191,3.09,0.361,4.68,0.51C171.148,632.916,171.338,635.357,171.429,637.896z"/>
			<path d="M162.298,637.896c0.13,3.83,0.04,7.91-0.41,11.75c-1.62,0.42-3.22,0.881-4.8,1.381c0.6-4.23,0.74-8.84,0.59-13.131
				c-0.11-3.359-0.41-6.529-0.82-9.17c1.551,0.311,3.13,0.59,4.75,0.85C161.948,632.037,162.198,634.886,162.298,637.896z"/>
			<path d="M153.178,637.896c0.17,4.84-0.03,10.09-0.85,14.75c-1.7,0.621-3.37,1.291-5.021,1.98c1.15-5.109,1.43-11.189,1.24-16.73
				c-0.16-4.389-0.61-8.449-1.2-11.439c1.58,0.449,3.2,0.869,4.86,1.26C152.678,630.537,153.048,634.097,153.178,637.896z"/>
			<path d="M144.048,637.896c0.229,6.4-0.2,13.51-1.84,19.041c-1.92,0.92-3.8,1.889-5.65,2.889c2.49-5.76,3.141-14.34,2.87-21.93
				c-0.22-6.35-1.09-12.02-2.05-14.73c1.67,0.631,3.39,1.25,5.16,1.83C143.268,628.037,143.868,632.736,144.048,637.896z"/>
		</g>
	</g>
	<g>
		<defs>
			<polygon id="SVGID_7_" points="362.37,385.257 737.494,385.257 863.016,24.479 485.16,24.479 			"/>
		</defs>
		<clipPath id="SVGID_8_">
			<use xlink:href="#SVGID_7_"  overflow="visible"/>
		</clipPath>
		<g clip-path="url(#SVGID_8_)">
			<g>
				<g id="XMLID_21_">
					<g>
						<path fill="#690901" d="M476.798,75.104l-50.899,24.317c-1.302-3.405-3.208-6.353-5.732-8.762
							c-4.609-4.415-23.851-5.489-31.276-5.766C419.279,75.638,456.927,67.661,476.798,75.104z"/>
						<path fill="#690901" d="M439.32,264.218l0.051,0.049c-18.961,18.796-39.271,33.909-59.208,44.741l-37.884-79.208
							L439.32,264.218z"/>
						<path fill="#690901" d="M412.037,160.385l92.58-0.31c-4.201,15.18-11.19,31.272-20.686,47.427l-0.016,0.001L412.037,160.385z"
							/>
						<path fill="#690901" d="M483.932,207.502l14.431,110.464l-58.991-53.699c1.936-1.906,3.841-3.86,5.747-5.847
							c15.639-16.37,28.667-33.684,38.798-50.916L483.932,207.502z"/>
						<path fill="#690901" d="M498.362,317.966l-180.058,10.619l0.032-0.099c18.634-0.878,40.001-7.62,61.826-19.478l0.018,0.032
							L498.362,317.966z"/>
						<path fill="#970D02" d="M508.396,141.703l-10.034,176.263l-14.431-110.464c9.495-16.155,16.484-32.248,20.686-47.427h0.033
							l-0.033-0.032C506.376,153.755,507.631,147.616,508.396,141.703z"/>
						<path fill="#970D02" d="M498.362,317.966l-118.182-8.926l-0.018-0.032c19.937-10.832,40.247-25.945,59.208-44.741
							L498.362,317.966z"/>
						<path fill="#970D02" d="M477.043,138.836l-51.11-39.319c0-0.016,0-0.032-0.018-0.049l78.409,2.003
							c3.111,7.313,4.74,15.669,4.951,24.773l-0.879,15.458c-0.766,5.913-2.021,12.052-3.779,18.34L477.043,138.836z"/>
						<path fill="#970D02" d="M422.169,198.937l-10.132-38.552l71.879,47.119c-10.131,17.232-23.159,34.546-38.798,50.916
							c-1.906,1.987-3.812,3.941-5.747,5.847l-0.051-0.049L422.169,198.937z"/>
						<path fill="#970D02" d="M335.829,256.384l6.45-26.583l37.884,79.208c-21.825,11.858-43.192,18.6-61.826,19.478
							L335.829,256.384z"/>
						<path fill="#970D02" d="M283.399,244.884l3.062-4.837c0.098,0.065,0.194,0.114,0.31,0.162l31.501,88.294
							c-17.738,0.848-33.016-3.615-43.879-14.006c-8.372-7.998-13.356-18.764-15.181-31.403L283.399,244.884z"/>
						<path fill="#D81203" d="M283.399,244.884l-24.187,38.21c-2.102-14.349-0.131-31.125,5.537-48.977L283.399,244.884z"/>
						<path fill="#D81203" d="M504.324,101.472l-78.409-2.003c0-0.016,0-0.032-0.017-0.048l50.899-24.317
							c6.223,2.313,11.776,5.702,16.499,10.212C498.053,89.859,501.718,95.3,504.324,101.472z"/>
						<path fill="#D81203" d="M504.617,160.043c0,0,0,0.016,0,0.032l-92.58,0.31l-0.063-0.048
							c10.879-18.372,16.598-36.046,16.06-49.823l49.01,28.323L504.617,160.043z"/>
						<path fill="#D81203" d="M422.169,198.937l17.151,65.281l-97.041-34.417c14.072-8.077,28.73-19.56,42.381-33.844
							c3.894-4.072,7.541-8.209,10.944-12.376L422.169,198.937z"/>
						<path fill="#D81203" d="M311.187,242.131l24.643,14.253l-17.492,72.102c-0.032,0.018-0.049,0.018-0.064,0.018l-31.501-88.294
							C293.271,243.435,301.675,243.989,311.187,242.131z"/>
						<g>
							<path fill="#D81203" d="M286.462,240.047l-3.062,4.837l-18.649-10.767c2.249-7.101,8.536-29.247,11.542-38.099
								c-0.438,10.033-1.003,34.695,4.795,40.233C282.684,237.782,284.491,239.037,286.462,240.047z"/>
							<path fill="#D81203" d="M477.043,138.836l-49.01-28.323c-0.164-4.024-0.848-7.721-2.101-10.996L477.043,138.836z"/>
							<path fill="#D81203" d="M422.169,198.937l-26.564-15.357c6.319-7.722,11.793-15.542,16.369-23.244l0.063,0.048
								L422.169,198.937z"/>
							<path fill="#D81203" d="M342.279,229.801l-6.45,26.583l-24.643-14.253C320.683,240.308,331.303,236.09,342.279,229.801z"/>
						</g>
						<path fill="#E45A4F" d="M428.033,110.513c0.538,13.777-5.181,31.451-16.06,49.823c-4.576,7.702-10.05,15.521-16.369,23.244
							c-3.403,4.167-7.051,8.305-10.944,12.376c-13.65,14.285-28.309,25.767-42.381,33.844
							c-10.977,6.289-21.597,10.507-31.093,12.33c-9.512,1.858-17.916,1.304-24.415-1.921l-0.31-0.162
							c-1.971-1.01-3.778-2.265-5.375-3.795c-5.798-5.538-8.291-13.828-7.851-23.862c0.995-22.476,16.776-53.634,43.357-81.454
							c28.975-30.327,62.48-48.048,85.249-47.2c7.427,0.277,13.714,2.508,18.323,6.922c2.524,2.41,4.431,5.357,5.732,8.762
							l-0.047,0.031l-0.034,0.019l0.05-0.001l0.065,0.048C427.186,102.792,427.869,106.489,428.033,110.513z"/>
					</g>
				</g>
				<path fill="#970D02" d="M318.827,132.388c-37.275,38.902-53.285,83.971-35.757,100.659
					c17.531,16.692,61.961-1.315,99.239-40.218c37.278-38.905,53.287-83.967,35.754-100.658
					C400.532,75.48,356.103,93.487,318.827,132.388z"/>
				<g opacity="0.5">
					<path fill="#D81203" d="M410.233,156.478L396.26,86.131c9.038-0.814,16.61,1.1,21.809,6.042
						C429.396,102.976,427.125,126.934,410.233,156.478z"/>
					<path fill="#D81203" d="M334.403,117.591l6.441,108.562c-24.048,13.783-46.674,17.471-57.781,6.891
						C268.169,218.859,273.164,175.26,334.403,117.591z"/>
				</g>
			</g>
			<g opacity="0.15">
				<path d="M439.462,264.757l14.761,56.181l-67.091,3.673l-7.008-15.392c0,0,16.396-9.203,29.284-19.023
					C422.548,280.184,439.462,264.757,439.462,264.757z"/>
				<path d="M484.228,207.07l-11.401-106.604l-2.297-22.34c0,0,5.816-3.18,6.269-3.023c20.647,7.21,27.526,26.369,27.526,26.369
					s4.976,11.241,4.976,23.753s-2.066,37.054-2.066,37.054l-9.162,155.749L484.228,207.07z"/>
				<path d="M286.64,240.121l-4.554,80.291c0,0,13.145,8.882,36.589,8.171L286.64,240.121z"/>
			</g>
			<path opacity="0.4" d="M504.617,160.043l0.033,0.032h-0.033c-4.201,15.18-11.19,31.272-20.686,47.427l-0.016,0.001
				c-10.131,17.232-23.159,34.546-38.798,50.916c-1.906,1.987-3.812,3.941-5.747,5.847c-18.961,18.796-39.271,33.909-59.208,44.741
				c-21.825,11.858-43.192,18.6-61.826,19.478l-0.032,0.099l180.058-10.619l10.034-176.263
				C507.631,147.616,506.376,153.755,504.617,160.043z"/>
		</g>
	</g>
	
		<line fill="none" stroke="#000000" stroke-width="10" stroke-linecap="round" x1="709.633" y1="466.575" x2="618.223" y2="728.609"/>
</g>
</svg>
