<?xml version="1.0" encoding="utf-8"?>
<!-- Generator: Adobe Illustrator 16.0.4, SVG Export Plug-In . SVG Version: 6.00 Build 0)  -->
<!DOCTYPE svg PUBLIC "-//W3C//DTD SVG 1.1//EN" "http://www.w3.org/Graphics/SVG/1.1/DTD/svg11.dtd">
<svg version="1.1" id="Layer_1" xmlns="http://www.w3.org/2000/svg" xmlns:xlink="http://www.w3.org/1999/xlink" x="0px" y="0px"
	 width="141px" height="60px" viewBox="0 0 141 60" enable-background="new 0 0 141 60" xml:space="preserve">
<g>
	<path fill="#FFFFFF" stroke="#FFFFFF" stroke-width="0.0938" stroke-miterlimit="10" d="M31.805,26.393
		c-1.204-0.494-2.808-0.525-3.456-1.79c-1.327-2.901-3.611-5.277-6.204-7.067c-1.111-0.679-2.284-1.481-3.642-1.327
		c0.217,0.556,0.803,0.648,1.266,0.926c1.913,1.049,3.457,2.685,4.938,4.259c0.864,1.049,1.79,2.099,2.191,3.395
		c-2.129-2.377-4.444-4.661-7.129-6.45c-1.142-0.679-2.438-1.42-3.827-1.296c0.185,1.049,0.864,1.914,1.543,2.654
		c2.068,2.253,4.629,4.012,7.252,5.524c-0.432,0.957-1.728,1.543-2.715,1.049c-1.821-0.802-3.333-2.222-5.309-2.777
		c-3.827-1.327-8.302,0.123-10.833,3.24c-0.895-0.031-2.006-0.185-2.5,0.772c-0.648,0.833-0.123,1.883,0.556,2.5
		c-1.914,4.876,0.741,10.833,5.462,12.9c4.321,2.1,9.907,0.4,12.561-3.487c-1.697-0.771-3.549-1.019-5.37-0.648
		c0.556-0.987,1.543-1.697,1.944-2.839c1.667-3.426-1.913-7.654-5.555-7.098c-1.543,0.123-2.901,1.049-3.827,2.283
		c-0.525,0.864-0.895,1.883-0.864,2.932c0,1.266,0.555,2.438,0.926,3.642c-1.975-1.759-2.16-4.969-0.895-7.159
		c1.728-2.932,5.925-3.92,8.765-2.068c2.346,1.543,3.642,4.845,2.438,7.5c-0.278,0.617-0.802,1.11-0.957,1.759
		c0.988-0.247,2.283-1.019,2.283-2.129c1.42,1.543,3.364,2.592,5.432,2.839c0.648,0.185,1.234-0.093,1.82-0.34
		c0.155-0.956-0.74-1.45-1.542-1.604c-1.543-0.34-2.469-1.821-2.655-3.302c0.402,0.432,0.772,0.863,1.142,1.326
		c0.278,0,0.865-0.03,1.142-0.03c-0.062-0.679-0.895-1.142-0.617-1.852c0.864,0.679,1.667,1.604,2.839,1.635
		c1.358,0.062,2.716,0,4.074-0.123c1.081-0.154,2.284-0.493,2.839-1.543C35.848,30.065,34.336,27.164,31.805,26.393z M32.176,28.8
		c-0.154,0.648-1.08,0.679-1.481,0.216c-0.432-0.277-0.277-0.833-0.277-1.265c0.216-0.092,0.617-0.247,0.833-0.339
		C31.682,27.72,32.392,28.152,32.176,28.8z"/>
	<path fill="#FFFFFF" stroke="#FFFFFF" stroke-width="0.0938" stroke-miterlimit="10" d="M129.177,25.868
		c-1.203,0.525-1.389,2.407-0.216,3.025c0.988,0.679,2.529-0.124,2.499-1.327C131.615,26.362,130.256,25.436,129.177,25.868z"/>
	<path fill="#FFFFFF" stroke="#FFFFFF" stroke-width="0.0938" stroke-miterlimit="10" d="M48.594,29.325
		c0-1.08,0.031-2.129-0.092-3.21c-2.747,0.062-5.493-0.062-8.271,0.062c-1.389,0.34-1.944,1.821-1.759,3.148
		c1.111,0.062,2.222,0.031,3.302,0.031l0.031,0.278c0.062,2.994-0.062,5.957,0.062,8.95c0.154,0.556,0.432,1.11,0.926,1.42
		c0.802,0.523,1.79,0.308,2.685,0.308c0.03-3.61,0.03-7.252,0-10.862C46.496,29.263,47.545,29.387,48.594,29.325z"/>
	<path fill="#FFFFFF" stroke="#FFFFFF" stroke-width="0.0938" stroke-miterlimit="10" d="M77.482,37.441
		c-0.988-0.186-1.76-0.896-2.222-1.76c-0.217-0.463-0.896-0.895-0.68-1.481c1.142-1.543,2.623-2.839,3.673-4.505
		c-1.173-0.092-2.346,0-3.519-0.062c-1.111,1.173-1.944,2.592-3.024,3.796c-0.062-1.76,0.092-3.519-0.062-5.278
		c-0.062-0.926-0.802-1.667-1.635-1.944c-0.556-0.062-1.081-0.093-1.636-0.093c0.03,4.753-0.062,9.505,0.03,14.258
		c1.112,0,2.223,0,3.333-0.031c0-1.667-0.03-3.364,0.031-5.03c0.277,0.463,0.524,0.957,0.833,1.42
		c0.617,0.926,1.204,1.913,2.191,2.53c1.266,0.833,2.901,1.265,4.413,0.987c-0.03-0.864,0-1.759,0-2.653
		C78.624,37.564,78.038,37.564,77.482,37.441z"/>
	<path fill="#FFFFFF" stroke="#FFFFFF" stroke-width="0.0938" stroke-miterlimit="10" d="M87.11,35.497
		c1.76-0.278,3.118-1.821,3.304-3.58c0.091-1.142,0.091-2.407-0.557-3.426c-0.678-1.266-2.006-2.068-3.395-2.253
		c-2.222-0.185-4.444-0.154-6.666-0.062c0.092,4.722,0.031,9.475,0.062,14.197c1.203,0,2.407,0,3.61,0
		c-0.061-1.389-0.03-2.777-0.03-4.166c0.927,1.018,1.636,2.252,2.747,3.115c1.204,0.988,2.839,1.174,4.351,0.958
		c0-1.019,0.094-2.037-0.062-3.056C89.149,37.379,87.605,36.886,87.11,35.497z M86.833,32.287c-0.709,1.173-2.222,0.957-3.395,1.019
		c0-1.327-0.03-2.654,0.03-3.981c1.019,0.062,2.222-0.124,3.056,0.679C87.142,30.559,87.019,31.547,86.833,32.287z"/>
	<path fill="#FFFFFF" stroke="#FFFFFF" stroke-width="0.0938" stroke-miterlimit="10" d="M111.185,29.51
		c-1.514-0.494-3.088,0-4.353,0.833c-0.094-1.389,0-2.809-0.061-4.229c-1.268-0.093-2.748,0.278-3.18,1.636
		c-0.062,4.197-0.062,8.425,0,12.654c1.019-0.031,2.037-0.062,3.055-0.031c0-0.278,0.031-0.802,0.031-1.08
		c1.265,1.604,3.61,1.729,5.37,0.896c1.544-0.681,2.593-2.223,2.963-3.827c0.092-0.926,0.092-1.853,0-2.777
		C114.579,31.67,113.127,29.973,111.185,29.51z M110.133,37.564c-0.863,0.154-1.942,0.216-2.592-0.524
		c-1.265-1.111-1.11-3.426,0.34-4.321c1.265-0.802,3.179-0.309,3.735,1.143C112.324,35.219,111.586,37.07,110.133,37.564z"/>
	<path fill="#FFFFFF" stroke="#FFFFFF" stroke-width="0.0938" stroke-miterlimit="10" d="M137.909,32.102
		c0-0.802,0.031-1.635-0.061-2.468c-0.647,0.031-1.328,0.031-1.976,0.031c-0.092-1.173-0.03-2.376-0.092-3.549
		c-1.327-0.154-2.933,0.371-3.179,1.883c-0.03,2.777-0.094,5.586,0.03,8.364c0.34,2.499,2.809,4.196,5.246,4.012
		c0.03-1.051,0.03-2.068,0.03-3.117c-0.771-0.154-1.975-0.309-2.036-1.327c-0.061-1.266-0.154-2.592,0.062-3.857
		C136.584,32.102,137.231,32.102,137.909,32.102z"/>
	<path fill="#FFFFFF" stroke="#FFFFFF" stroke-width="0.0938" stroke-miterlimit="10" d="M126.369,31.485
		c-1.607-2.253-5.094-2.901-7.255-1.081c-0.061-1.389-0.03-2.777,0.033-4.167c-1.236-0.371-2.748,0.185-3.212,1.42
		c-0.184,4.228,0,8.456-0.122,12.652c1.049,0.094,2.098,0.031,3.179,0.062c-0.03-0.278-0.03-0.802-0.03-1.051
		c1.356,1.637,3.857,1.729,5.647,0.742c1.449-0.742,2.346-2.223,2.714-3.766c0.094-0.895,0.094-1.79,0-2.685
		C127.107,32.874,126.801,32.133,126.369,31.485z M124.114,35.59c-0.246,1.759-2.407,2.622-3.888,1.759
		c-1.636-0.957-1.636-3.673,0-4.63C122.108,31.454,124.7,33.46,124.114,35.59z"/>
	<path fill="#FFFFFF" stroke="#FFFFFF" stroke-width="0.0938" stroke-miterlimit="10" d="M55.909,29.664
		c-0.432,0.154-0.679,0.586-0.926,0.988c-1.729-1.914-4.907-1.605-6.666,0.123c-2.068,1.913-2.284,5.339-0.772,7.654
		c1.512,2.468,5.494,3.148,7.5,0.926c0.186,0.309,0.34,0.648,0.525,0.987c0.864,0,1.759,0.031,2.654,0.062
		c0.062-3.611,0.123-7.222-0.062-10.802C57.421,29.633,56.681,29.633,55.909,29.664z M52.514,37.657
		c-1.513,0.216-2.809-1.234-2.716-2.716c0-1.08,0.741-2.16,1.791-2.5c1.234-0.37,2.747,0.186,3.209,1.45
		C55.631,35.466,54.396,37.812,52.514,37.657z"/>
	<path fill="#FFFFFF" stroke="#FFFFFF" stroke-width="0.0938" stroke-miterlimit="10" d="M66,34.447
		c-1.204-0.74-3.085-0.493-3.765-1.944c0.339-0.493,0.987-0.71,1.543-0.463c0.833,1.173,2.407,0.524,3.611,0.587
		c-0.186-0.864-0.494-1.759-1.235-2.346c-1.79-1.419-4.629-1.234-6.203,0.433c-0.895,1.018-1.142,2.716-0.185,3.765
		c1.142,1.266,2.994,1.327,4.352,2.19c0.432,0.247,0.462,0.988,0,1.234c-0.648,0.587-1.698,0.154-1.945-0.647
		c-1.049-0.062-2.129-0.031-3.209-0.031v0.278l0.062,0.123c0.833,3.642,6.512,4.136,8.271,1.019
		C68.162,37.194,67.605,35.096,66,34.447z"/>
	<path fill="#FFFFFF" stroke="#FFFFFF" stroke-width="0.0938" stroke-miterlimit="10" d="M102.14,29.788
		c-1.079-0.278-2.653-0.339-3.24,0.864c-1.665-2.006-4.969-1.512-6.665,0.185c-2.315,2.283-2.191,6.512,0.246,8.641
		c1.76,1.544,4.878,1.79,6.513-0.093c0.463,1.389,2.098,0.896,3.24,0.926c0.062-3.333,0-6.665,0.031-9.999
		C102.233,30.189,102.173,29.911,102.14,29.788z M98.963,35.62c-0.218,2.067-3.212,2.809-4.477,1.234
		c-1.265-1.296-0.741-3.765,0.988-4.382C97.389,31.701,99.517,33.614,98.963,35.62z"/>
	<path fill="#FFFFFF" stroke="#FFFFFF" stroke-width="0.0938" stroke-miterlimit="10" d="M128.342,30.929
		c-0.338,3.117-0.03,6.265-0.152,9.413c1.079,0.031,2.191,0.031,3.271,0c-0.03-3.58-0.03-7.159,0-10.708
		C130.317,29.633,128.929,29.818,128.342,30.929z"/>
</g>
</svg>
