<?xml version="1.0" encoding="utf-8"?>
<!-- Generator: Adobe Illustrator 16.0.4, SVG Export Plug-In . SVG Version: 6.00 Build 0)  -->
<!DOCTYPE svg PUBLIC "-//W3C//DTD SVG 1.1//EN" "http://www.w3.org/Graphics/SVG/1.1/DTD/svg11.dtd">
<svg version="1.1" id="Layer_1" xmlns="http://www.w3.org/2000/svg" xmlns:xlink="http://www.w3.org/1999/xlink" x="0px" y="0px"
	 width="504.332px" height="107.837px" viewBox="0 0 504.332 107.837" enable-background="new 0 0 504.332 107.837"
	 xml:space="preserve">
<g>
	<g>
		<path fill="#5E6062" d="M54.042,37.827h-0.16c0,0-1.2,4.903-2.239,7.756l-4.876,13.024h14.39l-4.876-13.024
			C55.241,42.73,54.042,37.827,54.042,37.827z"/>
		<path fill="#5E6062" d="M54.857,0L54.857,0l-0.419,0h-0.534h-0.962v0.029L0,27.234v25.859h0.002v1.375H0v0.001v25.859
			l52.941,27.509h1.633v-0.002h0.283l0.135,0.002l53.35-27.509V54.469v-0.001v-1.375v0V27.234L54.857,0z M80.024,79.825h-6.236
			c-3.998,0-5.436-0.951-6.715-4.244l-3.518-9.072H44.369l-3.518,9.072c-1.279,3.293-2.638,4.244-6.636,4.244H27.9v-8.121h1.279
			c1.36,0,1.999-0.293,2.479-1.61l16.869-42.217h10.953l16.789,42.217c0.479,1.317,1.119,1.61,2.478,1.61h1.279V79.825z
			 M105.341,41.772v1.392v0.55v0.003v12.651c-11.269-5.814-10.333-12.546-10.326-12.652c0.004-0.064-0.027-0.447-0.022-0.868
			c-0.04-1.402,0.438-7.226,10.348-12.339V41.772z"/>
	</g>
	<g>
		<path fill="#5E6062" d="M154.002,74.77h0.953c1.323,0,2.131-0.221,2.646-1.623l16.914-45.516h5.516l16.915,45.516
			c0.515,1.402,1.244,1.623,2.646,1.623h0.879v4.557h-2.352c-3.679,0-4.778-0.736-6.104-4.264l-4.485-12.207h-20.518l-4.557,12.207
			c-1.33,3.527-2.359,4.264-6.035,4.264h-2.42V74.77z M186.133,58.37l-6.839-18.459c-0.879-2.423-1.987-6.687-1.987-6.687h-0.143
			c0,0-1.103,4.264-1.989,6.687l-6.767,18.459H186.133z"/>
		<path fill="#5E6062" d="M208.219,48.293c0-1.029-0.591-1.615-1.622-1.615h-3.083v-4.337h5.223c3.16,0,4.482,1.324,4.482,4.486
			v26.542c0,1.102,0.588,1.617,1.617,1.617h3.09v4.34h-5.221c-3.163,0-4.486-1.322-4.486-4.484V48.293z M208.07,27.63h4.855v6.322
			h-4.855V27.63z"/>
		<path fill="#5E6062" d="M226.319,48.293c0-1.029-0.586-1.615-1.616-1.615h-3.088v-4.337h5.149c3.088,0,4.482,1.246,4.482,4.191
			v2.497c0,1.544-0.149,2.795-0.149,2.795h0.149c1.767-5.591,5.888-9.854,11.694-9.854c1.029,0,1.982,0.221,1.982,0.221v4.929
			c0,0-0.881-0.151-1.838-0.151c-5.221,0-9.119,4.119-10.736,9.562c-0.737,2.354-1.031,4.85-1.031,7.202v15.592h-4.999V48.293z"/>
		<path fill="#5E6062" d="M251.922,33.587c0-1.03-0.586-1.617-1.615-1.617h-3.09v-4.34h5.223c3.162,0,4.484,1.324,4.484,4.484
			v13.388c0,1.689-0.15,3.011-0.15,3.011h0.15c0,0,3.09-7.058,12.58-7.058c9.926,0,16.1,7.946,16.1,19.41
			c0,11.694-6.988,19.341-16.693,19.341c-8.818,0-12.137-7.131-12.137-7.131h-0.143c0,0,0.143,1.25,0.143,3.018v3.232h-4.852V33.587
			z M268.545,75.795c6.537,0,11.908-5.516,11.908-14.929c0-9.042-4.855-14.849-11.693-14.849c-6.172,0-11.986,4.408-11.986,14.929
			C256.773,68.369,260.605,75.795,268.545,75.795z"/>
		<path fill="#5E6062" d="M295.117,48.293c0-1.029-0.592-1.615-1.617-1.615h-3.09v-4.337h5.145c3.09,0,4.484,1.246,4.484,4.191
			v2.497c0,1.544-0.145,2.795-0.145,2.795h0.145c1.768-5.591,5.887-9.854,11.693-9.854c1.029,0,1.98,0.221,1.98,0.221v4.929
			c0,0-0.879-0.151-1.83-0.151c-5.221,0-9.125,4.119-10.742,9.562c-0.73,2.354-1.029,4.85-1.029,7.202v15.592h-4.994V48.293z"/>
		<path fill="#5E6062" d="M338.516,56.532h2.053v-0.443c0-7.718-2.795-10.442-9.562-10.442c-1.83,0-7.203,0.516-7.203,3.238v2.354
			h-4.777v-3.532c0-5.15,8.82-6.25,12.059-6.25c11.695,0,14.482,6.25,14.482,14.189v17.724c0,1.102,0.588,1.617,1.617,1.617h3.09
			v4.34h-5.07c-3.162,0-4.412-1.395-4.412-4.412c0-1.617,0.07-2.719,0.07-2.719h-0.145c0.074,0-3.016,8.012-12.279,8.012
			c-6.18,0-12.572-3.6-12.572-10.957C315.865,56.97,332.113,56.532,338.516,56.532z M329.246,75.943
			c7.059,0,11.322-7.354,11.322-13.753v-1.689h-2.131c-5.809,0-17.43,0.152-17.43,8.454
			C321.008,72.416,323.73,75.943,329.246,75.943z"/>
		<path fill="#5E6062" d="M358.021,33.587c0-1.03-0.584-1.617-1.615-1.617h-3.09v-4.34h5.221c3.16,0,4.484,1.102,4.484,4.269v24.56
			h3.826c1.389,0,3.162-0.442,4.191-1.765l9.484-12.354h6.102l-10.666,13.527c-1.836,2.28-2.789,2.646-2.789,2.646v0.148
			c0,0,1.104,0.516,2.277,2.719l6.693,11.987c0.658,1.251,1.393,1.617,3.383,1.617h1.98v4.34h-3.455
			c-3.676,0-4.705-0.586-6.398-3.676l-7.354-13.239c-0.805-1.465-2.568-1.615-3.893-1.615h-3.383v18.53h-5V33.587z"/>
		<path fill="#5E6062" d="M408.926,41.456c10.217,0,15.521,7.866,15.521,17.059c0,0.885-0.156,2.502-0.156,2.502h-28.379
			c0.143,9.34,6.693,14.706,14.332,14.706c6.768,0,11.115-4.557,11.115-4.557l2.416,3.748c0,0-5.363,5.293-13.744,5.293
			c-10.959,0-19.34-7.939-19.34-19.341C390.691,48.736,399,41.456,408.926,41.456z M419.299,57.046
			c-0.301-7.644-5.006-11.399-10.441-11.399c-6.107,0-11.473,3.97-12.732,11.399H419.299z"/>
		<path fill="#5E6062" d="M433.141,73.447h5.666v5.879h-5.666V73.447z"/>
		<path fill="#5E6062" d="M450.648,48.293c0-1.029-0.588-1.615-1.617-1.615h-3.09v-4.337h5.221c3.162,0,4.49,1.324,4.49,4.486
			v26.542c0,1.102,0.59,1.617,1.617,1.617h3.09v4.34h-5.221c-3.162,0-4.49-1.322-4.49-4.484V48.293z M450.504,27.63h4.852v6.322
			h-4.852V27.63z"/>
		<path fill="#5E6062" d="M484.777,41.456c10.814,0,19.555,8.239,19.555,19.197c0,11.171-8.74,19.554-19.484,19.554
			c-10.811,0-19.555-8.383-19.555-19.554C465.293,49.695,474.037,41.456,484.777,41.456z M484.848,75.723
			c7.869,0,14.348-6.473,14.348-15.069c0-8.392-6.479-14.636-14.348-14.636c-7.938,0-14.404,6.244-14.404,14.636
			C470.443,69.25,476.91,75.723,484.848,75.723z"/>
	</g>
</g>
</svg>
