<?xml version="1.0" encoding="utf-8"?>
<!-- Generator: Adobe Illustrator 16.0.4, SVG Export Plug-In . SVG Version: 6.00 Build 0)  -->
<!DOCTYPE svg PUBLIC "-//W3C//DTD SVG 1.1//EN" "http://www.w3.org/Graphics/SVG/1.1/DTD/svg11.dtd">
<svg version="1.1" id="_x32__flag_copy_2" xmlns="http://www.w3.org/2000/svg" xmlns:xlink="http://www.w3.org/1999/xlink" x="0px"
	 y="0px" width="877.311px" height="1177.136px" viewBox="0 0 877.311 1177.136" enable-background="new 0 0 877.311 1177.136"
	 xml:space="preserve">
<g>
	<g>
		<g>
			<defs>
				<polygon id="SVGID_1_" points="190.117,50.491 59.18,415.56 373.126,415.56 497.438,50.599 				"/>
			</defs>
			<use xlink:href="#SVGID_1_"  overflow="visible" fill="#999999"/>
			<clipPath id="SVGID_2_">
				<use xlink:href="#SVGID_1_"  overflow="visible"/>
			</clipPath>
			<g clip-path="url(#SVGID_2_)">
				<path fill-rule="evenodd" clip-rule="evenodd" fill="#FFFFFF" d="M494.221,112.51c1.102,4.724,0.649,9.5,0,13.747
					c-1.881,12.297-7.78,23.314-14.263,31.104c-4.451,5.348-10.292,9.945-16.84,13.403c-6.659,3.517-14.401,6.547-24.23,6.014
					c-1.863-18.469,5.788-32.888,14.951-43.475c9.276-10.72,22.151-18.293,38.663-20.62
					C492.866,112.63,493.459,112.395,494.221,112.51z"/>
				<path fill-rule="evenodd" clip-rule="evenodd" fill="#FFFFFF" d="M560.965,174.976c-16.602,12.241-32.072,28.693-29.899,58.081
					c1.961,26.521,17.878,41.536,36.773,51.379c-0.828,5.743-3.188,10.685-5.327,15.465c-6.33,14.145-14.32,26.767-23.542,38.321
					c-8.479,10.624-20.178,23.548-40.897,19.589c-11.067-2.115-18.997-8.659-31.103-10.139c-6.214-0.76-13.197-0.323-18.903,1.032
					c-10.466,2.484-19.288,8.891-31.273,9.966c-13.099,1.173-21.833-6.229-28.182-12.717c-7.024-7.175-12.958-15.495-18.215-23.025
					c-10.867-15.567-19.828-36.197-24.745-57.738c-2.595-11.367-3.953-23.955-3.953-37.289c0-12.654,2.709-24.756,6.702-34.54
					c7.864-19.273,21.65-34.103,41.241-41.241c10.048-3.661,24.238-5.122,35.57-1.89c5.017,1.431,10.107,3.476,15.122,5.499
					c4.537,1.83,10.057,4.56,15.981,4.64c4.39,0.059,8.473-1.542,12.201-2.921c10.68-3.951,20.702-9.394,34.711-10.138
					c13.927-0.741,25.889,3.027,35.055,7.732C547.809,159.933,555.064,166.724,560.965,174.976z"/>
			</g>
		</g>
		<polygon opacity="0.2" points="497.439,50.599 373.129,415.56 330.192,415.56 454.503,50.599 		"/>
		<polygon fill="#4D4D4D" points="361.048,384.603 373.068,415.56 383.959,382.341 		"/>
		<polygon fill="#B3B3B3" points="361.105,384.603 736.229,384.603 862.445,23.354 484.59,23.354 		"/>
	</g>
	<g>
		<defs>
			<polygon id="SVGID_3_" points="361.105,384.603 736.229,384.603 862.445,23.354 484.59,23.354 			"/>
		</defs>
		<clipPath id="SVGID_4_">
			<use xlink:href="#SVGID_3_"  overflow="visible"/>
		</clipPath>
		<g clip-path="url(#SVGID_4_)">
			<path fill-rule="evenodd" clip-rule="evenodd" fill="#FFFFFF" d="M529.102,49.292c1.102,4.724,0.649,9.5,0,13.747
				c-1.881,12.297-7.78,23.314-14.263,31.104c-4.451,5.348-10.292,9.945-16.84,13.403c-6.659,3.517-14.4,6.547-24.229,6.014
				c-1.863-18.469,5.788-32.888,14.95-43.475c9.276-10.72,22.151-18.293,38.663-20.62C527.748,49.413,528.34,49.178,529.102,49.292z
				"/>
			<path fill-rule="evenodd" clip-rule="evenodd" fill="#FFFFFF" d="M579.965,143.976c-16.602,12.241-32.072,28.693-29.899,58.081
				c1.961,26.521,17.878,41.536,36.773,51.379c-0.828,5.743-3.188,10.685-5.327,15.465c-6.33,14.145-14.32,26.767-23.542,38.321
				c-8.479,10.624-20.178,23.548-40.897,19.589c-11.067-2.115-18.997-8.659-31.103-10.139c-6.214-0.76-13.197-0.323-18.902,1.032
				c-10.466,2.484-19.289,8.891-31.274,9.966c-13.099,1.173-21.833-6.229-28.182-12.717c-7.024-7.175-12.958-15.495-18.215-23.025
				c-10.867-15.567-19.828-36.197-24.745-57.738c-2.595-11.367-3.953-23.955-3.953-37.289c0-12.654,2.709-24.756,6.702-34.54
				c7.864-19.273,21.65-34.103,41.241-41.241c10.048-3.661,24.238-5.122,35.57-1.89c5.017,1.431,10.107,3.476,15.122,5.499
				c4.537,1.83,10.057,4.56,15.982,4.64c4.39,0.059,8.473-1.542,12.2-2.921c10.68-3.951,20.702-9.394,34.711-10.138
				c13.927-0.741,25.889,3.027,35.055,7.732C566.809,128.933,574.064,135.724,579.965,143.976z"/>
		</g>
	</g>
	<g>
		
			<line fill="none" stroke="#000000" stroke-width="10" stroke-linecap="round" x1="726.825" y1="414.924" x2="863.693" y2="21.777"/>
		<ellipse cx="867.366" cy="9.702" rx="9.945" ry="9.703"/>
	</g>
	<g>
		<ellipse fill="#FAAF40" cx="455.643" cy="709.816" rx="73.916" ry="75.731"/>
		<g>
			<circle fill="#FAAF40" cx="719.642" cy="444.826" r="48.519"/>
			<path fill="#FAAF40" d="M652.789,620.863c0,0,15.425-8.26,35.501-56.885c20.075-48.625,40.141-69.712,52.27-75.138
				c0,0-62.326-18.271-59.666-14.787c5.18,6.783,2.537,20.248-16.029,30.081c-11.383,6.03-75.59,32.905-89.623,87.393
				C568.914,616.094,596.628,659.615,652.789,620.863z"/>
			<path fill="#FAAF40" d="M571.294,726.914c31.737-20.641,56.21-44.977,79.748-100.664c7.881-18.642-17.628-54.041-64.929-48.267
				c0,0-80.924,8.804-108.35,74.429c-27.425,65.625,22.053,116.704,22.053,116.704S528.352,754.843,571.294,726.914z"/>
		</g>
	</g>
	<path fill="none" stroke="#BED63A" stroke-width="0.25" d="M339.368,729.617"/>
	<path fill="none" stroke="#BED63A" stroke-width="0.25" d="M340.618,552.261"/>
	<g>
		<ellipse fill="#FAAF40" cx="267.26" cy="757.427" rx="66.963" ry="68.608"/>
		<g>
			<g>
				<path fill="#FAAF40" d="M150.019,906.292c18.687-1.196,105.493-21.975,147.112-105.041
					c-39.98-16.566-33.105-32.961-46.965-71.103c-45.484,3.201-100.941,41.556-106.519,100.301c0,0,1.753,28.044,11.006,42.859
					C163.907,888.124,150.019,906.292,150.019,906.292z"/>
				<path fill="#FAAF40" d="M141.478,905.5c0,0-33.6-4.416-59.363-38.246c-30.68-40.29-25.723-152.969,14.763-179.141
					c-20.002,14.121-19.019,36.307-4.938,56.28c8.748,12.355,12.042,19.482,26.199,19.305c-0.057,0.031,1.707,1.117,3.181,0.613
					c-13.25,8.309-5.696,31.193,15.169,41.889c31.5,14.741,30.551,26.968,36.505,37.119
					C177.032,856.199,176.916,914.093,141.478,905.5z"/>
				<path fill="#FAAF40" d="M158.515,698.73c-14.1-19.957-41.682-24.711-61.638-10.617c-20.002,14.121-24.757,41.697-10.677,61.673
					c8.749,12.354,22.68,18.926,36.837,18.75l0.043-0.039c8.594-0.094,17.262-2.721,24.843-8.088
					C167.875,746.319,172.599,718.686,158.515,698.73z"/>
			</g>
		</g>
	</g>
	<g opacity="0.2">
		<path d="M250.977,488.811c-3.763,7.182-6.392,15.022-7.688,23.274c-0.373,0.117-0.747,0.227-1.118,0.374
			c-1.538,0.612-2.252,2.331-1.637,3.836c0.349,0.867,1.068,1.477,1.904,1.725c0.057,0.016,0.115,0.021,0.172,0.034
			c-0.298,3.901-4.157,54.494-3.842,58.583c0.835,10.855,2.247,20.392,4.209,28.75c-2.963,2.629-6.239,4.529-9.709,4.555
			c-10.847,0.088-8.864-10.47-5.368-12.336c3.752-2.001,8.523,0.069,9.669,3.613c0,0,0.039-11.35-11.651-10.078
			c-10.629,1.154-16.965,27.723,6.994,30.598c5.119,0.617,10.192,0.426,15.074-0.301c0.154,0.379,0.306,0.758,0.463,1.129
			c0.621,1.562,1.267,2.879,1.524,3.389c4.898,10.234,11.243,17.615,18.945,22.732l-1.595,33.619l-0.142,2.988
			c-0.093,0.078-0.188,0.154-0.281,0.232c0.114-0.236,0.214-0.443,0.291-0.598c-1.604,1.322-3.168,2.688-4.708,4.076
			c-30.961,2.24-56.102,26.035-61.217,56.833c-24.354,14.043-45.509,36.803-54.049,65.99c-3.088-1.836-6.628-3.711-10.73-5.631
			c-18.166-9.312-26.235-27.859-19.276-37.986c1.93,0.23,3.875,0.346,5.826,0.322l0.043-0.039
			c8.594-0.094,17.262-2.721,24.843-8.088c19.951-14.09,24.675-41.724,10.591-61.679c-14.1-19.957-41.682-24.711-61.638-10.617
			c-1.834,1.295-3.538,2.705-5.113,4.211c1.522-1.471,3.223-2.877,5.113-4.211c-40.486,26.172-45.443,138.851-14.763,179.141
			c25.763,33.83,59.363,38.246,59.363,38.246c3.115,0.755,5.952,0.987,8.542,0.791l-0.001,0.001
			c0.043-0.003,0.093-0.008,0.136-0.011c0.147-0.012,0.297-0.019,0.442-0.033c12.788-1.012,52.944-10.2,90.893-38.706
			c0.564,0.898,1.141,1.807,1.731,2.729c3.67,5.71,7.53,11.391,11.26,16.87c17.12,25.18,33.3,48.97,33.3,77.87v27.43h0.281v120.465
			c-8.88,0.24-63.88,4.449-63.88,64.23h145.4V992.311h0.278h0.05l0.012-0.007c-9.694-14.051-26.673-22.135-45.271-49.543
			c-34.991-51.568-77.041-157.342-35.229-254.183c0.056-0.131,1.31-1.059,1.31-1.059s5.144-3.668,6.646-6.758
			c2.928-6.025,2.177-14.896,2.616-22.584c0,0-8.949-9.166-9.699-61.417c0,0-4-80.75,0.5-111.25v-49.406
			c-7.347,2.757-13.913,6.354-18.859,10.346C249.705,464.412,250.604,485.039,250.977,488.811z"/>
		<path opacity="0.3" d="M498.303,771.882l-0.261,0.02c-0.021,0.021-0.046,0.043-0.067,0.064v-0.104
			c2.203-1.582,4.328-3.27,6.347-5.082c9.622-5.082,34.056-18.457,66.973-39.866c31.737-20.641,56.21-44.977,79.748-100.664
			c0.669-1.582,1.092-3.289,1.287-5.076c0.154-0.105,0.306-0.203,0.46-0.311c0,0,15.425-8.26,35.501-56.885
			c20.075-48.625,40.141-69.712,52.27-75.138c0,0-0.111-0.032-0.304-0.089c14.066-6.617,24.712-19.861,27.313-36.374
			c3.55-22.522-9.012-43.854-29.142-52.289c8.45,15.243,3.863,54.094-16.201,78.814c-21.845,26.917-94.401,92.062-102.983,117.808
			c0,0-33.547,49.931-71.386,82.308c-33.857,28.971-83.017,52.318-139.655,60.825c0,0,6.428,75.531,60.112,125.152
			c14.104-16.321,30.052-37.393,31.167-78.855C499.342,781.341,498.942,776.581,498.303,771.882z"/>
	</g>
	<g opacity="0.2">
		<rect x="288.077" y="1025.07" width="81.484" height="1.84"/>
		<polygon points="388.453,1021.653 461.649,981.153 462.587,982.94 389.704,1023.28 		"/>
	</g>
	<g>
		<ellipse fill="#FAAF40" cx="267.26" cy="757.427" rx="66.963" ry="68.608"/>
		<g>
			<g>
				<path fill="#FAAF40" d="M150.019,906.292c18.687-1.196,105.493-21.975,147.112-105.041
					c-39.98-16.566-33.105-32.961-46.965-71.103c-45.484,3.201-100.941,41.556-106.519,100.301c0,0,1.753,28.044,11.006,42.859
					C163.907,888.124,150.019,906.292,150.019,906.292z"/>
				<path fill="#FAAF40" d="M141.478,905.5c0,0-33.6-4.416-59.363-38.246c-30.68-40.29-25.723-152.969,14.763-179.141
					c-20.002,14.121-19.019,36.307-4.938,56.28c8.748,12.355,12.042,19.482,26.199,19.305c-0.057,0.031,1.707,1.117,3.181,0.613
					c-13.25,8.309-5.696,31.193,15.169,41.889c31.5,14.741,30.551,26.968,36.505,37.119
					C177.032,856.199,176.916,914.093,141.478,905.5z"/>
				<path fill="#FAAF40" d="M158.515,698.73c-14.1-19.957-41.682-24.711-61.638-10.617c-20.002,14.121-24.757,41.697-10.677,61.673
					c8.749,12.354,22.68,18.926,36.837,18.75l0.043-0.039c8.594-0.094,17.262-2.721,24.843-8.088
					C167.875,746.319,172.599,718.686,158.515,698.73z"/>
			</g>
		</g>
	</g>
	<g id="XMLID_22_">
		<g>
			<path d="M334.224,757.431c0,32.09-21.51,59.031-50.56,66.521c-8.34,12.02-17.64,22.38-27.37,31.3
				c-38.31-21.46-68.25-69.959-74.42-95.709c6.08-5.221,12.62-9.811,19.4-13.721c5.38-32.36,32.87-57.001,65.99-57.001
				C304.244,688.82,334.224,719.541,334.224,757.431z"/>
			<path d="M256.294,855.251c-2.52,2.31-5.07,4.52-7.64,6.64c-38.21-21.75-67.96-70.259-73.88-95.759c2.28-2.301,4.65-4.5,7.1-6.59
				C188.044,785.292,217.984,833.791,256.294,855.251z"/>
		</g>
		<path fill="#FAAF40" d="M444.624,949.676c-4.539-7.7-0.03-41.125-0.03-41.125c0-3.82,0.48-7.32,1.35-10.61
			c8.26-30.97,51.391-42.18,53.25-111.789c-2.22-74.04-64.47-133.39-140.93-133.39c-12.85,0-25.31,1.68-37.14,4.82
			c-59.86,15.889-103.86,69.27-103.86,132.679c0,1.82,0.04,3.631,0.1,5.43c0.53,13.191,2.96,25.9,7.04,37.891
			c0,0.02,0.01,0.04,0.03,0.069c4.8,12.95,11.63,24.931,19.03,36.471c20.15,31.38,44.6,59.46,44.6,94.89c0,0,0,5.98,0,12.45v112.635
			h81.52v-98.65l-0.13-0.17l-0.08-0.09h0.25l-0.04,0.021v0.239l65.449,104.21l85.265-5.56
			C520.298,1090.096,446.157,952.278,444.624,949.676z"/>
		<g>
			<path d="M369.583,1090.096v87.04h-145.4c0-59.781,55-63.99,63.88-64.23v-22.81H369.583z"/>
			<path d="M499.787,1175.345h77.21v1.791h-110.59c1.15-10.99,4.92-21.211,10.681-30.01L499.787,1175.345z"/>
			<path d="M537.707,1116.274l39.29,59.07h-77.21l-22.699-28.219c12.159-18.631,33.189-30.941,57.1-30.941
				C535.367,1116.185,536.537,1116.216,537.707,1116.274z"/>
			<path d="M601.968,1177.136h-24.971v-1.791l-39.29-59.07C571.317,1117.985,598.487,1144.036,601.968,1177.136z"/>
			<path d="M512.361,1075.217l25.346,41.058c-1.17-0.059-2.34-0.09-3.52-0.09c-23.91,0-43.896,25.398-56.056,44.027l-43.099-64.557
				L512.361,1075.217z"/>
		</g>
	</g>
	<polygon fill="#FAAF40" points="387.036,666.41 390.291,740.747 323.094,740.747 264.552,740.747 267.324,682.309 272.016,583.429 
		383.401,583.429 	"/>
	<g id="XMLID_16_">
		<path fill="#1A1A1A" d="M387.037,666.412l3.25,74.339h-67.19h-58.54l2.77-58.44l1.32-27.809c5.13,5.289,16.26,10.01,30.9,10.01
			c18.29,0,49.13-0.621,85.77-37.26L387.037,666.412z"/>
		<g>
			<g id="XMLID_19_">
				<g>
					<path fill="#113A4C" d="M287,1112.671c0.3-0.021,0.56-0.031,0.78-0.041V977.461v-12.45c0-3.3-0.033-6.84-0.433-10.02
						c10.45-0.29,21.517-0.973,33.817-1.873c3.439-0.25,7.492-0.488,11.042-0.788c15.709,19.71,29.494,27.751,37.914,39.921
						l-0.25,0.18v120.459h-82.86L287,1112.671z"/>
					<path fill="#14425B" d="M369.87,992.431l0.25-0.18c-8.42-12.17-22.586-20.102-38.296-39.812c6.56-0.56,13.3-1.2,20.17-1.93
						c36.65-3.88,69.345-9.305,90.895-14.755c0.02,5.91,0.521,11.306,1.981,13.775c0.4,0.681,5.65,10.391,17.03,31.49l0.15,0.28
						c15.81,29.34,38.57,71.62,50.5,93.8l25.32,40.9c6.18,0.33,12.239,1.5,18.029,3.439l-0.08,0.24
						c-5.47-1.83-11.25-2.98-17.25-3.35c-0.29-0.031-0.569-0.051-0.859-0.061c-1.17-0.051-2.34-0.09-3.521-0.09
						c-16.51,0-31.64,5.869-43.43,15.65l-26.87,7.549l-29.09-43.569l-46.03-73.28l-0.54-0.699L369.87,992.431z"/>
					<path fill="#0D3242" d="M352.109,934.751c-10.58,1.12-20.85,2.04-30.65,2.76c-13.73,1.01-26.52,1.63-37.9,1.88
						c1.68,5.17,2.92,10.46,3.61,15.91c10.45-0.29,21.99-0.89,34.29-1.79c3.439-0.25,6.93-0.53,10.48-0.83
						c6.56-0.56,13.3-1.2,20.17-1.93c36.65-3.88,69.23-9.36,90.78-14.811c-0.02-5.34,0.36-11.239,0.79-16.199
						C422.14,925.261,389.209,930.82,352.109,934.751z"/>
				</g>
				<g>
					<path fill="#1A1A1A" d="M516.08,604.912c2.21,25.79,30.43,85.739,67.71,113.719c-2.28,1.68-4.591,3.311-6.94,4.92
						c-37-27.389-65.2-86.43-68.16-112.959C511.109,608.582,513.58,606.681,516.08,604.912z"/>
					<path fill="#1A1A1A" d="M508.689,610.591c2.96,26.53,31.16,85.571,68.16,112.959c-1.77,1.221-3.57,2.41-5.4,3.6
						c-33.199,21.591-57.909,35.081-67,39.88c-1.84,1.672-3.93,3.342-6.149,4.941c0.06,0.449,0.12,0.91,0.18,1.359
						c-102.133,20.107-97.354-55.036-97.16-97.024c0.032-6.939-0.127-12.086-0.44-17.756c14.03-15.74,33.96-24.75,54.76-24.75
						c9.771,0,19.28,1.92,28.26,5.721C490.77,627.852,499.38,618.332,508.689,610.591z"/>
					<path fill="#1A1A1A" d="M260.129,691.15c5.56,9.83,14.82,18.281,29.58,20.131c50.48,6.33,82.21-15.439,103.98-54.43
						c2.33,0.59,4.66,1.24,6.959,1.949c0.07-0.08,0.15-0.17,0.23-0.25c5.26,31.951-20.498,137.509,97.6,114.78
						c0.53,4.279,0.87,8.58,1,12.811c-1.189,44.609-19.569,65.619-34.33,82.499c-8.569,9.8-15.97,18.26-18.93,29.37
						c-0.9,3.42-1.34,6.87-1.34,10.54c-0.02,0.14-0.65,4.9-1.2,11.19c-21.54,5.52-54.47,11.079-91.57,15.01
						c-10.58,1.12-20.85,2.04-30.65,2.76c-13.73,1.01-26.52,1.63-37.9,1.88c-5.911-18.18-17.27-34.89-29.08-52.26
						c-3.73-5.48-7.59-11.15-11.26-16.86c-9.04-14.1-14.92-25.37-19.05-36.52c-4.19-12.3-6.57-25.07-7.09-38.049
						c-0.07-1.99-0.1-3.771-0.1-5.441C216.979,752.69,232.6,717.061,260.129,691.15z"/>
					<path fill="#1A1A1A" d="M266.919,685.021c4.7,10.061,13.36,19.279,27.52,20.24c41.76,2.84,73.34-13.781,92.68-49.9
						c2.19,0.439,4.38,0.939,6.57,1.49c-21.77,38.99-53.5,60.76-103.98,54.43c-14.76-1.85-24.02-10.301-29.58-20.131
						c2.18-2.059,4.45-4.059,6.78-5.988L266.919,685.021z"/>
				</g>
			</g>
		</g>
	</g>
	<g>
		<defs>
			<path id="SVGID_5_" d="M287.782,965.011c0-28.9-16.18-52.69-33.3-77.87c-3.73-5.479-7.59-11.16-11.26-16.87
				c-9.04-14.1-14.92-25.359-19.06-36.52l28.223-111.696l55.746-5.379l51.967,177.183l-8.802,54.279L287.782,965.011z"/>
		</defs>
		<clipPath id="SVGID_6_">
			<use xlink:href="#SVGID_5_"  overflow="visible"/>
		</clipPath>
		<g clip-path="url(#SVGID_6_)">
			<path fill="#FFFFFF" d="M211.429,868.854l15.24-0.359c9.646-0.229,12.871-2.598,15.769-10.615l7.975-22.091l46.299-1.091
				l9.002,21.688c3.279,7.872,6.802,10.082,16.447,9.854l15.049-0.354l-0.462-19.596l-3.087,0.074
				c-3.279,0.076-4.838-0.596-6.075-3.744L284.67,741.718l-26.429,0.621l-38.298,102.823c-1.085,3.205-2.611,3.948-5.894,4.024
				l-3.084,0.073L211.429,868.854z M255.748,816.589l11.024-31.703c2.346-6.945,4.963-18.842,4.963-18.842l0.384-0.008
				c0,0,3.173,11.76,5.845,18.584l12.509,31.148L255.748,816.589z"/>
		</g>
	</g>
	<g>
		<path opacity="0.2" d="M384.987,621.096c0,0-28.5,55.666-88.667,55.666c-7.841,0-28.5-7.5-27-39L384.987,621.096z"/>
		<g>
			<path fill="#FAAF40" d="M389.796,504.551c-11.205-41.766-39.821-58.514-76.568-56.2c-37.749,2.384-67.265,32.093-70.564,68.645
				c-0.031,0.275-0.018,0.545-0.034,0.812c0,0-4.189,54.577-3.861,58.83c5.218,67.79,32.762,84.364,78.218,81.458
				c45.446-2.922,89.276-46.562,86.365-92.002C403.174,563.313,389.796,504.551,389.796,504.551z"/>
			<path d="M301.229,509.653c-1.315-0.958-1.596-2.81-0.598-4.123l0,0c2.79-3.74,6.886-5.698,10.858-6.794l0,0
				c7.977-2.146,16.046-1.023,16.241-1.024l0,0c1.597,0.216,2.728,1.688,2.518,3.304l0,0c-0.206,1.612-1.696,2.744-3.278,2.535l0,0
				c-0.023,0.03-1.9-0.221-4.587-0.228l0,0c-2.673-0.018-6.136,0.188-9.341,1.079l0,0c-3.253,0.888-6.062,2.4-7.709,4.644l0,0
				c-0.409,0.547-0.958,0.92-1.58,1.082l0,0C302.914,510.353,301.978,510.202,301.229,509.653L301.229,509.653z"/>
			<path d="M240.535,516.296c-0.615-1.505,0.099-3.225,1.637-3.836l0,0c4.338-1.722,8.849-1.265,12.816-0.125l0,0
				c7.916,2.32,14.228,7.497,14.383,7.591l0,0c1.257,1.026,1.447,2.867,0.432,4.128l0,0c-1.013,1.272-2.875,1.464-4.12,0.46l0,0
				c-0.035,0.006-1.511-1.174-3.797-2.597l0,0c-2.265-1.396-5.343-3.025-8.542-3.937l0,0c-3.23-0.944-6.428-1.107-8.986-0.066l0,0
				c-0.637,0.261-1.3,0.283-1.92,0.107l0,0C241.603,517.772,240.884,517.163,240.535,516.296L240.535,516.296z"/>
			<path fill="#FAAF40" d="M388.695,529.631c3.004-7.631,11.575-9.259,15.932-4.693c8.025,8.422,14.803,29.217-4.092,37.026"/>
			<path d="M394.276,523.542c1.086-7.286,1.509-21.178-2.601-35.94c-8.291-29.783-30.367-27.747-30.367-27.747l-13.479,11.241
				c0,0,13.069,8.36,26.132,23.834c6.204,7.347,14.24,22.445,16.383,36.394L394.276,523.542z"/>
			<path d="M358.864,458.5l-15.354,10.595c0,0-57.638,30.816-92.459,20.327c0,0-3.69-23.117,20.887-42.971
				c16.527-13.341,51.078-22.33,72.758-9.967C361.383,445.998,358.864,458.5,358.864,458.5z"/>
			<path d="M327.995,535.812c0.296,5.144-3.405,9.54-8.276,9.823c-4.873,0.283-9.061-3.658-9.361-8.802
				c-0.297-5.148,3.404-9.547,8.274-9.833C323.505,526.722,327.694,530.663,327.995,535.812z"/>
			<path d="M260.725,539.665c0.3,5.145-3.407,9.546-8.278,9.826c-4.865,0.279-9.055-3.66-9.356-8.803
				c-0.301-5.146,3.406-9.546,8.276-9.825C256.239,530.575,260.429,534.517,260.725,539.665z"/>
		</g>
		<g>
			<g opacity="0.2">
				<g>
					<path d="M247.277,604.476c1.378-1.658,2.646-3.348,3.782-4.9c4.429-6.041,11.942-16.826,24.106-17.415
						c12.161-0.596,15.416,6.854,16.213,9.351c0.816,2.5,1.733,9.248-3.338,14.974c-2.111,2.384-21.484,14.914-37.847,19.685
						c-0.032,0.01-0.096,0.029-0.096,0.029s-3.467-6.582-2.927-9.543c0.558-3.055,5.103-2.533,3.703-5.201
						C248.765,607.437,247.277,604.476,247.277,604.476z"/>
					<path d="M343.359,598.071c0.667-3.664,5.13-6.351,9.113-4.857c3.702,1.386,7.065,11.59-3.693,12.936
						c-7.18,0.902-14.606-6.331-19.787-11.734c-5.186-5.406-14.048-15.105-26.187-14.085c-12.122,1.014-14.374,8.826-14.847,11.409
						c-0.461,2.583-1.302,8.277,5.287,14.4c3.411,3.172,31.284,18.394,57.435,11.66c23.37-6.017,13.585-31.518,2.903-31.258
						C341.824,586.826,343.359,598.071,343.359,598.071z"/>
				</g>
			</g>
			<g>
				<path d="M237.569,601.22c-1.146-3.544-5.917-5.614-9.669-3.613c-3.496,1.866-5.479,12.424,5.368,12.336
					c7.228-0.054,13.63-8.203,18.06-14.242c4.428-6.041,11.94-16.825,24.106-17.416c12.16-0.597,15.415,6.854,16.213,9.353
					c0.816,2.5-0.375,11.38-3.339,14.972c-2.947,3.609-28.575,22.358-55.396,19.131c-23.959-2.875-17.624-29.444-6.994-30.598
					C237.608,589.871,237.569,601.22,237.569,601.22z"/>
				<path d="M343.627,594.196c0.666-3.664,5.13-6.352,9.113-4.86c3.702,1.389,7.065,11.592-3.692,12.938
					c-7.18,0.901-14.606-6.333-19.788-11.735c-5.186-5.405-14.049-15.105-26.187-14.086c-12.123,1.013-14.374,8.828-14.846,11.41
					c-0.461,2.584,1.881,11.229,5.286,14.401c3.397,3.187,31.286,18.394,57.435,11.658c23.371-6.015,13.586-31.518,2.904-31.258
					C342.092,582.952,343.627,594.196,343.627,594.196z"/>
			</g>
		</g>
		<path d="M303.653,622.387c1.087,6.305-4.166,16.74-10.52,17.482c-6.354,0.742-12.106-3.807-12.849-10.162
			c-0.742-6.354,4.515-9.078,10.868-9.82C297.507,619.145,303.028,618.762,303.653,622.387z"/>
	</g>
	<g opacity="0.2">
		<path d="M250.977,488.811c-3.763,7.182-6.392,15.022-7.688,23.274c-0.373,0.117-0.747,0.227-1.118,0.374
			c-1.538,0.612-2.252,2.331-1.637,3.836c0.349,0.867,1.068,1.477,1.904,1.725c0.057,0.016,0.115,0.021,0.172,0.034
			c-0.298,3.901-4.157,54.494-3.842,58.583c0.835,10.855,2.247,20.392,4.209,28.75c-2.963,2.629-6.239,4.529-9.709,4.555
			c-10.847,0.088-8.864-10.47-5.368-12.336c3.752-2.001,8.523,0.069,9.669,3.613c0,0,0.039-11.35-11.651-10.078
			c-10.629,1.154-16.965,27.723,6.994,30.598c5.119,0.617,10.192,0.426,15.074-0.301c0.154,0.379,0.306,0.758,0.463,1.129
			c0.621,1.562,1.267,2.879,1.524,3.389c4.898,10.234,11.243,17.615,18.945,22.732l-1.595,33.619l-0.142,2.988
			c-0.093,0.078-0.188,0.154-0.281,0.232c0.114-0.236,0.214-0.443,0.291-0.598c-1.604,1.322-3.168,2.688-4.708,4.076
			c-30.961,2.24-56.102,26.035-61.217,56.833c-24.354,14.043-45.509,36.803-54.049,65.99c-3.088-1.836-6.628-3.711-10.73-5.631
			c-18.166-9.312-26.235-27.859-19.276-37.986c1.93,0.23,3.875,0.346,5.826,0.322l0.043-0.039
			c8.594-0.094,17.262-2.721,24.843-8.088c19.951-14.09,24.675-41.724,10.591-61.679c-14.1-19.957-41.682-24.711-61.638-10.617
			c-1.834,1.295-3.538,2.705-5.113,4.211c1.522-1.471,3.223-2.877,5.113-4.211c-40.486,26.172-45.443,138.851-14.763,179.141
			c25.763,33.83,59.363,38.246,59.363,38.246c3.115,0.755,5.952,0.987,8.542,0.791l-0.001,0.001
			c0.043-0.003,0.093-0.008,0.136-0.011c0.147-0.012,0.297-0.019,0.442-0.033c12.788-1.012,52.944-10.2,90.893-38.706
			c0.564,0.898,1.141,1.807,1.731,2.729c3.67,5.71,7.53,11.391,11.26,16.87c17.12,25.18,33.3,48.97,33.3,77.87v27.43h0.281v120.465
			c-8.88,0.24-63.88,4.449-63.88,64.23h145.4V992.311h0.278h0.05l0.012-0.007c-9.694-14.051-26.673-22.135-45.271-49.543
			c-34.991-51.568-77.041-157.342-35.229-254.183c0.056-0.131,1.31-1.059,1.31-1.059s5.144-3.668,6.646-6.758
			c2.928-6.025,2.177-14.896,2.616-22.584c0,0-8.949-9.166-9.699-61.417c0,0-4-80.75,0.5-111.25v-49.406
			c-7.347,2.757-13.913,6.354-18.859,10.346C249.705,464.412,250.604,485.039,250.977,488.811z"/>
		<path opacity="0.3" d="M498.303,771.882l-0.261,0.02c-0.021,0.021-0.046,0.043-0.067,0.064v-0.104
			c2.203-1.582,4.328-3.27,6.347-5.082c9.622-5.082,34.056-18.457,66.973-39.866c31.737-20.641,56.21-44.977,79.748-100.664
			c0.669-1.582,1.092-3.289,1.287-5.076c0.154-0.105,0.306-0.203,0.46-0.311c0,0,15.425-8.26,35.501-56.885
			c20.075-48.625,40.141-69.712,52.27-75.138c0,0-0.111-0.032-0.304-0.089c14.066-6.617,24.712-19.861,27.313-36.374
			c3.55-22.522-9.012-43.854-29.142-52.289c8.45,15.243,3.863,54.094-16.201,78.814c-21.845,26.917-94.401,92.062-102.983,117.808
			c0,0-33.547,49.931-71.386,82.308c-33.857,28.971-82.653,52.219-139.292,60.724c0,0,6.064,75.633,59.749,125.254
			c14.104-16.321,30.052-37.393,31.167-78.855C499.342,781.341,498.942,776.581,498.303,771.882z"/>
	</g>
	<g>
		<g>
			<path d="M128.558,760.813c5.627,0,10.819-1.809,10.819-1.809v13.555c0,0-5.341,1.902-11.712,1.902s-9.995-1.902-9.995-1.902
				s-0.35-7.852-0.346-13.02C117.324,759.54,122.939,760.813,128.558,760.813z"/>
			<path d="M138.605,691.729c0,2.391-4.855,4.26-10.86,4.26c-6.005,0-10.856-1.869-10.856-4.26c0-2.34,4.851-4.26,10.856-4.26
				C133.75,687.469,138.605,689.389,138.605,691.729z"/>
			<path d="M139.538,677.426c-1.187,2.977-0.933,7.746-0.933,14.303c0-2.34-4.855-4.26-10.86-4.26c-6.005,0-10.856,1.92-10.856,4.26
				c0-4.428-1.195-6.729-1.195-6.729l-0.04-0.041C122.806,681.598,130.557,679.043,139.538,677.426z"/>
		</g>
		<g>
			<g>
				<g>
					<path fill="#999999" d="M183.825,618.086c5.282,1.049,10.938,1.639,17.018,1.639l-1.042,25.713l1.474,15.445
						c-5.877,0-11.399,0.697-16.611,1.922L183.825,618.086z"/>
					<ellipse fill="#999999" cx="200.849" cy="640.305" rx="12.656" ry="20.578"/>
				</g>
				<path fill="#A93C3C" d="M57.153,552.261c29.167,0,56.5,61.381,127.881,61.381l-1.381,34.12l1.956,20.494
					c-63.5,0-95.706,61.361-129.706,61.361"/>
				<ellipse fill="#D64646" cx="54.544" cy="640.949" rx="54.544" ry="88.688"/>
				<ellipse fill="#A93C3C" cx="185.044" cy="640.949" rx="16.794" ry="27.307"/>
				<ellipse fill="#FFFFFF" cx="53.47" cy="642.693" rx="44.451" ry="74.115"/>
				<g>
					<path fill="#999999" d="M90.397,683.947c-12.577-4.131-26.445-6.621-42.312-6.621l1.65-40.773l-2.337-24.492
						c16.156,0,30.616-3.345,43.763-8.61c0,0,6.753,16.049,6.801,37.674c0.062,28.188-7.559,43.012-7.559,43.012"/>
					<ellipse fill="#B3B3B3" cx="48.075" cy="644.693" rx="20.069" ry="32.632"/>
				</g>
				<ellipse fill="#333333" cx="46.401" cy="645.064" rx="12.336" ry="20.568"/>
			</g>
			<g opacity="0.2">
				<path d="M201.818,639.811l-0.2-0.049c-6.03-0.6-11.84-1.07-17.41-1.441c-45.43-2.988-74.92,1.111-74.92,1.111h-0.21
					c0.01,0.51,0.01,1.01,0.01,1.52c0,48.24-23.69,87.49-53.18,88.66v0.01c34,0,66.2-61.369,129.7-61.369v-0.021
					c4.16-0.219,7.93-2.898,10.79-7.18c3.07-4.57,5.08-10.959,5.39-18.119c0.04-0.66,0.05-1.311,0.05-1.98
					C201.838,640.57,201.838,640.191,201.818,639.811z M90.397,683.951c4.75-11.789,7.52-25.98,7.52-41.26
					c0-0.92-0.01-1.84-0.03-2.76h-29.95c0.14,1.549,0.21,3.139,0.21,4.76c0,13.26-4.87,24.67-11.85,29.779
					c-2.51,1.83-5.29,2.85-8.21,2.85c2.79,0,5.52,0.08,8.19,0.23C68.788,678.252,80.028,680.541,90.397,683.951z"/>
				<path opacity="0.5" d="M213.458,642.15c-4.54,0.521-11.67,0.781-11.67,0.781c-0.31,7.16-2.32,13.549-5.39,18.119
					c1.6-0.109,3.22-0.17,4.88-0.17l-0.01-0.029C207.688,660.502,212.897,652.432,213.458,642.15z M48.088,677.32h-0.01
					c-11.09,0-20.07-14.609-20.07-32.629c0-1.609,0.07-3.199,0.21-4.75l-0.1-0.01H9.048c-0.02,0.92-0.03,1.84-0.03,2.76
					c0,40.939,19.9,74.119,44.45,74.119c0.85,0,1.69-0.039,2.53-0.129c14.34-1.33,26.86-14,34.4-32.73
					c-10.37-3.41-21.61-5.699-34.12-6.4C53.608,677.4,50.877,677.32,48.088,677.32z M46.397,665.631c0.74,0,1.47-0.109,2.18-0.33
					c3.22-0.949,6.01-3.99,7.84-8.25c1.46-3.359,2.32-7.49,2.32-11.959h-24.67C34.078,656.441,39.598,665.631,46.397,665.631z"/>
			</g>
			<g opacity="0.2">
				<path d="M170.782,637.381c0.11,3.18,0.06,6.551-0.22,9.801c-1.59,0.25-3.15,0.539-4.7,0.859c0.34-3.52,0.41-7.189,0.29-10.66
					c-0.09-2.74-0.31-5.359-0.6-7.66c1.53,0.191,3.09,0.361,4.68,0.51C170.502,632.4,170.692,634.842,170.782,637.381z"/>
				<path d="M161.652,637.381c0.13,3.83,0.04,7.91-0.41,11.75c-1.62,0.42-3.22,0.881-4.8,1.381c0.6-4.23,0.74-8.84,0.59-13.131
					c-0.11-3.359-0.41-6.529-0.82-9.17c1.55,0.311,3.13,0.59,4.75,0.85C161.302,631.521,161.552,634.371,161.652,637.381z"/>
				<path d="M152.532,637.381c0.17,4.84-0.03,10.09-0.85,14.75c-1.7,0.621-3.37,1.291-5.02,1.98c1.15-5.109,1.43-11.189,1.24-16.73
					c-0.16-4.389-0.61-8.449-1.2-11.439c1.58,0.449,3.2,0.869,4.86,1.26C152.032,630.021,152.402,633.582,152.532,637.381z"/>
				<path d="M143.402,637.381c0.23,6.4-0.2,13.51-1.84,19.041c-1.92,0.92-3.8,1.889-5.65,2.889c2.49-5.76,3.14-14.34,2.87-21.93
					c-0.22-6.35-1.09-12.02-2.05-14.73c1.67,0.631,3.39,1.25,5.16,1.83C142.622,627.521,143.222,632.221,143.402,637.381z"/>
			</g>
			<g>
				<ellipse fill="#FFFFFF" cx="53.47" cy="642.693" rx="44.451" ry="74.115"/>
				<g>
					<path fill="#999999" d="M90.397,683.947c-12.577-4.131-26.445-6.621-42.312-6.621l1.65-40.773l-2.337-24.492
						c16.156,0,30.616-3.345,43.763-8.61c0,0,6.753,16.049,6.801,37.674c0.062,28.188-7.559,43.012-7.559,43.012"/>
					<ellipse fill="#B3B3B3" cx="48.075" cy="644.693" rx="20.069" ry="32.632"/>
				</g>
				<ellipse fill="#333333" cx="46.401" cy="645.064" rx="12.336" ry="20.568"/>
			</g>
			<g opacity="0.2">
				<path d="M201.818,639.811l-0.2-0.049c-6.03-0.6-11.84-1.07-17.41-1.441c-45.43-2.988-74.92,1.111-74.92,1.111h-0.21
					c0.01,0.51,0.01,1.01,0.01,1.52c0,48.24-23.69,87.49-53.18,88.66v0.01c34,0,66.2-61.369,129.7-61.369v-0.021
					c4.16-0.219,7.93-2.898,10.79-7.18c3.07-4.57,5.08-10.959,5.39-18.119c0.04-0.66,0.05-1.311,0.05-1.98
					C201.838,640.57,201.838,640.191,201.818,639.811z M90.397,683.951c4.75-11.789,7.52-25.98,7.52-41.26
					c0-0.92-0.01-1.84-0.03-2.76h-29.95c0.14,1.549,0.21,3.139,0.21,4.76c0,13.26-4.87,24.67-11.85,29.779
					c-2.51,1.83-5.29,2.85-8.21,2.85c2.79,0,5.52,0.08,8.19,0.23C68.788,678.252,80.028,680.541,90.397,683.951z"/>
				<path opacity="0.5" d="M213.458,642.15c-4.54,0.521-11.67,0.781-11.67,0.781c-0.31,7.16-2.32,13.549-5.39,18.119
					c1.6-0.109,3.22-0.17,4.88-0.17l-0.01-0.029C207.688,660.502,212.897,652.432,213.458,642.15z M48.088,677.32h-0.01
					c-11.09,0-20.07-14.609-20.07-32.629c0-1.609,0.07-3.199,0.21-4.75l-0.1-0.01H9.048c-0.02,0.92-0.03,1.84-0.03,2.76
					c0,40.939,19.9,74.119,44.45,74.119c0.85,0,1.69-0.039,2.53-0.129c14.34-1.33,26.86-14,34.4-32.73
					c-10.37-3.41-21.61-5.699-34.12-6.4C53.608,677.4,50.877,677.32,48.088,677.32z M46.397,665.631c0.74,0,1.47-0.109,2.18-0.33
					c3.22-0.949,6.01-3.99,7.84-8.25c1.46-3.359,2.32-7.49,2.32-11.959h-24.67C34.078,656.441,39.598,665.631,46.397,665.631z"/>
			</g>
			<g opacity="0.2">
				<path d="M170.782,637.381c0.11,3.18,0.06,6.551-0.22,9.801c-1.59,0.25-3.15,0.539-4.7,0.859c0.34-3.52,0.41-7.189,0.29-10.66
					c-0.09-2.74-0.31-5.359-0.6-7.66c1.53,0.191,3.09,0.361,4.68,0.51C170.502,632.4,170.692,634.842,170.782,637.381z"/>
				<path d="M161.652,637.381c0.13,3.83,0.04,7.91-0.41,11.75c-1.62,0.42-3.22,0.881-4.8,1.381c0.6-4.23,0.74-8.84,0.59-13.131
					c-0.11-3.359-0.41-6.529-0.82-9.17c1.55,0.311,3.13,0.59,4.75,0.85C161.302,631.521,161.552,634.371,161.652,637.381z"/>
				<path d="M152.532,637.381c0.17,4.84-0.03,10.09-0.85,14.75c-1.7,0.621-3.37,1.291-5.02,1.98c1.15-5.109,1.43-11.189,1.24-16.73
					c-0.16-4.389-0.61-8.449-1.2-11.439c1.58,0.449,3.2,0.869,4.86,1.26C152.032,630.021,152.402,633.582,152.532,637.381z"/>
				<path d="M143.402,637.381c0.23,6.4-0.2,13.51-1.84,19.041c-1.92,0.92-3.8,1.889-5.65,2.889c2.49-5.76,3.14-14.34,2.87-21.93
					c-0.22-6.35-1.09-12.02-2.05-14.73c1.67,0.631,3.39,1.25,5.16,1.83C142.622,627.521,143.222,632.221,143.402,637.381z"/>
			</g>
		</g>
	</g>
	
		<line fill="none" stroke="#000000" stroke-width="10" stroke-linecap="round" x1="708.986" y1="466.059" x2="617.576" y2="728.094"/>
</g>
</svg>
