<?xml version="1.0" encoding="utf-8"?>
<!-- Generator: Adobe Illustrator 16.0.4, SVG Export Plug-In . SVG Version: 6.00 Build 0)  -->
<!DOCTYPE svg PUBLIC "-//W3C//DTD SVG 1.1//EN" "http://www.w3.org/Graphics/SVG/1.1/DTD/svg11.dtd">
<svg version="1.1" id="_x32__flag_copy_2" xmlns="http://www.w3.org/2000/svg" xmlns:xlink="http://www.w3.org/1999/xlink" x="0px"
	 y="0px" width="877.311px" height="1177.136px" viewBox="0 0 877.311 1177.136" enable-background="new 0 0 877.311 1177.136"
	 xml:space="preserve">
<g>
	<g>
		<g>
			<defs>
				<polygon id="SVGID_1_" points="160.432,50.572 29.686,414.661 343.633,414.661 467.752,50.68 				"/>
			</defs>
			<use xlink:href="#SVGID_1_"  overflow="visible" fill="#E6E6E6"/>
			<clipPath id="SVGID_2_">
				<use xlink:href="#SVGID_1_"  overflow="visible"/>
			</clipPath>
			<g clip-path="url(#SVGID_2_)">
				<path fill="#E62C2D" d="M431.363,42.054c0,0,6.806,22.24-15.435,40.499c-22.242,18.257-37.677,30.041-38.01,42.324
					c-0.333,12.282,30.041,41.494,30.041,41.494s-20.913-27.221-17.925-39.669c2.988-12.449,19.233-25.208,35.852-41.827
					C441.322,69.441,436.011,44.709,431.363,42.054"/>
				<path fill="#E62C2D" d="M459.106,88.068c0,0-50.377,12.739-50.377,39.839c0,0-0.58,7.527,5.327,15.981
					c5.906,8.455,9.146,11.928,9.146,17.14s-7.179,13.665-7.179,13.665s20.02-11.232,17.885-23.509
					c-2.135-12.275-13.946-19.804-12.325-28.836C423.203,113.315,435.48,102.428,459.106,88.068"/>
				<path fill="#0073BC" d="M381.51,166.684c0,0-23.429,5.26-23.429,10.399s41.359,4.304,41.359,4.304s27.015-0.719,59.407-6.098
					l-9.921,6.147c0,0-39.088,6.404-64.31,5.567c-25.222-0.836-44.348-3.227-43.63-7.411
					C341.704,175.409,364.895,167.042,381.51,166.684"/>
				<path fill="#0073BC" d="M464.228,168.476c0,0,3.466-4.063,12.55-4.063c9.086,0,19.126,6.573,19.126,16.855
					c0,10.278-12.191,23.041-37.056,29.51c0,0,28.331-15.167,27.612-30.826C485.744,164.294,466.26,166.923,464.228,168.476"/>
				<path fill="#0073BC" d="M371.947,193.937c0,0-12.431,8.965,14.821,9.683c27.254,0.717,51.042-3.587,53.312-4.064
					c0,0,6.097,5.618,9.802,5.618c0,0-19.563,6.933-40.382,7.172s-49.746-1.792-49.626-9.204
					C359.993,195.73,371.947,193.937,371.947,193.937"/>
				<path fill="#0073BC" d="M377.207,219.397c0,0-7.53,6.575,9.801,7.412c17.333,0.837,36.578-0.12,46.021-2.989
					c0,0,8.726,5.617,13.148,6.814c0,0-19.246,6.812-35.3,7.41c-21.225,0.79-44.07-3.093-44.07-10.997
					C366.808,221.789,377.207,219.397,377.207,219.397"/>
				<path fill="#0073BC" d="M362.008,234.956c0,0-22.952,2.749-22.952,8.964c0,6.217,44.708,8.607,49.966,8.607
					c5.259,0,109.613-0.239,94.671-16.019c0,0,3.588,1.675,3.707,4.423c0.119,2.749-11.117,13.39-54.628,16.496
					c-43.511,3.107-108.656,0.717-108.417-9.443C324.593,237.825,357.585,233.52,362.008,234.956"/>
				<path fill="#0073BC" d="M356.031,263.522c0,0,108.655,13.27,142.006-15.061c0,0-0.366,7.71-19.843,14.583
					C459.905,269.5,395.119,276.553,356.031,263.522"/>
				<path fill="#E62C2D" d="M315.719,277.958h13.396v74.011c0,0,1.674,26.233-20.541,32.818l-6.251-7.367
					c0,0,13.41-3.237,13.41-24.335C315.732,331.987,315.719,277.958,315.719,277.958"/>
				<path fill="#E62C2D" d="M375.217,300.171c-12.614-4.13-31.591,2.345-33.602,4.13l2.011,7.59c0,0,9.377-3.793,17.639-3.793
					c8.259,0,14.288,1.227,13.506,16.743c0,0-13.619,0.447-18.755,1.786c-5.134,1.34-18.642,6.029-17.526,20.764
					c1.117,14.735,11.392,15.739,18.143,16.41c6.751,0.67,16.241-4.131,19.701-8.149l1.229,6.586h9.712v-45.323
					C387.273,316.915,387.83,304.301,375.217,300.171 M374.771,347.725c-13.506,11.72-23.554,5.582-23.554-2.903
					c0-8.482,5.581-9.709,8.706-10.714c3.126-1.006,14.848-1.118,14.848-1.118V347.725z"/>
				<path fill="#E62C2D" d="M491.536,300.171c-12.614-4.13-31.593,2.345-33.601,4.13l2.008,7.59c0,0,9.379-3.793,17.64-3.793
					c8.26,0,14.289,1.227,13.507,16.743c0,0-13.619,0.447-18.754,1.786c-5.136,1.34-18.643,6.029-17.526,20.764
					c1.115,14.735,11.39,15.739,18.142,16.41c6.752,0.67,16.239-4.131,19.7-8.149l1.229,6.586h9.713v-45.323
					C503.593,316.915,504.149,304.301,491.536,300.171 M491.09,347.725c-13.507,11.72-23.554,5.582-23.554-2.903
					c0-8.482,5.581-9.709,8.706-10.714c3.126-1.006,14.848-1.118,14.848-1.118V347.725z"/>
				<path fill="#E62C2D" d="M394.862,300.171h13.843c0,0,12.168,36.949,14.735,49.453c0,0,11.386-31.258,12.392-49.453h13.396
					c0,0-7.591,40.52-19.202,62.178h-15.739L394.862,300.171z"/>
				<polygon fill="#E62C2D" points="505.126,300.1 509.095,300.1 509.095,300.901 507.591,300.901 507.591,305.028 506.585,305.028 
					506.585,300.901 505.126,300.901 				"/>
				<polygon fill="#E62C2D" points="509.938,300.1 511.331,300.1 512.744,303.568 514.114,300.1 515.527,300.1 515.527,305.028 
					514.637,305.028 514.637,301.173 513.134,305.028 512.402,305.028 510.942,301.197 510.942,305.028 509.938,305.028 				"/>
			</g>
		</g>
		<polygon opacity="0.2" points="467.754,50.68 343.636,414.661 300.699,414.661 424.817,50.68 		"/>
		<polygon fill="#808080" points="330.321,388.604 343.575,414.661 360.521,365.664 		"/>
		<polygon fill="#F2F2F2" points="330.379,388.604 705.503,388.604 832.759,23.434 454.904,23.434 		"/>
	</g>
	<g>
		
			<line fill="none" stroke="#000000" stroke-width="10" stroke-linecap="round" x1="701.12" y1="403.095" x2="832.942" y2="23.561"/>
		<ellipse cx="836.902" cy="10.542" rx="10.723" ry="10.461"/>
	</g>
	<g>
		<polygon fill="#02603C" points="402.566,1019.676 361.566,1029.676 320.232,1019.676 320.232,931.676 402.566,931.676 		"/>
		<g>
			<g>
				<path fill="#FAAF40" d="M718.376,466.009c-21.48,16.018-51.881,11.586-67.898-9.896c-16.018-21.484-11.586-51.883,9.896-67.9
					c21.486-16.019,51.885-11.586,67.9,9.896C744.29,419.592,739.86,449.991,718.376,466.009z"/>
				<path fill="#FAAF40" d="M766.776,620.868c0,0,6.656-39.716-14.092-88.058c-20.744-48.342-21.805-77.432-17.207-89.899
					c0,0-56.629,31.809-52.277,32.341c8.471,1.034,16.256,12.336,10.312,32.488c-3.643,12.354-29.293,77.061-0.131,125.177
					C706.53,654.614,755.243,688.118,766.776,620.868z"/>
			</g>
			<g>
				<path fill="#FAAF40" d="M636.86,722.612c-0.734,41.82-34.418,75.141-75.234,74.424s-73.308-35.201-72.573-77.02
					c0.733-41.816,34.417-75.139,75.233-74.422C605.101,646.311,637.595,680.793,636.86,722.612z"/>
				<path fill="#FAAF40" d="M678.288,740.442c32.096-20.082,56.992-43.984,81.504-99.25c8.207-18.502-15.076-47.906-62.471-42.965
					c0,0-86.48-2.118-115.053,63.016c-28.572,65.131,23.812,120.139,23.812,120.139S634.862,767.612,678.288,740.442z"/>
			</g>
		</g>
		<polygon fill="#FAAF40" points="496.88,666.329 500.136,740.667 432.938,740.667 374.396,740.667 377.169,682.227 381.86,583.348 
			493.246,583.348 		"/>
		<g>
			
				<ellipse transform="matrix(0.9773 0.2117 -0.2117 0.9773 168.3193 -60.0779)" fill="#F39C12" cx="364.701" cy="755.95" rx="70.801" ry="72.539"/>
			<path fill="#F39C12" d="M250.757,875.038c18.516,2.787,107.753,0.859,166.018-71.512c-35.567-24.654-25.376-39.223-30.847-79.434
				c-45.13-6.502-107.451,19.242-125.341,75.475c0,0-4.224,27.777,1.683,44.217C268.177,860.223,250.757,875.038,250.757,875.038z"
				/>
			<g>
				<path fill="#F39C12" d="M247.195,874.133c0,0-33.118-7.186-55.987-43.037c-27.233-42.693-12.949-154.576,29.565-177.301
					c-21.103,12.414-21.963,34.607-9.587,55.68c7.694,13.037,10.384,20.414,24.508,21.41c-0.059,0.025,1.608,1.254,3.12,0.873
					c-13.894,7.184-8.264,30.615,11.643,43.004c30.17,17.303,28.21,29.41,33.301,40.02
					C286.716,827.952,281.799,885.635,247.195,874.133z"/>
				<path fill="#F39C12" d="M281.32,669.489c-12.396-21.057-39.49-28.082-60.547-15.693c-21.103,12.414-28.128,39.504-15.754,60.578
					c7.695,13.035,21.033,20.74,35.156,21.74l0.047-0.037c8.57,0.621,17.429-1.279,25.429-6
					C286.7,717.69,293.7,690.542,281.32,669.489z"/>
			</g>
		</g>
		<g id="XMLID_12_">
			<path fill="#2B6BA4" d="M385.116,919.536c7.587,14.264,12.792,29.047,12.792,45.395c0,0,0,5.98,0,12.449v112.635h81.52v-98.65
				l-0.13-0.17l-0.08-0.09h0.25l-0.04,0.021v0.238l55.246,104.211l85.265-5.561c0,0-63.937-137.816-65.471-140.42
				c-4.538-7.699-0.03-41.125-0.03-41.125"/>
			<path fill="#FAAF40" d="M382.758,915.245c-8.573-15.115-19.533-29.762-29.45-45.205c-7.399-11.539-14.229-23.52-19.03-36.471
				c-0.02-0.029-0.029-0.049-0.029-0.068c-4.08-11.99-6.51-24.699-7.04-37.891c-0.061-1.799-0.101-3.609-0.101-5.43
				c0-63.41,44-116.791,103.86-132.68c11.83-3.141,24.29-4.82,37.14-4.82c76.46,0,124.503,53.041,126.724,127.082
				c-1.859,69.609-30.783,87.127-39.043,118.098L382.758,915.245z"/>
			<g>
				<path fill="#1C293F" d="M479.428,1090.014v87.041h-145.4c0-59.781,55-63.99,63.881-64.23v-22.811H479.428z"/>
				<path fill="#1C293F" d="M632.862,1116.194c-1.17-0.059-2.34-0.09-3.52-0.09c-23.91,0-44.939,12.311-57.1,30.941
					c-5.76,8.799-9.529,19.02-10.68,30.01h135.561C693.644,1143.956,666.474,1117.905,632.862,1116.194z"/>
				<polygon fill="#1C293F" points="607.354,1062.745 641.673,1130.014 572.646,1170.379 531.164,1088.749 				"/>
			</g>
		</g>
		<g>
			<path opacity="0.2" d="M494.831,621.014c0,0-31.201,55.887-85.618,55.887c-7.841,0-32.561-7.92-31.06-39.42L494.831,621.014z"/>
			<g>
				<path fill="#FAAF40" d="M499.641,504.471c-11.205-41.767-39.82-58.514-76.567-56.2c-37.749,2.384-67.265,32.093-70.564,68.645
					c-0.031,0.275-0.019,0.545-0.034,0.812c0,0-4.189,54.576-3.861,58.829c5.218,67.789,32.762,84.363,78.218,81.457
					c45.446-2.922,89.276-46.562,86.365-92.002C513.019,563.232,499.641,504.471,499.641,504.471z"/>
				<path d="M415.078,517.336c-1.315-0.959-1.596-2.811-0.598-4.123l0,0c2.789-3.74,6.886-5.698,10.857-6.795l0,0
					c7.977-2.146,16.046-1.023,16.241-1.023l0,0c1.598,0.216,2.729,1.688,2.519,3.304l0,0c-0.206,1.611-1.696,2.743-3.278,2.535l0,0
					c-0.023,0.029-1.9-0.221-4.588-0.228l0,0c-2.673-0.019-6.136,0.188-9.341,1.078l0,0c-3.254,0.888-6.062,2.4-7.709,4.645l0,0
					c-0.409,0.547-0.958,0.919-1.58,1.082l0,0C416.764,518.037,415.828,517.885,415.078,517.336L415.078,517.336z"/>
				<path d="M349.365,514.586c-0.77-1.432-0.242-3.218,1.223-3.988l0,0c4.132-2.171,8.666-2.193,12.731-1.479l0,0
					c8.117,1.47,14.94,5.95,15.104,6.027l0,0c1.358,0.888,1.742,2.697,0.867,4.059l0,0c-0.873,1.373-2.705,1.76-4.048,0.895l0,0
					c-0.034,0.008-1.627-1.008-4.051-2.182l0,0c-2.399-1.148-5.633-2.443-8.91-3.012l0,0c-3.312-0.597-6.509-0.421-8.942,0.885l0,0
					c-0.606,0.328-1.264,0.419-1.898,0.311l0,0C350.584,515.941,349.805,515.412,349.365,514.586L349.365,514.586z"/>
				<path fill="#FAAF40" d="M498.54,529.55c3.004-7.631,11.575-9.259,15.932-4.693c8.024,8.423,14.803,29.217-4.092,37.026"/>
				<path d="M437.84,535.731c0.296,5.144-3.405,9.54-8.276,9.823c-4.872,0.283-9.061-3.658-9.361-8.802
					c-0.297-5.147,3.404-9.546,8.274-9.833C433.35,526.641,437.539,530.583,437.84,535.731z"/>
				<path d="M370.569,539.583c0.3,5.145-3.406,9.546-8.277,9.826c-4.865,0.279-9.055-3.66-9.356-8.803
					c-0.301-5.146,3.406-9.546,8.276-9.824C366.083,530.495,370.273,534.436,370.569,539.583z"/>
			</g>
			<g>
				<g opacity="0.2">
					<g>
						<path d="M357.122,604.395c1.378-1.658,2.646-3.348,3.782-4.9c4.429-6.041,11.941-16.826,24.105-17.415
							c12.161-0.596,15.416,6.854,16.214,9.351c0.815,2.5,1.732,9.248-3.338,14.974c-2.111,2.384-21.484,14.913-37.847,19.685
							c-0.032,0.01-0.097,0.029-0.097,0.029s-3.467-6.582-2.927-9.543c0.558-3.055,5.103-2.532,3.703-5.2
							C358.609,607.356,357.122,604.395,357.122,604.395z"/>
						<path d="M453.204,597.99c0.666-3.664,5.13-6.351,9.113-4.857c3.702,1.386,7.064,11.59-3.693,12.936
							c-7.18,0.902-14.605-6.331-19.787-11.734c-5.186-5.406-14.048-15.105-26.187-14.085c-12.122,1.014-14.374,8.826-14.847,11.409
							c-0.461,2.583-1.303,8.277,5.287,14.4c3.41,3.172,31.284,18.394,57.435,11.659c23.369-6.017,13.585-31.518,2.903-31.258
							C451.669,586.745,453.204,597.99,453.204,597.99z"/>
					</g>
				</g>
				<g>
					<path d="M347.414,601.139c-1.146-3.544-5.917-5.614-9.669-3.613c-3.496,1.866-5.479,12.424,5.368,12.336
						c7.228-0.054,13.631-8.203,18.06-14.242c4.428-6.041,11.94-16.825,24.105-17.416c12.16-0.597,15.415,6.854,16.213,9.353
						c0.816,2.5-0.374,11.38-3.339,14.972c-2.946,3.609-28.575,22.357-55.396,19.131c-23.959-2.875-17.624-29.443-6.994-30.598
						C347.452,589.79,347.414,601.139,347.414,601.139z"/>
					<path d="M453.472,594.115c0.666-3.664,5.131-6.352,9.113-4.86c3.702,1.389,7.065,11.592-3.692,12.938
						c-7.18,0.901-14.605-6.333-19.787-11.735c-5.186-5.405-14.049-15.105-26.188-14.086c-12.122,1.013-14.374,8.828-14.846,11.41
						c-0.461,2.584,1.881,11.229,5.285,14.401c3.397,3.187,31.286,18.394,57.436,11.658c23.37-6.015,13.586-31.518,2.904-31.258
						C451.937,582.871,453.472,594.115,453.472,594.115z"/>
				</g>
			</g>
		</g>
		<path d="M412.729,619.229c0,6.555-5.312,11.865-11.865,11.865s-11.865-5.311-11.865-11.865
			C388.998,612.676,412.729,612.676,412.729,619.229z"/>
		<path d="M504.121,523.462c1.086-7.286,1.509-21.179-2.601-35.94c-8.291-29.783-30.367-27.748-30.367-27.748l-13.479,11.242
			c0,0,13.069,8.36,26.132,23.834c6.204,7.347,14.24,22.445,16.383,36.394L504.121,523.462z"/>
		<path d="M468.709,458.419l-15.354,10.596c0,0-57.638,30.815-92.46,20.326c0,0-3.689-23.116,20.888-42.971
			c16.527-13.341,51.078-22.33,72.758-9.967C471.228,445.917,468.709,458.419,468.709,458.419z"/>
		<rect x="397.984" y="936.678" fill="#225377" width="81.666" height="176.002"/>
		<path d="M594.298,789.581c14.316-3.102,88.686-52.234,88.686-52.234c-25-21-59.666-111-62.334-118.666
			c0,0-21.332,10-32.332,31.332c0,0-17.691-8.449-37.179-3.559l-14.155,34.559l44.334,107.668L594.298,789.581z"/>
		<path d="M377.508,691.042l3.81,2.973l-46.667,89.668c-12.667-16-33-27-40.666-32.668c0,0-1.621-22.033,21.713-48.033
			s59.625-18.494,61.456-18.73L377.508,691.042z"/>
		<path d="M510.213,658.534l-13.864-3.578c-19,33-73.443,46.736-88.11,46.736c-10,0-28.085-1.941-31.085-17.441l-4.478,4.43
			c0,0-62.389,48.348-40.473,137.127c10.437,42.277,58.245,100.412,58.245,110.35c0,5.715,0,5.715,0,5.715h164.715
			c0,0,0-33.096,0-36.898c0-3.801,21.021-46.068,27.506-61.945c6.486-15.879,11.629-37.346,11.629-53.447
			c0,0-41.37-63.738-43.159-143.127c0,0-21.021,2.908-32.426,14.09L510.213,658.534z"/>
		<polygon fill="#225377" points="549.983,1126.012 624.983,1097.346 552.65,947.346 479.218,991.104 		"/>
		<rect x="327.318" y="772.014" fill="#007048" width="178.665" height="277.998"/>
		<g>
			<path fill="#FFFFFF" d="M350.462,908.327l12.829-0.189c8.119-0.121,10.852-2.092,13.349-8.818l6.874-18.531l38.972-0.578
				l7.418,18.32c2.702,6.648,5.651,8.535,13.771,8.414l12.667-0.188l-0.244-16.496l-2.598,0.041
				c-2.762,0.039-4.068-0.537-5.086-3.197l-35.376-85.234l-22.246,0.328l-32.989,86.254c-0.938,2.689-2.227,3.303-4.989,3.344
				l-2.595,0.037L350.462,908.327z M388.146,864.668l9.513-26.602c2.025-5.828,4.315-15.82,4.315-15.82l0.323-0.006
				c0,0,2.584,9.922,4.782,15.686l10.298,26.307L388.146,864.668z"/>
		</g>
		<path fill="#007048" d="M497.983,790.68c0-69.668,18-126.334,20.698-131.059l-22.333-4.666
			c-2.698,4.725-20.698,61.391-20.698,131.059"/>
		<path fill="#007048" d="M355.983,815.346c0-69.666,18.472-126.371,21.17-131.096c0,0-6.622-2.34-12.059-2.34
			s-11.797,1.027-11.797,1.027c-2.698,4.725-19.647,58.074-19.647,127.742"/>
		<path fill="#007048" d="M505.983,843.68c0,48.332,27.359,61.293,49.18,61.293c3.487,0,3.487,0,3.487,0l25.999,109.039
			c0,0-39,36-78.666,36l-21-138.666L505.983,843.68z"/>
		<rect x="334.573" y="761.905" fill="#007048" width="25.855" height="10.205"/>
		<g>
			<path fill="#333333" d="M338.87,769.124c-5.342-0.01-9.587-4.367-9.598-9.668l0,0v-5.387c0.011-5.305,4.256-9.662,9.598-9.672
				l0,0h18.191c5.342,0.01,9.586,4.369,9.595,9.672l0,0v5.387c-0.009,5.301-4.253,9.658-9.595,9.668l0,0H338.87L338.87,769.124z
				 M337.273,754.069v5.387c0.002,0.959,0.757,1.668,1.597,1.668l0,0h18.191c0.839,0,1.593-0.709,1.595-1.668l0,0v-5.387
				c-0.002-0.963-0.756-1.668-1.595-1.67l0,0H338.87C338.03,752.401,337.275,753.106,337.273,754.069L337.273,754.069z"/>
		</g>
		<g>
			<path fill="#333333" d="M500.47,744.834c3.925,1.23,6.734,4.922,6.741,9.234l0,0v5.387c-0.009,5.301-4.253,9.658-9.595,9.668l0,0
				h-19.174l0,0c-5.342-0.01-9.587-4.367-9.598-9.668l0,0v-5.387c0.01-4.996,4.026-9.289,8.927-9.762l-0.926,9.762l0,0v5.387
				c0.002,0.959,0.757,1.668,1.597,1.668l0,0h19.174c0.839,0,1.593-0.709,1.595-1.668l0,0v-5.387L500.47,744.834z"/>
		</g>
		<path fill="#007048" d="M337.26,755.379c0.076-4.68,1.61-12.736,1.688-13.119h23.323l-1.381,8.977l-2.233,8.219L337.26,755.379z"
			/>
		<polygon fill="#02603C" points="543.316,1019.676 502.316,1029.676 460.982,1019.676 460.982,931.676 543.316,931.676 		"/>
		<g>
			
				<line fill="none" stroke="#000000" stroke-width="10" stroke-linecap="round" x1="635.216" y1="592.013" x2="684.325" y2="451.239"/>
		</g>
	</g>
	<g opacity="0.2">
		<path d="M594.272,790.895c0.025-0.348,0.053-0.693,0.076-1.045c5.889-2.846,11.357-6.461,16.279-10.727
			c9.711-4.912,34.375-17.855,67.66-38.682c30.174-18.879,53.984-41.143,77.094-89.66c4.973-6.281,8.992-15.906,11.395-29.914
			c0,0,6.656-39.716-14.092-88.058c-20.744-48.342-21.805-77.432-17.207-89.899c0,0-0.102,0.058-0.277,0.156
			c5.098-14.686,3.064-31.556-6.926-44.958c-2.779-3.728-5.998-6.928-9.521-9.611c-9.129,9.698-6.447,48.513-0.705,85.518
			c6,38.666,18.666,131.333,17.332,153.333s-124.666,116.668-164,126.668c-26.279,6.682-12.385,71.98-0.266,114.592
			c4.645-9.957,9.123-19.625,11.555-25.58C588.981,827.573,594.009,806.838,594.272,790.895z"/>
		<path d="M353.583,509.406c-1.013,0.292-2.016,0.678-2.995,1.192c-1.465,0.771-1.992,2.557-1.223,3.988
			c0.439,0.825,1.219,1.354,2.076,1.515c0.386,0.065,0.778,0.047,1.165-0.042c-0.029,0.286-0.071,0.569-0.098,0.856
			c-0.031,0.275-0.019,0.545-0.034,0.812c0,0-4.189,54.576-3.861,58.829c2.991,38.854,13.323,60.869,30.151,72.049l-1.596,33.621
			l-0.095,1.996c-0.758-0.262-6.888-2.312-11.979-2.312c-5.437,0-11.797,1.027-11.797,1.027c-0.15,0.264-0.348,0.686-0.581,1.246
			c-11.866,1.641-25.909,6.416-37.02,18.797c-23.334,26-21.713,48.033-21.713,48.033c0.006,0.004,0.012,0.008,0.017,0.012
			c-11.3,9.25-20.957,20.779-27.761,34.547c-3.962-3.375-9.075-6.965-15.783-10.811c-17.33-10.785-23.833-29.938-16.06-39.453
			c1.903,0.389,3.832,0.666,5.778,0.805l0.047-0.037c8.57,0.621,17.429-1.279,25.429-6c21.049-12.387,28.049-39.535,15.669-60.588
			c-12.396-21.057-39.49-28.082-60.547-15.693c-1.936,1.139-3.75,2.404-5.444,3.773c1.639-1.34,3.45-2.6,5.444-3.773
			c-42.515,22.725-56.799,134.607-29.565,177.301c22.869,35.852,55.987,43.037,55.987,43.037c3.546,1.18,6.774,1.621,9.72,1.469
			c13.654,0.699,40.403-0.773,70.403-10.764v185.174h70.59v62.812c-8.881,0.24-63.881,4.449-63.881,64.23h145.4l0.268-126.967
			l-77.378-0.344l-0.281-277.68l-7.719-0.041c0.988-29.244,7.667-52.344,14.667-70.344c0.051-0.131,0.417-35.896,0.855-43.584
			c0,0-8.949-9.166-9.699-61.416c0,0-4-80.749,0.5-111.249v-32.257C376.465,462.494,358.529,483.795,353.583,509.406z"/>
		<polygon points="361.566,1029.676 320.232,1019.676 320.232,931.676 362.319,931.676 		"/>
		<path d="M476.022,768.799c0,0,1.4,0.367,5.523,0.367s17.01-0.074,17.01-0.074v2.945h-22.681L476.022,768.799z"/>
		<path d="M509.983,1050.012l4.334,8.334c0,0,18.667-3.5,38-11.5c19.332-8,38.166-21,38.166-21l-6-11.834
			c0,0-19.334,16.334-37.166,25C527.809,1048.495,509.983,1050.012,509.983,1050.012z"/>
		<path d="M689.419,451.403l-1.572,25.572c0,0-2.41-1.782-6.602-2.097L689.419,451.403z"/>
	</g>
	<g>
		<g>
			<path d="M246.654,732.258c5.446,1.41,10.928,0.961,10.928,0.961l-3.4,13.123c0,0-5.648,0.502-11.815-1.096
				c-6.167-1.6-9.198-4.35-9.198-4.35s1.631-7.689,2.931-12.691C236.099,728.206,241.215,730.848,246.654,732.258z"/>
			<path d="M274.243,665.491c-0.6,2.312-5.768,2.906-11.581,1.398c-5.814-1.506-10.04-4.533-9.44-6.846
				c0.587-2.266,5.764-2.906,11.578-1.4C270.612,660.149,274.83,663.225,274.243,665.491z"/>
			<path d="M280.682,648.737c-1.896,2.584-4.794,10.406-6.438,16.754c0.587-2.266-3.631-5.342-9.443-6.848
				c-5.814-1.506-10.991-0.865-11.578,1.4c1.11-4.287,0.531-6.812,0.531-6.812l-0.029-0.049
				C261.49,651.721,271.583,648.049,280.682,648.737z"/>
		</g>
		<g>
			<g>
				<path fill="#999999" d="M341.338,607.396c4.602,2.797,9.711,5.292,15.423,7.377l-9.798,23.794l-3.914,15.014
					c-5.521-2.016-10.946-3.254-16.263-3.893L341.338,607.396z"/>
				
					<ellipse transform="matrix(0.9393 0.3431 -0.3431 0.9393 238.756 -81.4885)" fill="#999999" cx="349.708" cy="634.106" rx="12.656" ry="20.578"/>
			</g>
			<path fill="#024429" d="M244.93,502.115c27.397,10.005,32.018,77.038,99.068,101.522l-13,31.574l-5.193,19.922
				c-59.647-21.781-110.947,24.811-142.885,13.148"/>
			
				<ellipse transform="matrix(0.9393 0.343 -0.343 0.9393 213.3673 -37.2756)" fill="#007048" cx="212.057" cy="584.526" rx="54.544" ry="88.687"/>
			
				<ellipse transform="matrix(0.9393 0.343 -0.343 0.9393 236.1676 -76.609)" fill="#024429" cx="334.641" cy="629.291" rx="16.794" ry="27.306"/>
			
				<ellipse transform="matrix(0.9393 0.343 -0.343 0.9393 213.707 -36.6473)" fill="#024429" cx="210.451" cy="585.798" rx="44.451" ry="74.113"/>
			<g>
				<path fill="#999999" d="M230.986,637.215c-10.396-8.195-22.568-15.291-37.473-20.734l15.536-37.732l6.205-23.808
					c15.176,5.542,29.906,7.36,44.062,6.923c0,0,0.838,17.393-6.534,37.722c-9.61,26.497-21.855,37.808-21.855,37.808"/>
				
					<ellipse transform="matrix(-0.9393 -0.343 0.343 -0.9393 196.0399 1206.3215)" fill="#B3B3B3" cx="204.697" cy="585.825" rx="20.07" ry="32.632"/>
			</g>
			
				<ellipse transform="matrix(0.9393 0.343 -0.343 0.9393 213.189 -34.1024)" fill="#333333" cx="202.997" cy="585.6" rx="12.336" ry="20.568"/>
		</g>
		<g opacity="0.2">
			<path d="M350.787,633.975l-0.171-0.115c-5.458-2.633-10.755-5.066-15.86-7.326c-41.647-18.39-70.755-24.654-70.755-24.654
				l-0.197-0.072c-0.166,0.482-0.338,0.952-0.513,1.432c-16.547,45.312-52.264,74.055-80.364,65.039l-0.004,0.01
				c31.938,11.662,83.234-34.939,142.882-13.158l0.007-0.02c3.983,1.221,8.443-0.004,12.599-3.043
				c4.451-3.24,8.531-8.553,11.278-15.172c0.264-0.605,0.497-1.213,0.727-1.842C350.546,634.696,350.676,634.338,350.787,633.975z
				 M230.985,637.219c8.506-9.445,15.976-21.825,21.217-36.178c0.315-0.864,0.622-1.731,0.918-2.604l-28.133-10.272
				c-0.399,1.504-0.88,3.021-1.436,4.543c-4.549,12.456-13.036,21.503-21.346,23.907c-2.985,0.859-5.946,0.863-8.689-0.139
				c2.621,0.957,5.158,1.969,7.614,3.025C212.642,624.452,222.415,630.458,230.985,637.219z"/>
			<path opacity="0.5" d="M360.918,640.165c-4.443-1.068-11.229-3.27-11.229-3.27c-2.747,6.619-6.827,11.932-11.278,15.172
				c1.54,0.445,3.083,0.945,4.642,1.514l0.002-0.031C349.204,655.424,356.866,649.629,360.918,640.165z M193.517,616.477
				l-0.009-0.004c-10.417-3.803-13.842-20.606-7.66-37.533c0.552-1.512,1.163-2.981,1.826-4.391l-0.09-0.043l-17.913-6.541
				c-0.334,0.857-0.66,1.717-0.976,2.582c-14.043,38.456-6.731,76.449,16.329,84.869c0.799,0.293,1.602,0.543,2.422,0.746
				c13.926,3.67,30.032-3.938,43.539-18.943c-8.57-6.762-18.344-12.768-29.854-17.717
				C198.675,618.446,196.138,617.434,193.517,616.477z M195.938,604.917c0.695,0.254,1.42,0.4,2.162,0.438
				c3.35,0.212,7.014-1.687,10.193-5.06c2.524-2.656,4.749-6.24,6.282-10.438l-23.173-8.463
				C187.52,592.059,189.552,602.585,195.938,604.917z"/>
		</g>
		<g opacity="0.2">
			<path d="M322.468,621.047c-0.987,3.023-2.19,6.172-3.568,9.129c-1.579-0.311-3.144-0.572-4.71-0.805
				c1.527-3.189,2.852-6.613,3.929-9.914c0.855-2.604,1.548-5.14,2.064-7.399c1.372,0.703,2.778,1.398,4.221,2.084
				C323.913,616.272,323.254,618.629,322.468,621.047z"/>
			<path d="M313.892,617.915c-1.191,3.643-2.676,7.445-4.416,10.896c-1.666-0.16-3.326-0.277-4.981-0.35
				c2.015-3.768,3.728-8.049,5.058-12.131c1.049-3.194,1.854-6.274,2.375-8.895c1.351,0.822,2.737,1.628,4.17,2.427
				C315.573,612.291,314.83,615.054,313.892,617.915z"/>
			<path d="M305.325,614.788c-1.501,4.604-3.49,9.467-5.858,13.562c-1.81,0-3.607,0.057-5.395,0.137
				c2.833-4.404,5.182-10.02,6.903-15.288c1.355-4.178,2.325-8.146,2.797-11.157c1.33,0.965,2.708,1.915,4.133,2.851
				C307.38,607.702,306.506,611.173,305.325,614.788z"/>
			<path d="M296.749,611.656c-1.979,6.089-4.822,12.62-8.26,17.253c-2.119,0.205-4.218,0.473-6.299,0.775
				c4.314-4.555,7.869-12.393,10.219-19.613c1.972-6.041,3.1-11.665,3.127-14.54c1.353,1.165,2.756,2.337,4.22,3.489
				C299.398,602.125,298.35,606.747,296.749,611.656z"/>
		</g>
		<g opacity="0.2">
			<path d="M350.787,633.975l-0.171-0.115c-5.458-2.633-10.755-5.066-15.86-7.326c-41.647-18.39-70.755-24.654-70.755-24.654
				l-0.197-0.072c-0.166,0.482-0.338,0.952-0.513,1.432c-16.547,45.312-52.264,74.055-80.364,65.039l-0.004,0.01
				c31.938,11.662,83.234-34.939,142.882-13.158l0.007-0.02c3.983,1.221,8.443-0.004,12.599-3.043
				c4.451-3.24,8.531-8.553,11.278-15.172c0.264-0.605,0.497-1.213,0.727-1.842C350.546,634.696,350.676,634.338,350.787,633.975z
				 M230.985,637.219c8.506-9.445,15.976-21.825,21.217-36.178c0.315-0.864,0.622-1.731,0.918-2.604l-28.133-10.272
				c-0.399,1.504-0.88,3.021-1.436,4.543c-4.549,12.456-13.036,21.503-21.346,23.907c-2.985,0.859-5.946,0.863-8.689-0.139
				c2.621,0.957,5.158,1.969,7.614,3.025C212.642,624.452,222.415,630.458,230.985,637.219z"/>
			<path opacity="0.5" d="M360.918,640.165c-4.443-1.068-11.229-3.27-11.229-3.27c-2.747,6.619-6.827,11.932-11.278,15.172
				c1.54,0.445,3.083,0.945,4.642,1.514l0.002-0.031C349.204,655.424,356.866,649.629,360.918,640.165z M193.517,616.477
				l-0.009-0.004c-10.417-3.803-13.842-20.606-7.66-37.533c0.552-1.512,1.163-2.981,1.826-4.391l-0.09-0.043l-17.913-6.541
				c-0.334,0.857-0.66,1.717-0.976,2.582c-14.043,38.456-6.731,76.449,16.329,84.869c0.799,0.293,1.602,0.543,2.422,0.746
				c13.926,3.67,30.032-3.938,43.539-18.943c-8.57-6.762-18.344-12.768-29.854-17.717
				C198.675,618.446,196.138,617.434,193.517,616.477z M195.938,604.917c0.695,0.254,1.42,0.4,2.162,0.438
				c3.35,0.212,7.014-1.687,10.193-5.06c2.524-2.656,4.749-6.24,6.282-10.438l-23.173-8.463
				C187.52,592.059,189.552,602.585,195.938,604.917z"/>
		</g>
		<g opacity="0.2">
			<path d="M322.468,621.047c-0.987,3.023-2.19,6.172-3.568,9.129c-1.579-0.311-3.144-0.572-4.71-0.805
				c1.527-3.189,2.852-6.613,3.929-9.914c0.855-2.604,1.548-5.14,2.064-7.399c1.372,0.703,2.778,1.398,4.221,2.084
				C323.913,616.272,323.254,618.629,322.468,621.047z"/>
			<path d="M313.892,617.915c-1.191,3.643-2.676,7.445-4.416,10.896c-1.666-0.16-3.326-0.277-4.981-0.35
				c2.015-3.768,3.728-8.049,5.058-12.131c1.049-3.194,1.854-6.274,2.375-8.895c1.351,0.822,2.737,1.628,4.17,2.427
				C315.573,612.291,314.83,615.054,313.892,617.915z"/>
			<path d="M305.325,614.788c-1.501,4.604-3.49,9.467-5.858,13.562c-1.81,0-3.607,0.057-5.395,0.137
				c2.833-4.404,5.182-10.02,6.903-15.288c1.355-4.178,2.325-8.146,2.797-11.157c1.33,0.965,2.708,1.915,4.133,2.851
				C307.38,607.702,306.506,611.173,305.325,614.788z"/>
			<path d="M296.749,611.656c-1.979,6.089-4.822,12.62-8.26,17.253c-2.119,0.205-4.218,0.473-6.299,0.775
				c4.314-4.555,7.869-12.393,10.219-19.613c1.972-6.041,3.1-11.665,3.127-14.54c1.353,1.165,2.756,2.337,4.22,3.489
				C299.398,602.125,298.35,606.747,296.749,611.656z"/>
		</g>
	</g>
	<g>
		<defs>
			<polygon id="SVGID_3_" points="330.379,388.604 705.503,388.604 832.759,23.434 454.904,23.434 			"/>
		</defs>
		<clipPath id="SVGID_4_">
			<use xlink:href="#SVGID_3_"  overflow="visible"/>
		</clipPath>
		<g clip-path="url(#SVGID_4_)">
			<path fill="#E62C2D" d="M439.279,31.471c0,0,6.806,22.24-15.435,40.498c-22.242,18.258-37.677,30.041-38.01,42.324
				s30.041,41.494,30.041,41.494s-20.913-27.22-17.925-39.668c2.988-12.449,19.233-25.208,35.852-41.828
				C449.238,58.857,443.927,34.126,439.279,31.471"/>
			<path fill="#E62C2D" d="M467.022,77.485c0,0-50.377,12.739-50.377,39.838c0,0-0.58,7.528,5.327,15.981
				c5.906,8.455,9.146,11.928,9.146,17.141c0,5.212-7.179,13.664-7.179,13.664s20.02-11.232,17.885-23.509
				c-2.135-12.275-13.946-19.803-12.325-28.835C431.119,102.731,443.396,91.845,467.022,77.485"/>
			<path fill="#0073BC" d="M389.426,156.1c0,0-23.429,5.26-23.429,10.399s41.359,4.304,41.359,4.304s27.015-0.719,59.407-6.097
				l-9.921,6.147c0,0-39.088,6.404-64.31,5.566c-25.222-0.836-44.348-3.227-43.63-7.41
				C349.62,164.826,372.811,156.458,389.426,156.1"/>
			<path fill="#0073BC" d="M472.144,157.892c0,0,3.466-4.063,12.55-4.063c9.086,0,19.126,6.574,19.126,16.855
				c0,10.279-12.191,23.041-37.056,29.51c0,0,28.331-15.167,27.612-30.826C493.66,153.71,474.176,156.339,472.144,157.892"/>
			<path fill="#0073BC" d="M379.863,183.354c0,0-12.431,8.965,14.821,9.682c27.254,0.717,51.042-3.587,53.312-4.064
				c0,0,6.097,5.618,9.802,5.618c0,0-19.563,6.933-40.382,7.172s-49.746-1.792-49.626-9.204
				C367.909,185.146,379.863,183.354,379.863,183.354"/>
			<path fill="#0073BC" d="M385.123,208.813c0,0-7.53,6.575,9.801,7.412c17.333,0.837,36.578-0.119,46.021-2.988
				c0,0,8.726,5.617,13.148,6.813c0,0-19.246,6.813-35.3,7.411c-21.225,0.79-44.07-3.094-44.07-10.997
				C374.724,211.206,385.123,208.813,385.123,208.813"/>
			<path fill="#0073BC" d="M369.924,224.373c0,0-22.952,2.748-22.952,8.963c0,6.217,44.708,8.607,49.966,8.607
				c5.259,0,109.613-0.239,94.671-16.019c0,0,3.588,1.675,3.707,4.423c0.119,2.75-11.117,13.39-54.628,16.496
				c-43.511,3.107-108.656,0.717-108.417-9.442C332.509,227.241,365.501,222.937,369.924,224.373"/>
			<path fill="#0073BC" d="M363.947,252.939c0,0,108.655,13.27,142.006-15.061c0,0-0.366,7.709-19.843,14.583
				C467.821,258.917,403.035,265.969,363.947,252.939"/>
			<path fill="#E62C2D" d="M323.635,267.375h13.396v74.012c0,0,1.674,26.232-20.541,32.818l-6.251-7.367
				c0,0,13.41-3.238,13.41-24.336C323.648,321.403,323.635,267.375,323.635,267.375"/>
			<path fill="#E62C2D" d="M383.133,289.588c-12.614-4.131-31.591,2.344-33.602,4.13l2.011,7.59c0,0,9.377-3.794,17.639-3.794
				c8.259,0,14.288,1.228,13.506,16.743c0,0-13.619,0.448-18.755,1.786c-5.134,1.34-18.642,6.029-17.526,20.765
				c1.117,14.735,11.392,15.738,18.143,16.409c6.751,0.67,16.241-4.13,19.701-8.149l1.229,6.586h9.712v-45.322
				C395.189,306.332,395.746,293.718,383.133,289.588 M382.687,337.142c-13.506,11.72-23.554,5.581-23.554-2.903
				c0-8.483,5.581-9.71,8.706-10.715c3.126-1.006,14.848-1.117,14.848-1.117V337.142z"/>
			<path fill="#E62C2D" d="M499.452,289.588c-12.614-4.131-31.593,2.344-33.601,4.13l2.008,7.59c0,0,9.379-3.794,17.64-3.794
				c8.26,0,14.289,1.228,13.507,16.743c0,0-13.619,0.448-18.754,1.786c-5.136,1.34-18.643,6.029-17.526,20.765
				c1.115,14.735,11.39,15.738,18.142,16.409c6.752,0.67,16.239-4.13,19.7-8.149l1.229,6.586h9.713v-45.322
				C511.509,306.332,512.065,293.718,499.452,289.588 M499.006,337.142c-13.507,11.72-23.554,5.581-23.554-2.903
				c0-8.483,5.581-9.71,8.706-10.715c3.126-1.006,14.848-1.117,14.848-1.117V337.142z"/>
			<path fill="#E62C2D" d="M402.778,289.588h13.843c0,0,12.168,36.948,14.735,49.453c0,0,11.386-31.258,12.392-49.453h13.396
				c0,0-7.591,40.52-19.202,62.178h-15.739L402.778,289.588z"/>
			<polygon fill="#E62C2D" points="513.042,289.517 517.011,289.517 517.011,290.317 515.507,290.317 515.507,294.444 
				514.501,294.444 514.501,290.317 513.042,290.317 			"/>
			<polygon fill="#E62C2D" points="517.854,289.517 519.247,289.517 520.66,292.985 522.03,289.517 523.443,289.517 
				523.443,294.444 522.553,294.444 522.553,290.589 521.05,294.444 520.318,294.444 518.858,290.613 518.858,294.444 
				517.854,294.444 			"/>
		</g>
	</g>
</g>
</svg>
