<?xml version="1.0" encoding="utf-8"?>
<!-- Generator: Adobe Illustrator 16.0.4, SVG Export Plug-In . SVG Version: 6.00 Build 0)  -->
<!DOCTYPE svg PUBLIC "-//W3C//DTD SVG 1.1//EN" "http://www.w3.org/Graphics/SVG/1.1/DTD/svg11.dtd">
<svg version="1.1" id="Layer_1" xmlns="http://www.w3.org/2000/svg" xmlns:xlink="http://www.w3.org/1999/xlink" x="0px" y="0px"
	 width="141px" height="60px" viewBox="0 0 141 60" enable-background="new 0 0 141 60" xml:space="preserve">
<g>
	<path fill="#FFFFFF" d="M37.101,11.519h3.3c4.489,0.462,9.175,1.782,12.475,5.083c4.555,4.29,5.346,12.079,1.453,17.029
		c-3.367,4.356-9.374,6.205-14.588,4.423c0,2.707,0.396,5.741-1.254,8.185c-0.857,1.32-2.508,1.849-3.96,2.245H32.48
		c-1.385-0.198-2.64-0.726-3.894-1.254c0-1.849,0-3.697-0.066-5.611c1.188,0.529,2.377,1.453,3.696,1.057
		c1.254-0.33,1.188-1.716,1.254-2.706c0-6.007,0-12.014,0-18.02c2.112-0.066,4.159-0.066,6.271,0c0,3.696,0,7.458,0,11.221
		c2.904,0.66,6.271,0.594,8.581-1.583c3.762-3.367,2.376-10.166-1.914-12.476c-4.95-2.575-11.684-2.509-15.974,1.254
		c-3.103,2.706-3.63,7.789-1.122,11.089c-1.518,1.319-3.037,2.641-4.554,3.895c-1.584-1.849-2.707-4.092-3.103-6.535v-3.697
		c0.396-3.103,1.584-6.138,3.829-8.449C28.454,13.499,32.876,11.981,37.101,11.519L37.101,11.519z"/>
	<path fill="#FFFFFF" d="M97.694,12.113c1.914,0,3.828,0,5.743,0c0,6.072,0.065,12.21,0,18.35c2.64-2.707,7.523-2.839,10.031,0.198
		c2.905,3.234,1.123,7.921,1.914,11.815c0.925,1.386,2.707,0.792,3.96,0.263v4.621c0,0,0,1.123-3.3,1.123h-1.782
		c-1.847-0.396-3.497-1.585-4.224-3.367c-1.451-3.433,0.066-7.327-1.057-10.825c-1.385-2.377-5.016-0.726-5.346,1.715
		c-0.462,3.961-0.066,7.987-0.197,12.014c-1.915,0-3.829,0-5.743,0C97.694,36.072,97.694,24.06,97.694,12.113L97.694,12.113z"/>
	<path fill="#FFFFFF" d="M84.361,19.77c1.913-0.066,3.828-0.066,5.741-0.066c0.066,3.037,0,6.073,0.066,9.109
		c1.584,0,3.235,0,4.885,0c0,1.782,0,3.565,0,5.413c-1.649,0-3.301,0-4.885,0c0.132,2.707-0.462,5.478,0.33,8.119
		c0.924,1.781,3.104,0.857,4.555,0.395c0,1.518,0,3.037,0,4.621c-0.99,0.396-1.98,0.792-2.971,1.123h-2.046
		c-2.509-0.331-4.884-2.113-5.412-4.688c-0.528-3.168-0.133-6.401-0.264-9.569c-1.716,0-3.367,0-5.017,0c0-1.848,0-3.631,0-5.413
		c1.649,0,3.366,0,5.017,0C84.361,25.776,84.361,22.74,84.361,19.77L84.361,19.77z"/>
	<path fill="#FFFFFF" d="M57.695,32.377c2.772-4.555,9.835-5.347,13.597-1.519c0-0.528-0.066-1.518-0.066-2.045
		c1.914,0,3.895,0,5.809,0c0.132,4.554-0.264,9.109,0.132,13.597c0.924,1.517,2.772,0.727,4.026,0.396c0,1.517,0,3.035,0,4.554
		c-1.188,0.462-2.377,0.924-3.63,1.122h-1.519c-1.849-0.396-3.234-1.716-4.29-3.234c-1.386,1.716-3.3,2.903-5.479,3.234H64.23
		C56.705,47.82,53.603,38.053,57.695,32.377 M65.22,33.366c-3.763,1.057-4.818,6.534-1.848,9.043
		c2.376,2.31,6.732,1.188,7.789-1.913c0.065-1.849,0.527-4.093-0.858-5.61C69.114,33.433,67.002,32.772,65.22,33.366L65.22,33.366z"
		/>
</g>
</svg>
