<?xml version="1.0" encoding="utf-8"?>
<!-- Generator: Adobe Illustrator 16.0.4, SVG Export Plug-In . SVG Version: 6.00 Build 0)  -->
<!DOCTYPE svg PUBLIC "-//W3C//DTD SVG 1.1//EN" "http://www.w3.org/Graphics/SVG/1.1/DTD/svg11.dtd">
<svg version="1.1" id="_x32__flag_copy_2" xmlns="http://www.w3.org/2000/svg" xmlns:xlink="http://www.w3.org/1999/xlink" x="0px"
	 y="0px" width="877.311px" height="1177.136px" viewBox="0 0 877.311 1177.136" enable-background="new 0 0 877.311 1177.136"
	 xml:space="preserve">
<g>
	<g>
		<polygon fill="#E6E6E6" points="174.927,45.181 45.099,409.01 359.045,409.01 482.247,45.289 		"/>
		<g id="XMLID_29_">
			<g>
				<path fill="#FFC729" d="M546.284,166.166h-17.313v27.54c0,10.384-3.684,19.897-9.812,27.315
					c-7.868,9.528-19.788,15.605-33.106,15.605l-65.799,0.014c-18.572,0-33.774,14.312-35.223,32.501v57.667
					c0,24.976,24.943,45.223,55.713,45.223h22.706c24.034,0,44.524-12.359,52.326-29.672c2.199-4.855,3.383-10.09,3.383-15.551
					v-16.355h-67.055v-10.158h94.181c24.979,0,45.224-24.942,45.224-55.713v-22.707
					C591.508,191.106,571.263,166.166,546.284,166.166z M483.361,327.322c6.704,0,12.149,5.447,12.149,12.148
					c0,1.693-0.333,3.279-0.963,4.745c-1.849,4.348-6.158,7.418-11.187,7.418c-6.718,0-12.165-5.446-12.165-12.164
					C471.196,332.769,476.644,327.322,483.361,327.322z"/>
				<path fill="#268ABC" d="M463.449,94.43h-22.706c-23.075,0-42.885,11.398-51.331,27.612c-2.829,5.411-4.382,11.363-4.382,17.61
					v16.302h67.073v10.212h-92.975c-24.977,0-45.223,24.94-45.223,55.709v22.707c0,30.771,20.246,55.713,45.223,55.713h16.076
					v-30.893c0-10.385,3.683-19.915,9.825-27.332c7.871-9.513,19.758-15.569,33.076-15.569l65.763-0.034
					c18.92,0,34.35-14.854,35.289-33.529v-53.286C519.158,114.676,494.221,94.43,463.449,94.43z M418.624,141.917
					c-6.721,0-12.165-5.43-12.165-12.149c0-2.095,0.523-4.066,1.466-5.796c2.059-3.786,6.072-6.352,10.699-6.352
					c6.703,0,12.146,5.428,12.146,12.148C430.771,136.487,425.327,141.917,418.624,141.917z"/>
			</g>
		</g>
		<polygon opacity="0.2" points="482.249,45.289 359.048,409.01 316.112,409.01 439.312,45.289 		"/>
		<polygon fill="#808080" points="345.734,382.954 358.988,409.01 368.645,380.694 		"/>
		<polygon fill="#FAFAFA" points="469.399,18.043 345.792,382.954 720.914,382.954 847.254,18.043 		"/>
	</g>
	<g>
		
			<line fill="none" stroke="#000000" stroke-width="10" stroke-linecap="round" x1="712.404" y1="409.225" x2="848.162" y2="17.317"/>
		<ellipse cx="851.835" cy="5.243" rx="9.945" ry="9.702"/>
	</g>
	<g>
		<defs>
			<polygon id="SVGID_1_" points="626.719,374.047 348.777,374.047 451.787,69.464 708.719,68.978 			"/>
		</defs>
		<clipPath id="SVGID_2_">
			<use xlink:href="#SVGID_1_"  overflow="visible"/>
		</clipPath>
		<g id="XMLID_28_" clip-path="url(#SVGID_2_)">
			<g>
				<path fill="#FFC729" d="M553.277,143.683h-17.313v27.54c0,10.384-3.685,19.897-9.812,27.315
					c-7.868,9.528-19.789,15.605-33.106,15.605l-65.799,0.014c-18.572,0-33.774,14.312-35.223,32.501v57.667
					c0,24.976,24.943,45.223,55.712,45.223h22.707c24.034,0,44.524-12.358,52.326-29.671c2.199-4.854,3.383-10.09,3.383-15.551
					V287.97h-67.055v-10.158h94.181c24.978,0,45.223-24.942,45.223-55.713v-22.707C598.5,168.623,578.255,143.683,553.277,143.683z
					 M490.354,304.839c6.704,0,12.149,5.447,12.149,12.148c0,1.693-0.333,3.279-0.963,4.745c-1.849,4.348-6.158,7.419-11.187,7.419
					c-6.718,0-12.165-5.446-12.165-12.164C478.189,310.286,483.637,304.839,490.354,304.839z"/>
				<path fill="#268ABC" d="M470.442,71.947h-22.707c-23.075,0-42.884,11.398-51.331,27.612c-2.829,5.411-4.382,11.363-4.382,17.61
					v16.302h67.074v10.212h-92.975c-24.977,0-45.223,24.94-45.223,55.709v22.707c0,30.771,20.246,55.713,45.223,55.713h16.076
					v-30.893c0-10.385,3.683-19.915,9.825-27.332c7.871-9.513,19.758-15.569,33.076-15.569l65.763-0.034
					c18.92,0,34.35-14.854,35.289-33.529v-53.286C526.151,92.193,501.214,71.947,470.442,71.947z M425.617,119.434
					c-6.721,0-12.165-5.43-12.165-12.149c0-2.096,0.523-4.066,1.466-5.796c2.059-3.786,6.072-6.352,10.699-6.352
					c6.703,0,12.146,5.428,12.146,12.148C437.763,114.004,432.32,119.434,425.617,119.434z"/>
			</g>
		</g>
	</g>
	
		<rect x="259.104" y="990.891" transform="matrix(0.9984 0.0572 -0.0572 0.9984 58.8945 -13.4738)" fill="#5D6023" width="11.265" height="61.667"/>
	<g>
		<ellipse fill="#FAAF40" cx="441.222" cy="704.118" rx="73.915" ry="75.732"/>
		<g>
			<circle fill="#FAAF40" cx="705.221" cy="439.127" r="48.519"/>
			<path fill="#FAAF40" d="M638.367,615.165c0,0,15.426-8.26,35.502-56.885c20.074-48.625,40.141-69.711,52.27-75.137
				c0,0-62.326-18.271-59.666-14.787c5.18,6.781,2.537,20.248-16.029,30.08c-11.383,6.031-75.589,32.905-89.622,87.393
				C554.493,610.395,582.207,653.917,638.367,615.165z"/>
			<path fill="#FAAF40" d="M556.872,721.215c31.737-20.641,56.21-44.977,79.749-100.664c7.881-18.642-17.629-54.04-64.929-48.267
				c0,0-80.925,8.804-108.351,74.429c-27.424,65.625,22.053,116.705,22.053,116.705S513.93,749.145,556.872,721.215z"/>
		</g>
	</g>
	<polygon fill="#FAAF40" points="372.614,660.711 375.87,735.049 308.673,735.049 250.131,735.049 252.903,676.61 257.595,577.731 
		368.98,577.731 	"/>
	<g>
		
			<ellipse transform="matrix(0.8341 0.5516 -0.5516 0.8341 456.1895 -7.9776)" fill="#FAAF40" cx="241.358" cy="754.449" rx="70.801" ry="72.539"/>
		<path fill="#FAAF40" d="M72.932,811.229c16.247,9.309,100.114,39.859,180.649-6.469c-24.211-35.871-9.433-45.754,0.045-85.215
			c-39.704-22.418-107.118-21.016-144.173,24.908c0,0-14.007,24.359-14.461,41.82C94.538,803.737,72.932,811.229,72.932,811.229z"/>
		<g>
			<path fill="#FAAF40" d="M79.402,815.174c0,0-31.493-12.514-48.181-51.627c-19.872-46.58,12.546-154.609,58.21-170.062
				c-22.853,8.789-27.336,30.539-18.579,53.355c5.454,14.121,6.9,21.838,20.67,25.135c-0.062,0.016,1.381,1.502,2.935,1.373
				c-14.883,4.811-13.167,28.848,4.441,44.33c26.928,22.012,23.011,33.633,26.296,44.934
				C125.954,776.088,111.654,832.188,79.402,815.174z"/>
			<path fill="#FAAF40" d="M146.588,618.883c-8.779-22.803-34.355-34.172-57.157-25.398c-22.853,8.789-34.22,34.359-25.464,57.176
				c5.455,14.121,17.351,23.906,31.119,27.205l0.052-0.027c8.354,2.016,17.403,1.592,26.067-1.752
				C144,667.315,155.353,641.68,146.588,618.883z"/>
		</g>
	</g>
	<path fill="#4F5311" d="M214.41,823.063c-16.5,6.5-49.5,8-49.5,8c-9-34-14.5-110-13.5-118c0,0,13.629-6.617,37.796-8.229
		c0,0,9.942-10.209,24.033-16.65c14.098-6.445,31.283-6.043,31.283-6.043v135.74L214.41,823.063z"/>
	<g id="XMLID_24_">
		<path fill="#FAAF40" d="M430.202,943.977c-4.538-7.699-0.03-41.125-0.03-41.125c0-3.82,0.48-7.32,1.351-10.609
			c8.259-30.971,37.183-48.488,39.042-118.098c-2.22-74.041-50.263-127.082-126.723-127.082c-12.85,0-25.31,1.68-37.14,4.82
			c-59.86,15.889-103.86,69.27-103.86,132.68c0,1.82,0.04,3.631,0.101,5.43c0.53,13.191,2.96,25.9,7.04,37.891
			c0,0.02,0.01,0.039,0.029,0.068c4.801,12.951,11.631,24.932,19.03,36.471c20.15,31.381,44.601,59.461,44.601,94.891
			c0,0,0,5.98,0,12.449v112.635h81.52v-98.65l-0.13-0.17l-0.08-0.09h0.25l-0.04,0.021v0.238l55.246,104.211l85.264-5.561
			C495.672,1084.397,431.736,946.581,430.202,943.977z"/>
		<g>
			<path d="M355.162,1084.397v87.041h-145.4c0-59.781,55-63.99,63.881-64.23v-22.811H355.162z"/>
			<path d="M508.597,1110.577c-1.17-0.059-2.34-0.09-3.52-0.09c-23.91,0-44.94,12.311-57.1,30.941
				c-5.761,8.799-9.53,19.02-10.68,30.01h135.561C569.377,1138.338,542.208,1112.288,508.597,1110.577z"/>
			<polygon points="483.088,1057.127 517.406,1124.397 448.379,1164.762 406.898,1083.131 			"/>
		</g>
	</g>
	<g>
		<path opacity="0.2" d="M370.565,615.397c0,0-28.5,55.666-88.666,55.666c-7.841,0-28.501-7.5-27-39L370.565,615.397z"/>
		<g>
			<path fill="#FAAF40" d="M375.375,498.854c-11.205-41.768-39.82-58.514-76.567-56.201c-37.749,2.385-67.265,32.094-70.564,68.645
				c-0.031,0.275-0.019,0.545-0.034,0.812c0,0-4.189,54.577-3.861,58.83c5.218,67.789,32.762,84.363,78.218,81.457
				c45.446-2.922,89.276-46.562,86.365-92.002C388.753,557.615,375.375,498.854,375.375,498.854z"/>
			<path fill="#FAAF40" d="M374.274,523.932c3.004-7.631,11.575-9.258,15.932-4.692c8.024,8.423,14.803,29.217-4.092,37.026"/>
		</g>
		<g>
			<g opacity="0.2">
				<g>
					<path d="M232.856,598.778c1.378-1.658,2.646-3.348,3.782-4.9c4.429-6.041,11.941-16.826,24.105-17.415
						c12.161-0.596,15.416,6.854,16.214,9.351c0.815,2.5,1.732,9.248-3.338,14.974c-2.111,2.384-21.484,14.913-37.847,19.685
						c-0.032,0.01-0.097,0.029-0.097,0.029s-3.467-6.582-2.927-9.543c0.558-3.055,5.103-2.532,3.703-5.2
						C234.344,601.739,232.856,598.778,232.856,598.778z"/>
					<path d="M328.938,592.373c0.666-3.664,5.13-6.351,9.113-4.857c3.702,1.386,7.064,11.59-3.693,12.936
						c-7.18,0.902-14.605-6.331-19.787-11.734c-5.186-5.406-14.048-15.105-26.187-14.085c-12.122,1.014-14.374,8.826-14.847,11.409
						c-0.461,2.583-1.303,8.277,5.287,14.4c3.41,3.172,31.284,18.394,57.435,11.659c23.369-6.017,13.585-31.518,2.903-31.258
						C327.403,581.127,328.938,592.373,328.938,592.373z"/>
				</g>
			</g>
			<g>
				<path d="M223.148,595.522c-1.146-3.544-5.917-5.614-9.669-3.613c-3.496,1.866-5.479,12.424,5.368,12.336
					c7.228-0.054,13.631-8.203,18.06-14.242c4.428-6.041,11.94-16.825,24.105-17.416c12.16-0.597,15.415,6.854,16.213,9.353
					c0.816,2.5-0.374,11.38-3.339,14.972c-2.946,3.609-28.575,22.357-55.396,19.131c-23.959-2.875-17.624-29.443-6.994-30.598
					C223.187,584.172,223.148,595.522,223.148,595.522z"/>
				<path d="M329.206,588.498c0.666-3.664,5.131-6.352,9.113-4.86c3.702,1.389,7.065,11.592-3.692,12.938
					c-7.18,0.901-14.605-6.333-19.787-11.735c-5.186-5.405-14.049-15.105-26.188-14.086c-12.122,1.013-14.374,8.828-14.846,11.41
					c-0.461,2.584,1.881,11.229,5.285,14.401c3.397,3.187,31.286,18.394,57.436,11.658c23.37-6.015,13.586-31.518,2.904-31.258
					C327.671,577.253,329.206,588.498,329.206,588.498z"/>
			</g>
		</g>
		<path d="M292.646,529.684c-1.238-1.054-1.38-2.922-0.286-4.155l0,0c3.061-3.521,7.293-5.167,11.336-5.962l0,0
			c8.115-1.543,16.078,0.183,16.271,0.197l0,0c1.578,0.334,2.596,1.887,2.265,3.482l0,0c-0.326,1.592-1.897,2.609-3.459,2.283l0,0
			c-0.025,0.027-1.879-0.363-4.558-0.571l0,0c-2.665-0.219-6.133-0.272-9.396,0.375l0,0c-3.312,0.642-6.226,1.938-8.035,4.054l0,0
			c-0.45,0.515-1.024,0.846-1.657,0.96l0,0C294.274,530.51,293.354,530.289,292.646,529.684L292.646,529.684z"/>
		<path d="M227.6,522.635c-0.77-1.432-0.242-3.218,1.223-3.988l0,0c4.132-2.171,8.666-2.193,12.731-1.479l0,0
			c8.117,1.47,14.94,5.95,15.104,6.027l0,0c1.358,0.888,1.742,2.697,0.867,4.059l0,0c-0.873,1.373-2.705,1.76-4.048,0.895l0,0
			c-0.034,0.008-1.627-1.008-4.051-2.182l0,0c-2.399-1.148-5.633-2.443-8.91-3.012l0,0c-3.312-0.597-6.509-0.421-8.942,0.885l0,0
			c-0.606,0.328-1.264,0.419-1.898,0.311l0,0C228.818,523.99,228.039,523.46,227.6,522.635L227.6,522.635z"/>
		<path d="M315.574,537.78c0.296,5.145-3.405,9.541-8.276,9.824c-4.872,0.283-9.061-3.658-9.361-8.803
			c-0.297-5.147,3.404-9.546,8.274-9.833C311.084,528.69,315.273,532.631,315.574,537.78z"/>
		<path d="M248.804,538.466c0.3,5.145-3.406,9.546-8.277,9.826c-4.865,0.279-9.055-3.66-9.356-8.803
			c-0.301-5.146,3.406-9.546,8.276-9.825C244.317,529.377,248.508,533.319,248.804,538.466z"/>
	</g>
	<path d="M288.463,613.612c0,6.555-5.312,11.865-11.865,11.865s-11.865-5.311-11.865-11.865
		C264.732,607.059,288.463,607.059,288.463,613.612z"/>
	<g>
		<g>
			<rect x="340.17" y="1171.209" fill="#4D4D4D" width="18.392" height="10.387"/>
			<rect x="330.752" y="1171.209" fill="#4D4D4D" width="12.112" height="5.316"/>
		</g>
		<g>
			<rect x="313.058" y="1171.209" fill="#4D4D4D" width="18.391" height="10.387"/>
			<rect x="303.639" y="1171.209" fill="#4D4D4D" width="12.112" height="5.316"/>
		</g>
		<g>
			<rect x="285.944" y="1171.209" fill="#4D4D4D" width="18.391" height="10.387"/>
			<rect x="276.526" y="1171.209" fill="#4D4D4D" width="12.111" height="5.316"/>
		</g>
		<g>
			<rect x="258.831" y="1171.209" fill="#4D4D4D" width="18.391" height="10.387"/>
			<rect x="249.413" y="1171.209" fill="#4D4D4D" width="12.112" height="5.316"/>
		</g>
		<g>
			<rect x="231.718" y="1171.209" fill="#4D4D4D" width="18.392" height="10.387"/>
			<rect x="222.3" y="1171.209" fill="#4D4D4D" width="12.112" height="5.316"/>
		</g>
		<g>
			<rect x="204.604" y="1171.209" fill="#4D4D4D" width="18.392" height="10.387"/>
		</g>
	</g>
	<g>
		<g>
			<rect x="563.28" y="1171.209" fill="#4D4D4D" width="17.878" height="10.387"/>
			<rect x="554.126" y="1171.209" fill="#4D4D4D" width="11.773" height="5.316"/>
		</g>
		<g>
			<rect x="536.925" y="1171.209" fill="#4D4D4D" width="17.877" height="10.387"/>
			<rect x="527.77" y="1171.209" fill="#4D4D4D" width="11.773" height="5.316"/>
		</g>
		<g>
			<rect x="510.568" y="1171.209" fill="#4D4D4D" width="17.878" height="10.387"/>
			<rect x="501.413" y="1171.209" fill="#4D4D4D" width="11.774" height="5.316"/>
		</g>
		<g>
			<rect x="484.212" y="1171.209" fill="#4D4D4D" width="17.878" height="10.387"/>
			<rect x="475.057" y="1171.209" fill="#4D4D4D" width="11.774" height="5.316"/>
		</g>
		<g>
			<rect x="457.856" y="1171.209" fill="#4D4D4D" width="17.878" height="10.387"/>
			<rect x="448.701" y="1171.209" fill="#4D4D4D" width="11.773" height="5.316"/>
		</g>
		<g>
			<rect x="431.501" y="1171.209" fill="#4D4D4D" width="17.877" height="10.387"/>
		</g>
	</g>
	<polygon fill="#515120" points="362.91,1063.063 264.91,1063.063 269.41,948.313 270.91,939.063 431.91,936.563 432.91,947.063 
		479.548,1033.801 387.746,1070.336 361.91,1019.063 	"/>
	<path d="M379.855,517.844c1.086-7.285,1.509-21.178-2.601-35.939c-8.291-29.783-30.367-27.748-30.367-27.748l-13.479,11.242
		c0,0,13.069,8.359,26.132,23.834c6.204,7.346,14.24,22.445,16.383,36.393L379.855,517.844z"/>
	<path d="M344.443,452.801l-15.354,10.596c0,0-57.638,30.816-92.46,20.326c0,0-3.689-23.115,20.888-42.971
		c16.527-13.34,51.078-22.33,72.758-9.967C346.962,440.299,344.443,452.801,344.443,452.801z"/>
	<path fill="#333333" d="M253.91,677.729c6.392,12.049,21.142,17.299,33.392,17.299c21.5,0,64.5-14.75,83.5-47.75l14.608,5.785v276
		H267.66c0,0-46.75-66.5-58.25-108.5s39-137.5,39-137.5L253.91,677.729z"/>
	<path fill="#4F5311" d="M494.575,604.395c0,0,34.667,116,45.334,138l-67.332,31.002c0,0-37.886-21.064-47.858-73.203
		c-8.912-46.594-4.845-68.441-4.845-68.441s16.238-7.91,46.904-3.91c0,0,3.997-7.248,12.664-13.914
		C488.109,607.261,494.575,604.395,494.575,604.395z"/>
	<g id="XMLID_27_">
		<path fill="#333333" d="M711.127,495.223c-9.811,10.39-22.99,29.22-37,63.16c-19.881,48.17-35.471,56.949-35.631,57.029
			l-0.289,0.199l-0.031,0.021c-0.209,1.799-0.639,3.488-1.289,5.029c-22.551,53.33-45.73,77.699-75.21,97.699l-50.421-125.389
			c20.79-12.33,42.001-17.7,53.62-19.891c17.87-41.72,63.911-64.299,81.261-72.81c1.77-0.87,3.17-1.56,4.17-2.09
			c13.41-7.101,16.949-15.149,17.859-19.32c0.26-1.159,0.371-2.31,0.35-3.409C675.996,482.443,692.117,492.263,711.127,495.223z"/>
	</g>
	
		<rect x="509.266" y="586.151" transform="matrix(0.9278 -0.3731 0.3731 0.9278 -209.707 245.9669)" fill="#5D6023" width="42.751" height="157.288"/>
	<path fill="#5D6023" d="M317.577,692.395l-33,29.633v239.035h157c0,0,0-51.631,0-76c0-18,27.667-45.668,31-111.666
		c0,0-58.191-42.535-39.58-145.348c0,0-23.753,1.012-49.087,26.68L317.577,692.395z"/>
	<path fill="#5D6023" d="M258.868,692.042l26.042,29.986v239.035h-39.666c0,0-2-45-5.334-59.668
		c-3.333-14.666-29.942-58.129-34.333-80.666c-5-25.666-12.667-66.332,22.333-115.334c5-7,26-27.666,26-27.666L258.868,692.042z"/>
	<polygon fill="#4B4B18" points="372.577,639.063 317.577,692.395 338.91,721.063 386.577,653.729 	"/>
	<polygon fill="#4B4B18" points="253.493,664.329 258.868,692.042 239.243,721.063 233.16,683.042 	"/>
	
		<line fill="none" stroke="#000000" stroke-width="10" stroke-linecap="round" x1="694.564" y1="460.362" x2="603.154" y2="722.395"/>
	<g id="XMLID_25_">
		<g>
			<path fill="#333333" d="M134.208,722.153l10.56,107.42c-25.13-1.621-45.02-7.371-55.47-11.02c-3.19-0.25-6.58-1.311-10.03-3.131
				c-0.29-0.109-31.76-12.988-48.31-51.76c-11.351-26.619-6.11-76.08,12.479-117.619c1.71-3.82,3.48-7.471,5.33-10.932
				c5.74,17.061,16.74,38.021,38.13,44.73c-1.45,2.57-2.229,5.75-2.229,9.291c0,9.66,5.529,20.51,14.419,28.33
				c7.97,6.52,13.78,12.551,17.73,18.43C122.087,730.684,127.917,726.092,134.208,722.153z"/>
		</g>
	</g>
	
		<rect x="125.614" y="709.982" transform="matrix(0.9952 -0.0979 0.0979 0.9952 -74.9463 18.1041)" fill="#5D6023" width="42.749" height="125.383"/>
	<polygon fill="#5D6023" points="471.241,1017.52 452.456,1034.958 424.041,1040.788 397.052,990.196 446.924,968.188 	"/>
	<g>
		
			<rect x="353.392" y="876.698" transform="matrix(1 -0.0021 0.0021 1 -1.8853 0.813)" fill="#4F5311" width="77.424" height="70.246"/>
		
			<rect x="353.339" y="876.698" transform="matrix(1 -0.0021 0.0021 1 -1.8267 0.8129)" opacity="0.2" width="77.424" height="13.602"/>
		<rect x="351.342" y="865.86" fill="#4F5311" width="81.501" height="21.295"/>
		<circle fill="#3C3C00" cx="422.861" cy="879.827" r="4.01"/>
		<circle fill="#3C3C00" cx="361.478" cy="879.702" r="4.135"/>
	</g>
	<g>
		<polygon fill="#4F5311" points="431.887,829.53 393.386,840.502 354.463,829.69 354.319,759.446 431.74,759.288 		"/>
		<polygon opacity="0.2" points="431.775,772.887 392.709,783.86 354.352,773.045 354.324,759.446 431.745,759.286 		"/>
		<polygon fill="#4F5311" points="433.842,769.823 392.386,780.715 352.341,769.823 352.341,748.528 433.842,748.528 		"/>
		<circle fill="#3C3C00" cx="392.635" cy="772.663" r="3.895"/>
	</g>
	<g>
		<path fill="#4F5311" d="M211.108,838.112l30.111-8.582l-0.212-63.307l-39.581,13.826c0,0-1.255,5.387,0.542,20.334
			C205.131,826.68,211.108,838.112,211.108,838.112z"/>
		<path opacity="0.2" d="M241.078,759.286l0.03,13.602l-39.953,10.973c0,0-0.091-2.457,0.181-6.342L241.078,759.286z"/>
		<path fill="#4F5311" d="M199.891,780.715l43.284-10.893v-21.295H204.95c0,0-3.523,9.561-4.698,18.959
			S199.891,780.715,199.891,780.715z"/>
		<path fill="#3C3C00" d="M199.631,777.104c1.766,0,3.469-1.402,3.469-3.17c0-1.764-1.432-3.197-3.197-3.197L199.631,777.104z"/>
	</g>
	<g>
		<polygon fill="#4F5311" points="256.85,946.864 237.709,947.024 230.423,876.778 256.703,876.622 		"/>
		<polygon opacity="0.2" points="256.738,890.219 231.781,890.213 230.428,876.778 256.708,876.62 		"/>
		<polygon fill="#4F5311" points="258.805,887.155 228.053,887.155 223.444,865.86 258.805,865.86 		"/>
		<circle fill="#3C3C00" cx="248.823" cy="879.827" r="4.01"/>
	</g>
	<g>
		<rect x="269.104" y="1081.02" fill="#4D4D4D" width="90.588" height="21.824"/>
		<g>
			<rect x="277.083" y="1081.02" fill="#333333" width="1.879" height="21.824"/>
			<rect x="289.286" y="1081.02" fill="#333333" width="1.879" height="21.824"/>
			<rect x="301.489" y="1081.02" fill="#333333" width="1.879" height="21.824"/>
			<rect x="313.692" y="1081.02" fill="#333333" width="1.879" height="21.824"/>
			<rect x="325.896" y="1081.02" fill="#333333" width="1.879" height="21.824"/>
			<rect x="338.099" y="1081.02" fill="#333333" width="1.879" height="21.824"/>
			<rect x="350.302" y="1081.02" fill="#333333" width="1.879" height="21.824"/>
		</g>
	</g>
	<g>
		
			<rect x="403.316" y="1067.503" transform="matrix(0.9342 -0.3567 0.3567 0.9342 -355.0942 231.0673)" fill="#4D4D4D" width="91.409" height="21.824"/>
		
			<rect x="413.782" y="1080.595" transform="matrix(0.9343 -0.3564 0.3564 0.9343 -361.8015 219.5049)" fill="#333333" width="1.896" height="21.824"/>
		
			<rect x="425.285" y="1076.203" transform="matrix(0.9345 -0.3561 0.3561 0.9345 -359.1633 223.0287)" fill="#333333" width="1.898" height="21.824"/>
		
			<rect x="436.789" y="1071.809" transform="matrix(0.9339 -0.3575 0.3575 0.9339 -358.1393 228.0399)" fill="#333333" width="1.896" height="21.826"/>
		
			<rect x="448.294" y="1067.418" transform="matrix(0.9343 -0.3566 0.3566 0.9343 -354.994 231.0878)" fill="#333333" width="1.895" height="21.826"/>
		
			<rect x="459.797" y="1063.029" transform="matrix(0.9343 -0.3564 0.3564 0.9343 -352.5183 234.7521)" fill="#333333" width="1.896" height="21.824"/>
		
			<rect x="471.302" y="1058.634" transform="matrix(0.9343 -0.3564 0.3564 0.9343 -350.1968 238.564)" fill="#333333" width="1.896" height="21.826"/>
		
			<rect x="482.805" y="1054.243" transform="matrix(0.934 -0.3573 0.3573 0.934 -348.6672 243.1763)" fill="#333333" width="1.897" height="21.826"/>
	</g>
	<g>
		<path fill="#BCA979" d="M192.499,501.615c0.319,11.351,50.587,19.146,112.277,17.411c61.688-1.733,111.438-12.341,111.118-23.689
			v-5l-223.396,6.278V501.615z"/>
		<path fill="#E2CF9A" d="M415.895,490.336c0.32,11.349-49.431,21.956-111.118,23.689c-61.69,1.734-111.958-6.061-112.277-17.411
			c-0.32-11.351,49.285-31.516,110.975-33.25C365.162,461.631,415.575,478.987,415.895,490.336z"/>
		<path fill="#E2CF9A" d="M384.619,485.104c-0.597-38.976-37.833-76.721-83.042-76.03c-45.212,0.692-81.275,39.559-80.68,78.534
			c0,0,6.567,11.257,76.733,10.184C357.367,496.878,384.619,485.104,384.619,485.104z"/>
		<path fill="#554A1D" d="M222.079,474.329c4.674,3.032,21.369,9.701,75.329,8.877c50.706-0.775,78.386-9.57,85.481-12.153
			c0,0,0.271,0.764,0.564,3.007c0.604,4.617,1.432,10.754,1.432,10.754s-27.519,12.065-87.255,12.979
			c-70.166,1.073-77.488-10.766-77.488-10.766s0.591-4.506,1.079-7.902C221.711,475.728,222.079,474.329,222.079,474.329z"/>
	</g>
	<g opacity="0.15">
		<path d="M355.162,1107.208v-44.145h7.748l-1-44l0.096,0.225l-0.03-0.121l-13.565-29.104
			c-22.671,0.182-34.646-14.316-40.965-29.223H284.91V722.028c0,0,0.324-21.08,0.023-30.586c-0.004-0.141,0.202-31.275,0.641-38.963
			c0,0-8.949-9.166-9.699-61.416c0,0-4-80.75,0.5-111.25v-49.406c-7.346,2.758-13.912,6.354-18.858,10.346
			c-22.246,17.973-21.333,38.614-20.96,42.368c-3.362,6.422-5.83,13.369-7.239,20.667c-1.013,0.293-2.016,0.678-2.995,1.193
			c-1.465,0.77-1.992,2.557-1.223,3.988c0.439,0.824,1.219,1.354,2.076,1.514c0.386,0.066,0.778,0.048,1.164-0.041
			c-0.029,0.286-0.071,0.568-0.097,0.855c-0.031,0.275-0.019,0.545-0.034,0.812c0,0-4.189,54.577-3.861,58.83
			c2.99,38.852,13.323,60.869,30.15,72.049l-1.005,21.34l-0.537,0.455l-19.566,18.07l-0.126,0.002
			c-5.92,0.748-13.319,2.264-20.024,5.328c-14.091,6.441-24.033,16.65-24.033,16.65c-24.167,1.611-37.796,8.229-37.796,8.229
			c-0.024,0.199-0.045,0.455-0.062,0.738c-12.591,5.025-24.421,12.426-34.581,22.533c-3.538-5.34-9.038-11.438-17.87-18.656
			c-15.33-13.48-18.608-33.438-9.381-41.551c1.814,0.695,3.672,1.283,5.569,1.738l0.052-0.027
			c8.354,2.016,17.403,1.592,26.067-1.752c22.795-8.771,34.147-34.406,25.383-57.203c-8.779-22.803-34.355-34.172-57.157-25.398
			c-2.096,0.806-4.093,1.756-5.989,2.829c1.836-1.052,3.83-1.999,5.989-2.829c-45.664,15.453-78.082,123.482-58.21,170.062
			c16.688,39.113,48.181,51.627,48.181,51.627c3.546,1.871,6.875,2.855,9.99,3.113c17.011,5.936,43.922,12.279,75.148,11.34
			c0.123,0.486,0.246,0.965,0.37,1.436c0,0,24.492-1.117,41.826-5.584c6.664,23.43,30.062,62.223,33.174,75.916
			c3.334,14.668,5.334,59.668,5.334,59.668h12.666v-0.064l11.008-0.117l-4.008,102.182h8.732v44.145H355.162z"/>
		<path d="M740.485,405.817c-10.278,8.577-34.366,48.009-49.241,84.579c-16,39.334-105.334,171.333-168.668,202.667
			c-63.333,31.332-76.191,44.465-76.191,44.465s0.34,15.67,0.334,45.666c-0.004,22.441,2.69,46.672,3.788,76.027
			c8.398-18.301,19.987-44.576,22.07-85.824l67.332-31.002c-0.973-2.006-2.146-4.801-3.475-8.211
			c6.357-3.932,13.191-8.256,20.438-12.969c31.737-20.641,56.21-44.977,79.749-100.664c0.668-1.582,1.092-3.287,1.285-5.076
			c0.156-0.105,0.307-0.203,0.461-0.311c0,0,15.426-8.26,35.502-56.885c20.074-48.625,40.141-69.711,52.27-75.137
			c0,0-0.11-0.033-0.304-0.09c14.066-6.616,24.712-19.861,27.313-36.373C755.582,431.243,750.438,416.368,740.485,405.817z"/>
		<path d="M563.733,675.504c-4.318-9.525-36.53-90.811-36.53-90.811l-4.422,2.275c20.721,56.098,30.954,76.818,36.515,92.486
			L563.733,675.504z"/>
		
			<rect x="525.63" y="670.702" transform="matrix(0.9278 -0.3731 0.3731 0.9278 -223.7068 255.0098)" width="42.751" height="69.571"/>
		
			<rect x="125.614" y="709.982" transform="matrix(0.9952 -0.0979 0.0979 0.9952 -74.9463 18.1041)" width="42.749" height="125.383"/>
		<path d="M222.104,474.344c-0.008-0.004-0.018-0.01-0.025-0.016c0,0-0.25,0.964-0.609,3.178
			c-18.133,6.422-29.121,13.748-28.971,19.108v5c0.269,9.546,35.867,16.576,83.876,17.539v-47.626
			c0-10.932,8.528-48.409,21.639-62.305C259.583,411.53,228.468,441.289,222.104,474.344z"/>
		<path d="M227.219,524.028c5.647,0.664,46.5,13.166,151.344-3.678l0.827-4.457l1.08-4.407c-2.763,0.407-5.231,1.022-7.909,1.419
			c-8.866,1.317-17.293,2.533-25.425,3.331c-70.958,6.958-114.136-0.126-119.084-0.708"/>
		<g>
			<polygon points="256.85,946.864 237.709,947.024 230.423,876.778 256.703,876.622 			"/>
			<polygon opacity="0.2" points="256.738,890.219 231.781,890.213 230.428,876.778 256.708,876.62 			"/>
			<polygon points="258.805,887.155 228.053,887.155 223.444,865.86 258.805,865.86 			"/>
			<circle cx="248.823" cy="879.827" r="4.01"/>
		</g>
		<polygon points="442.021,963.965 268.912,963.965 268.912,961.071 440.396,961.071 		"/>
		<rect x="353.552" y="887.153" width="34.75" height="59.5"/>
		<rect x="351.177" y="865.903" width="40.875" height="21.25"/>
		<polygon points="392.802,748.528 392.802,840.403 354.427,829.403 354.372,770.321 352.357,769.766 352.357,748.516 		"/>
	</g>
	<g>
		<g>
			<path d="M103.885,675.348c5.285,1.93,10.784,2.012,10.784,2.012l-4.65,12.732c0,0-5.67-0.045-11.654-2.23
				s-8.737-5.217-8.737-5.217s2.366-7.494,4.142-12.348C93.77,670.297,98.607,673.42,103.885,675.348z"/>
			<path d="M134.627,620.735c-0.819,2.246-6.02,2.338-11.661,0.277c-5.642-2.061-9.557-5.48-8.737-7.725
				c0.804-2.199,6.018-2.338,11.659-0.277C131.529,615.069,135.431,618.538,134.627,620.735z"/>
			<path d="M143.113,603.913c-3.288,2.596-6.236,10.664-8.486,16.822c0.804-2.197-3.098-5.666-8.739-7.725
				c-5.642-2.061-10.855-1.922-11.659,0.277c1.52-4.16,1.187-6.73,1.187-6.73l-0.023-0.052
				C123.263,605.8,134.122,602.351,143.113,603.913z"/>
		</g>
		<g>
			<g>
				<path fill="#666666" d="M204.405,561.779c4.602,2.797,9.711,5.292,15.423,7.377l-9.798,23.795l-3.914,15.014
					c-5.521-2.016-10.946-3.254-16.263-3.893L204.405,561.779z"/>
				
					<ellipse transform="matrix(0.9393 0.343 -0.343 0.9393 214.7744 -37.2813)" fill="#666666" cx="212.775" cy="588.489" rx="12.656" ry="20.578"/>
			</g>
			<path fill="#5D6023" d="M107.998,456.498c27.397,10.005,32.018,77.038,99.068,101.522l-13,31.575l-5.193,19.922
				c-59.647-21.781-110.947,24.81-142.884,13.147"/>
			
				<ellipse transform="matrix(0.9393 0.343 -0.343 0.9393 189.4122 6.9268)" fill="#878744" cx="75.125" cy="538.909" rx="54.544" ry="88.687"/>
			
				<ellipse transform="matrix(0.9393 0.343 -0.343 0.9393 212.2114 -32.4053)" fill="#5D6023" cx="197.708" cy="583.673" rx="16.794" ry="27.306"/>
			
				<ellipse transform="matrix(0.9393 0.343 -0.343 0.9393 189.7517 7.5551)" fill="#5D6023" cx="73.519" cy="540.181" rx="44.451" ry="74.113"/>
			<g>
				<path fill="#666666" d="M94.054,591.598c-10.396-8.195-22.568-15.291-37.473-20.733l15.536-37.733l6.205-23.808
					c15.176,5.541,29.906,7.36,44.062,6.923c0,0,0.838,17.393-6.534,37.722c-9.61,26.498-21.855,37.809-21.855,37.809"/>
				
					<ellipse transform="matrix(-0.9393 -0.343 0.343 -0.9393 -53.871 1070.8872)" fill="#999999" cx="67.765" cy="540.208" rx="20.07" ry="32.632"/>
			</g>
			
				<ellipse transform="matrix(0.9393 0.343 -0.343 0.9393 189.2334 10.1004)" fill="#333333" cx="66.064" cy="539.983" rx="12.336" ry="20.568"/>
		</g>
		<g opacity="0.2">
			<path d="M213.854,588.358l-0.171-0.115c-5.458-2.632-10.755-5.066-15.86-7.325c-41.647-18.391-70.754-24.655-70.754-24.655
				l-0.197-0.072c-0.166,0.482-0.338,0.952-0.513,1.432c-16.547,45.312-52.264,74.055-80.364,65.039l-0.004,0.01
				c31.938,11.662,83.234-34.939,142.881-13.157l0.007-0.02c3.983,1.22,8.443-0.004,12.599-3.043
				c4.451-3.24,8.531-8.553,11.278-15.172c0.264-0.606,0.497-1.213,0.727-1.842C213.613,589.079,213.743,588.722,213.854,588.358z
				 M94.053,591.602c8.506-9.445,15.976-21.825,21.217-36.178c0.315-0.864,0.622-1.731,0.918-2.604l-28.133-10.272
				c-0.399,1.504-0.88,3.021-1.436,4.543C82.071,559.547,73.583,568.594,65.274,571c-2.985,0.858-5.946,0.862-8.689-0.14
				c2.621,0.957,5.158,1.97,7.614,3.026C75.709,578.835,85.483,584.841,94.053,591.602z"/>
			<path opacity="0.5" d="M223.985,594.548c-4.443-1.068-11.229-3.27-11.229-3.27c-2.747,6.619-6.827,11.932-11.278,15.172
				c1.54,0.445,3.083,0.944,4.642,1.514l0.002-0.031C212.271,609.807,219.934,604.013,223.985,594.548z M56.584,570.86l-0.009-0.003
				c-10.417-3.804-13.842-20.607-7.66-37.534c0.552-1.512,1.163-2.981,1.826-4.391l-0.09-0.043l-17.913-6.541
				c-0.334,0.857-0.66,1.717-0.976,2.582c-14.043,38.456-6.731,76.449,16.329,84.869c0.799,0.293,1.602,0.543,2.422,0.746
				c13.926,3.67,30.032-3.937,43.539-18.943c-8.57-6.761-18.344-12.767-29.854-17.716C61.743,572.83,59.206,571.817,56.584,570.86z
				 M59.006,559.3c0.695,0.254,1.42,0.4,2.162,0.438c3.35,0.212,7.014-1.687,10.194-5.06c2.524-2.656,4.749-6.24,6.282-10.438
				l-23.173-8.463C50.587,546.442,52.62,556.968,59.006,559.3z"/>
		</g>
		<g opacity="0.2">
			<path d="M185.535,575.43c-0.987,3.024-2.19,6.173-3.568,9.13c-1.579-0.311-3.144-0.573-4.71-0.805
				c1.527-3.189,2.852-6.613,3.929-9.914c0.855-2.604,1.548-5.141,2.064-7.4c1.372,0.703,2.778,1.398,4.221,2.084
				C186.98,570.656,186.321,573.013,185.535,575.43z"/>
			<path d="M176.959,572.298c-1.191,3.643-2.676,7.444-4.416,10.896c-1.666-0.161-3.326-0.278-4.981-0.351
				c2.015-3.768,3.728-8.049,5.058-12.131c1.049-3.194,1.854-6.274,2.375-8.895c1.351,0.822,2.737,1.628,4.17,2.427
				C178.641,566.673,177.897,569.437,176.959,572.298z"/>
			<path d="M168.393,569.17c-1.501,4.604-3.49,9.467-5.858,13.563c-1.81-0.001-3.607,0.056-5.395,0.137
				c2.833-4.404,5.182-10.02,6.903-15.289c1.355-4.178,2.325-8.146,2.797-11.157c1.33,0.965,2.708,1.915,4.133,2.851
				C170.447,562.084,169.573,565.556,168.393,569.17z"/>
			<path d="M159.816,566.039c-1.979,6.09-4.822,12.621-8.26,17.254c-2.119,0.205-4.217,0.472-6.298,0.775
				c4.314-4.556,7.869-12.393,10.218-19.614c1.972-6.041,3.1-11.665,3.127-14.54c1.353,1.165,2.756,2.337,4.22,3.489
				C162.466,556.508,161.417,561.129,159.816,566.039z"/>
		</g>
		<g opacity="0.2">
			<path d="M213.854,588.358l-0.171-0.115c-5.458-2.632-10.755-5.066-15.86-7.325c-41.647-18.391-70.754-24.655-70.754-24.655
				l-0.197-0.072c-0.166,0.482-0.338,0.952-0.513,1.432c-16.547,45.312-52.264,74.055-80.364,65.039l-0.004,0.01
				c31.938,11.662,83.234-34.939,142.881-13.157l0.007-0.02c3.983,1.22,8.443-0.004,12.599-3.043
				c4.451-3.24,8.531-8.553,11.278-15.172c0.264-0.606,0.497-1.213,0.727-1.842C213.613,589.079,213.743,588.722,213.854,588.358z
				 M94.053,591.602c8.506-9.445,15.976-21.825,21.217-36.178c0.315-0.864,0.622-1.731,0.918-2.604l-28.133-10.272
				c-0.399,1.504-0.88,3.021-1.436,4.543C82.071,559.547,73.583,568.594,65.274,571c-2.985,0.858-5.946,0.862-8.689-0.14
				c2.621,0.957,5.158,1.97,7.614,3.026C75.709,578.835,85.483,584.841,94.053,591.602z"/>
			<path opacity="0.5" d="M223.985,594.548c-4.443-1.068-11.229-3.27-11.229-3.27c-2.747,6.619-6.827,11.932-11.278,15.172
				c1.54,0.445,3.083,0.944,4.642,1.514l0.002-0.031C212.271,609.807,219.934,604.013,223.985,594.548z M56.584,570.86l-0.009-0.003
				c-10.417-3.804-13.842-20.607-7.66-37.534c0.552-1.512,1.163-2.981,1.826-4.391l-0.09-0.043l-17.913-6.541
				c-0.334,0.857-0.66,1.717-0.976,2.582c-14.043,38.456-6.731,76.449,16.329,84.869c0.799,0.293,1.602,0.543,2.422,0.746
				c13.926,3.67,30.032-3.937,43.539-18.943c-8.57-6.761-18.344-12.767-29.854-17.716C61.743,572.83,59.206,571.817,56.584,570.86z
				 M59.006,559.3c0.695,0.254,1.42,0.4,2.162,0.438c3.35,0.212,7.014-1.687,10.194-5.06c2.524-2.656,4.749-6.24,6.282-10.438
				l-23.173-8.463C50.587,546.442,52.62,556.968,59.006,559.3z"/>
		</g>
		<g opacity="0.2">
			<path d="M185.535,575.43c-0.987,3.024-2.19,6.173-3.568,9.13c-1.579-0.311-3.144-0.573-4.71-0.805
				c1.527-3.189,2.852-6.613,3.929-9.914c0.855-2.604,1.548-5.141,2.064-7.4c1.372,0.703,2.778,1.398,4.221,2.084
				C186.98,570.656,186.321,573.013,185.535,575.43z"/>
			<path d="M176.959,572.298c-1.191,3.643-2.676,7.444-4.416,10.896c-1.666-0.161-3.326-0.278-4.981-0.351
				c2.015-3.768,3.728-8.049,5.058-12.131c1.049-3.194,1.854-6.274,2.375-8.895c1.351,0.822,2.737,1.628,4.17,2.427
				C178.641,566.673,177.897,569.437,176.959,572.298z"/>
			<path d="M168.393,569.17c-1.501,4.604-3.49,9.467-5.858,13.563c-1.81-0.001-3.607,0.056-5.395,0.137
				c2.833-4.404,5.182-10.02,6.903-15.289c1.355-4.178,2.325-8.146,2.797-11.157c1.33,0.965,2.708,1.915,4.133,2.851
				C170.447,562.084,169.573,565.556,168.393,569.17z"/>
			<path d="M159.816,566.039c-1.979,6.09-4.822,12.621-8.26,17.254c-2.119,0.205-4.217,0.472-6.298,0.775
				c4.314-4.556,7.869-12.393,10.218-19.614c1.972-6.041,3.1-11.665,3.127-14.54c1.353,1.165,2.756,2.337,4.22,3.489
				C162.466,556.508,161.417,561.129,159.816,566.039z"/>
		</g>
	</g>
	<g opacity="0.1">
		<polygon points="239.243,721.063 270.552,705.528 258.868,692.042 		"/>
		<polygon points="339.052,721.063 302.97,705.528 317.595,692.393 		"/>
	</g>
	<g>
		<circle fill="#3C3C00" cx="294.802" cy="743.278" r="4.625"/>
		<circle fill="#3C3C00" cx="294.802" cy="788.028" r="4.625"/>
		<circle fill="#3C3C00" cx="294.802" cy="832.778" r="4.625"/>
		<circle fill="#3C3C00" cx="294.802" cy="877.528" r="4.625"/>
		<circle fill="#3C3C00" cx="294.802" cy="922.278" r="4.625"/>
	</g>
</g>
</svg>
