<?xml version="1.0" encoding="utf-8"?>
<!-- Generator: Adobe Illustrator 16.0.4, SVG Export Plug-In . SVG Version: 6.00 Build 0)  -->
<!DOCTYPE svg PUBLIC "-//W3C//DTD SVG 1.1//EN" "http://www.w3.org/Graphics/SVG/1.1/DTD/svg11.dtd">
<svg version="1.1" id="_x32__flag_copy_2" xmlns="http://www.w3.org/2000/svg" xmlns:xlink="http://www.w3.org/1999/xlink" x="0px"
	 y="0px" width="877.311px" height="1177.136px" viewBox="0 0 877.311 1177.136" enable-background="new 0 0 877.311 1177.136"
	 xml:space="preserve">
<g>
	<g>
		<polygon fill="#FAAF40" points="418.303,666.41 421.559,740.748 354.362,740.748 295.82,740.748 298.592,682.308 303.284,583.429 
			414.669,583.429 		"/>
		<g>
			<g>
				<defs>
					<polygon id="SVGID_1_" points="160.182,50.491 29.933,414.65 343.88,414.65 467.503,50.6 					"/>
				</defs>
				<use xlink:href="#SVGID_1_"  overflow="visible" fill="#2F3C5E"/>
				<clipPath id="SVGID_2_">
					<use xlink:href="#SVGID_1_"  overflow="visible"/>
				</clipPath>
			</g>
			<g>
				<defs>
					<polygon id="SVGID_3_" points="160.182,50.491 29.933,414.65 343.88,414.65 467.503,50.6 					"/>
				</defs>
				<clipPath id="SVGID_4_">
					<use xlink:href="#SVGID_3_"  overflow="visible"/>
				</clipPath>
				<g clip-path="url(#SVGID_4_)">
					<ellipse cx="411.195" cy="236.598" rx="246.502" ry="124.734"/>
					<ellipse fill="#6276B7" cx="411.195" cy="236.896" rx="235.216" ry="114.934"/>
					<g opacity="0.3">
						<path d="M324.53,209.381c13.214,0,18.347,4.788,18.347,17.093c0,10.526-10.811,21.237-21.418,21.237h-21.861l7.779-38.33
							H324.53z"/>
						<path d="M380.396,194.975l-2.485,12.285c-2.626-9.983-7.799-17.56-15.497-22.689L380.396,194.975z"/>
						<path d="M444.769,209.906c0.83,0.951,0.707,2.667,0.545,3.778c0,0.143-0.039,0.265-0.059,0.404l-0.062,0.203l-0.02,0.121
							l-0.061,0.262l-0.041,0.182l-3.17,15.639l-26.329-15.192l1.454-7.113h21.237C441.454,208.189,443.839,208.817,444.769,209.906
							z"/>
						<path d="M490.917,180.892l-6.344,31.257l-0.162-0.021c1.615-17.821-7.639-30.772-25.561-35.156
							c-4.746-1.192-10.244-1.798-16.324-1.798l-18.81-0.02l5.232-25.824l1.373-6.847l61.22,35.358L490.917,180.892z"/>
						<path d="M546.622,209.665c9.516,1.172,13.334,6.201,13.334,16.81c0,10.526-10.809,21.237-21.416,21.237h-21.861l7.758-38.33
							h17.174C543.429,209.381,545.106,209.461,546.622,209.665z"/>
						<path d="M363.324,279.187h7.01h27.601h4.687l0.93-4.585l10.203-50.33l1.819-8.97l26.329,15.192l-3.961,19.477l-4.526,22.367
							l-1.395,6.849h7.013h27.598h4.363l-5.475,26.995l-1.393,6.871h7.01h27.621h4.688l0.93-4.608l5.676-28.044h30.732
							c28.914,0,56.23-27.195,56.23-55.925c0-19.984-6.648-33.804-19.801-41.361l67.219,38.814c1.314,4.91,1.982,9.901,1.982,14.972
							c0,63.463-105.309,114.924-235.225,114.924c-49.058,0-94.618-7.335-132.32-19.921l-32.024-18.508l0.201-0.342h7.012h27.62
							h4.687l0.93-4.608l5.678-28.063h30.731c16.952,0,33.358-9.335,44.025-22.872l-3.01,14.829L363.324,279.187z"/>
						<path d="M496.534,176.305h49.965c12.566,0,22.812,2.263,30.713,6.809c13.152,7.558,19.801,21.377,19.801,41.361
							c0,28.73-27.316,55.925-56.23,55.925H510.05l-5.676,28.044l-0.93,4.608h-4.688h-27.621h-7.01l1.393-6.871l5.475-26.995h0.324
							l0.93-4.585l4.83-23.779l6.668-32.914l1.15-5.699l-0.322-0.061l6.344-31.257l0.625-3.05l0.305-1.537H496.534z
							 M546.622,209.665c-1.516-0.203-3.193-0.283-5.012-0.283h-17.174l-7.758,38.33h21.861c10.607,0,21.416-10.711,21.416-21.237
							C559.956,215.866,556.138,210.836,546.622,209.665z"/>
						<path d="M484.573,212.149l-7.576,37.379l-0.225,1.111l-34.871-20.145l3.17-15.639l0.041-0.182l0.061-0.262l0.02-0.121
							l0.062-0.203c0.02-0.14,0.059-0.262,0.059-0.404c0.162-1.111,0.285-2.827-0.545-3.778c-0.93-1.089-3.314-1.717-6.504-1.717
							h-21.237l-1.454,7.113l-35.177-20.327l9.719-47.906l0.93-4.585h4.688h27.6h6.99l-1.373,6.847l-5.232,25.824l18.81,0.02
							c6.08,0,11.578,0.605,16.324,1.798c17.922,4.384,27.176,17.335,25.561,35.156L484.573,212.149z"/>
						<polygon points="476.772,250.639 470.993,279.187 466.63,279.187 439.032,279.187 432.019,279.187 433.414,272.338 
							437.94,249.971 441.901,230.495 						"/>
						<path d="M377.911,207.26c1.354,5.111,2.021,10.849,2.021,17.215c0,11.88-4.667,23.498-12.204,33.034L377.911,207.26z"/>
						<path d="M362.414,184.571c7.698,5.13,12.871,12.706,15.497,22.689l-10.184,50.249c-10.667,13.537-27.073,22.872-44.025,22.872
							H292.97l-5.678,28.063l-0.93,4.608h-4.687h-27.62h-7.012l1.395-6.871l11.477-56.654l13.921-68.615l0.93-4.586h4.688h49.966
							C343.22,176.327,354.251,179.093,362.414,184.571z M342.876,226.474c0-12.305-5.133-17.093-18.347-17.093h-17.153
							l-7.779,38.33h21.861C332.066,247.711,342.876,237,342.876,226.474z"/>
						<path d="M367.727,257.509c7.537-9.536,12.204-21.154,12.204-33.034c0-6.366-0.666-12.104-2.021-17.215l2.485-12.285
							l35.177,20.327l-1.819,8.97l-10.203,50.33l-0.93,4.585h-4.687h-27.601h-7.01l1.394-6.849L367.727,257.509z"/>
					</g>
					<g>
						<g opacity="0.2">
							<path d="M288.93,318.614h-4.687h-27.619h-7.004l1.389-6.866l11.476-56.654l13.924-68.615l0.932-4.59h4.683h49.964
								c33.525,0,50.521,16.203,50.521,48.157c0,28.741-27.332,55.915-56.24,55.915h-30.732l-5.678,28.059L288.93,318.614
								L288.93,318.614z M302.163,253.289h21.863c10.614,0,21.43-10.721,21.43-21.244c0-12.294-5.146-17.085-18.354-17.085H309.94
								L302.163,253.289L302.163,253.289z"/>
							<path d="M473.882,284.77h-4.684h-27.596h-7.004l1.389-6.865l4.522-22.365l7.135-35.119l0.031-0.163l0.072-0.273l0.023-0.114
								l0.047-0.217c0.027-0.135,0.059-0.26,0.07-0.395c0.166-1.115,0.281-2.825-0.539-3.779c-0.939-1.085-3.312-1.708-6.516-1.708
								H419.59l-3.268,16.079l-10.205,50.328l-0.931,4.592h-4.685h-27.6h-7.006l1.393-6.865l25.396-125.266l0.932-4.595h4.685
								h27.603h7.001l-1.389,6.867l-5.222,25.813l18.812,0.03c6.066,0,11.562,0.604,16.322,1.792
								c17.908,4.38,27.17,17.324,25.547,35.146l0.486,0.094l-1.152,5.693l-11.496,56.698L473.882,284.77L473.882,284.77z"/>
							<path d="M506.009,318.614h-4.684h-27.619h-7.002l1.389-6.864l11.477-56.656l13.918-68.622l0.932-4.585h4.682h49.971
								c33.523,0,50.52,16.203,50.52,48.156c0,28.742-27.332,55.919-56.242,55.919h-30.732l-5.676,28.057L506.009,318.614
								L506.009,318.614z M519.241,253.289h21.869c10.613,0,21.43-10.722,21.43-21.246c0-12.294-5.15-17.085-18.363-17.085h-17.162
								L519.241,253.289L519.241,253.289z"/>
						</g>
						<g>
							<path fill="#FFFFFF" d="M286.358,313.042h-4.687h-27.619h-7.004l1.39-6.866l11.476-56.654l13.923-68.615l0.933-4.59h4.683
								h49.964c33.524,0,50.521,16.204,50.521,48.158c0,28.74-27.332,55.914-56.239,55.914h-30.732l-5.678,28.061L286.358,313.042
								L286.358,313.042z M299.59,247.718h21.863c10.615,0,21.43-10.722,21.43-21.244c0-12.295-5.146-17.085-18.354-17.085h-17.161
								L299.59,247.718L299.59,247.718z"/>
							<path fill="#FFFFFF" d="M471.31,279.196h-4.682h-27.599h-7.002l1.387-6.863l4.524-22.365l7.133-35.12l0.033-0.164l0.07-0.271
								l0.021-0.115l0.051-0.217c0.025-0.134,0.059-0.261,0.07-0.395c0.164-1.114,0.279-2.826-0.541-3.776
								c-0.938-1.087-3.312-1.713-6.515-1.713h-21.242l-3.27,16.081l-10.205,50.327l-0.932,4.591h-4.684h-27.598h-7.007l1.393-6.863
								l25.396-125.268l0.932-4.593h4.684h27.603h7l-1.387,6.866l-5.222,25.814l18.811,0.029c6.066,0,11.564,0.604,16.322,1.793
								c17.908,4.379,27.17,17.323,25.549,35.146l0.486,0.092l-1.152,5.695l-11.498,56.696L471.31,279.196L471.31,279.196z"/>
							<path fill="#FFFFFF" d="M503.438,313.042h-4.684h-27.621h-7.002l1.389-6.864l11.477-56.656l13.918-68.621l0.934-4.586h4.68
								h49.969c33.523,0,50.521,16.203,50.521,48.156c0,28.742-27.332,55.919-56.24,55.919h-30.734l-5.676,28.059L503.438,313.042
								L503.438,313.042z M516.669,247.718h21.869c10.613,0,21.428-10.724,21.428-21.246c0-12.294-5.148-17.086-18.359-17.086
								h-17.162L516.669,247.718L516.669,247.718z"/>
						</g>
						<g opacity="0.25">
							<path d="M332.125,184.596h-49.967l-13.921,68.615l-11.476,56.654h27.619l6.607-32.65h35.419
								c25.56,0,50.512-24.61,50.512-50.189C376.919,194.032,357.706,184.596,332.125,184.596z M324.165,255.999h-28.872
								l10.103-49.784h21.841c13.76,0,24.085,5.071,24.085,22.812C351.321,242.766,337.924,255.999,324.165,255.999z"/>
							<path d="M460.183,185.08c-4.223-1.049-9.172-1.614-14.949-1.614l-25.803-0.041l6.607-32.671h-27.6l-25.397,125.269h27.6
								l10.203-50.329l4.202-20.669h25.924c11.07,0,13.637,5.919,12.748,11.88c-0.041,0.324-0.102,0.626-0.162,0.949
								c-0.039,0.242-0.102,0.464-0.162,0.688l-7.131,35.114l-4.525,22.368h27.6l11.293-56.734
								C483.642,204.902,479.903,189.91,460.183,185.08z"/>
							<path d="M549.206,184.596h-49.967l-13.92,68.615l-11.479,56.654h27.621l6.607-32.65h35.42
								c25.557,0,50.512-24.61,50.512-50.189C594.001,194.032,574.765,184.596,549.206,184.596z M541.245,255.999h-28.873
								l10.104-49.784h21.84c13.76,0,24.086,5.071,24.086,22.812C568.401,242.766,554.983,255.999,541.245,255.999z"/>
						</g>
						<g>
							<path d="M329.417,182.043H279.45l-13.921,68.614l-11.477,56.654h27.62l6.607-32.65h35.418
								c25.561,0,50.513-24.608,50.513-50.188C374.21,191.478,354.996,182.043,329.417,182.043z M321.456,253.445h-28.872
								l10.102-49.783h21.842c13.76,0,24.084,5.071,24.084,22.812C348.611,240.212,335.215,253.445,321.456,253.445z"/>
							<path d="M457.474,182.526c-4.223-1.049-9.172-1.613-14.949-1.613l-25.803-0.042l6.607-32.671h-27.6l-25.397,125.269h27.6
								l10.203-50.33l4.203-20.668h25.923c11.071,0,13.637,5.918,12.749,11.88c-0.039,0.323-0.102,0.625-0.162,0.949
								c-0.039,0.243-0.102,0.464-0.162,0.687l-7.131,35.115l-4.526,22.367h27.6l11.293-56.734
								C480.933,202.348,477.192,187.357,457.474,182.526z"/>
							<path d="M546.497,182.043H496.53l-13.92,68.614l-11.479,56.654h27.621l6.607-32.65h35.42
								c25.557,0,50.512-24.608,50.512-50.188C591.292,191.478,572.056,182.043,546.497,182.043z M538.536,253.445h-28.873
								l10.104-49.783h21.84c13.76,0,24.086,5.071,24.086,22.812C565.692,240.212,552.274,253.445,538.536,253.445z"/>
						</g>
					</g>
				</g>
			</g>
			<polygon opacity="0.3" points="467.505,50.6 343.883,414.65 300.947,414.65 424.569,50.6 			"/>
			<polygon points="332.233,384.662 343.823,414.65 364.661,353.908 			"/>
			<polygon fill="#44527F" points="332.291,384.662 707.413,384.662 832.511,23.354 454.655,23.354 			"/>
		</g>
		<g>
			
				<ellipse transform="matrix(0.8341 0.5516 -0.5516 0.8341 466.9119 -32.2341)" fill="#FAAF40" cx="287.047" cy="760.147" rx="70.801" ry="72.539"/>
			<path fill="#FAAF40" d="M118.621,816.927c16.247,9.309,100.114,39.859,180.649-6.469c-24.211-35.871-9.433-45.754,0.045-85.215
				c-39.704-22.418-107.118-21.016-144.174,24.908c0,0-14.007,24.359-14.461,41.82C140.226,809.435,118.621,816.927,118.621,816.927
				z"/>
			<g>
				<path fill="#FAAF40" d="M125.09,820.873c0,0-31.493-12.514-48.181-51.627c-19.872-46.58,12.546-154.609,58.21-170.062
					c-22.853,8.789-27.336,30.539-18.579,53.355c5.454,14.121,6.9,21.838,20.67,25.135c-0.062,0.016,1.381,1.502,2.935,1.373
					c-14.883,4.811-13.167,28.848,4.441,44.33c26.928,22.012,23.011,33.633,26.296,44.934
					C171.642,781.787,157.342,837.886,125.09,820.873z"/>
				<path fill="#FAAF40" d="M192.277,624.582c-8.779-22.803-34.355-34.172-57.157-25.398c-22.853,8.789-34.22,34.359-25.464,57.176
					c5.455,14.121,17.351,23.906,31.119,27.205l0.052-0.027c8.354,2.016,17.403,1.592,26.067-1.752
					C189.689,673.013,201.042,647.378,192.277,624.582z"/>
			</g>
		</g>
		<path fill="#4A993F" d="M327.066,699.636c-27.921-18.459-64.421-14.07-88.21,8.531c-9.2,0.629-20.5,2.51-32.49,7.039
			c-0.01,0.34-0.01,0.689-0.021,1.051c-0.33,21.971,6.681,80.541,17.58,118.199c0.46,1.6,0.931,3.16,1.41,4.67
			c9.31-0.15,26.25-3.119,42.55-9.18c28.721,7.439,60.57-4.061,78.221-30.748C368.206,765.789,359.675,721.207,327.066,699.636z"/>
		<path fill="#3F59A4" d="M206.345,716.257c-0.33,21.971,6.681,80.541,17.58,118.199c-37,3.65-69.391-3.689-88.84-10.469
			c-3.12-0.262-6.45-1.24-9.99-3.111c0,0-31.5-12.52-48.19-51.629c-9.779-22.93-6.89-60.76,4.021-95.102
			c13.87,0.98,35.359,6.16,50.01,14.561c-2.93,9.701,1.69,24.16,13.65,34.67c8.829,7.221,14.329,13.311,17.869,18.65
			C175.085,729.466,190.295,721.087,206.345,716.257z"/>
		<g id="XMLID_11_">
			<path fill="#FAAF40" d="M475.892,949.675c-4.539-7.699-0.031-41.125-0.031-41.125c0-3.82,0.48-7.32,1.352-10.609
				c8.26-30.971,37.184-48.488,39.043-118.098c-2.221-74.041-50.264-127.082-126.724-127.082c-12.85,0-25.31,1.68-37.14,4.82
				c-59.86,15.889-103.86,69.27-103.86,132.68c0,1.82,0.04,3.631,0.101,5.43c0.53,13.191,2.96,25.9,7.04,37.891
				c0,0.02,0.01,0.039,0.029,0.068c4.801,12.951,11.631,24.932,19.03,36.471c20.15,31.381,44.601,59.461,44.601,94.891
				c0,0,0,5.98,0,12.449v112.635h81.52v-98.65l-0.13-0.17l-0.08-0.09h0.25l-0.04,0.021v0.238l55.246,104.211l85.266-5.561
				C541.362,1090.095,477.425,952.279,475.892,949.675z"/>
			<g>
				<path d="M400.851,1090.095v87.041h-145.4c0-59.781,55-63.99,63.881-64.23v-22.811H400.851z"/>
				<path d="M554.286,1116.275c-1.17-0.059-2.34-0.09-3.52-0.09c-23.91,0-44.939,12.311-57.1,30.941
					c-5.76,8.799-9.529,19.02-10.68,30.01h135.561C615.067,1144.037,587.897,1117.986,554.286,1116.275z"/>
				<polygon points="528.778,1062.826 563.097,1130.095 494.069,1170.46 452.587,1088.83 				"/>
			</g>
		</g>
		<g>
			
				<line fill="none" stroke="#000000" stroke-width="10" stroke-linecap="round" x1="702.581" y1="398.51" x2="833.132" y2="22.78"/>
			<ellipse cx="836.975" cy="10.149" rx="10.403" ry="10.149"/>
		</g>
		<g>
			<ellipse fill="#FAAF40" cx="486.911" cy="709.816" rx="73.916" ry="75.732"/>
			<g>
				<circle fill="#FAAF40" cx="686.904" cy="430.675" r="48.52"/>
				<path fill="#FAAF40" d="M688.433,618.972c0,0,11.381-13.291,12.457-65.886c1.078-52.595,12.133-79.522,21.469-88.977
					c0,0-64.709,5.571-60.967,7.854c7.287,4.441,9.707,17.949-4.031,33.845c-8.42,9.748-58.514,58.076-51.834,113.943
					C608.536,644.939,650.146,675.451,688.433,618.972z"/>
			</g>
			<path fill="#FAAF40" d="M602.562,726.914c31.738-20.641,56.211-44.977,79.748-100.664c7.881-18.642-17.627-54.04-64.928-48.267
				c0,0-80.924,8.804-108.35,74.429s22.053,116.705,22.053,116.705S559.62,754.843,602.562,726.914z"/>
		</g>
		<g>
			<path opacity="0.2" d="M416.254,621.095c0,0-28.5,55.666-88.666,55.666c-7.841,0-28.501-7.5-27-39L416.254,621.095z"/>
			<g>
				<path fill="#4D4D4D" d="M282.744,483.613c-5.229,5.229-10.258,11.667-10.258,19.913s4.224,8.246,4.224,8.246l14.482-29.567
					L282.744,483.613z"/>
				<path fill="#FAAF40" d="M421.064,504.552c-11.205-41.767-39.82-58.514-76.567-56.2c-37.749,2.384-67.265,32.093-70.564,68.645
					c-0.031,0.275-0.019,0.545-0.034,0.812c0,0-4.189,54.577-3.861,58.83c5.218,67.789,32.762,84.363,78.218,81.457
					c45.446-2.922,89.276-46.562,86.365-92.002C434.442,563.313,421.064,504.552,421.064,504.552z"/>
				<path d="M336.501,517.417c-1.315-0.959-1.596-2.811-0.598-4.123l0,0c2.789-3.74,6.886-5.698,10.857-6.795l0,0
					c7.977-2.146,16.046-1.023,16.241-1.023l0,0c1.598,0.216,2.729,1.688,2.519,3.304l0,0c-0.206,1.611-1.696,2.743-3.278,2.535l0,0
					c-0.023,0.029-1.9-0.221-4.588-0.228l0,0c-2.673-0.019-6.136,0.188-9.341,1.078l0,0c-3.254,0.888-6.062,2.4-7.709,4.645l0,0
					c-0.409,0.547-0.958,0.919-1.58,1.082l0,0C338.187,518.117,337.251,517.966,336.501,517.417L336.501,517.417z"/>
				<path d="M270.789,514.667c-0.77-1.432-0.242-3.218,1.223-3.988l0,0c4.132-2.171,8.666-2.193,12.731-1.479l0,0
					c8.117,1.47,14.94,5.95,15.104,6.027l0,0c1.358,0.888,1.742,2.697,0.867,4.059l0,0c-0.873,1.373-2.705,1.76-4.048,0.895l0,0
					c-0.034,0.008-1.627-1.008-4.051-2.182l0,0c-2.399-1.148-5.633-2.443-8.91-3.012l0,0c-3.312-0.597-6.509-0.421-8.942,0.885l0,0
					c-0.606,0.328-1.264,0.419-1.898,0.311l0,0C272.007,516.021,271.228,515.492,270.789,514.667L270.789,514.667z"/>
				<path fill="#FAAF40" d="M419.963,529.631c3.004-7.631,11.575-9.259,15.932-4.693c8.024,8.422,14.803,29.217-4.092,37.026"/>
				<path fill="#4D4D4D" d="M425.544,523.543c1.086-7.286,1.509-21.179-2.601-35.94c-8.291-29.783-30.367-27.748-30.367-27.748
					l-28.573,15.108c0,0,19.632,16.721,32.694,32.194c6.204,7.347,14.24,22.445,16.383,36.393L425.544,523.543z"/>
				<path d="M359.263,535.812c0.296,5.144-3.405,9.54-8.276,9.823c-4.872,0.283-9.061-3.658-9.361-8.802
					c-0.297-5.148,3.404-9.546,8.274-9.833C354.773,526.722,358.962,530.663,359.263,535.812z"/>
				<path d="M291.993,539.665c0.3,5.145-3.406,9.546-8.277,9.826c-4.865,0.279-9.055-3.66-9.356-8.803
					c-0.301-5.146,3.406-9.546,8.276-9.825C287.506,530.575,291.697,534.517,291.993,539.665z"/>
				<path d="M317.745,489.65c0,0,2.707-32.963,49.679-44.455c18.906-4.626,46.237-5.298,54.911,38.419
					c0,0-28.16,23.131-44.452,29.769c0,0-6.114-25.505-23.937-30.173C328.602,476.572,317.745,489.65,317.745,489.65z"/>
				<path d="M352.337,441.575c-15.688-7.845-31.779-5.229-54.91,10.66c-21.212,14.571-29.165,42.644-26.952,51.493
					c2.212,8.85,4.826,7.642,4.826,7.642c-1.609-3.219-4.225-18.706,11.867-25.746c12.361-5.408,25.546,4.829,25.546,4.829
					s6.436-32.586,48.474-41.637C361.188,448.816,356.266,443.54,352.337,441.575z"/>
			</g>
			<g>
				<g opacity="0.2">
					<g>
						<path d="M278.545,604.476c1.378-1.658,2.646-3.348,3.782-4.9c4.429-6.041,11.941-16.826,24.105-17.415
							c12.161-0.596,15.416,6.854,16.214,9.351c0.815,2.5,1.732,9.248-3.338,14.974c-2.111,2.384-21.484,14.913-37.847,19.685
							c-0.032,0.01-0.097,0.029-0.097,0.029s-3.467-6.582-2.927-9.543c0.558-3.055,5.103-2.532,3.703-5.2
							C280.033,607.437,278.545,604.476,278.545,604.476z"/>
						<path d="M374.627,598.071c0.666-3.664,5.13-6.351,9.113-4.857c3.702,1.386,7.064,11.59-3.693,12.936
							c-7.18,0.902-14.605-6.331-19.787-11.734c-5.186-5.406-14.048-15.105-26.187-14.085c-12.122,1.014-14.374,8.826-14.847,11.409
							c-0.461,2.583-1.303,8.277,5.287,14.4c3.41,3.172,31.284,18.394,57.435,11.659c23.369-6.017,13.585-31.518,2.903-31.258
							C373.092,586.826,374.627,598.071,374.627,598.071z"/>
					</g>
				</g>
				<g>
					<path d="M268.837,601.22c-1.146-3.544-5.917-5.614-9.669-3.613c-3.496,1.866-5.479,12.424,5.368,12.336
						c7.228-0.054,13.631-8.203,18.06-14.242c4.428-6.041,11.94-16.825,24.105-17.416c12.16-0.597,15.415,6.854,16.213,9.353
						c0.816,2.5-0.374,11.38-3.339,14.972c-2.946,3.609-28.575,22.357-55.396,19.131c-23.959-2.875-17.624-29.443-6.994-30.598
						C268.875,589.871,268.837,601.22,268.837,601.22z"/>
					<path d="M374.895,594.196c0.666-3.664,5.131-6.352,9.113-4.86c3.702,1.389,7.065,11.592-3.692,12.938
						c-7.18,0.901-14.605-6.333-19.787-11.735c-5.186-5.405-14.049-15.105-26.188-14.086c-12.122,1.013-14.374,8.828-14.846,11.41
						c-0.461,2.584,1.881,11.229,5.285,14.401c3.397,3.187,31.286,18.394,57.436,11.658c23.37-6.015,13.586-31.518,2.904-31.258
						C373.36,582.952,374.895,594.196,374.895,594.196z"/>
				</g>
			</g>
		</g>
		<g>
			<path fill="none" stroke="#000000" stroke-width="7" d="M306.85,534.688c-0.199-4.474,4.1-8.015,10.205-8.104
				c6.668-0.095,11.294,2.419,11.195,7.918"/>
			<circle opacity="0.3" fill="#FFFFFF" cx="280.734" cy="543.214" r="28.306"/>
			<circle opacity="0.3" fill="#FFFFFF" cx="358.707" cy="541.258" r="30.742"/>
			<g id="XMLID_6_" opacity="0.6">
				<path fill="#FFFFFF" d="M363.431,519.172c10.094,2.222,17.639,11.22,17.639,21.978c0,8.446-4.647,15.797-11.526,19.656
					c4.894-4.688,7.943-11.303,7.943-18.632C377.487,532.142,371.775,523.45,363.431,519.172z"/>
			</g>
			<g id="XMLID_10_" opacity="0.6">
				<path fill="#FFFFFF" d="M285.074,524.244c8.99,1.979,15.711,9.993,15.711,19.575c0,7.522-4.14,14.069-10.268,17.506
					c4.358-4.175,7.075-10.064,7.075-16.594C297.592,535.795,292.505,528.055,285.074,524.244z"/>
			</g>
			<path fill="none" stroke="#4F2C19" stroke-width="7" d="M306.85,530.776c-0.199-4.475,4.1-8.017,10.205-8.105
				c6.668-0.095,11.294,2.42,11.195,7.919"/>
			<circle fill="none" stroke="#000000" stroke-width="7" cx="358.341" cy="542.018" r="29.54"/>
			<circle fill="none" stroke="#4F2C19" stroke-width="7" cx="358.341" cy="542.018" r="32.378"/>
			<circle fill="none" stroke="#000000" stroke-width="7" cx="280.992" cy="543.592" r="26.572"/>
			<circle fill="none" stroke="#4F2C19" stroke-width="7" cx="280.991" cy="543.592" r="29.005"/>
			<path fill="none" stroke="#4F2C19" stroke-width="7" d="M387.709,525.615c0,0,15.692-8.999,34.382,3.446"/>
			<circle opacity="0.5" fill="#FFFFFF" cx="369.058" cy="530.119" r="3.763"/>
			<circle opacity="0.2" fill="#FFFFFF" cx="365.786" cy="533.245" r="9.656"/>
			<circle opacity="0.2" fill="#FFFFFF" cx="289.465" cy="532.516" r="6.918"/>
			<circle opacity="0.5" fill="#FFFFFF" cx="291.188" cy="530.93" r="3.44"/>
		</g>
		<path d="M334.152,619.31c0,6.555-5.312,11.865-11.865,11.865s-11.865-5.311-11.865-11.865
			C310.421,612.757,334.152,612.757,334.152,619.31z"/>
		<g>
			<g id="XMLID_13_">
				<g>
					<path fill="#554A1D" d="M585.911,737.523c-0.24,1.461-2.83,4.09-6.92,7.439c-0.539-0.709-1.07-1.43-1.59-2.18
						C580.142,741.113,582.972,739.363,585.911,737.523z"/>
					<path fill="#3F59A4" d="M667.202,485.693c-0.5,5.72-3.381,12.65-9.84,20.12c-6.291,7.27-35.791,36.04-47.58,73.399
						c-15.541,3.021-51.721,12.62-78.301,39.6c0.971,7.561,4.25,22.1,9.27,39.131c5.08,17.27,11.951,37.1,20.01,54.82
						c5.121,11.26,10.711,21.67,16.641,30.02c2.74-1.67,5.57-3.42,8.51-5.26c5.26-3.281,10.82-6.82,16.65-10.611
						c31.35-20.389,55.609-44.369,78.881-98.619c2.34-2.801,4.67-5.9,6.988-9.32c0,0,11.381-13.289,12.461-65.89
						c0.52-25.139,3.311-44.419,7.109-58.729C693.831,494.554,678.681,492.163,667.202,485.693z"/>
					<path fill="#51A847" d="M515.571,786.132c-2.74-1.1-5.41-2.289-8.02-3.578c-53.461-26.111-78.121-86.662-74.741-123.371
						c-0.229-0.08-0.45-0.16-0.68-0.221c-1.311-0.42-2.63-0.801-3.97-1.17c-42.24,69.68-120.9,58.4-137.341,34.289
						c-26.1,24.951-42.29,59.723-42.29,98.182c0,1.82,0.04,3.631,0.101,5.43c0.53,13.189,2.96,25.9,7.04,37.889
						c0,0.021,0.01,0.041,0.029,0.07c4.801,12.951,11.631,24.93,19.03,36.471c9.28,14.459,19.49,28.221,27.78,42.33l-0.09,0.049
						c3.359,5.592,6.71,19.191,7.37,32.381c2,0.09,4.34,0.18,6.979,0.24c12.72,0.299,32.48,0.141,55.34-1.58
						c31.61-2.371,69.14-7.721,102.16-18.949c1.791-0.602,3.561-1.23,5.32-1.871v-32.061c10.021-25.939,33.281-45.449,36.41-104.369
						C515.862,786.244,515.712,786.193,515.571,786.132z"/>
					<path fill="#4A993F" d="M577.401,742.783c-5.93-8.35-11.52-18.76-16.641-30.02c-8.059-17.721-14.93-37.551-20.01-54.82
						c-5.02-17.031-8.299-31.57-9.27-39.131c-6.01,6.09-11.52,13.061-16.189,21.051c-8.74-3.721-18.32-5.781-28.381-5.781
						c-21.301,0-40.5,9.23-53.99,24.012c-0.04,0.359-0.08,0.719-0.11,1.09c-3.38,36.709,21.28,97.26,74.741,123.371
						c2.609,1.289,5.279,2.479,8.02,3.578c0.141-0.078,0.291-0.158,0.439-0.25c14.521-8.029,48.352-28.979,62.98-40.92
						C578.452,744.253,577.921,743.533,577.401,742.783z M298.851,684.962c-2.77,2.27-5.45,4.641-8.03,7.119
						c16.44,24.111,95.101,35.391,137.341-34.289c-3.711-1.029-7.521-1.91-11.431-2.631
						C383.021,706.183,312.841,703.902,298.851,684.962z"/>
					<path fill="#554A1D" d="M375.091,966.613c-1.061-2.66-2.18-13.27-2.98-23.07c-22.859,1.721-42.62,1.879-55.34,1.58
						c1.641,6.4,2.561,13.01,2.561,19.891c0,0,0,5.979,0,12.449v135.439h81.52V991.873
						C389.781,972.542,376.761,970.783,375.091,966.613z"/>
					<path fill="#554A1D" d="M528.782,1062.822l-0.07,0.021c-3.721-8.012-8-17.23-12.49-26.881
						c-18.09-38.91-39.451-84.791-40.33-86.291c-2.4-4.078-2.27-15.359-1.621-25.078c-33.02,11.229-70.549,16.578-102.16,18.949
						c0.801,9.801,1.92,20.41,2.98,23.07c1.67,4.17,14.689,5.93,25.76,25.26v-0.43l-0.13-0.17l-0.08-0.09h0.25l-0.04,0.02v0.24
						l38.88,73.33l15.299,28.859l19.74,38.859l75.102-28.32L528.782,1062.822z"/>
				</g>
			</g>
		</g>
		<path fill="#FFFFFF" d="M529.315,713.255c8.012,16.203,18.688,31.904,32.959,43.891c4.332-2.947,8.369-5.795,11.84-8.393
			c-19.414-14.959-32.641-38.998-40.965-62.377c-4.941-13.799-8.195-27.248-10.195-38.115c-1.229-6.633-1.98-12.381-2.375-16.533
			c-1.857,2.59-3.627,5.295-5.287,8.139c-2.668-1.135-5.42-2.096-8.232-2.91c0.473,3.947,1.166,8.592,2.125,13.838
			C512.366,668.037,518.437,691.208,529.315,713.255z"/>
		<path fill="#FFFFFF" d="M506.507,724.345c8.215,17.32,18.969,34.23,33.174,47.453c4.023-2.506,8.164-5.133,12.242-7.781
			c-19.455-16.803-33.107-42.898-41.811-67.791c-5.172-14.693-8.668-28.883-10.85-40.24c-1.877-9.662-2.777-17.479-2.982-21.279
			c-3.07-0.4-6.191-0.629-9.369-0.629c-1.564,0-3.115,0.064-4.656,0.164c0.152,4.869,1.135,13.258,3.258,24.387
			C488.966,676.55,495.425,700.904,506.507,724.345z"/>
		<path fill="#FFFFFF" d="M231.497,708.908c-4.492,0.596-9.325,1.508-14.377,2.852c-0.462,5.172-0.682,10.785-0.687,16.795
			c0.024,31.479,6.015,73.43,16.846,109.971c4.112-0.502,8.831-1.314,13.867-2.451c-10.682-35.389-16.74-77.348-16.713-107.52
			C230.426,721.185,230.796,714.515,231.497,708.908z"/>
		<path fill="#FFFFFF" d="M253.814,697.21c-5.353,2.965-10.396,6.617-14.963,10.957c-0.117,0.008-0.239,0.018-0.358,0.027
			c-0.264,4.1-0.391,8.449-0.396,13.025c0.025,28.602,4.97,65.848,13.995,99.822c-1.924-8.197-3.112-16.668-3.461-25.344
			c-0.061-1.801-0.101-3.621-0.101-5.43c0-13.008,1.858-25.592,5.319-37.52c-1.158-11.297-1.76-22.002-1.751-31.529
			C252.09,711.833,252.695,703.578,253.814,697.21z"/>
		<g>
			<defs>
				<path id="SVGID_5_" d="M319.05,965.011c0-28.9-16.181-52.691-33.301-77.871c-3.729-5.479-7.59-11.16-11.26-16.869
					c-9.04-14.1-14.92-25.359-19.06-36.52l21.315-100.414l59.395-0.803l106.75,147.684l-60.326,67.92L319.05,965.011z"/>
			</defs>
			<clipPath id="SVGID_6_">
				<use xlink:href="#SVGID_5_"  overflow="visible"/>
			</clipPath>
			<g clip-path="url(#SVGID_6_)">
				<path fill="#FFFFFF" d="M263.676,876.935l15.22-0.869c9.633-0.553,12.775-3.027,15.403-11.139l7.229-22.346l46.236-2.643
					l9.725,21.375c3.54,7.758,7.137,9.848,16.769,9.297l15.028-0.859l-1.119-19.568l-3.083,0.178
					c-3.274,0.188-4.854-0.432-6.196-3.539l-46.273-99.406l-26.393,1.508L271.391,852.97c-0.977,3.24-2.477,4.033-5.754,4.221
					l-3.08,0.176L263.676,876.935z M306.218,823.212l9.955-32.053c2.113-7.021,4.329-18.996,4.329-18.996l0.385-0.023
					c0,0,3.564,11.648,6.464,18.379l13.546,30.711L306.218,823.212z"/>
			</g>
		</g>
		<path opacity="0.2" d="M734.31,420.334c-1.326-6.081-3.752-11.636-7.002-16.523c-26.822,18.358-33.531,65.786-36.57,88.361
			c-3.238,24.051-21.275,83.252-49.951,133.205c-28.676,49.951-88.34,69.377-88.34,69.377c-55.5,26.826-87.414,52.729-87.414,52.729
			s8.998,77.098,29.465,114.643c9.629-17.354,19.605-38.92,21.521-76.246c14.523-8.031,48.346-28.977,62.973-40.916
			c-0.539-0.709-1.068-1.428-1.588-2.178c7.654-4.676,16.082-9.967,25.158-15.871c31.334-20.377,55.586-44.379,78.85-98.576
			c2.346-2.814,4.689-5.926,7.021-9.365c0,0,11.381-13.291,12.457-65.886c1.078-52.595,12.133-79.522,21.469-88.977
			c0,0-0.115,0.01-0.314,0.027C732.753,452.869,737.872,436.666,734.31,420.334z M357.154,944.201
			c-34.991-51.568-47.4-162.783-26.531-247.061c0.034-0.137,0.202-31.275,0.641-38.963c0,0-8.949-9.166-9.699-61.416
			c0,0-8.319-76.611-3.819-107.111c3.842-11.764,27.096-33.541,43.808-42.836c-0.602,0.185-1.196,0.373-1.783,0.565
			c-1.747-1.708-4.808-4.492-7.432-5.805c-15.688-7.845-31.779-5.229-54.91,10.66c-21.212,14.571-29.165,42.644-26.952,51.493
			c1.544,6.179,3.283,7.453,4.193,7.66c-0.309,1.851-0.566,3.718-0.736,5.607c-0.031,0.275-0.019,0.545-0.034,0.812
			c0,0-4.189,54.577-3.861,58.83c2.99,38.854,13.323,60.869,30.15,72.049l-1.595,33.621l-0.143,2.988
			c-1.163,0.961-2.309,1.941-3.439,2.938c-0.062,0.055-0.126,0.105-0.188,0.16c-20.14-1.75-40.682,5.252-55.978,19.773
			c-9.198,0.631-20.494,2.512-32.479,7.039c-0.01,0.338-0.01,0.686-0.021,1.043c-16.048,4.832-31.259,13.219-43.889,25.783
			c-3.538-5.34-9.038-11.438-17.87-18.656c-15.33-13.48-18.608-33.438-9.381-41.551c1.814,0.695,3.672,1.285,5.569,1.738
			l0.052-0.027c8.354,2.016,17.403,1.592,26.067-1.752c22.795-8.771,34.147-34.406,25.383-57.203
			c-8.779-22.803-34.355-34.172-57.157-25.398c-2.096,0.807-4.093,1.756-5.989,2.83c1.836-1.053,3.83-2,5.989-2.83
			c-45.664,15.453-78.082,123.482-58.21,170.062c16.688,39.113,48.181,51.627,48.181,51.627c3.546,1.871,6.875,2.855,9.99,3.113
			c19.451,6.787,51.847,14.102,88.84,10.453c0.002,0.006,0.003,0.012,0.005,0.018c0.46,1.6,0.931,3.16,1.41,4.67
			c7.006-0.113,18.333-1.824,30.456-5.246c4.796,12.861,11.584,24.77,18.939,36.24c9.27,14.436,19.443,28.174,27.734,42.25
			c0.016,0.025,0.03,0.055,0.046,0.082l-0.09,0.049c3.359,5.592,6.71,19.191,7.37,32.381c1.998,0.09,4.336,0.18,6.974,0.24
			c1.635,6.404,2.566,13.006,2.566,19.889c0,0,0,5.98,0,12.449v135.445c-8.881,0.24-63.881,4.449-63.881,64.23h145.4V991.828
			C391.131,978.103,375.538,971.294,357.154,944.201z"/>
		<g>
			<g>
				<g>
					<path fill="#999999" d="M255.151,578.083c3.957,3.652,8.472,7.109,13.657,10.284l-14.312,21.385l-6.808,13.942
						c-5.013-3.068-10.086-5.355-15.171-7.033L255.151,578.083z"/>
					
						<ellipse transform="matrix(0.8529 0.5221 -0.5221 0.8529 354.34 -45.5941)" fill="#999999" cx="258.069" cy="605.922" rx="12.657" ry="20.578"/>
				</g>
				<path fill="#A93C3C" d="M181.486,455.807c24.875,15.229,16.138,81.849,77.017,119.12l-18.992,28.378l-9.033,18.5
					c-54.157-33.155-113.663,2.361-142.66-15.391"/>
				
					<ellipse transform="matrix(0.8529 0.5221 -0.5221 0.8529 296.3322 8.5736)" fill="#D64646" cx="132.954" cy="530.082" rx="54.544" ry="88.687"/>
				
					<ellipse transform="matrix(0.8529 0.5221 -0.5221 0.8529 348.289 -39.5128)" fill="#A93C3C" cx="244.253" cy="598.22" rx="16.794" ry="27.307"/>
				
					<ellipse transform="matrix(0.8529 0.5221 -0.5221 0.8529 296.5473 9.6639)" fill="#873030" cx="131.126" cy="531.01" rx="44.451" ry="74.113"/>
				<g>
					<path fill="#666666" d="M141.081,585.475c-8.569-10.091-19.096-19.456-32.628-27.74l22.696-33.913l10.794-22.107
						c13.778,8.436,27.858,13.133,41.819,15.506c0,0-2.62,17.214-13.87,35.681c-14.664,24.073-28.904,32.736-28.904,32.736"/>
					
						<ellipse transform="matrix(-0.8529 -0.5221 0.5221 -0.8529 -44.171 1047.3484)" fill="#808080" cx="125.481" cy="529.898" rx="20.07" ry="32.631"/>
				</g>
				
					<ellipse transform="matrix(0.8529 0.5221 -0.5221 0.8529 294.6071 13.2126)" fill="#333333" cx="123.86" cy="529.341" rx="12.335" ry="20.568"/>
			</g>
			<g opacity="0.2">
				<path d="M259.153,606.007l-0.145-0.146c-4.83-3.66-9.539-7.095-14.097-10.318c-37.185-26.271-64.477-38.172-64.477-38.172
					l-0.179-0.109c-0.258,0.44-0.519,0.867-0.785,1.303c-25.188,41.142-65.886,62.246-91.647,47.848l-0.006,0.009
					c28.998,17.751,88.503-17.775,142.66,15.38l0.011-0.018c3.663,1.984,8.277,1.666,12.951-0.49
					c5.005-2.295,10.055-6.694,14.058-12.64c0.379-0.542,0.728-1.091,1.077-1.662C258.773,606.667,258.972,606.342,259.153,606.007z
					 M141.079,585.478c10.207-7.575,19.979-18.231,27.957-31.264c0.48-0.784,0.952-1.574,1.416-2.369l-25.544-15.638
					c-0.689,1.395-1.46,2.787-2.306,4.169c-6.924,11.31-17.034,18.498-25.655,19.212c-3.097,0.25-6-0.332-8.49-1.856
					c2.379,1.456,4.666,2.95,6.864,4.473C125.625,569.333,134.015,577.156,141.079,585.478z"/>
				<path opacity="0.5" d="M267.858,614.081c-4.144-1.927-10.36-5.428-10.36-5.428c-4.003,5.945-9.053,10.345-14.058,12.64
					c1.422,0.74,2.835,1.537,4.251,2.402l0.007-0.031C253.356,626.718,262.013,622.556,267.858,614.081z M108.457,557.732
					l-0.009-0.006c-9.458-5.79-9.489-22.938-0.08-38.307c0.841-1.373,1.73-2.692,2.659-3.941l-0.08-0.061l-16.264-9.957
					c-0.498,0.774-0.986,1.554-1.467,2.338c-21.377,34.917-21.729,73.604-0.79,86.422c0.725,0.444,1.462,0.849,2.225,1.211
					c12.925,6.353,30.219,2.084,46.428-9.953c-7.063-8.322-15.454-16.145-25.758-23.273
					C113.123,560.682,110.835,559.188,108.457,557.732z M113.119,546.879c0.631,0.387,1.312,0.674,2.031,0.856
					c3.242,0.871,7.209-0.265,10.994-2.942c2.999-2.104,5.89-5.177,8.224-8.988l-21.04-12.88
					C107.41,532.609,107.319,543.33,113.119,546.879z"/>
			</g>
			<g opacity="0.2">
				<path d="M233.953,587.731c-1.566,2.77-3.369,5.617-5.305,8.243c-1.486-0.617-2.969-1.185-4.458-1.721
					c2.128-2.824,4.104-5.918,5.813-8.94c1.354-2.384,2.534-4.733,3.488-6.846c1.205,0.961,2.447,1.921,3.725,2.878
					C236.314,583.337,235.202,585.517,233.953,587.731z"/>
				<path d="M226.166,582.963c-1.889,3.335-4.096,6.768-6.484,9.808c-1.602-0.488-3.206-0.931-4.814-1.329
					c2.721-3.295,5.247-7.153,7.358-10.89c1.661-2.924,3.061-5.784,4.089-8.25c1.16,1.074,2.361,2.138,3.607,3.205
					C228.927,577.783,227.652,580.345,226.166,582.963z"/>
				<path d="M218.387,578.203c-2.382,4.216-5.294,8.589-8.426,12.136c-1.774-0.359-3.548-0.66-5.315-0.934
					c3.648-3.757,7.062-8.796,9.792-13.62c2.156-3.827,3.893-7.525,4.95-10.384c1.113,1.209,2.275,2.413,3.487,3.612
					C221.804,571.664,220.26,574.893,218.387,578.203z"/>
				<path d="M210.6,573.435c-3.145,5.578-7.224,11.418-11.51,15.277c-2.118-0.218-4.229-0.372-6.328-0.485
					c5.131-3.612,10.166-10.59,13.898-17.204c3.128-5.531,5.347-10.821,5.942-13.634c1.096,1.409,2.239,2.836,3.445,4.255
					C215.083,564.619,213.141,568.94,210.6,573.435z"/>
			</g>
			<g>
				<path d="M133.493,670.957c4.799,2.938,10.172,4.105,10.172,4.105l-7.077,11.561c0,0-5.549-1.168-10.982-4.494
					s-7.531-6.84-7.531-6.84s3.801-6.881,6.503-11.285C124.577,664.003,128.701,668.021,133.493,670.957z"/>
				<path d="M178.133,617.281c-1.248,2.039-6.365,1.1-11.486-2.036c-5.122-3.136-8.282-7.263-7.035-9.302
					c1.223-1.996,6.361-1.1,11.483,2.036C176.216,611.114,179.355,615.286,178.133,617.281z"/>
				<path d="M186.397,605.57c-2.566,1.92-4.841,6.12-8.264,11.711c1.222-1.995-1.917-6.167-7.038-9.302
					c-5.122-3.136-10.261-4.032-11.483-2.036c2.312-3.776,2.494-6.361,2.494-6.361l-0.013-0.057
					C169.949,600.391,177.893,602.259,186.397,605.57z"/>
			</g>
			<g opacity="0.2">
				<path d="M259.153,606.007l-0.145-0.146c-4.83-3.66-9.539-7.095-14.097-10.318c-37.185-26.271-64.477-38.172-64.477-38.172
					l-0.179-0.109c-0.258,0.44-0.519,0.867-0.785,1.303c-25.188,41.142-65.886,62.246-91.647,47.848l-0.006,0.009
					c28.998,17.751,88.503-17.775,142.66,15.38l0.011-0.018c3.663,1.984,8.277,1.666,12.951-0.49
					c5.005-2.295,10.055-6.694,14.058-12.64c0.379-0.542,0.728-1.091,1.077-1.662C258.773,606.667,258.972,606.342,259.153,606.007z
					 M141.079,585.478c10.207-7.575,19.979-18.231,27.957-31.264c0.48-0.784,0.952-1.574,1.416-2.369l-25.544-15.638
					c-0.689,1.395-1.46,2.787-2.306,4.169c-6.924,11.31-17.034,18.498-25.655,19.212c-3.097,0.25-6-0.332-8.49-1.856
					c2.379,1.456,4.666,2.95,6.864,4.473C125.625,569.333,134.015,577.156,141.079,585.478z"/>
				<path opacity="0.5" d="M267.858,614.081c-4.144-1.927-10.36-5.428-10.36-5.428c-4.003,5.945-9.053,10.345-14.058,12.64
					c1.422,0.74,2.835,1.537,4.251,2.402l0.007-0.031C253.356,626.718,262.013,622.556,267.858,614.081z M108.457,557.732
					l-0.009-0.006c-9.458-5.79-9.489-22.938-0.08-38.307c0.841-1.373,1.73-2.692,2.659-3.941l-0.08-0.061l-16.264-9.957
					c-0.498,0.774-0.986,1.554-1.467,2.338c-21.377,34.917-21.729,73.604-0.79,86.422c0.725,0.444,1.462,0.849,2.225,1.211
					c12.925,6.353,30.219,2.084,46.428-9.953c-7.063-8.322-15.454-16.145-25.758-23.273
					C113.123,560.682,110.835,559.188,108.457,557.732z M113.119,546.879c0.631,0.387,1.312,0.674,2.031,0.856
					c3.242,0.871,7.209-0.265,10.994-2.942c2.999-2.104,5.89-5.177,8.224-8.988l-21.04-12.88
					C107.41,532.609,107.319,543.33,113.119,546.879z"/>
			</g>
			<g opacity="0.2">
				<path d="M233.953,587.731c-1.566,2.77-3.369,5.617-5.305,8.243c-1.486-0.617-2.969-1.185-4.458-1.721
					c2.128-2.824,4.104-5.918,5.813-8.94c1.354-2.384,2.534-4.733,3.488-6.846c1.205,0.961,2.447,1.921,3.725,2.878
					C236.314,583.337,235.202,585.517,233.953,587.731z"/>
				<path d="M226.166,582.963c-1.889,3.335-4.096,6.768-6.484,9.808c-1.602-0.488-3.206-0.931-4.814-1.329
					c2.721-3.295,5.247-7.153,7.358-10.89c1.661-2.924,3.061-5.784,4.089-8.25c1.16,1.074,2.361,2.138,3.607,3.205
					C228.927,577.783,227.652,580.345,226.166,582.963z"/>
				<path d="M218.387,578.203c-2.382,4.216-5.294,8.589-8.426,12.136c-1.774-0.359-3.548-0.66-5.315-0.934
					c3.648-3.757,7.062-8.796,9.792-13.62c2.156-3.827,3.893-7.525,4.95-10.384c1.113,1.209,2.275,2.413,3.487,3.612
					C221.804,571.664,220.26,574.893,218.387,578.203z"/>
				<path d="M210.6,573.435c-3.145,5.578-7.224,11.418-11.51,15.277c-2.118-0.218-4.229-0.372-6.328-0.485
					c5.131-3.612,10.166-10.59,13.898-17.204c3.128-5.531,5.347-10.821,5.942-13.634c1.096,1.409,2.239,2.836,3.445,4.255
					C215.083,564.619,213.141,568.94,210.6,573.435z"/>
			</g>
		</g>
		
			<line fill="none" stroke="#000000" stroke-width="10" stroke-linecap="round" x1="684.921" y1="448.059" x2="593.511" y2="710.093"/>
		<g opacity="0.2">
			<path d="M319.036,957.951c12.739,0.23,31.53-0.004,53.075-1.627c31.499-2.361,68.876-7.682,101.812-18.832
				c0,0-0.127-2.496-0.002-5.297s0.35-7.602,0.35-7.602c-33.02,11.229-70.549,16.578-102.16,18.949
				c-22.859,1.721-42.62,1.879-55.34,1.58c0,0,1.579,6.676,1.891,9.539C318.972,957.525,319.036,957.951,319.036,957.951z"/>
			<path d="M538.847,612.507c14.02,57.885,29.959,108.361,49.619,123.238l-11.164,7.146c0,0-20.135-28.389-33.338-73.775
				s-12.543-50.172-12.543-50.172L538.847,612.507z"/>
			<path d="M199.517,718.462c0,0-0.66,61.727,16.339,116.191l8.087-0.166c0,0-15.019-42.248-17.824-118.17L199.517,718.462z"/>
		</g>
	</g>
	<g>
		<defs>
			<polygon id="SVGID_7_" points="332.291,384.662 707.413,384.662 832.511,23.354 454.655,23.354 			"/>
		</defs>
		<clipPath id="SVGID_8_">
			<use xlink:href="#SVGID_7_"  overflow="visible"/>
		</clipPath>
		<g clip-path="url(#SVGID_8_)">
			<ellipse cx="417.195" cy="204.598" rx="246.502" ry="124.734"/>
			<ellipse fill="#6276B7" cx="417.195" cy="204.896" rx="235.216" ry="114.934"/>
			<g opacity="0.3">
				<path d="M330.53,177.381c13.214,0,18.347,4.788,18.347,17.093c0,10.526-10.811,21.237-21.418,21.237h-21.861l7.779-38.33H330.53
					z"/>
				<path d="M386.396,162.975l-2.485,12.285c-2.626-9.983-7.799-17.56-15.497-22.689L386.396,162.975z"/>
				<path d="M450.769,177.906c0.83,0.951,0.707,2.667,0.545,3.778c0,0.143-0.039,0.265-0.059,0.404l-0.062,0.203l-0.02,0.121
					l-0.061,0.262l-0.041,0.182l-3.17,15.639l-26.329-15.192l1.454-7.113h21.238C447.454,176.189,449.839,176.817,450.769,177.906z"
					/>
				<path d="M496.917,148.892l-6.344,31.257l-0.162-0.021c1.615-17.821-7.637-30.772-25.561-35.156
					c-4.746-1.192-10.244-1.798-16.324-1.798l-18.81-0.02l5.232-25.824l1.373-6.847l61.22,35.358L496.917,148.892z"/>
				<path d="M552.622,177.665c9.516,1.172,13.334,6.201,13.334,16.81c0,10.526-10.809,21.237-21.416,21.237h-21.861l7.758-38.33
					h17.174C549.429,177.381,551.106,177.461,552.622,177.665z"/>
				<path d="M369.324,247.188h7.01h27.601h4.687l0.93-4.586l10.203-50.33l1.819-8.97l26.329,15.192l-3.961,19.477l-4.527,22.367
					l-1.394,6.85h7.013h27.598h4.363l-5.475,26.994l-1.393,6.871h7.01h27.621h4.688l0.93-4.608l5.676-28.043h30.732
					c28.914,0,56.23-27.195,56.23-55.926c0-19.984-6.648-33.804-19.801-41.361l67.219,38.814c1.314,4.91,1.982,9.901,1.982,14.972
					c0,63.463-105.309,114.924-235.225,114.924c-49.058,0-94.618-7.335-132.32-19.921l-32.024-18.508l0.201-0.342h7.012h27.62h4.687
					l0.93-4.608l5.678-28.063h30.731c16.952,0,33.358-9.335,44.025-22.872l-3.01,14.829L369.324,247.188z"/>
				<path d="M502.534,144.305h49.965c12.566,0,22.812,2.263,30.713,6.809c13.152,7.558,19.801,21.377,19.801,41.361
					c0,28.73-27.316,55.926-56.23,55.926H516.05l-5.676,28.043l-0.93,4.608h-4.688h-27.621h-7.01l1.393-6.871l5.475-26.994h0.324
					l0.93-4.586l4.83-23.779l6.668-32.914l1.15-5.699l-0.322-0.061l6.344-31.257l0.625-3.05l0.305-1.537H502.534z M552.622,177.665
					c-1.516-0.203-3.193-0.283-5.012-0.283h-17.174l-7.758,38.33h21.861c10.607,0,21.416-10.711,21.416-21.237
					C565.956,183.866,562.138,178.836,552.622,177.665z"/>
				<path d="M490.573,180.149l-7.576,37.379l-0.223,1.111l-34.873-20.145l3.17-15.639l0.041-0.182l0.061-0.262l0.02-0.121
					l0.062-0.203c0.02-0.14,0.059-0.262,0.059-0.404c0.162-1.111,0.285-2.827-0.545-3.778c-0.93-1.089-3.314-1.717-6.504-1.717
					h-21.238l-1.454,7.113l-35.177-20.327l9.719-47.906l0.93-4.585h4.688h27.6h6.99l-1.373,6.847l-5.232,25.824l18.81,0.02
					c6.08,0,11.578,0.605,16.324,1.798c17.924,4.384,27.176,17.335,25.561,35.156L490.573,180.149z"/>
				<polygon points="482.774,218.639 476.993,247.188 472.63,247.188 445.032,247.188 438.019,247.188 439.413,240.338 
					443.94,217.971 447.901,198.495 				"/>
				<path d="M383.911,175.26c1.354,5.111,2.021,10.849,2.021,17.215c0,11.88-4.667,23.498-12.204,33.034L383.911,175.26z"/>
				<path d="M368.414,152.571c7.698,5.13,12.871,12.706,15.497,22.689l-10.184,50.249c-10.667,13.537-27.073,22.872-44.025,22.872
					H298.97l-5.678,28.063l-0.93,4.608h-4.687h-27.62h-7.012l1.395-6.871l11.477-56.654l13.921-68.615l0.93-4.586h4.688h49.966
					C349.22,144.327,360.251,147.093,368.414,152.571z M348.876,194.474c0-12.305-5.133-17.093-18.347-17.093h-17.153l-7.779,38.33
					h21.861C338.066,215.711,348.876,205,348.876,194.474z"/>
				<path d="M373.727,225.509c7.537-9.536,12.204-21.154,12.204-33.034c0-6.366-0.666-12.104-2.021-17.215l2.485-12.285
					l35.177,20.327l-1.819,8.97l-10.203,50.33l-0.93,4.586h-4.687h-27.601h-7.01l1.394-6.85L373.727,225.509z"/>
			</g>
			<g>
				<g opacity="0.2">
					<path d="M294.93,286.614h-4.687h-27.619h-7.004l1.389-6.866l11.476-56.654l13.924-68.615l0.932-4.59h4.683h49.964
						c33.525,0,50.521,16.203,50.521,48.157c0,28.741-27.332,55.915-56.24,55.915h-30.732l-5.678,28.059L294.93,286.614
						L294.93,286.614z M308.163,221.29h21.863c10.614,0,21.43-10.722,21.43-21.244c0-12.294-5.146-17.085-18.354-17.085H315.94
						L308.163,221.29L308.163,221.29z"/>
					<path d="M479.882,252.77h-4.684h-27.596h-7.004l1.389-6.865l4.521-22.365l7.135-35.119l0.031-0.163l0.072-0.273l0.023-0.114
						l0.047-0.217c0.027-0.135,0.059-0.26,0.07-0.395c0.166-1.115,0.281-2.825-0.539-3.779c-0.939-1.085-3.312-1.708-6.516-1.708
						H425.59l-3.268,16.079l-10.205,50.328l-0.931,4.591h-4.685h-27.6h-7.006l1.393-6.865l25.396-125.267l0.932-4.595h4.685h27.603
						h7.001l-1.389,6.867l-5.222,25.813l18.812,0.03c6.066,0,11.562,0.604,16.322,1.792c17.908,4.38,27.17,17.324,25.547,35.146
						l0.486,0.094l-1.152,5.693l-11.496,56.698L479.882,252.77L479.882,252.77z"/>
					<path d="M512.009,286.614h-4.684h-27.619h-7.002l1.389-6.864l11.477-56.656l13.918-68.622l0.932-4.585h4.682h49.971
						c33.523,0,50.52,16.203,50.52,48.156c0,28.742-27.332,55.919-56.242,55.919h-30.732l-5.676,28.057L512.009,286.614
						L512.009,286.614z M525.241,221.29h21.869c10.613,0,21.43-10.723,21.43-21.246c0-12.294-5.15-17.085-18.363-17.085h-17.162
						L525.241,221.29L525.241,221.29z"/>
				</g>
				<g>
					<path fill="#FFFFFF" d="M292.358,281.042h-4.687h-27.619h-7.004l1.39-6.866l11.476-56.654l13.923-68.615l0.933-4.59h4.683
						h49.964c33.524,0,50.521,16.204,50.521,48.158c0,28.74-27.332,55.914-56.239,55.914h-30.732l-5.678,28.06L292.358,281.042
						L292.358,281.042z M305.59,215.718h21.863c10.615,0,21.43-10.722,21.43-21.244c0-12.295-5.146-17.085-18.354-17.085h-17.161
						L305.59,215.718L305.59,215.718z"/>
					<path fill="#FFFFFF" d="M477.31,247.197h-4.682h-27.6h-7.001l1.386-6.863l4.525-22.365l7.133-35.12l0.033-0.164l0.07-0.271
						l0.021-0.115l0.051-0.217c0.025-0.134,0.059-0.261,0.07-0.395c0.164-1.114,0.279-2.826-0.541-3.776
						c-0.938-1.087-3.312-1.713-6.516-1.713h-21.242l-3.27,16.081l-10.205,50.328l-0.932,4.591h-4.684h-27.598h-7.007l1.393-6.863
						l25.396-125.269l0.932-4.593h4.684h27.603h7l-1.387,6.866l-5.222,25.814l18.811,0.029c6.066,0,11.564,0.604,16.322,1.793
						c17.91,4.379,27.17,17.323,25.549,35.146l0.486,0.092l-1.152,5.695l-11.498,56.697L477.31,247.197L477.31,247.197z"/>
					<path fill="#FFFFFF" d="M509.438,281.042h-4.684h-27.621h-7.002l1.389-6.864l11.477-56.656l13.918-68.621l0.934-4.586h4.68
						h49.969c33.523,0,50.521,16.203,50.521,48.156c0,28.742-27.332,55.92-56.24,55.92h-30.734l-5.676,28.058L509.438,281.042
						L509.438,281.042z M522.669,215.718h21.869c10.613,0,21.428-10.724,21.428-21.246c0-12.294-5.148-17.086-18.359-17.086h-17.162
						L522.669,215.718L522.669,215.718z"/>
				</g>
				<g opacity="0.25">
					<path d="M338.125,152.596h-49.967l-13.921,68.615l-11.476,56.654h27.619l6.607-32.65h35.419
						c25.56,0,50.512-24.609,50.512-50.189C382.919,162.032,363.706,152.596,338.125,152.596z M330.165,224h-28.872l10.103-49.784
						h21.841c13.76,0,24.085,5.071,24.085,22.812C357.321,210.766,343.924,224,330.165,224z"/>
					<path d="M466.183,153.08c-4.223-1.049-9.172-1.614-14.949-1.614l-25.803-0.041l6.607-32.671h-27.6l-25.397,125.27h27.6
						l10.203-50.33l4.202-20.669h25.924c11.07,0,13.637,5.919,12.748,11.88c-0.041,0.324-0.102,0.626-0.162,0.949
						c-0.039,0.242-0.102,0.464-0.162,0.688l-7.131,35.114l-4.525,22.368h27.6l11.293-56.735
						C489.642,172.902,485.903,157.91,466.183,153.08z"/>
					<path d="M555.206,152.596h-49.967l-13.92,68.615l-11.479,56.654h27.621l6.607-32.65h35.42
						c25.557,0,50.512-24.609,50.512-50.189C600.001,162.032,580.765,152.596,555.206,152.596z M547.245,224h-28.873l10.104-49.784
						h21.84c13.76,0,24.086,5.071,24.086,22.812C574.401,210.766,560.983,224,547.245,224z"/>
				</g>
				<g>
					<path d="M335.417,150.043H285.45l-13.921,68.614l-11.477,56.654h27.62l6.607-32.65h35.418
						c25.561,0,50.513-24.608,50.513-50.188C380.21,159.478,360.996,150.043,335.417,150.043z M327.456,221.446h-28.872
						l10.102-49.783h21.842c13.76,0,24.084,5.071,24.084,22.812C354.611,208.212,341.215,221.446,327.456,221.446z"/>
					<path fill="#1A1A1A" d="M463.474,150.526c-4.223-1.049-9.172-1.613-14.949-1.613l-25.803-0.042l6.607-32.671h-27.6
						l-25.397,125.27h27.6l10.203-50.33l4.203-20.668h25.923c11.07,0,13.637,5.918,12.748,11.88
						c-0.039,0.323-0.102,0.625-0.162,0.949c-0.039,0.243-0.102,0.464-0.162,0.687l-7.131,35.115l-4.525,22.367h27.6l11.295-56.734
						C486.933,170.348,483.194,155.357,463.474,150.526z"/>
					<path fill="#1A1A1A" d="M552.497,150.043H502.53l-13.92,68.614l-11.479,56.654h27.621l6.607-32.65h35.42
						c25.557,0,50.512-24.608,50.512-50.188C597.292,159.478,578.056,150.043,552.497,150.043z M544.536,221.446h-28.873
						l10.104-49.783h21.84c13.76,0,24.086,5.071,24.086,22.812C571.692,208.212,558.274,221.446,544.536,221.446z"/>
				</g>
			</g>
		</g>
	</g>
</g>
</svg>
