<?xml version="1.0" encoding="utf-8"?>
<!-- Generator: Adobe Illustrator 16.0.4, SVG Export Plug-In . SVG Version: 6.00 Build 0)  -->
<!DOCTYPE svg PUBLIC "-//W3C//DTD SVG 1.1//EN" "http://www.w3.org/Graphics/SVG/1.1/DTD/svg11.dtd">
<svg version="1.1" id="Layer_1" xmlns="http://www.w3.org/2000/svg" xmlns:xlink="http://www.w3.org/1999/xlink" x="0px" y="0px"
	 width="141px" height="60px" viewBox="0 0 141 60" enable-background="new 0 0 141 60" xml:space="preserve">
<g>
	<g>
		<g>
			<path fill="#FFFFFF" d="M29.137,32.178c-1.351,0.759-2.822,1.121-4.27,1.121c-0.942,0-1.877-0.157-2.665-0.472
				c-1.442,1.301-2.993,2.21-3.774,2.634c1.131,1.793,2.93,3.173,5.152,3.726c0.688,0.173,1.377,0.253,2.056,0.253
				c1.52,0,2.982-0.416,4.227-1.086c0.182-0.71,0.274-1.439,0.274-2.179C30.136,34.82,29.812,33.447,29.137,32.178z"/>
		</g>
		<g>
			<path fill="#FFFFFF" d="M27.684,21.488c-0.102-0.026-0.198-0.07-0.3-0.094l-0.002,0.013
				C27.486,21.425,27.582,21.467,27.684,21.488z"/>
			<path fill="#FFFFFF" d="M27.376,21.475c-0.256,1.707-0.994,3.226-2.03,4.354c0.054,0.302,0.092,0.629,0.092,0.974
				c-0.003,1.996-1.033,3.733-2.321,5.132c0.369,0.045,0.74,0.069,1.108,0.069c1.834,0,3.684-0.588,5.248-1.807
				c1.806-1.418,2.895-3.418,3.209-5.458c-1.217-1.602-3.006-2.75-4.999-3.25c-0.103-0.021-0.198-0.063-0.303-0.081L27.376,21.475z"
				/>
		</g>
		<g>
			<path fill="#FFFFFF" d="M26.019,20.016c0-2.299-0.906-4.383-2.322-5.891c-0.044,0-0.084,0-0.124,0
				c-2.034,0-3.815,0.723-5.43,2.184c1.543,1.642,2.098,3.723,2.098,5.804c0,0.167-0.006,0.333-0.01,0.495
				c0.347-0.088,0.699-0.13,1.045-0.13c0.025,0,0.055,0,0.091,0c1.329,0.026,2.667,0.687,3.435,1.93
				C25.57,23.121,26.019,21.622,26.019,20.016z"/>
		</g>
		<g>
			<path fill="#FFFFFF" d="M10.676,14.277c-0.128,0-0.25,0-0.294-0.026c-1.388,1.525-2.223,3.543-2.223,5.737
				c0,0.031,0,0.059-0.012,0.075c0.096,0,0.193-0.003,0.293-0.003c2.34,0,4.48,0.931,5.999,2.433
				c1.273,0.09,2.578,0.765,3.264,2.107c0.368-0.722,0.914-1.247,1.493-1.518c0-0.097,0.004-0.195,0.004-0.294
				c0-2.351-0.974-4.695-2.866-6.371C14.707,14.977,12.686,14.277,10.676,14.277z"/>
		</g>
		<g>
			<polygon fill="#FFFFFF" points="13.326,22.656 13.324,22.656 13.324,22.659 			"/>
			<path fill="#FFFFFF" d="M13.062,22.614c-1.28-0.747-2.749-1.165-4.29-1.165c-0.495,0-0.999,0.043-1.497,0.133
				c-2.265,0.406-4.159,1.668-5.39,3.324c0.334,2.051,1.418,3.982,3.168,5.347c1.277-1.714,3.068-2.821,4.92-3.179
				c0-0.086-0.004-0.184-0.004-0.275C9.966,24.477,11.41,23.037,13.062,22.614z"/>
		</g>
		<g>
			<path fill="#FFFFFF" d="M5.565,32.198c-0.678,1.273-1,2.636-1,3.98c0,0.806,0.113,1.603,0.289,2.309
				c1.24,0.681,2.642,1.047,4.091,1.047c0.685,0,1.38-0.083,2.079-0.254c-0.215-0.773-0.319-1.546-0.319-2.312
				c0-1.822,0.579-3.572,1.604-5.021c-0.989-1.066-1.827-2.328-2.172-3.757C8.239,28.895,6.585,30.271,5.565,32.198z"/>
		</g>
		<g>
			<polygon fill="#FFFFFF" points="12.775,40.12 12.773,40.12 12.681,40.165 12.686,40.165 			"/>
			<path fill="#FFFFFF" d="M17.388,44.515c1.913-0.826,3.528-2.344,4.425-4.376c-2.181-0.905-3.792-2.602-4.606-4.557
				c-0.697-0.358-2.497-1.365-4.136-2.873c-0.619,1.202-0.949,2.543-0.949,3.906c0,1.159,0.23,2.337,0.743,3.463
				C13.804,42.184,15.49,43.715,17.388,44.515z"/>
			<polygon fill="#FFFFFF" points="12.865,40.078 12.773,40.12 12.775,40.12 			"/>
		</g>
		<g>
			<path fill="#FFFFFF" d="M44.878,34.143l-7.439,8.789h6.436c0.691,0,1.256,0.565,1.256,1.256s-0.565,1.285-1.256,1.285h-9.356
				c-0.66,0-1.285-0.628-1.285-1.315c0-0.316,0.123-0.66,0.341-0.942l7.413-8.792h-6.469c-0.693,0-1.285-0.598-1.285-1.286
				c0-0.691,0.591-1.256,1.285-1.256h9.2c0.88,0,1.475,0.658,1.475,1.413C45.193,33.608,45.099,33.889,44.878,34.143z"/>
			<path fill="#FFFFFF" d="M59.795,39.601c0,0,0,0-9.7,0c0.156,2.106,1.849,3.676,4.111,3.676c1.599,0,2.98-0.657,4.083-1.729
				c0.217-0.216,0.47-0.281,0.756-0.281c0.376,0,0.75,0.189,1.001,0.504c0.159,0.219,0.25,0.473,0.25,0.723
				c0,0.345-0.156,0.723-0.439,1.005c-1.314,1.409-3.549,2.354-5.744,2.354c-3.989,0-7.191-3.203-7.191-7.191
				c0-3.986,3.105-7.188,7.095-7.188c3.957,0,6.909,3.08,6.909,7.126C60.925,39.194,60.392,39.601,59.795,39.601z M54.016,34.048
				c-2.104,0-3.544,1.379-3.859,3.391c4.738,0,7.723,0,7.723,0C57.6,35.522,56.089,34.048,54.016,34.048z"/>
			<path fill="#FFFFFF" d="M91.828,45.725c-0.846,0-1.539-0.69-1.539-1.537v-0.722c-0.875,1.507-2.537,2.386-4.488,2.386
				c-3.992,0-6.814-3.079-6.814-7.191c0-4.108,2.73-7.188,6.814-7.188c2.008,0,3.707,0.974,4.488,2.417v-8.097
				c0-0.849,0.693-1.512,1.539-1.512c0.848,0,1.539,0.663,1.539,1.512v18.396C93.367,45.034,92.676,45.725,91.828,45.725z
				 M86.178,34.205c-2.512,0-4.113,2.005-4.113,4.455c0,2.447,1.602,4.46,4.113,4.46c2.516,0,4.111-1.918,4.111-4.46
				C90.289,36.116,88.693,34.205,86.178,34.205z"/>
			<path fill="#FFFFFF" d="M108.988,39.601c0,0,0,0-9.705,0c0.158,2.106,1.855,3.676,4.115,3.676c1.598,0,2.982-0.657,4.082-1.729
				c0.223-0.216,0.473-0.281,0.752-0.281c0.375,0,0.756,0.189,1.006,0.504c0.156,0.219,0.252,0.473,0.252,0.723
				c0,0.345-0.16,0.723-0.439,1.005c-1.32,1.409-3.551,2.354-5.746,2.354c-3.988,0-7.191-3.203-7.191-7.191
				c0-3.986,3.107-7.188,7.098-7.188c3.953,0,6.91,3.08,6.91,7.126C110.121,39.194,109.584,39.601,108.988,39.601z M103.211,34.048
				c-2.105,0-3.549,1.379-3.861,3.391c4.74,0,7.723,0,7.723,0C106.789,35.522,105.279,34.048,103.211,34.048z"/>
			<path fill="#FFFFFF" d="M117.777,45.852c-1.541,0-3.545-0.501-5.023-1.384c-0.471-0.28-0.756-0.722-0.756-1.191
				c0-0.156,0.062-0.315,0.127-0.473c0.189-0.438,0.535-0.722,0.977-0.722c0.188,0,0.441,0.063,0.625,0.189
				c1.164,0.689,2.51,1.1,3.865,1.1c1.537,0,3.203-0.439,3.203-1.664c0-0.944-0.848-1.289-4.055-2.388
				c-2.633-0.908-4.018-2.102-4.018-4.049c0-2.322,2.324-3.799,5.371-3.799c2.074,0,3.393,0.441,4.711,1.067
				c0.533,0.251,0.848,0.661,0.848,1.162c0,0.158-0.031,0.282-0.096,0.441c-0.189,0.503-0.662,0.814-1.193,0.814
				c-0.158,0-0.312-0.034-0.438-0.096c-1.131-0.532-2.324-0.846-3.582-0.846c-1.666,0-2.697,0.379-2.697,1.38
				c0,1.003,0.812,1.224,3.166,1.975c2.859,0.946,4.869,1.919,4.869,4.273C123.682,43.936,121.58,45.852,117.777,45.852z"/>
			<path fill="#FFFFFF" d="M137.766,45.694c-0.41,0.03-0.82-0.156-1.102-0.472l-5.18-5.903l-1.57,1.228v3.641
				c0,0.847-0.662,1.537-1.51,1.537c-0.844,0-1.506-0.69-1.506-1.537V25.818c0-0.844,0.662-1.538,1.506-1.538
				c0.848,0,1.51,0.694,1.51,1.538v11.146l6.531-5.052c0.252-0.191,0.535-0.313,0.85-0.313c0.438,0,0.814,0.219,1.098,0.531
				c0.188,0.252,0.346,0.535,0.346,0.878c0,0.44-0.221,0.816-0.566,1.103l-4.43,3.482l5.029,5.777
				c0.215,0.25,0.344,0.598,0.344,0.942C139.115,45.067,138.518,45.663,137.766,45.694z"/>
			<path fill="#FFFFFF" d="M70.045,31.408c-3.563,0-6.504,2.778-6.504,6.503v6.437c0,0.857,0.672,1.527,1.533,1.527
				s1.56-0.67,1.56-1.527v-6.339c0-2.136,1.179-3.772,3.412-3.815c2.236,0.043,3.416,1.68,3.416,3.815v6.339
				c0,0.857,0.701,1.527,1.561,1.527c0.861,0,1.527-0.67,1.527-1.527v-6.437C76.549,34.187,73.615,31.408,70.045,31.408z"/>
		</g>
	</g>
	<g>
		<path fill="#FFFFFF" d="M136.107,25.784c0-0.842,0.654-1.504,1.504-1.504s1.504,0.662,1.504,1.504
			c0,0.851-0.654,1.512-1.504,1.512S136.107,26.635,136.107,25.784z M138.791,25.784c0-0.685-0.512-1.196-1.18-1.196
			s-1.182,0.512-1.182,1.196c0,0.693,0.514,1.205,1.182,1.205S138.791,26.478,138.791,25.784z M136.99,26.43v-1.307
			c0-0.11,0.07-0.181,0.188-0.181h0.543c0.379,0,0.592,0.196,0.592,0.512c0,0.229-0.111,0.378-0.283,0.464l0.234,0.434
			c0.025,0.039,0.031,0.078,0.031,0.118c0,0.086-0.078,0.165-0.172,0.165c-0.088,0-0.15-0.055-0.182-0.134l-0.291-0.527h-0.26
			c-0.023,0-0.023,0.016-0.023,0.031v0.425c0,0.126-0.078,0.205-0.189,0.205C137.061,26.635,136.99,26.556,136.99,26.43z
			 M137.949,25.454c0-0.118-0.078-0.189-0.252-0.189h-0.307c-0.023,0-0.023,0.008-0.023,0.031v0.315c0,0.023,0,0.031,0.023,0.031
			h0.307C137.871,25.643,137.949,25.588,137.949,25.454z"/>
	</g>
</g>
</svg>
