<?xml version="1.0" encoding="utf-8"?>
<!-- Generator: Adobe Illustrator 16.0.4, SVG Export Plug-In . SVG Version: 6.00 Build 0)  -->
<!DOCTYPE svg PUBLIC "-//W3C//DTD SVG 1.1//EN" "http://www.w3.org/Graphics/SVG/1.1/DTD/svg11.dtd">
<svg version="1.1" id="Layer_1" xmlns="http://www.w3.org/2000/svg" xmlns:xlink="http://www.w3.org/1999/xlink" x="0px" y="0px"
	 width="130.394px" height="130.394px" viewBox="0 0 130.394 130.394" enable-background="new 0 0 130.394 130.394"
	 xml:space="preserve">
<g>
	<g>
		<defs>
			<rect id="SVGID_1_" x="0.579" y="-1.599" width="126.5" height="131.611"/>
		</defs>
		<clipPath id="SVGID_2_">
			<use xlink:href="#SVGID_1_"  overflow="visible"/>
		</clipPath>
		<g clip-path="url(#SVGID_2_)">
			<polygon fill="#FAC271" points="25.438,172.951 2.394,152.043 31.35,121.37 54.395,142.278 			"/>
			<g>
				<path fill="#DD8B12" d="M28.101,110.414c-0.722,20.47,14.94,32.862,35.832,32.862c20.893,0,37.828-16.602,37.828-37.084
					c0-20.481-16.936-37.084-37.828-37.084C63.621,69.108,29.235,78.212,28.101,110.414z"/>
				<g>
					<g>
						<g>
							<g>
								<g>
									<path fill="#4D4D4D" d="M98.71,123.121c-0.02,4.408-3.671,7.973-8.177,7.972l-46.915-0.085
										c-4.495-0.005-8.148-3.585-8.138-7.998L35.694,8.104c0.007-4.406,3.665-7.971,8.167-7.969l46.924,0.087
										c4.489,0.008,8.136,3.588,8.126,7.995L98.71,123.121z"/>
								</g>
								<g>
									<path fill="#333333" d="M61.54,121.617c0.007-3.062,2.544-5.542,5.668-5.534l0,0c3.137,0,5.666,2.495,5.656,5.558l0,0
										c-0.004,3.064-2.546,5.55-5.67,5.543l0,0C64.078,127.18,61.537,124.688,61.54,121.617L61.54,121.617z"/>
								</g>
								<g>
									<polygon points="93.94,112.139 39.334,112.139 39.511,17.771 94.079,17.72 									"/>
								</g>
								<g>
									<polygon fill="#D64646" points="93.917,112.139 40.264,112.041 40.441,18.589 94.079,18.681 									"/>
								</g>
								<g>
									<path fill="#666666" d="M65.911,124.139c-0.705-0.004-1.271-0.562-1.255-1.244l0,0l-0.011-2.527
										c-0.001-0.692,0.567-1.249,1.274-1.248l0,0l2.575,0.005c0.708,0.007,1.274,0.56,1.271,1.249l0,0l-0.006,2.529
										c0.001,0.691-0.579,1.241-1.271,1.236l0,0H65.911L65.911,124.139z M65.312,120.361l-0.004,2.531
										c0.014,0.328,0.264,0.585,0.601,0.584l0,0l2.582,0.008c0.341,0.002,0.603-0.26,0.605-0.584l0,0l0.006-2.529
										c-0.001-0.336-0.274-0.588-0.603-0.585l0,0l-2.581-0.013C65.585,119.78,65.312,120.032,65.312,120.361L65.312,120.361z"/>
								</g>
								<g>
									<path fill="#666666" d="M61.124,121.616c0.007-3.286,2.73-5.95,6.085-5.942l0,0c3.367,0.001,6.082,2.68,6.072,5.968l0,0
										c-0.005,3.29-2.733,5.958-6.088,5.951l0,0C63.849,127.588,61.12,124.914,61.124,121.616L61.124,121.616z M61.794,121.618
										c0.007,2.926,2.417,5.302,5.396,5.314l0,0c2.992,0.004,5.412-2.361,5.428-5.296l0,0c0.005-2.922-2.42-5.297-5.408-5.306
										l0,0C64.23,116.328,61.807,118.692,61.794,121.618L61.794,121.618z"/>
								</g>
								<g>
									<path fill="#666666" d="M62.6,12.569c-0.8-0.008-1.438-0.636-1.441-1.418l0,0v-0.229c0.006-0.79,0.654-1.427,1.454-1.425
										l0,0l9.467,0.014c0.79,0.007,1.44,0.637,1.427,1.421l0,0l0.007,0.236c-0.007,0.784-0.649,1.42-1.44,1.424l0,0L62.6,12.569
										L62.6,12.569z M61.818,10.915l0.006,0.24c-0.009,0.411,0.35,0.759,0.783,0.765l0,0l9.466,0.006
										c0.418,0.013,0.778-0.342,0.782-0.761l0,0l0.015-0.221c-0.014-0.434-0.371-0.768-0.793-0.772l0,0l-9.479-0.019
										C62.178,10.163,61.821,10.491,61.818,10.915L61.818,10.915z"/>
								</g>
								<g>
									<path d="M59.635,10.838c-0.004,0.439-0.361,0.786-0.794,0.781c-0.431-0.007-0.785-0.349-0.782-0.779
										c-0.007-0.425,0.344-0.779,0.786-0.771C59.277,10.065,59.632,10.412,59.635,10.838z"/>
								</g>
								<g>
									<path d="M68.696,6.054c-0.011,0.703-0.591,1.275-1.306,1.278c-0.731,0.001-1.318-0.578-1.322-1.286
										c0.002-0.715,0.599-1.29,1.325-1.286C68.109,4.759,68.699,5.336,68.696,6.054z"/>
								</g>
								<g>
									<path d="M61.818,10.915l0.006,0.24c-0.009,0.411,0.35,0.759,0.783,0.765l0,0l9.466,0.006
										c0.418,0.013,0.778-0.342,0.782-0.761l0,0l0.015-0.221c-0.014-0.434-0.371-0.768-0.793-0.772l0,0l-9.479-0.019
										C62.178,10.163,61.821,10.491,61.818,10.915L61.818,10.915z"/>
								</g>
							</g>
						</g>
					</g>
				</g>
				<g>
					<defs>
						<polygon id="SVGID_3_" points="93.917,112.139 40.264,112.041 40.441,18.589 94.079,18.681 						"/>
					</defs>
					<clipPath id="SVGID_4_">
						<use xlink:href="#SVGID_3_"  overflow="visible"/>
					</clipPath>
					<g clip-path="url(#SVGID_4_)">
						<g>
							<g>
								<g>
									<path fill="#F39C12" d="M47.831,121.079c0-11.023-9.115-19.961-20.36-19.961s-20.361,8.938-20.361,19.961H47.831z"/>
									<path fill="#F39C12" d="M126.348,121.079c0-11.023-9.116-19.961-20.361-19.961c-11.244,0-20.36,8.938-20.36,19.961H126.348
										z"/>
									<path fill="#DD8B12" d="M113.4,121.079v-6.937c-7.855-13.264-25.568-22.512-46.158-22.512
										c-20.565,0-38.258,9.226-43.916,22.461v6.987H113.4z"/>
									<g>
										<g>
											<polygon fill="#DD8B12" points="68.108,114.836 91.308,95.89 89.028,73.312 45.943,73.312 43.663,95.909 											"/>
										</g>
										<path fill="#F39C12" d="M98.103,50.446c0.124,3.884-1.076,7.075-2.681,7.125c-1.605,0.047-3.009-3.061-3.133-6.946
											c-0.123-3.883,1.074-7.075,2.681-7.126C96.575,43.452,97.98,46.561,98.103,50.446z"/>
										<path fill="#F39C12" d="M36.652,50.446c-0.126,3.884,1.077,7.075,2.683,7.125c1.604,0.047,3.007-3.061,3.132-6.946
											c0.124-3.883-1.077-7.075-2.682-7.126C38.18,43.452,36.775,46.561,36.652,50.446z"/>
										<path opacity="0.2" fill="#3D2A1D" d="M45.18,76.334c4.13,10.114,12.119,19.102,21.989,19.102
											c9.869,0,18.835-8.991,22.717-19.108L45.18,76.334z"/>
										<g>
											<g>
												<path fill="#F39C12" d="M96.359,54.861l-2.685-19.146l0,0C91.328,23.398,80.5,14.231,67.555,14.218
													c-13.299-0.013-24.317,9.796-26.295,22.61c-0.014,0.093-0.021,0.188-0.03,0.285l-2.338,16.213
													c-0.226,1.434-0.338,2.934-0.338,4.438c0,16.085,13.475,31.847,29.483,31.847c16.005,0,28.486-15.762,28.486-31.847
													C96.523,56.779,96.359,54.861,96.359,54.861z"/>
											</g>
										</g>
										<g>
											<path d="M51.174,20.157l2.715,2.932c0,0,7.23,6.173,21.92,6.642c10.312,0.328,15.067-1.79,15.067-1.79
												s-8.139-15.7-23.149-15.276C52.718,13.089,51.174,20.157,51.174,20.157z"/>
											<path d="M42.353,32.022c0,0,7.844-2.815,10.311-8.211l-2.467-2.885c0,0-3.086-0.209-5.984,3.776
												C42.627,26.879,42.353,32.022,42.353,32.022z"/>
										</g>
										<path fill="#D64646" d="M32.165,121.097l-0.77-19.562c5.508-2.97,12.268-5.705,12.268-5.705
											c0,3.623,1.399,21.389,24.503,25.234L32.165,121.097z"/>
										<path fill="#D64646" d="M102.774,121.097l0.769-19.562c-5.508-2.97-12.269-5.705-12.269-5.705
											c0,3.623-0.006,21.389-23.11,25.234L102.774,121.097z"/>
										<g>
											<g opacity="0.2">
												<path d="M86.495,64.812c0.094-1.257,1.528-2.325,2.953-1.966c1.322,0.332,2.855,3.65-0.792,4.492
													c-2.434,0.565-5.253-1.603-7.233-3.236c-1.983-1.632-5.39-4.579-9.522-3.794c-4.127,0.781-4.613,3.495-4.681,4.383
													c-0.062,0.888,0.236,3.276,2.352,4.661c1.34,0.876,11.431,5.062,20.17,1.843c7.811-2.874,3.503-11.112-0.159-10.636
													C85.552,61.081,86.495,64.812,86.495,64.812z"/>
												<path d="M45.899,60.578c-3.715-0.484-8.089,7.876-0.16,10.793c8.869,3.267,19.111-0.98,20.473-1.87
													c2.147-1.404,2.449-3.829,2.385-4.73c-0.067-0.9-0.561-3.656-4.75-4.447c-4.195-0.798-7.651,2.193-9.662,3.849
													c-2.013,1.657-4.873,3.859-7.346,3.284c-3.701-0.854-2.145-4.221-0.801-4.559c1.445-0.363,2.902,0.72,2.997,1.997
													C49.035,64.896,49.994,61.108,45.899,60.578z"/>
											</g>
											<g>
												<path d="M86.623,63.853c0.096-1.259,1.53-2.323,2.953-1.966c1.324,0.332,2.858,3.648-0.789,4.492
													c-2.436,0.564-5.255-1.604-7.237-3.235c-1.98-1.633-5.386-4.58-9.521-3.795c-4.127,0.782-4.612,3.496-4.679,4.384
													c-0.064,0.886,0.233,3.276,2.349,4.66c1.34,0.876,11.434,5.062,20.172,1.842c7.811-2.873,3.501-11.11-0.159-10.633
													C85.681,60.121,86.623,63.853,86.623,63.853z"/>
												<path d="M45.899,59.605c-3.715-0.482-8.089,7.877-0.16,10.793c8.869,3.267,19.111-0.979,20.473-1.87
													c2.147-1.402,2.449-3.829,2.385-4.73c-0.067-0.9-0.561-3.655-4.75-4.447c-4.195-0.798-7.651,2.193-9.662,3.85
													c-2.013,1.657-4.873,3.858-7.346,3.284c-3.701-0.855-2.145-4.222-0.801-4.559c1.445-0.363,2.902,0.718,2.997,1.996
													C49.035,63.923,49.994,60.135,45.899,59.605z"/>
											</g>
										</g>
										<g>
											
												<line fill="none" stroke="#000000" stroke-width="3" stroke-linecap="round" x1="77.408" y1="36.047" x2="87.691" y2="37.526"/>
											<path fill="none" stroke="#000000" stroke-width="3.5" stroke-linecap="round" d="M77.312,48.164
												c0,0,1.961-1.613,5.003-1.744c2.694-0.114,4.218,1.744,4.218,1.744"/>
										</g>
										<g>
											
												<line fill="none" stroke="#000000" stroke-width="3" stroke-linecap="round" x1="58.118" y1="36.047" x2="47.833" y2="37.526"/>
											<path fill="none" stroke="#000000" stroke-width="3.5" stroke-linecap="round" d="M58.212,48.164
												c0,0-1.96-1.613-5.002-1.744c-2.694-0.114-4.217,1.744-4.217,1.744"/>
										</g>
									</g>
								</g>
							</g>
						</g>
						<path opacity="0.15" fill="#FFFFFF" d="M51.296,19.771c-0.471,0.366-0.93,0.748-1.376,1.145
							c-0.813,0.051-3.322,0.49-5.708,3.769c-1.585,2.177-1.859,7.322-1.859,7.322s0.055-0.021,0.135-0.051
							c-0.552,1.558-0.97,3.18-1.228,4.856c-0.014,0.093-0.021,0.188-0.03,0.286l-0.94,6.516c-0.163-0.076-0.33-0.124-0.504-0.131
							c-1.605-0.048-3.01,3.062-3.133,6.947c-0.104,3.236,0.715,5.985,1.919,6.841c-0.003,0.16-0.018,0.317-0.018,0.477
							c0,7.112,2.637,14.158,6.959,19.808l-1.848,18.313c0-0.019-0.002-0.04-0.002-0.057c0,0-6.713,2.718-12.21,5.673
							c-1.288-0.249-2.619-0.383-3.982-0.383c-11.245,0-20.361,8.937-20.361,19.96h25.054l0.002,0.017l18.461-0.017h17.104V12.647
							c0,0-0.002,0-0.003,0C54.784,13.013,51.856,18.317,51.296,19.771z M43.668,96.059c-0.003-0.056-0.003-0.111-0.003-0.163
							l0.139,0.107C43.758,96.021,43.713,96.041,43.668,96.059z"/>
					</g>
				</g>
				<polygon opacity="0.05" points="93.917,112.139 40.264,112.041 94.079,18.681 				"/>
				<g opacity="0.3">
					<path d="M104.382,95.163c-0.002-0.008-0.002-0.008-0.009-0.003c-0.095-0.042-0.333-0.243-0.248-0.45
						c0.677-1.654,2.277-10.244-1.038-12.785c-0.001-0.007-0.001-0.007-0.008-0.004c-0.09-0.062-0.186-0.124-0.279-0.183
						c-0.116-0.074-0.227-0.145-0.345-0.212c-0.385-0.204-2.272-0.325-4.544-0.291c-1.222,0.018-2.485,0.057-3.741,0.1
						c-4.428,0.164-8.75,0.449-10.723,0.823c-3.467,0.651-3.846,1.836-4.492,8.028c-0.505,4.861,1.252,6.333,4.124,6.983
						c0.807,0.186,1.437,0.228,4.002,0.308c0.104,0.002,0.214,0.005,0.329,0.008c1.7,0.021,4.158,0.018,6.777,0.038
						c-3.872,1.018-7.538,2.096-9.207,2.812c-3.102,1.328-3.205,2.513-2.477,8.435c0.571,4.648,1.199,5.869,4.026,5.887
						c0.794,0.006,2.717-0.294,5.134-0.747c0.099-0.022,0.201-0.043,0.31-0.062c1.137-0.237,2.633-0.564,4.283-0.92
						c-1.318,0.682-2.481,1.325-3.158,1.709c-3.119,1.771-5.828,3.646-7.708,5.185c-1.24,1.017-0.348,2.42,1.351,5.778
						c1.699,3.359,2.705,4.891,4.049,4.608c0.669-0.144,3.248-0.334,5.838-1.797c0.214-0.121,1.122-1.27,1.464-2.263
						c0.62-1.8,1.538-5.456,1.82-5.858c2.792-3.98,6.378-3.902,4.106-9.141c-0.105-1.164,0.048-1.273,0.798-1.643
						C108.52,107.678,109.051,97.329,104.382,95.163z"/>
					<g>
						<path d="M28.824,120.794c-1.711-26.638,14.528-32.35,18.374-34.021c2.41-1.047,13.543,6.069,10.532,9.546
							c-9.346,10.786-7.984,19.232-7.984,19.232c8.615,5.683,11.229,19.402,10.031,27.54c0,0-4.993-0.549-5.954-1.145
							c-1.367-0.847-13.555-10.66-13.555-10.66L28.824,120.794z"/>
						<g>
							<path d="M46.166,99.772c3.791,2.683,19.088,6.068,22.757,5.119c3.669-0.951,5.091-8.719,2.832-11.967
								c-2.257-3.251-19.488-5.266-22.235-6.068C44.745,85.462,39.623,95.141,46.166,99.772z"/>
						</g>
					</g>
				</g>
				<g>
					<path fill="#FAC271" d="M55.094,142.452c2.848-6.834,0.862-23.598-9.222-30.249c0,0-1.237-9.345,8.108-20.132
						c3.011-3.477-8.122-10.593-10.532-9.546c-3.846,1.671-20.085,7.384-18.374,34.021
						C26.188,133.892,55.094,142.452,55.094,142.452z"/>
					<g>
						<path fill="#FAC271" d="M42.416,95.524c3.791,2.683,19.088,6.068,22.757,5.119c3.669-0.95,5.091-8.719,2.832-11.967
							c-2.257-3.251-19.488-5.266-22.235-6.068C40.995,81.214,35.873,90.893,42.416,95.524z"/>
					</g>
				</g>
				<path fill="#FAC271" d="M106.632,91.322c-0.002-0.007-0.002-0.007-0.009-0.003c-0.095-0.041-0.333-0.242-0.248-0.449
					c0.677-1.655,2.277-10.244-1.038-12.785c-0.001-0.006-0.001-0.006-0.008-0.004c-0.09-0.062-0.186-0.125-0.279-0.183
					c-0.116-0.075-0.227-0.145-0.345-0.213c-0.385-0.202-2.272-0.324-4.544-0.291c-1.222,0.019-2.485,0.057-3.741,0.101
					c-4.428,0.163-8.75,0.449-10.723,0.823c-3.467,0.651-3.846,1.835-4.492,8.028c-0.505,4.862,1.252,6.334,4.124,6.983
					c0.807,0.185,1.437,0.229,4.002,0.308c0.104,0.002,0.214,0.005,0.329,0.008c1.7,0.021,4.158,0.017,6.777,0.038
					c-3.872,1.018-7.538,2.095-9.207,2.812c-3.102,1.327-3.205,2.512-2.477,8.435c0.571,4.648,1.199,5.87,4.026,5.887
					c0.794,0.006,2.717-0.294,5.134-0.747c0.099-0.022,0.201-0.043,0.31-0.062c1.137-0.236,2.633-0.564,4.283-0.921
					c-1.318,0.684-2.481,1.325-3.158,1.711c-3.119,1.77-5.828,3.646-7.708,5.184c-1.24,1.017-0.348,2.42,1.351,5.778
					c1.699,3.359,2.705,4.891,4.049,4.608c0.669-0.144,3.556-1.024,6.37-2.012c2.859-1.011,5.584-2.171,5.967-2.718
					c2.792-3.979,3.163-9.091,0.892-14.329c-0.105-1.164,0.048-1.273,0.798-1.643C110.77,103.837,111.301,93.489,106.632,91.322z"/>
				<g>
					<g>
						<g>
							
								<ellipse transform="matrix(1 -0.0029 0.0029 1 -0.0176 0.1959)" fill="#666666" cx="66.941" cy="6.118" rx="2.002" ry="1.961"/>
							<ellipse cx="66.941" cy="6.117" rx="1.565" ry="1.536"/>
							<ellipse fill="#4D98B5" cx="66.941" cy="6.118" rx="0.784" ry="0.768"/>
							<ellipse opacity="0.5" fill="#FFFFFF" cx="67.346" cy="5.747" rx="0.435" ry="0.427"/>
							<circle opacity="0.5" fill="#FFFFFF" cx="67.346" cy="5.746" r="0.173"/>
						</g>
						<ellipse fill="#333333" cx="72.746" cy="6.159" rx="1.218" ry="1.193"/>
						<ellipse fill="#787878" cx="72.746" cy="6.159" rx="0.87" ry="0.852"/>
						<ellipse opacity="0.5" fill="#FFFFFF" cx="72.745" cy="6.16" rx="0.55" ry="0.54"/>
					</g>
					<g>
						<path fill="#FFEE4D" d="M74.219,14.592c-0.329-1.743-0.735-3.454-1.211-4.632l-0.292-0.723l-0.763,0.213
							c-0.425,0.118-0.843,0.254-1.229,0.39c0.141-0.396,0.282-0.822,0.408-1.243l0.222-0.741l-0.728-0.294
							c-0.778-0.315-1.74-0.552-2.752-0.729c1.077-0.27,2.106-0.589,2.935-0.958l0.668-0.297l-0.183-0.697
							c-0.161-0.615-0.38-1.281-0.59-1.875c0.559,0.191,1.181,0.388,1.768,0.542l0.745,0.195l0.291-0.701
							c0.397-0.955,0.719-2.124,0.973-3.297c0.252,1.104,0.562,2.211,0.936,3.15l0.294,0.735l0.771-0.225
							c0.411-0.12,0.825-0.253,1.21-0.384c-0.197,0.543-0.396,1.151-0.547,1.74l-0.152,0.598l0.528,0.332
							c0.806,0.508,1.877,0.914,3.001,1.234c-0.985,0.197-1.938,0.457-2.721,0.795l-0.704,0.305l0.218,0.724
							c0.111,0.37,0.234,0.735,0.357,1.078c-0.365-0.128-0.759-0.256-1.158-0.369l-0.728-0.205l-0.312,0.675
							C74.93,11.102,74.521,12.83,74.219,14.592L74.219,14.592z"/>
						<path fill="#FFFFFF" d="M74.233,9.495c-0.002-0.004-0.002-0.007-0.003-0.008l-0.293-0.725l-0.438-1.083l-0.789,0.22
							l0.237-0.792L72.04,6.741l0.982-0.438l-0.273-1.046l-0.086-0.328l0.215,0.057l1.12,0.294l0.437-1.053l0.053-0.127l0.44,1.102
							l0.812-0.238L75.72,5.046l-0.228,0.896l0.792,0.499l0.498,0.313l-0.216,0.093l-1.055,0.457l0.175,0.579l-0.625-0.176
							l-0.47,1.012l-0.312,0.674C74.264,9.427,74.249,9.46,74.233,9.495L74.233,9.495z"/>
					</g>
				</g>
			</g>
		</g>
	</g>
</g>
</svg>
