<?xml version="1.0" encoding="utf-8"?>
<!-- Generator: Adobe Illustrator 16.0.4, SVG Export Plug-In . SVG Version: 6.00 Build 0)  -->
<!DOCTYPE svg PUBLIC "-//W3C//DTD SVG 1.1//EN" "http://www.w3.org/Graphics/SVG/1.1/DTD/svg11.dtd">
<svg version="1.1" id="_x32__flag_copy_2" xmlns="http://www.w3.org/2000/svg" xmlns:xlink="http://www.w3.org/1999/xlink" x="0px"
	 y="0px" width="877.311px" height="1177.136px" viewBox="0 0 877.311 1177.136" enable-background="new 0 0 877.311 1177.136"
	 xml:space="preserve">
<g>
	<polygon fill="#BACEDD" points="194.733,50.518 73.721,384.715 357.669,384.715 472.055,50.626 	"/>
	<polygon fill="#FAAF40" points="402.049,666.383 405.305,740.721 338.108,740.721 279.566,740.721 282.338,682.282 287.03,583.403 
		398.416,583.403 	"/>
	<g>
		<g>
			<path d="M477.146,334.133c-43.101,0.006-71.028-10.61-88.167-21.419l0,0c-17.147-10.803-23.463-21.721-23.675-22.1l0,0
				l2.993-1.703l3.388-0.64l-3.388,0.64l-2.993,1.703l-0.286-0.501l-0.105-0.564c-3.018-16.059-9.781-42.859-9.786-73.336l0,0
				c0.002-19.201,2.688-39.922,10.73-60.407l0,0c10.527-26.89,30.669-42.092,52.02-50.385l0,0
				c21.37-8.331,44.067-10.046,60.722-10.44l0,0c3.925-0.092,8.061-0.185,12.349-0.185l0,0c15.857,0.005,33.815,1.237,50.956,8.643
				l0,0c17.15,7.388,33.324,21.086,45.26,45.195l0,0c13.317,26.88,16.59,59.349,16.605,85.563l0,0
				c-0.002,27.345-3.627,47.898-3.648,48.029l0,0l-0.133,0.753l-0.442,0.631c-0.191,0.268-9.104,12.874-28.851,25.453l0,0
				c-19.73,12.574-50.319,25.069-93.514,25.069l0,0C477.172,334.133,477.157,334.133,477.146,334.133L477.146,334.133z
				 M372.291,288.703c0.742,1.04,1.919,2.564,3.601,4.419l0,0c3.368,3.706,8.757,8.717,16.762,13.761l0,0
				c16.015,10.08,42.512,20.35,84.494,20.356l0,0c77.747-0.018,112.079-41.542,116.32-47.009l0,0
				c0.095-0.587,0.236-1.494,0.411-2.702l0,0c0.333-2.297,0.777-5.646,1.222-9.837l0,0c0.89-8.383,1.777-20.125,1.777-33.493l0,0
				c0.018-25.629-3.318-57.235-15.887-82.5l0,0c-11.36-22.826-26.069-35.09-41.82-41.932l0,0
				c-15.758-6.822-32.718-8.085-48.222-8.078l0,0c-4.188-0.001-8.268,0.091-12.188,0.182l0,0
				c-16.307,0.373-38.26,2.109-58.378,9.972l0,0c-20.137,7.898-38.322,21.634-48.107,46.483l0,0
				c-7.654,19.492-10.253,39.324-10.253,57.889l0,0c-0.001,29.13,6.399,54.993,9.546,71.43l0,0
				C371.732,287.897,371.971,288.254,372.291,288.703L372.291,288.703z"/>
		</g>
		<g>
			<path d="M589.086,160.484c0-0.002,0.011-0.007,0.076-0.039l0,0c0.066-0.032,0.171-0.087,0.312-0.161l0,0
				c0.278-0.148,0.696-0.376,1.219-0.682l0,0c1.05-0.61,2.521-1.529,4.147-2.729l0,0c3.262-2.395,7.115-5.924,9.541-10.158l0,0
				c1.626-2.831,2.643-5.922,2.645-9.357l0,0c-0.004-2.898-0.717-6.098-2.619-9.735l0,0c-2.132-4.058-5.53-7.001-9.631-8.985l0,0
				c-4.087-1.981-8.853-2.937-13.326-2.931l0,0c-3.668-0.006-7.135,0.643-9.802,1.742l0,0c-2.69,1.097-4.47,2.616-5.227,4.069l0,0
				l-6.076-3.254c1.834-3.386,5.025-5.681,8.687-7.193l0,0c3.686-1.504,7.959-2.251,12.418-2.257l0,0
				c5.429,0.006,11.145,1.118,16.324,3.615l0,0c5.166,2.488,9.821,6.43,12.737,11.992l0,0c2.363,4.495,3.411,8.869,3.407,12.937l0,0
				c0.002,4.836-1.467,9.159-3.565,12.799l0,0c-2.104,3.646-4.832,6.656-7.509,9.075l0,0c-5.362,4.832-10.566,7.356-10.74,7.449l0,0
				L589.086,160.484L589.086,160.484z"/>
		</g>
		<g>
			<path d="M347.334,165.138c-4.53-4.931-7.875-12.144-7.854-21.521l0,0c0-2.463,0.223-5.071,0.698-7.831l0,0
				c1.201-7.178,5.257-12.464,10.412-15.57l0,0c5.154-3.14,11.266-4.343,17.214-4.35l0,0c9.287,0.078,18.225,2.771,23.408,7.697l0,0
				l-4.822,4.923c-2.873-2.965-10.809-5.808-18.586-5.728l0,0c-5.009-0.011-9.934,1.068-13.617,3.337l0,0
				c-3.682,2.299-6.26,5.546-7.217,10.863l0,0c-0.413,2.398-0.6,4.613-0.6,6.658l0,0c0.021,7.773,2.614,13.074,6.055,16.876l0,0
				c3.435,3.783,7.888,5.983,11.341,6.839l0,0l-1.671,6.686C357.417,172.839,351.868,170.087,347.334,165.138L347.334,165.138z"/>
		</g>
		<g>
			<path d="M377.688,140.015c-3.258-2.492-10.156-3.066-13.223,0c-3.066,3.065-4.025,8.623,4.791,13.03"/>
		</g>
		<g>
			<circle cx="411.224" cy="157.645" r="12.073"/>
		</g>
		<g>
			<circle fill="#FFFFFF" cx="417.356" cy="160.136" r="4.024"/>
		</g>
		<g>
			<circle cx="503.207" cy="154.387" r="12.072"/>
		</g>
		<g>
			<circle fill="#FFFFFF" cx="509.339" cy="156.878" r="4.024"/>
		</g>
		<g>
			<path d="M576.22,134.265c2.875-3.832,10.54-4.216,13.606,0.192c3.066,4.407-1.726,9.772-4.791,12.455L576.22,134.265z"/>
		</g>
		<g>
			<path d="M521.029,188.113c-10.655,0.01-19.068-3.288-25.19-8.959l0,0c-6.129-5.666-9.936-13.606-11.764-22.742l0,0
				c-0.415-2.072-0.615-4.161-0.615-6.24l0,0c0.002-8.998,3.742-17.796,10.164-24.365l0,0c6.42-6.57,15.566-10.904,26.301-10.9l0,0
				c0.19,0,0.374,0.001,0.55,0.004l0,0c14.12,0.18,23.988,4.583,30.199,11.782l0,0c6.209,7.192,8.684,16.944,8.684,27.565l0,0
				c0,0.237,0,0.477-0.003,0.718l0,0l-1.531-0.015l1.531,0.016c-0.195,19.333-16.944,33.139-38.204,33.137l0,0
				C521.112,188.113,521.068,188.113,521.029,188.113L521.029,188.113z M495.814,127.949c-5.887,6.014-9.295,14.081-9.293,22.223
				l0,0c0,1.882,0.182,3.769,0.558,5.64l0,0c1.737,8.683,5.305,15.979,10.839,21.092l0,0c5.539,5.108,13.069,8.136,23.111,8.146l0,0
				c20.076-0.052,35.077-12.676,35.262-30.104l0,0l0,0c0.003-0.228,0.003-0.457,0.003-0.688l0,0c0-10.173-2.378-19.139-7.938-25.562
				l0,0c-5.559-6.415-14.377-10.522-27.926-10.723l0,0c-0.174-0.004-0.341-0.005-0.505-0.005l0,0
				C510.023,117.971,501.703,121.935,495.814,127.949L495.814,127.949z"/>
		</g>
		<g>
			<path d="M430.579,191.372c-10.598,0.003-19.15-2.713-25.426-8.056l0,0c-6.279-5.339-10.164-13.206-11.73-23.131l0,0
				c-0.281-1.775-0.419-3.561-0.419-5.345l0,0c0.003-9.212,3.639-18.35,10.013-25.22l0,0c6.37-6.871,15.541-11.462,26.467-11.456
				l0,0c0.187,0,0.368,0.001,0.541,0.006l0,0c14.121,0.177,23.988,4.58,30.199,11.78l0,0c6.211,7.191,8.683,16.943,8.683,27.567l0,0
				c0,0.234,0,0.473-0.001,0.716l0,0l-1.533-0.016l1.533,0.018c-0.198,19.331-16.945,33.137-38.205,33.136l0,0
				C430.661,191.372,430.618,191.372,430.579,191.372L430.579,191.372z M405.26,131.705c-5.851,6.298-9.197,14.732-9.195,23.136l0,0
				c0,1.628,0.127,3.252,0.383,4.863l0,0c1.5,9.429,5.087,16.509,10.689,21.279l0,0c5.606,4.766,13.343,7.319,23.441,7.323l0,0
				c20.076-0.052,35.074-12.675,35.261-30.104l0,0l0,0c0.004-0.227,0.004-0.457,0.004-0.685l0,0c0-10.175-2.38-19.144-7.939-25.564
				l0,0c-5.558-6.416-14.376-10.521-27.927-10.722l0,0c-0.168-0.003-0.334-0.005-0.494-0.005l0,0
				C419.424,121.232,411.118,125.406,405.26,131.705L405.26,131.705z"/>
		</g>
		<g>
			<path d="M463.506,235.767c-1.053-1.616-1.643-3.668-2.052-6.055l0,0c-0.796-4.763-0.786-10.93-0.788-17.262l0,0h3.062
				c0,4.742,0.003,9.349,0.32,13.195l0,0c0.297,3.84,0.99,6.928,2.016,8.439l0,0c0.709,1.006,1.256,1.33,2.267,1.362l0,0
				c4.116,0.003,6.233-0.884,7.265-1.862l0,0c1.031-0.966,1.351-2.252,1.359-3.888l0,0c0-3.641,0-22.229,0-22.229l0,0h3.062
				c0,0.022,0,18.589,0,22.229l0,0c0.012,2.005-0.439,4.362-2.33,6.125l0,0c-1.89,1.752-4.854,2.688-9.356,2.688l0,0
				c-0.03,0.001-0.062,0.001-0.091,0.001l0,0C466.223,238.512,464.508,237.361,463.506,235.767L463.506,235.767z"/>
		</g>
		<g>
			<path d="M486.345,237.937c-2.805,0.004-5.169-0.875-6.829-2.388l0,0c-1.662-1.507-2.567-3.628-2.561-5.852l0,0l0,0h3.062
				c0.006,1.418,0.54,2.649,1.561,3.586l0,0c1.022,0.93,2.584,1.586,4.767,1.591l0,0c2.187-0.009,3.782-0.65,4.886-1.786l0,0
				c1.102-1.139,1.816-2.901,1.821-5.498l0,0c0-5.75,0-14.168,0.001-14.182l0,0h3.063c-0.001,0.014-0.001,8.434,0,14.182l0,0
				c0.005,3.151-0.908,5.798-2.684,7.628l0,0c-1.763,1.827-4.272,2.719-7.05,2.719l0,0
				C486.369,237.937,486.357,237.937,486.345,237.937L486.345,237.937z"/>
		</g>
		<g>
			<path d="M487.754,213.244c-1.633-0.957-2.88-1.955-5.048-2.821l0,0c-1.815-0.727-2.94-1.004-4.033-1.004l0,0
				c-2.211-0.056-5.237,1.4-13.281,4.284l0,0c-2.219,0.784-4.339,1.147-6.308,1.147l0,0c-3.656,0.001-6.791-1.257-9.005-3.28l0,0
				c-2.214-2.02-3.511-4.809-3.509-7.755l0,0c-0.002-1.644,0.403-3.325,1.239-4.914l0,0c2.362-4.401,7.707-7.96,13.563-10.649l0,0
				c5.879-2.656,12.246-4.338,16.922-4.353l0,0v1.532v1.53c-3.949-0.014-10.132,1.562-15.657,4.078l0,0
				c-5.545,2.487-10.452,6.018-12.116,9.284l0,0c-0.613,1.169-0.888,2.347-0.889,3.491l0,0c0.008,4.061,3.539,7.939,9.451,7.972l0,0
				c1.596,0,3.365-0.293,5.283-0.972l0,0c7.948-2.79,10.846-4.405,14.306-4.46l0,0c1.661,0,3.228,0.443,5.175,1.225l0,0
				c2.552,1.021,4.088,2.234,5.445,3.016l0,0c1.369,0.776,2.547,1.274,5.103,1.294l0,0c1.11,0,2.472-0.112,4.167-0.376l0,0
				c2.947-0.469,4.68-1.516,5.732-2.764l0,0c1.051-1.254,1.502-2.829,1.506-4.607l0,0c0.003-1.855-0.522-3.882-1.308-5.628l0,0
				c-0.879-2.116-4.699-5.26-9.675-7.553l0,0c-4.971-2.34-11.08-4.005-16.523-4l0,0v-1.53v-1.532
				c6.055,0.006,12.496,1.79,17.824,4.29l0,0c5.326,2.546,9.556,5.63,11.168,9.072l0,0c0.928,2.074,1.572,4.465,1.576,6.881l0,0
				c0.005,2.293-0.607,4.656-2.221,6.576l0,0c-1.609,1.923-4.145,3.284-7.607,3.822l0,0c-1.811,0.279-3.323,0.411-4.64,0.413l0,0
				c-0.038,0-0.075,0-0.112,0l0,0C491.346,214.954,489.354,214.194,487.754,213.244L487.754,213.244z"/>
		</g>
		<g>
			<path d="M478.295,195.013c6.516,0,14.181-6.324,14.947-10.54c0.768-4.216-7.473-8.241-15.139-8.241
				c-7.664,0-17.822,4.024-15.714,10.733C464.498,193.671,472.929,195.013,478.295,195.013z"/>
		</g>
	</g>
	<polygon opacity="0.2" points="472.057,50.626 357.672,384.715 314.735,384.715 429.121,50.626 	"/>
	<polygon fill="#6D8E9E" points="345.496,356.142 357.611,384.715 368.407,353.881 	"/>
	<polygon fill="#E0EBF5" points="345.553,356.142 720.676,356.142 837.062,23.38 459.208,23.38 	"/>
	<g>
		
			<ellipse transform="matrix(0.9852 0.1714 -0.1714 0.9852 134.7494 -32.7267)" fill="#F39C12" cx="256.876" cy="763.895" rx="70.801" ry="72.539"/>
		<path fill="#F39C12" d="M146.742,871.868c18.616,2.023,107.699-3.566,162.942-78.268c-36.549-23.174-26.965-38.148-34.081-78.102
			c-45.359-4.643-106.571,23.639-122.136,80.557c0,0-3.08,27.93,3.496,44.111C163.54,856.35,146.742,871.868,146.742,871.868z"/>
		<g>
			<path fill="#F39C12" d="M136.872,868.629c0,0-31.381-12.791-47.725-52.049c-19.461-46.752,13.905-154.494,59.704-169.545
				c-22.93,8.588-27.604,30.299-19.048,53.191c5.329,14.168,6.707,21.898,20.447,25.314c-0.062,0.018,1.369,1.514,2.923,1.4
				c-14.925,4.678-13.42,28.73,4.052,44.367c26.732,22.246,22.714,33.834,25.899,45.164
				C183.766,829.954,168.974,885.926,136.872,868.629z"/>
			<path fill="#F39C12" d="M205.783,672.938c-8.579-22.881-34.053-34.475-56.931-25.902c-22.93,8.588-34.521,34.059-25.967,56.951
				c5.331,14.168,17.141,24.059,30.879,27.479l0.053-0.027c8.336,2.09,17.388,1.744,26.081-1.523
				C202.768,721.344,214.346,695.809,205.783,672.938z"/>
		</g>
	</g>
	<path fill="#182A54" d="M274.628,693.34c-11.014-4.299-31-4.666-51,4.666c-20,9.334-31.334,32-34.667,43.668
		c0,0-9.666,8.334-12.333,11.666c0,0,47,95.666,54.667,103c0,0,27-9.002,39.333-18.334
		C282.961,828.672,301.961,704.006,274.628,693.34z"/>
	<g id="XMLID_35_">
		<path fill="#FAAF40" d="M459.637,949.649c-4.538-7.699-0.03-41.125-0.03-41.125c0-3.82,0.48-7.32,1.351-10.609
			c8.26-30.971,37.184-48.488,39.043-118.098c-2.22-74.041-50.264-127.082-126.723-127.082c-12.85,0-25.31,1.68-37.14,4.82
			c-59.86,15.889-103.86,69.27-103.86,132.68c0,1.82,0.04,3.631,0.101,5.43c0.53,13.191,2.96,25.9,7.04,37.891
			c0,0.02,0.01,0.039,0.029,0.068c4.801,12.951,11.631,24.932,19.03,36.471c20.15,31.381,44.601,59.461,44.601,94.891
			c0,0,0,5.98,0,12.449v112.635h81.52v-98.65l-0.13-0.17l-0.08-0.09h0.25l-0.04,0.021v0.238l55.246,104.211l85.265-5.561
			C525.107,1090.069,461.171,952.252,459.637,949.649z"/>
		<g>
			<path d="M384.597,1090.069v87.041h-145.4c0-59.781,55-63.99,63.881-64.23v-22.811H384.597z"/>
			<path d="M538.032,1116.249c-1.17-0.059-2.34-0.09-3.52-0.09c-23.91,0-44.94,12.311-57.1,30.941
				c-5.761,8.799-9.53,19.02-10.681,30.01h135.561C598.812,1144.01,571.643,1117.959,538.032,1116.249z"/>
			<polygon points="512.523,1062.799 546.842,1130.069 477.814,1170.434 436.333,1088.803 			"/>
		</g>
	</g>
	<g>
		
			<line fill="none" stroke="#000000" stroke-width="10" stroke-linecap="round" x1="689.041" y1="448.032" x2="837.684" y2="22.807"/>
		<ellipse cx="841.525" cy="10.176" rx="10.403" ry="10.149"/>
	</g>
	<g>
		
			<ellipse transform="matrix(0.9695 0.245 -0.245 0.9695 188.7411 -93.8951)" fill="#FAAF40" cx="471.794" cy="711.722" rx="73.915" ry="75.733"/>
		<g>
			<circle fill="#FAAF40" cx="683.51" cy="476.678" r="48.52"/>
			<path fill="#FAAF40" d="M691.396,664.817c0,0,10.926-13.668,10.227-66.269c-0.699-52.603,9.438-79.888,18.451-89.651
				c0,0-64.484,7.752-60.666,9.908c7.432,4.193,10.307,17.611-2.887,33.962c-8.087,10.026-56.521,60.019-47.958,115.628
				C612.423,693.467,655.037,722.555,691.396,664.817z"/>
		</g>
		<path fill="#FAAF40" d="M579.731,756.631c35.827-12.236,72.507-34.799,94.926-71.281c10.597-17.242,1.243-56.02-46.03-62.01
			c0,0-78.656-18.762-121.323,38.145c-42.666,56.906-7.21,118.553-7.21,118.553S531.256,773.19,579.731,756.631z"/>
	</g>
	<g>
		<path opacity="0.2" d="M400,621.069c0,0-28.5,55.666-88.666,55.666c-7.841,0-28.501-7.5-27-39L400,621.069z"/>
		<g>
			<path fill="#FAAF40" d="M404.143,505.192c-11.205-41.766-39.82-58.514-76.567-56.199c-37.749,2.383-67.265,32.092-70.564,68.645
				c-0.031,0.275-0.019,0.545-0.034,0.812c0,0-4.189,54.576-3.861,58.829c5.218,67.79,32.762,84.364,78.218,81.456
				c45.446-2.92,89.276-46.561,86.365-92.001C417.521,563.954,404.143,505.192,404.143,505.192z"/>
			<path d="M320.248,517.391c-1.315-0.959-1.596-2.811-0.598-4.123l0,0c2.789-3.74,6.886-5.699,10.857-6.795l0,0
				c7.977-2.146,16.046-1.023,16.241-1.023l0,0c1.598,0.215,2.729,1.688,2.519,3.303l0,0c-0.206,1.611-1.696,2.744-3.278,2.535l0,0
				c-0.023,0.029-1.9-0.221-4.588-0.227l0,0c-2.673-0.02-6.136,0.188-9.341,1.078l0,0c-3.254,0.887-6.062,2.4-7.709,4.645l0,0
				c-0.409,0.547-0.958,0.92-1.58,1.082l0,0C321.933,518.09,320.998,517.94,320.248,517.391L320.248,517.391z"/>
			<path d="M254.535,514.641c-0.77-1.432-0.242-3.219,1.223-3.988l0,0c4.132-2.172,8.666-2.193,12.731-1.48l0,0
				c8.117,1.471,14.94,5.951,15.104,6.027l0,0c1.358,0.889,1.742,2.697,0.867,4.059l0,0c-0.873,1.373-2.705,1.76-4.048,0.895l0,0
				c-0.034,0.01-1.627-1.008-4.051-2.182l0,0c-2.399-1.148-5.633-2.443-8.91-3.012l0,0c-3.312-0.596-6.509-0.42-8.942,0.885l0,0
				c-0.606,0.328-1.264,0.42-1.898,0.311l0,0C255.753,515.995,254.974,515.465,254.535,514.641L254.535,514.641z"/>
			<path fill="#FAAF40" d="M403.709,529.604c3.004-7.631,11.575-9.258,15.932-4.691c8.024,8.422,14.803,29.216-4.092,37.025"/>
			<path d="M409.291,523.516c1.086-7.285,1.509-21.178-2.601-35.939c-8.291-29.783-30.367-27.748-30.367-27.748l-25.396,16.174
				c0,0,16.454,15.654,29.517,31.129c6.204,7.346,14.24,22.445,16.383,36.393L409.291,523.516z"/>
			<path d="M343.009,535.786c0.296,5.144-3.405,9.54-8.276,9.823c-4.872,0.283-9.061-3.658-9.361-8.802
				c-0.297-5.148,3.404-9.547,8.274-9.834C338.519,526.696,342.708,530.637,343.009,535.786z"/>
			<path d="M275.739,539.638c0.3,5.145-3.406,9.546-8.277,9.826c-4.865,0.279-9.055-3.66-9.356-8.803
				c-0.301-5.146,3.406-9.546,8.276-9.825C271.252,530.549,275.443,534.491,275.739,539.638z"/>
		</g>
		<g>
			<g opacity="0.2">
				<g>
					<path d="M262.292,604.45c1.378-1.658,2.646-3.348,3.782-4.9c4.429-6.041,11.941-16.826,24.105-17.415
						c12.161-0.596,15.416,6.854,16.214,9.351c0.815,2.5,1.732,9.248-3.338,14.974c-2.111,2.384-21.484,14.913-37.847,19.685
						c-0.032,0.01-0.097,0.029-0.097,0.029s-3.467-6.582-2.927-9.543c0.558-3.055,5.103-2.532,3.703-5.2
						C263.779,607.411,262.292,604.45,262.292,604.45z"/>
					<path d="M358.374,598.044c0.666-3.664,5.13-6.351,9.113-4.857c3.702,1.386,7.064,11.59-3.693,12.936
						c-7.18,0.902-14.605-6.331-19.787-11.734c-5.186-5.406-14.048-15.105-26.187-14.085c-12.122,1.014-14.374,8.826-14.847,11.409
						c-0.461,2.583-1.303,8.277,5.287,14.4c3.41,3.172,31.284,18.394,57.435,11.659c23.369-6.017,13.585-31.518,2.903-31.258
						C356.838,586.799,358.374,598.044,358.374,598.044z"/>
				</g>
			</g>
			<g>
				<path d="M252.583,601.194c-1.146-3.544-5.917-5.614-9.669-3.613c-3.496,1.866-5.479,12.424,5.368,12.336
					c7.228-0.054,13.631-8.203,18.06-14.242c4.428-6.041,11.94-16.825,24.105-17.416c12.16-0.597,15.415,6.854,16.213,9.353
					c0.816,2.5-0.374,11.38-3.339,14.972c-2.946,3.609-28.575,22.357-55.396,19.131c-23.959-2.875-17.624-29.443-6.994-30.598
					C252.622,589.844,252.583,601.194,252.583,601.194z"/>
				<path d="M358.641,594.169c0.666-3.664,5.131-6.352,9.113-4.86c3.702,1.389,7.065,11.592-3.692,12.938
					c-7.18,0.901-14.605-6.333-19.787-11.735c-5.186-5.405-14.049-15.105-26.188-14.086c-12.122,1.013-14.374,8.828-14.846,11.41
					c-0.461,2.584,1.881,11.229,5.285,14.401c3.397,3.187,31.286,18.394,57.436,11.658c23.37-6.015,13.586-31.518,2.904-31.258
					C357.106,582.925,358.641,594.169,358.641,594.169z"/>
			</g>
		</g>
		<path d="M373.878,458.473l-15.354,10.596c0,0-57.638,30.816-92.46,20.326c0,0-3.689-23.115,20.888-42.971
			c16.527-13.34,51.078-22.33,72.758-9.967C376.397,445.971,373.878,458.473,373.878,458.473z"/>
	</g>
	<path d="M317.898,619.284c0,6.555-5.312,11.865-11.865,11.865s-11.865-5.311-11.865-11.865
		C294.167,612.731,317.898,612.731,317.898,619.284z"/>
	<g>
		<path d="M176.05,655.672c-8.72,2.695-16.104,10.176-22.795,14.383l0.045,0.037c0,0,1.465,2.137,2.001,6.531
			c0.291,2.373,5.332,3.641,11.294,2.912c5.96-0.727,10.553-3.172,10.264-5.545C176.062,667.483,175.232,658.772,176.05,655.672z"/>
		<g>
			<path d="M171.262,732.118c5.585-0.682,10.518-3.107,10.518-3.107l1.645,13.455c0,0-5.071,2.535-11.395,3.309
				c-6.324,0.771-10.152-0.676-10.152-0.676s-1.3-7.752-1.922-12.883C159.955,732.215,165.684,732.799,171.262,732.118z"/>
		</g>
		<g>
			<g>
				<g>
					<path fill="#999999" d="M206.146,597.741c5.37,0.401,11.055,0.303,17.091-0.435l2.084,25.647l3.336,15.152
						c-5.834,0.713-11.229,2.076-16.255,3.924L206.146,597.741z"/>
					
						<ellipse transform="matrix(0.9926 -0.1212 0.1212 0.9926 -73.2132 31.9175)" fill="#263D78" cx="225.739" cy="617.732" rx="12.657" ry="20.579"/>
				</g>
				<path fill="#D62408" d="M72.429,547.763c28.951-3.536,63.525,54.078,134.38,45.422l2.766,34.034L214,647.327
					c-63.032,7.699-87.559,72.512-121.308,76.635"/>
				
					<ellipse transform="matrix(0.9926 -0.1212 0.1212 0.9926 -76.5319 14.4645)" fill="#D64646" cx="80.592" cy="636.112" rx="54.544" ry="88.687"/>
				
					<ellipse transform="matrix(0.9926 -0.1212 0.1212 0.9926 -73.6534 30.0516)" fill="#D62408" cx="210.129" cy="620.289" rx="16.794" ry="27.306"/>
				
					<ellipse transform="matrix(0.9926 -0.1212 0.1212 0.9926 -76.7513 14.3715)" cx="79.738" cy="637.975" rx="44.451" ry="74.113"/>
				<g>
					<path fill="#666666" d="M121.395,674.448c-12.985-2.576-27.053-3.367-42.802-1.443l-3.307-40.674l-5.289-24.025
						c16.036-1.959,29.985-7.033,42.395-13.854c0,0,8.65,15.111,11.319,36.57c3.48,27.973-2.288,43.611-2.288,43.611"/>
					
						<ellipse transform="matrix(-0.9926 0.1213 -0.1213 -0.9926 226.3782 1267.4517)" fill="#808080" cx="74.625" cy="640.614" rx="20.069" ry="32.631"/>
				</g>
				
					<ellipse transform="matrix(0.9926 -0.1212 0.1212 0.9926 -77.1758 13.5759)" fill="#333333" cx="73.008" cy="641.185" rx="12.336" ry="20.569"/>
			</g>
			<g opacity="0.2">
				<path d="M226.641,617.125l-0.205-0.025c-6.059,0.137-11.882,0.373-17.456,0.682c-45.457,2.541-74.232,10.186-74.232,10.186
					l-0.209,0.025c0.072,0.506,0.134,1.002,0.195,1.51c5.849,47.883-12.907,89.715-42.037,94.453l0.001,0.01
					c33.749-4.123,58.27-68.943,121.3-76.643l-0.002-0.021c4.103-0.723,7.52-3.84,9.84-8.436c2.493-4.908,3.714-11.494,3.152-18.641
					c-0.04-0.66-0.108-1.307-0.189-1.971C226.752,617.877,226.707,617.499,226.641,617.125z M121.395,674.452
					c3.286-12.279,4.314-26.701,2.462-41.869c-0.111-0.912-0.232-1.824-0.364-2.736l-29.729,3.633c0.327,1.52,0.59,3.09,0.786,4.699
					c1.608,13.162-1.842,25.078-8.151,30.996c-2.27,2.121-4.905,3.471-7.804,3.824c2.77-0.338,5.489-0.59,8.157-0.764
					C99.253,671.413,110.688,672.323,121.395,674.452z"/>
				<path opacity="0.5" d="M238.478,618.038c-4.443,1.066-11.489,2.188-11.489,2.188c0.562,7.146-0.659,13.732-3.152,18.641
					c1.574-0.303,3.175-0.559,4.823-0.76l-0.014-0.029C234.976,636.952,239.169,628.309,238.478,618.038z M78.594,672.999
					L78.583,673c-11.008,1.344-21.692-12.068-23.878-29.955c-0.195-1.6-0.318-3.186-0.367-4.74l-0.101,0.002l-18.929,2.312
					c0.092,0.916,0.192,1.83,0.304,2.742c4.964,40.639,28.74,71.16,53.11,68.184c0.844-0.104,1.673-0.246,2.495-0.436
					c14.072-3.059,24.965-17.154,30.177-36.658c-10.706-2.129-22.142-3.039-34.644-2.217
					C84.083,672.409,81.363,672.661,78.594,672.999z M75.499,661.6c0.734-0.09,1.445-0.287,2.123-0.592
					c3.081-1.334,5.482-4.689,6.782-9.141c1.041-3.512,1.395-7.715,0.854-12.152l-24.488,2.992
					C62.154,653.971,68.749,662.424,75.499,661.6z"/>
			</g>
			<g opacity="0.2">
				<path d="M195.54,618.477c0.495,3.143,0.854,6.494,0.971,9.754c-1.549,0.439-3.062,0.918-4.562,1.424
					c-0.089-3.535-0.464-7.188-1.004-10.617c-0.423-2.709-0.958-5.282-1.524-7.529c1.541,0.003,3.111-0.018,4.706-0.062
					C194.658,613.568,195.141,615.965,195.54,618.477z"/>
				<path d="M186.476,619.583c0.595,3.787,1,7.848,1.019,11.713c-1.558,0.613-3.09,1.266-4.597,1.953
					c0.082-4.271-0.337-8.865-1.007-13.104c-0.517-3.324-1.199-6.433-1.925-9.004c1.576,0.12,3.178,0.206,4.817,0.268
					C185.419,613.808,186.013,616.608,186.476,619.583z"/>
				<path d="M177.425,620.69c0.756,4.783,1.193,10.02,0.945,14.744c-1.614,0.822-3.189,1.689-4.743,2.572
					c0.521-5.211,0.062-11.279-0.799-16.754c-0.689-4.338-1.629-8.314-2.577-11.211c1.622,0.255,3.281,0.475,4.977,0.661
					C176.036,613.444,176.834,616.932,177.425,620.69z"/>
				<path d="M168.362,621.797c1.004,6.324,1.44,13.434,0.482,19.121c-1.795,1.146-3.544,2.338-5.259,3.555
					c1.773-6.02,1.379-14.615,0.19-22.117c-0.989-6.275-2.54-11.799-3.821-14.372c1.733,0.423,3.517,0.829,5.344,1.191
					C166.393,612.104,167.558,616.696,168.362,621.797z"/>
			</g>
			<g opacity="0.2">
				<path d="M226.641,617.125l-0.205-0.025c-6.059,0.137-11.882,0.373-17.456,0.682c-45.457,2.541-74.232,10.186-74.232,10.186
					l-0.209,0.025c0.072,0.506,0.134,1.002,0.195,1.51c5.849,47.883-12.907,89.715-42.037,94.453l0.001,0.01
					c33.749-4.123,58.27-68.943,121.3-76.643l-0.002-0.021c4.103-0.723,7.52-3.84,9.84-8.436c2.493-4.908,3.714-11.494,3.152-18.641
					c-0.04-0.66-0.108-1.307-0.189-1.971C226.752,617.877,226.707,617.499,226.641,617.125z M121.395,674.452
					c3.286-12.279,4.314-26.701,2.462-41.869c-0.111-0.912-0.232-1.824-0.364-2.736l-29.729,3.633c0.327,1.52,0.59,3.09,0.786,4.699
					c1.608,13.162-1.842,25.078-8.151,30.996c-2.27,2.121-4.905,3.471-7.804,3.824c2.77-0.338,5.489-0.59,8.157-0.764
					C99.253,671.413,110.688,672.323,121.395,674.452z"/>
				<path opacity="0.5" d="M238.478,618.038c-4.443,1.066-11.489,2.188-11.489,2.188c0.562,7.146-0.659,13.732-3.152,18.641
					c1.574-0.303,3.175-0.559,4.823-0.76l-0.014-0.029C234.976,636.952,239.169,628.309,238.478,618.038z M78.594,672.999
					L78.583,673c-11.008,1.344-21.692-12.068-23.878-29.955c-0.195-1.6-0.318-3.186-0.367-4.74l-0.101,0.002l-18.929,2.312
					c0.092,0.916,0.192,1.83,0.304,2.742c4.964,40.639,28.74,71.16,53.11,68.184c0.844-0.104,1.673-0.246,2.495-0.436
					c14.072-3.059,24.965-17.154,30.177-36.658c-10.706-2.129-22.142-3.039-34.644-2.217
					C84.083,672.409,81.363,672.661,78.594,672.999z M75.499,661.6c0.734-0.09,1.445-0.287,2.123-0.592
					c3.081-1.334,5.482-4.689,6.782-9.141c1.041-3.512,1.395-7.715,0.854-12.152l-24.488,2.992
					C62.154,653.971,68.749,662.424,75.499,661.6z"/>
			</g>
			<g opacity="0.2">
				<path d="M195.54,618.477c0.495,3.143,0.854,6.494,0.971,9.754c-1.549,0.439-3.062,0.918-4.562,1.424
					c-0.089-3.535-0.464-7.188-1.004-10.617c-0.423-2.709-0.958-5.282-1.524-7.529c1.541,0.003,3.111-0.018,4.706-0.062
					C194.658,613.568,195.141,615.965,195.54,618.477z"/>
				<path d="M186.476,619.583c0.595,3.787,1,7.848,1.019,11.713c-1.558,0.613-3.09,1.266-4.597,1.953
					c0.082-4.271-0.337-8.865-1.007-13.104c-0.517-3.324-1.199-6.433-1.925-9.004c1.576,0.12,3.178,0.206,4.817,0.268
					C185.419,613.808,186.013,616.608,186.476,619.583z"/>
				<path d="M177.425,620.69c0.756,4.783,1.193,10.02,0.945,14.744c-1.614,0.822-3.189,1.689-4.743,2.572
					c0.521-5.211,0.062-11.279-0.799-16.754c-0.689-4.338-1.629-8.314-2.577-11.211c1.622,0.255,3.281,0.475,4.977,0.661
					C176.036,613.444,176.834,616.932,177.425,620.69z"/>
				<path d="M168.362,621.797c1.004,6.324,1.44,13.434,0.482,19.121c-1.795,1.146-3.544,2.338-5.259,3.555
					c1.773-6.02,1.379-14.615,0.19-22.117c-0.989-6.275-2.54-11.799-3.821-14.372c1.733,0.423,3.517,0.829,5.344,1.191
					C166.393,612.104,167.558,616.696,168.362,621.797z"/>
			</g>
		</g>
	</g>
	<line fill="none" stroke="#000000" stroke-width="10" stroke-linecap="round" x1="676.676" y1="480.34" x2="582.627" y2="749.94"/>
	<g>
		<g opacity="0.2">
			<path d="M255.388,537.713c7.356,1.731,67.968,7.756,106.888-10.602c11.468-5.408,25.748-18.176,25.748-18.176l21.637-4.109
				c0,0-1.355-11.744-2.163-14.498c-0.808-2.752-147.349-1.297-147.349-1.297l-3.679,37.432L255.388,537.713z"/>
		</g>
		<g>
			<path fill="#21AA29" d="M255.627,496.342c-18.5,7.248-37,20.498-37,20.498s22.416,14.334,77.75,9.5
				c55.334-4.832,79.025-27.621,79.025-27.621S276.223,488.272,255.627,496.342z"/>
			<g>
				<g id="XMLID_32_">
					<g>
						<path fill="#FFCF00" d="M255.627,496.34c1.1-36.99,24.44-74.51,66.13-79.119c-49.7,19.129-58.68,66.949-59.38,81.869
							l-0.05,0.17C256.797,497.702,255.627,496.34,255.627,496.34z"/>
						<path fill="#263D78" d="M408.958,491.221c0,0-1.88,0.811-5.64,2.01c-11.761-63.98-66.79-74.721-81.41-76.029
							c2.779-0.301,5.64-0.461,8.58-0.461C371.818,416.741,408.368,452.241,408.958,491.221z"/>
						<path fill="#D62408" d="M403.318,493.231c-8.73,2.801-27.591,7.75-56.54,9.74c0.46-21.371-7.04-63.891-24.92-85.77
							c0.01,0,0.02,0,0.029,0s0.01,0,0.021,0C336.528,418.51,391.557,429.25,403.318,493.231z"/>
						<path fill="#FFCF00" d="M321.858,417.202c17.88,21.879,25.38,64.398,24.92,85.77c-6.141,0.43-12.73,0.709-19.771,0.82
							c-38.41,0.59-56.42-2.201-64.68-4.531l0.05-0.17c0.7-14.92,9.68-62.74,59.38-81.869
							C321.788,417.211,321.828,417.211,321.858,417.202z"/>
					</g>
				</g>
			</g>
			<g>
				<circle fill="#21AA29" cx="323.627" cy="416.581" r="6.062"/>
				<path fill="#2159D6" d="M400.792,403.53c-0.06-0.068-0.119-0.133-0.181-0.203c-8.652-9.527-44.102-19.363-76.271,0.102h0.009
					c-0.004,0.004-0.011,0.008-0.016,0.01c19.642,11.885,43.98,10.459,60.149,6.477c0.753-0.188,1.487-0.377,2.202-0.572
					c6.748-1.842,11.812-4.08,14.096-5.803h0.018C400.796,403.536,400.794,403.532,400.792,403.53z M324.341,403.428h-0.021
					c-24.46-14.801-47.778-12.658-61.316-6.594c-0.406,0.182-0.802,0.367-1.188,0.553c-3.688,1.795-6.564,3.875-8.424,5.938
					c-0.064,0.072-0.126,0.143-0.189,0.215c0,0,0,0.002,0.003,0.002c7.59,5.814,41.681,17.451,70.768,0.107
					c0.016-0.01,0.03-0.018,0.046-0.027c0.11-0.059,0.216-0.121,0.316-0.184c-0.002,0-0.002-0.002-0.004-0.002
					C324.334,403.434,324.338,403.432,324.341,403.428z"/>
				<path fill="#0F45A5" d="M324.35,403.428c-0.004,0.004-0.011,0.008-0.016,0.01c19.642,11.885,43.98,10.459,60.149,6.477
					c0.753-0.188,1.487-0.377,2.202-0.572C374.222,398.809,333.921,397.563,324.35,403.428z M324.341,403.428h-0.021
					c-24.46-14.801-47.778-12.658-61.316-6.594c-0.406,0.182-0.802,0.367-1.188,0.553c12.123,10.541,51.95,11.92,62.157,6.262
					c0.016-0.01,0.03-0.018,0.046-0.027c0.104-0.061,0.205-0.123,0.308-0.184h0.009c-0.002,0-0.002-0.002-0.004-0.002
					C324.334,403.434,324.338,403.432,324.341,403.428z"/>
				<circle fill="#FFCF00" cx="323.627" cy="408.18" r="6.062"/>
				<circle fill="#D62408" cx="323.627" cy="399.78" r="6.062"/>
			</g>
		</g>
	</g>
	<g id="XMLID_33_">
		<path fill="#D62408" d="M134.743,629.62c5.899,48.57-13.511,90.871-43.4,94.529c-0.21,0.031-0.42,0.051-0.62,0.07l-1.53-12.75
			c24.101-3.35,39.601-38.51,34.67-78.879c-0.06-0.49-0.119-0.98-0.189-1.471L134.743,629.62z"/>
		<path fill="#FFCF00" d="M134.732,629.5c0,0.039,0.011,0.08,0.011,0.119l-11.07,1.5h-0.01c-5.29-39.47-28.33-69.01-52.13-66.799
			l-1.94-16.211c0.08-0.01,0.17-0.02,0.25-0.029C99.743,544.43,128.793,580.88,134.732,629.5z"/>
		<path fill="#263D78" d="M89.192,711.469l1.53,12.75c-29.36,3.041-57.76-32.439-64.07-79.939l8.931-1.209
			c0.01,0.1,0.02,0.189,0.029,0.289c4.961,40.641,28.74,71.16,53.11,68.18C88.883,711.52,89.033,711.5,89.192,711.469z"/>
		<path fill="#21AA29" d="M69.593,548.11l1.94,16.211c-0.261,0.029-0.521,0.06-0.78,0.09c-24.311,2.97-40.021,38.149-35.17,78.66
			l-8.931,1.209c-0.069-0.52-0.14-1.029-0.199-1.551C20.533,594.25,39.823,551.97,69.593,548.11z"/>
	</g>
	<g id="XMLID_34_">
		<polygon fill="#A93C3C" points="384.812,992.338 384.812,1025.069 302.752,1025.069 302.752,992.338 302.792,992.338 
			302.792,992.409 346.993,992.338 		"/>
		<polygon fill="#D64646" points="346.993,992.338 302.792,992.409 302.792,992.338 		"/>
		<path fill="#D64646" d="M459.872,949.499c0.06,0.121,0.25,0.451,0.55,0.99l-75.5,41.791h-0.05l-37.88,0.059h-44.2V977.44v-12.451
			c0-12.33-2.94-23.74-7.65-34.719h162.87C457.691,938.319,457.972,946.27,459.872,949.499z"/>
		<polygon fill="#A93C3C" points="460.422,950.489 474.848,982.545 401.548,1023.125 384.922,992.28 		"/>
	</g>
	<path fill="#263D78" d="M459.96,930.633c0-33.529,2.363-36.164,14.061-56.965c28.567-50.799,27.038-91.211,27.038-91.211
		l71.384-21.271l-27.761-130.873c-17.666,7.932-27.761,19.107-27.761,19.107s-31.727-21.27-60.568-12.979
		c-28.841,8.293-37.855,21.992-37.855,21.992l-16.585-3.605c-22.354,37.135-77.153,53.719-90.492,53.359
		c-13.339-0.361-27.761-18.748-29.924-23.795c0,0-49.389,37.133-49.389,101.668s26.678,85.805,42.541,111.041
		c15.863,25.238,19.111,36.771,19.111,36.771L459.96,930.633z"/>
	<g>
		<defs>
			<path id="SVGID_1_" d="M302.796,964.985c0-28.9-16.846-51.379-33.966-76.559c-3.729-5.48-9.248-12.668-13.014-18.316
				c-11.567-17.35-12.501-25.225-16.641-36.385l21.315-100.414l59.395-0.803l106.75,147.684l-60.326,67.92L302.796,964.985z"/>
		</defs>
		<clipPath id="SVGID_2_">
			<use xlink:href="#SVGID_1_"  overflow="visible"/>
		</clipPath>
		<g clip-path="url(#SVGID_2_)">
			<path fill="#FFFFFF" d="M247.422,876.909l15.22-0.869c9.633-0.553,12.775-3.027,15.403-11.139l7.229-22.346l46.236-2.643
				l9.725,21.375c3.54,7.758,7.137,9.848,16.769,9.297l15.028-0.859l-1.119-19.568l-3.083,0.178
				c-3.274,0.188-4.854-0.432-6.196-3.539l-46.273-99.406l-26.393,1.508l-34.831,104.047c-0.977,3.24-2.477,4.033-5.754,4.221
				l-3.08,0.176L247.422,876.909z M289.964,823.186l9.955-32.053c2.113-7.021,4.329-18.996,4.329-18.996l0.385-0.023
				c0,0,3.564,11.648,6.464,18.379l13.546,30.711L289.964,823.186z"/>
		</g>
	</g>
	<g opacity="0.1">
		<polygon points="296.683,933.94 457.959,930.643 457.871,934.59 298.242,938.356 		"/>
	</g>
	<g opacity="0.2">
		<path opacity="0.3" d="M501.059,782.458l71.384-21.271l-0.415-1.957c2.518-0.838,5.082-1.701,7.704-2.598
			c35.827-12.236,72.507-34.799,94.926-71.281c0.009-0.014,0.016-0.029,0.024-0.043c5.61-5.068,11.233-11.787,16.714-20.49
			c0,0,10.926-13.668,10.227-66.269c-0.699-52.603,9.438-79.888,18.451-89.651c0,0-0.115,0.014-0.315,0.039
			c10.324-11.623,14.893-27.99,10.781-44.193c-2.4-9.457-7.434-17.541-14.107-23.697c-11.429,4.824-21.045,19.311-23.305,38.295
			c-2.5,21-11,103.5-17,138.5s-34.5,62-63.5,76.5s-107.5,42.5-140,49c0,0,3.774,72.789,7.76,118.201
			C502.348,816.586,501.059,782.458,501.059,782.458z"/>
		<path d="M317.567,399.747c-21.938-10.688-42.277-8.416-54.563-2.912c-0.406,0.182-0.802,0.367-1.188,0.553
			c-3.688,1.795-6.564,3.875-8.424,5.938c-0.064,0.072-0.126,0.143-0.189,0.215c0,0,0,0.002,0.003,0.002
			c7.05,5.4,36.966,15.811,64.499,3.363c-0.089,0.412-0.138,0.838-0.138,1.275c0,1.633,0.647,3.111,1.696,4.199
			c-1.049,1.09-1.696,2.568-1.696,4.201c0,0.414,0.042,0.818,0.121,1.209c-39.135,6.525-60.996,42.783-62.06,78.551l0.001,0.002
			c-0.001,0-0.001,0-0.001,0c-18.5,7.248-37,20.498-37,20.498s11.335,7.232,37.738,9.688c-0.104,1.383-0.216,2.898-0.336,4.521
			l-0.642,6.664c0.045,0.011,0.101,0.021,0.149,0.033c-1.178,16.153-2.619,36.971-2.422,39.532
			c0.833,10.824,2.238,20.337,4.191,28.679c-2.779,2.316-5.82,3.936-9.024,3.959c-10.847,0.088-8.864-10.47-5.368-12.336
			c3.752-2.001,8.523,0.069,9.669,3.613c0,0,0.038-11.35-11.651-10.078c-10.63,1.154-16.965,27.723,6.994,30.598
			c4.81,0.58,9.576,0.441,14.186-0.182c5.26,13.205,12.562,22.285,21.771,28.205l-1.544,32.545l-0.142,2.988
			c-0.062,0.051-0.125,0.104-0.188,0.154c-0.211-0.385-0.385-0.732-0.513-1.031c0,0-3.713,2.795-9.098,8.17
			c-11.35-3.527-30.054-3.291-48.771,5.443c-20,9.334-31.334,32-34.667,43.668c0,0-9.666,8.334-12.333,11.666
			c0,0,0.108,0.221,0.313,0.637c-5.842,6.346-10.986,13.438-15.18,21.271c-1.406-1.275-2.912-2.588-4.537-3.939
			c-15.211-13.613-18.314-33.6-9.016-41.633c1.809,0.711,3.66,1.316,5.554,1.789l0.053-0.027c8.336,2.09,17.388,1.744,26.081-1.523
			c22.871-8.57,34.449-34.105,25.885-56.977c-8.579-22.881-34.053-34.475-56.931-25.902c-2.104,0.789-4.109,1.721-6.015,2.777
			c1.845-1.035,3.848-1.965,6.015-2.777c-45.799,15.051-79.165,122.793-59.704,169.545c16.344,39.258,47.725,52.049,47.725,52.049
			c3.511,1.891,6.814,2.906,9.914,3.197c-0.026,0.023-0.044,0.041-0.044,0.041c10.854,1.18,45.667-0.232,83.76-16.422
			c0.297,0.371,0.563,0.676,0.793,0.895c0,0,5.996-2,13.627-5.09c0.969,2.072,1.973,4.068,3.002,5.998l11.963,18.947
			c3.693,5.184,7.367,10.025,10.746,14.873c0.631,0.924,1.259,1.842,1.887,2.76c0.728,1.086,1.439,2.176,2.129,3.273
			c15.863,25.238,19.111,36.771,19.111,36.771l2.436-0.049c3.396,8.146,5.713,16.592,6.392,25.641
			c0.008,0.107,0.017,0.215,0.023,0.322c0.043,0.605,0.071,1.215,0.1,1.824c0.014,0.314,0.032,0.625,0.042,0.939
			c0.014,0.406,0.016,0.816,0.021,1.225c0.007,0.404,0.019,0.807,0.019,1.213v27.35h-0.04v32.73h0.325v87.811
			c-8.881,0.24-63.881,4.449-63.881,64.23h145.4v-152.041h0.215v-32.73h-0.215v-0.059h0.275h0.05l0.028,0.053l-0.013-0.055
			c-9.694-14.051-25.44-20.695-44.038-48.104c-34.991-51.568-47.4-162.783-26.531-247.061c0.034-0.137,0.202-31.275,0.641-38.963
			c0,0-8.949-9.166-9.699-61.416c0,0-1.855-37.459-1.617-70.986c0,0-32.833,3.125-47.223,0.715l28.731-23.246
			c0,0-5.665-62.775,36.656-86.016c0,0-1.284-1.439,0.169-3.135c0,0-3.634-3.875,0.242-8.479c0,0-5.382-5.807,1.678-11.855
			c-0.106-0.004-0.212-0.016-0.319-0.016C320.291,393.717,317.584,396.415,317.567,399.747z"/>
	</g>
	<g>
		<defs>
			<polygon id="SVGID_3_" points="361.834,307.083 435.953,89.267 571.29,53.909 643.127,102.341 650.127,204.341 635.627,320.84 
				635.627,341.84 382.627,346.84 			"/>
		</defs>
		<clipPath id="SVGID_4_">
			<use xlink:href="#SVGID_3_"  overflow="visible"/>
		</clipPath>
		<g clip-path="url(#SVGID_4_)">
			<g>
				<path d="M487.146,322.633c-43.102,0.006-71.028-10.61-88.167-21.419l0,0c-17.147-10.803-23.463-21.721-23.675-22.1l0,0
					l2.993-1.703l3.388-0.64l-3.388,0.64l-2.993,1.703l-0.286-0.501l-0.105-0.564c-3.018-16.059-9.781-42.858-9.786-73.336l0,0
					c0.002-19.201,2.688-39.922,10.73-60.407l0,0c10.527-26.89,30.669-42.092,52.02-50.385l0,0
					c21.37-8.331,44.067-10.046,60.722-10.44l0,0c3.925-0.092,8.061-0.185,12.349-0.185l0,0c15.857,0.005,33.815,1.237,50.956,8.643
					l0,0c17.15,7.388,33.324,21.086,45.26,45.195l0,0c13.317,26.88,16.59,59.349,16.605,85.563l0,0
					c-0.002,27.345-3.627,47.898-3.648,48.029l0,0l-0.133,0.753l-0.442,0.631c-0.191,0.268-9.104,12.874-28.851,25.453l0,0
					c-19.73,12.574-50.319,25.069-93.514,25.069l0,0C487.172,322.633,487.157,322.633,487.146,322.633L487.146,322.633z
					 M382.291,277.203c0.742,1.04,1.919,2.564,3.601,4.419l0,0c3.368,3.706,8.757,8.717,16.762,13.761l0,0
					c16.015,10.08,42.511,20.35,84.494,20.356l0,0c77.747-0.018,112.079-41.542,116.32-47.009l0,0
					c0.095-0.587,0.236-1.494,0.411-2.702l0,0c0.333-2.297,0.777-5.646,1.222-9.837l0,0c0.89-8.383,1.777-20.124,1.777-33.493l0,0
					c0.018-25.629-3.318-57.235-15.887-82.5l0,0c-11.36-22.826-26.069-35.09-41.82-41.932l0,0
					c-15.758-6.822-32.718-8.085-48.222-8.078l0,0c-4.188-0.001-8.268,0.091-12.188,0.182l0,0
					c-16.307,0.373-38.26,2.109-58.378,9.972l0,0c-20.137,7.898-38.322,21.634-48.107,46.483l0,0
					c-7.654,19.492-10.253,39.324-10.253,57.889l0,0c-0.001,29.131,6.399,54.993,9.546,71.43l0,0
					C381.732,276.397,381.971,276.754,382.291,277.203L382.291,277.203z"/>
			</g>
			<g>
				<path d="M599.086,148.984c0-0.002,0.011-0.007,0.076-0.039l0,0c0.066-0.032,0.171-0.087,0.312-0.161l0,0
					c0.278-0.148,0.696-0.376,1.219-0.682l0,0c1.05-0.61,2.521-1.529,4.147-2.729l0,0c3.262-2.395,7.115-5.924,9.541-10.158l0,0
					c1.626-2.831,2.643-5.922,2.645-9.357l0,0c-0.004-2.898-0.717-6.098-2.619-9.735l0,0c-2.132-4.058-5.53-7.001-9.631-8.985l0,0
					c-4.087-1.981-8.853-2.937-13.326-2.931l0,0c-3.668-0.006-7.135,0.643-9.802,1.742l0,0c-2.69,1.097-4.47,2.616-5.227,4.069l0,0
					l-6.076-3.254c1.834-3.386,5.025-5.681,8.687-7.193l0,0c3.686-1.504,7.959-2.251,12.418-2.257l0,0
					c5.429,0.006,11.145,1.118,16.324,3.615l0,0c5.166,2.488,9.821,6.43,12.737,11.992l0,0c2.363,4.495,3.411,8.869,3.407,12.937
					l0,0c0.002,4.836-1.467,9.159-3.565,12.799l0,0c-2.104,3.646-4.832,6.656-7.509,9.075l0,0
					c-5.362,4.832-10.566,7.356-10.74,7.449l0,0L599.086,148.984L599.086,148.984z"/>
			</g>
			<g>
				<path d="M357.334,153.638c-4.53-4.931-7.875-12.144-7.854-21.521l0,0c0-2.463,0.223-5.071,0.698-7.831l0,0
					c1.201-7.178,5.257-12.464,10.412-15.57l0,0c5.154-3.14,11.266-4.343,17.214-4.35l0,0c9.287,0.078,18.225,2.771,23.408,7.697
					l0,0l-4.822,4.923c-2.873-2.965-10.809-5.808-18.586-5.728l0,0c-5.009-0.011-9.934,1.068-13.617,3.337l0,0
					c-3.682,2.299-6.26,5.546-7.217,10.863l0,0c-0.413,2.398-0.6,4.613-0.6,6.658l0,0c0.021,7.773,2.614,13.074,6.055,16.876l0,0
					c3.435,3.783,7.888,5.983,11.341,6.839l0,0l-1.671,6.686C367.417,161.339,361.868,158.587,357.334,153.638L357.334,153.638z"/>
			</g>
			<g>
				<path d="M387.688,128.515c-3.258-2.492-10.156-3.066-13.223,0c-3.066,3.065-4.025,8.623,4.791,13.03"/>
			</g>
			<g>
				<circle cx="421.224" cy="146.145" r="12.073"/>
			</g>
			<g>
				<circle fill="#FFFFFF" cx="427.356" cy="148.636" r="4.024"/>
			</g>
			<g>
				<circle cx="513.207" cy="142.887" r="12.072"/>
			</g>
			<g>
				<circle fill="#FFFFFF" cx="519.339" cy="145.378" r="4.024"/>
			</g>
			<g>
				<path d="M586.22,122.765c2.875-3.832,10.54-4.216,13.606,0.192c3.066,4.407-1.726,9.772-4.791,12.455L586.22,122.765z"/>
			</g>
			<g>
				<path d="M531.029,176.613c-10.655,0.01-19.068-3.288-25.19-8.959l0,0c-6.129-5.666-9.936-13.606-11.764-22.742l0,0
					c-0.415-2.072-0.615-4.161-0.615-6.24l0,0c0.002-8.998,3.742-17.796,10.164-24.365l0,0c6.42-6.57,15.566-10.904,26.301-10.9l0,0
					c0.19,0,0.374,0.001,0.55,0.004l0,0c14.12,0.18,23.988,4.583,30.199,11.782l0,0c6.209,7.192,8.684,16.944,8.684,27.565l0,0
					c0,0.237,0,0.477-0.003,0.718l0,0l-1.531-0.015l1.531,0.016c-0.195,19.333-16.944,33.139-38.204,33.137l0,0
					C531.112,176.613,531.068,176.613,531.029,176.613L531.029,176.613z M505.814,116.449c-5.887,6.014-9.295,14.081-9.293,22.223
					l0,0c0,1.882,0.182,3.769,0.558,5.64l0,0c1.737,8.683,5.305,15.979,10.839,21.092l0,0c5.539,5.108,13.069,8.136,23.111,8.146
					l0,0c20.076-0.052,35.077-12.676,35.262-30.104l0,0l0,0c0.003-0.228,0.003-0.457,0.003-0.688l0,0
					c0-10.173-2.378-19.139-7.938-25.562l0,0c-5.559-6.415-14.377-10.522-27.926-10.723l0,0c-0.174-0.004-0.341-0.005-0.505-0.005
					l0,0C520.023,106.471,511.703,110.435,505.814,116.449L505.814,116.449z"/>
			</g>
			<g>
				<path d="M440.578,179.872c-10.597,0.003-19.15-2.713-25.425-8.056l0,0c-6.279-5.339-10.164-13.206-11.73-23.131l0,0
					c-0.281-1.775-0.419-3.561-0.419-5.345l0,0c0.003-9.212,3.639-18.35,10.013-25.22l0,0c6.37-6.871,15.541-11.462,26.466-11.456
					l0,0c0.187,0,0.368,0.001,0.541,0.006l0,0c14.121,0.177,23.988,4.58,30.199,11.78l0,0c6.211,7.191,8.683,16.943,8.683,27.567
					l0,0c0,0.234,0,0.473-0.001,0.716l0,0l-1.533-0.016l1.533,0.018c-0.198,19.331-16.945,33.137-38.205,33.136l0,0
					C440.66,179.872,440.617,179.872,440.578,179.872L440.578,179.872z M415.26,120.205c-5.851,6.298-9.197,14.732-9.195,23.136l0,0
					c0,1.628,0.127,3.252,0.383,4.863l0,0c1.5,9.429,5.087,16.509,10.689,21.279l0,0c5.606,4.766,13.343,7.319,23.441,7.323l0,0
					c20.076-0.052,35.074-12.675,35.262-30.104l0,0l0,0c0.004-0.227,0.004-0.457,0.004-0.685l0,0c0-10.175-2.38-19.144-7.939-25.564
					l0,0c-5.558-6.416-14.376-10.521-27.928-10.722l0,0c-0.168-0.003-0.334-0.005-0.494-0.005l0,0
					C429.424,109.732,421.118,113.906,415.26,120.205L415.26,120.205z"/>
			</g>
			<g>
				<path d="M473.506,224.267c-1.053-1.616-1.643-3.668-2.052-6.055l0,0c-0.796-4.763-0.786-10.93-0.788-17.262l0,0h3.062
					c0,4.742,0.003,9.349,0.32,13.195l0,0c0.297,3.84,0.99,6.928,2.016,8.439l0,0c0.709,1.006,1.256,1.33,2.267,1.362l0,0
					c4.116,0.003,6.233-0.884,7.265-1.862l0,0c1.031-0.966,1.351-2.252,1.359-3.888l0,0c0-3.641,0-22.229,0-22.229l0,0h3.062
					c0,0.022,0,18.589,0,22.229l0,0c0.012,2.005-0.439,4.362-2.33,6.125l0,0c-1.89,1.752-4.854,2.688-9.356,2.688l0,0
					c-0.03,0.001-0.062,0.001-0.091,0.001l0,0C476.223,227.012,474.508,225.861,473.506,224.267L473.506,224.267z"/>
			</g>
			<g>
				<path d="M496.345,226.437c-2.805,0.004-5.169-0.875-6.829-2.388l0,0c-1.662-1.507-2.567-3.628-2.561-5.852l0,0l0,0h3.062
					c0.006,1.418,0.54,2.649,1.561,3.586l0,0c1.022,0.93,2.584,1.586,4.767,1.591l0,0c2.187-0.009,3.782-0.65,4.886-1.786l0,0
					c1.102-1.139,1.816-2.901,1.821-5.498l0,0c0-5.75,0-14.168,0.001-14.182l0,0h3.063c-0.001,0.014-0.001,8.434,0,14.182l0,0
					c0.005,3.151-0.908,5.798-2.684,7.628l0,0c-1.763,1.827-4.272,2.719-7.05,2.719l0,0
					C496.369,226.437,496.357,226.437,496.345,226.437L496.345,226.437z"/>
			</g>
			<g>
				<path d="M497.754,201.744c-1.633-0.957-2.88-1.955-5.048-2.821l0,0c-1.815-0.727-2.94-1.004-4.033-1.004l0,0
					c-2.211-0.056-5.237,1.4-13.281,4.284l0,0c-2.219,0.784-4.339,1.147-6.308,1.147l0,0c-3.656,0.001-6.791-1.257-9.005-3.28l0,0
					c-2.214-2.02-3.511-4.809-3.509-7.755l0,0c-0.002-1.644,0.403-3.325,1.239-4.914l0,0c2.362-4.401,7.707-7.96,13.563-10.649l0,0
					c5.879-2.656,12.246-4.338,16.922-4.353l0,0v1.532v1.53c-3.949-0.014-10.132,1.562-15.657,4.078l0,0
					c-5.545,2.487-10.452,6.018-12.116,9.284l0,0c-0.613,1.169-0.888,2.347-0.889,3.491l0,0c0.008,4.061,3.539,7.939,9.451,7.972
					l0,0c1.596,0,3.365-0.293,5.283-0.972l0,0c7.948-2.79,10.846-4.405,14.306-4.46l0,0c1.661,0,3.228,0.443,5.175,1.225l0,0
					c2.552,1.021,4.088,2.234,5.445,3.016l0,0c1.369,0.776,2.547,1.274,5.103,1.294l0,0c1.11,0,2.472-0.112,4.167-0.376l0,0
					c2.947-0.469,4.68-1.516,5.732-2.764l0,0c1.051-1.254,1.502-2.829,1.506-4.607l0,0c0.003-1.855-0.522-3.882-1.308-5.628l0,0
					c-0.879-2.116-4.699-5.26-9.675-7.553l0,0c-4.971-2.34-11.08-4.005-16.523-4l0,0v-1.53v-1.532
					c6.055,0.006,12.496,1.79,17.824,4.29l0,0c5.326,2.546,9.556,5.63,11.168,9.072l0,0c0.928,2.074,1.572,4.465,1.576,6.881l0,0
					c0.005,2.293-0.607,4.656-2.221,6.576l0,0c-1.609,1.923-4.145,3.284-7.607,3.822l0,0c-1.811,0.279-3.323,0.411-4.64,0.413l0,0
					c-0.038,0-0.075,0-0.112,0l0,0C501.346,203.454,499.354,202.694,497.754,201.744L497.754,201.744z"/>
			</g>
			<g>
				<path d="M488.295,183.513c6.516,0,14.181-6.324,14.947-10.54c0.768-4.216-7.473-8.241-15.139-8.241
					c-7.664,0-17.822,4.024-15.714,10.733C474.498,182.171,482.929,183.513,488.295,183.513z"/>
			</g>
		</g>
	</g>
</g>
</svg>
