<?xml version="1.0" encoding="utf-8"?>
<!-- Generator: Adobe Illustrator 16.0.4, SVG Export Plug-In . SVG Version: 6.00 Build 0)  -->
<!DOCTYPE svg PUBLIC "-//W3C//DTD SVG 1.1//EN" "http://www.w3.org/Graphics/SVG/1.1/DTD/svg11.dtd">
<svg version="1.1" id="Layer_1" xmlns="http://www.w3.org/2000/svg" xmlns:xlink="http://www.w3.org/1999/xlink" x="0px" y="0px"
	 width="108.339px" height="107.836px" viewBox="147.836 73.082 108.339 107.836"
	 enable-background="new 147.836 73.082 108.339 107.836" xml:space="preserve">
<g>
	<g>
		<path fill="#FF8E4A" d="M201.738,139.59h-9.535l-3.518,9.072c-1.279,3.293-2.638,4.244-6.636,4.244h-6.315v-8.121h1.279
			c1.36,0,1.999-0.293,2.479-1.609l16.869-42.217h5.378V73.082h-0.962v0.029l-52.941,27.205v25.859h0.002v1.374h-0.002v0.001v25.86
			l52.941,27.508h1.633v-0.002h-0.67V139.59H201.738z"/>
		<path fill="#F48746" d="M248.793,120.969c0.123,0.141,0.253,0.282,0.386,0.424C249.046,121.251,248.916,121.109,248.793,120.969z"
			/>
		<path fill="#F48746" d="M247.996,119.975c0.217,0.295,0.455,0.595,0.717,0.899C248.452,120.57,248.213,120.27,247.996,119.975z"/>
		<path fill="#F48746" d="M251.779,123.717c0.092,0.07,0.191,0.14,0.287,0.21C251.971,123.857,251.872,123.787,251.779,123.717z"/>
		<path fill="#F48746" d="M250.552,122.717c0.12,0.105,0.241,0.209,0.367,0.314C250.794,122.926,250.672,122.821,250.552,122.717z"
			/>
		<path fill="#F48746" d="M246.589,117.559c0.303,0.704,0.73,1.478,1.322,2.3C247.321,119.039,246.895,118.264,246.589,117.559z"/>
		<path fill="#F48746" d="M246.054,115.98c0.012,0.052,0.028,0.108,0.042,0.162C246.083,116.088,246.067,116.033,246.054,115.98z"/>
		<path fill="#F48746" d="M246.177,116.429c0.1,0.341,0.231,0.707,0.397,1.097C246.408,117.137,246.279,116.771,246.177,116.429z"/>
		<path fill="#F48746" d="M250.043,122.254c-0.191-0.179-0.375-0.358-0.55-0.536C249.668,121.896,249.851,122.075,250.043,122.254z"
			/>
		<path fill="#F48746" d="M252.952,124.549c0.09,0.061,0.177,0.122,0.27,0.182C253.129,124.671,253.042,124.61,252.952,124.549z"/>
		<path fill="#F48746" d="M254.44,125.488c0.098,0.058,0.198,0.115,0.298,0.173C254.639,125.604,254.538,125.546,254.44,125.488z"/>
		<g>
			<path fill="#F48746" d="M256.178,100.592v-0.275l-53.487-27.235h-0.419h-0.534v27.877h0.534h5.041l16.789,42.217
				c0.479,1.316,1.119,1.609,2.478,1.609h1.279v8.121h-6.236c-3.998,0-5.436-0.951-6.715-4.244l-3.518-9.072h-8.981v41.326h0.283
				l0.135,0.002l53.35-27.508V131.4l-10.326,5.229v-10.176v-11.704c-0.048-0.583-0.002-0.927,0-0.95
				c0.004-0.064-0.027-0.447-0.021-0.869C245.79,111.529,246.268,105.705,256.178,100.592z"/>
			<rect x="201.738" y="139.59" fill="#F48746" width="0.67" height="41.326"/>
		</g>
		<path fill="#FF8E4A" d="M204.115,118.664c-0.669-1.838-1.404-4.521-1.843-6.201v0.001c-0.242-0.928-0.396-1.555-0.396-1.555
			h-0.138h-0.022c0,0-1.2,4.903-2.239,7.756l-4.876,13.024h7.137h0.534h6.719L204.115,118.664z"/>
		<path fill="#D4763C" d="M254.44,125.488c-0.426-0.251-0.834-0.504-1.219-0.757c-0.093-0.061-0.179-0.121-0.27-0.182
			c-0.308-0.208-0.604-0.415-0.885-0.623c-0.096-0.07-0.195-0.14-0.287-0.21c-0.303-0.229-0.587-0.458-0.86-0.686
			c-0.126-0.105-0.247-0.209-0.367-0.314c-0.177-0.155-0.346-0.309-0.509-0.462c-0.192-0.18-0.375-0.358-0.55-0.536
			c-0.107-0.109-0.213-0.218-0.314-0.326c-0.133-0.142-0.264-0.284-0.386-0.424c-0.028-0.032-0.052-0.063-0.08-0.095
			c-0.262-0.305-0.5-0.604-0.717-0.899c-0.029-0.039-0.057-0.078-0.085-0.116c-0.591-0.822-1.019-1.596-1.322-2.3
			c-0.005-0.011-0.01-0.022-0.015-0.033c-0.166-0.39-0.297-0.756-0.397-1.097c-0.029-0.098-0.056-0.194-0.081-0.288
			c-0.014-0.054-0.03-0.109-0.042-0.162c-0.117-0.48-0.177-0.896-0.205-1.231v11.704v10.176l10.326-5.229v-3.851v-0.001v-1.097
			v-0.003c-0.506-0.261-0.979-0.524-1.437-0.789C254.639,125.604,254.538,125.546,254.44,125.488z"/>
		<path fill="#FF8E4A" d="M245.828,112.929c-0.006,0.422,0.025,0.805,0.021,0.869c-0.002,0.023-0.048,0.367,0,0.95v-0.132
			c-0.013-0.252-0.008-0.445,0-0.575v-0.187h0.018c0,0-0.01,0.065-0.018,0.187v0.575c0.018,0.351,0.074,0.815,0.205,1.363
			c0.013,0.053,0.028,0.108,0.042,0.162c0.024,0.093,0.052,0.19,0.081,0.288c0.102,0.342,0.23,0.708,0.397,1.097
			c0.005,0.011,0.01,0.022,0.015,0.033c0.305,0.705,0.732,1.48,1.322,2.3c0.028,0.039,0.056,0.077,0.085,0.116
			c0.217,0.295,0.456,0.595,0.717,0.899c0.027,0.032,0.052,0.063,0.08,0.095c0.123,0.14,0.253,0.282,0.386,0.424
			c0.101,0.108,0.207,0.217,0.314,0.326c0.175,0.178,0.358,0.356,0.55,0.536c0.164,0.154,0.333,0.308,0.509,0.462
			c0.12,0.104,0.242,0.209,0.367,0.314c0.273,0.228,0.557,0.457,0.86,0.686c0.092,0.07,0.192,0.14,0.287,0.21
			c0.282,0.208,0.577,0.415,0.885,0.623c0.09,0.061,0.177,0.122,0.27,0.182c0.385,0.253,0.793,0.505,1.219,0.757
			c0.098,0.058,0.198,0.115,0.298,0.173c0.458,0.264,0.931,0.527,1.437,0.789v-0.274v-0.001V113.8v-0.003v-0.55v-1.393v-11.262
			C246.266,105.705,245.788,111.528,245.828,112.929z"/>
		<path fill="#FF8E4A" d="M246.097,116.142c0.024,0.094,0.051,0.189,0.081,0.288C246.148,116.332,246.121,116.235,246.097,116.142z"
			/>
		<path fill="#FF8E4A" d="M245.85,114.617v-0.575C245.842,114.171,245.837,114.365,245.85,114.617z"/>
		<path fill="#FF8E4A" d="M250.043,122.254c0.164,0.154,0.333,0.308,0.509,0.462C250.375,122.562,250.207,122.408,250.043,122.254z"
			/>
		<path fill="#FF8E4A" d="M252.066,123.927c0.282,0.208,0.577,0.415,0.885,0.623C252.643,124.342,252.349,124.134,252.066,123.927z"
			/>
		<path fill="#FF8E4A" d="M256.176,126.45c-0.506-0.261-0.979-0.524-1.437-0.789C255.197,125.925,255.67,126.188,256.176,126.45z"/>
		<path fill="#FF8E4A" d="M249.179,121.393c0.101,0.108,0.207,0.217,0.314,0.326C249.386,121.61,249.28,121.501,249.179,121.393z"/>
		<path fill="#FF8E4A" d="M253.221,124.731c0.385,0.253,0.793,0.505,1.219,0.757C254.014,125.237,253.606,124.984,253.221,124.731z"
			/>
		<path fill="#FF8E4A" d="M250.919,123.031c0.273,0.228,0.557,0.457,0.86,0.686C251.476,123.488,251.192,123.259,250.919,123.031z"
			/>
		<path fill="#FF8E4A" d="M245.85,113.855v0.187c0.008-0.121,0.018-0.187,0.018-0.187H245.85z"/>
		<path fill="#FF8E4A" d="M245.85,114.617v0.132c0.028,0.336,0.087,0.751,0.205,1.231
			C245.923,115.432,245.868,114.968,245.85,114.617z"/>
		<path fill="#FF8E4A" d="M248.713,120.874c0.027,0.032,0.052,0.063,0.08,0.095C248.765,120.937,248.741,120.906,248.713,120.874z"
			/>
		<path fill="#FF8E4A" d="M247.911,119.858c0.028,0.039,0.056,0.077,0.085,0.116C247.967,119.936,247.939,119.897,247.911,119.858z"
			/>
		<path fill="#FF8E4A" d="M246.575,117.526c0.005,0.011,0.01,0.022,0.015,0.033C246.584,117.548,246.58,117.537,246.575,117.526z"/>
	</g>
</g>
</svg>
